<?xml version="1.0" encoding="utf-8"?>
<!-- Generator: Adobe Illustrator 23.0.3, SVG Export Plug-In . SVG Version: 6.00 Build 0)  -->
<svg version="1.1" xmlns="http://www.w3.org/2000/svg" xmlns:xlink="http://www.w3.org/1999/xlink" x="0px" y="0px"
	 viewBox="0 0 500 500" style="enable-background:new 0 0 500 500;" xml:space="preserve">
<style type="text/css">
	.st0{fill:#EBEBEB;}
	.st1{fill:#E0E0E0;}
	.st2{fill:#F5F5F5;}
	.st3{fill:#FFFFFF;}
	.st4{fill:#F0F0F0;}
	.st5{fill:#E6E6E6;}
	.st6{display:none;}
	.st7{display:inline;}
	.st8{fill:#407BFF;}
	.st9{opacity:0.9;fill:#FFFFFF;}
	.st10{fill:#263238;}
	.st11{opacity:0.3;}
	.st12{fill:#FFC3BD;}
	.st13{fill:#ED847E;}
	.st14{opacity:0.1;fill:#FFFFFF;}
	.st15{opacity:0.4;fill:#263238;}
	.st16{opacity:0.2;fill:#FFFFFF;}
	.st17{opacity:0.2;fill:#407BFF;}
	.st18{opacity:0.5;fill:#FFFFFF;}
</style>
<g id="Background_Complete">
	<g>
		<rect y="382.4" class="st0" width="500" height="0.25"/>
		<rect x="104.54" y="389.21" class="st0" width="33.12" height="0.25"/>
		<rect x="171.14" y="398.37" class="st0" width="40.75" height="0.25"/>
		<rect x="52.46" y="395.24" class="st0" width="51.08" height="0.25"/>
		<rect x="356.76" y="390.89" class="st0" width="93.14" height="0.25"/>
		<rect x="341.53" y="390.89" class="st0" width="6.33" height="0.25"/>
		<rect x="277.21" y="395.11" class="st0" width="42.23" height="0.25"/>
		<path class="st0" d="M237.01,337.8H43.92c-3.15,0-5.71-2.56-5.71-5.71V60.66c0-3.15,2.56-5.71,5.71-5.71h193.1
			c3.15,0,5.71,2.56,5.71,5.71v271.43C242.72,335.24,240.16,337.8,237.01,337.8z M43.92,55.2c-3.01,0-5.46,2.45-5.46,5.46v271.43
			c0,3.01,2.45,5.46,5.46,5.46h193.1c3.01,0,5.46-2.45,5.46-5.46V60.66c0-3.01-2.45-5.46-5.46-5.46H43.92z"/>
		<path class="st0" d="M453.31,337.8h-193.1c-3.15,0-5.71-2.56-5.71-5.71V60.66c0-3.15,2.56-5.71,5.71-5.71h193.1
			c3.15,0,5.71,2.56,5.71,5.71v271.43C459.02,335.24,456.46,337.8,453.31,337.8z M260.21,55.2c-3.01,0-5.46,2.45-5.46,5.46v271.43
			c0,3.01,2.45,5.46,5.46,5.46h193.1c3.01,0,5.46-2.45,5.46-5.46V60.66c0-3.01-2.45-5.46-5.46-5.46H260.21z"/>
	</g>
	<g>
		<g>
			<g>
				<g>
					<rect x="363.45" y="127.84" class="st1" width="64.26" height="102.23"/>
					<rect x="365.14" y="127.84" class="st2" width="66.45" height="102.23"/>
					
						<rect x="354.7" y="151.3" transform="matrix(6.123234e-17 -1 1 6.123234e-17 219.407 577.3216)" class="st3" width="87.32" height="55.31"/>
				</g>
			</g>
		</g>
		<g>
			<g>
				<g>
					<rect x="353.2" y="276.38" class="st4" width="18.52" height="103.04"/>
					<rect x="356.76" y="379.42" class="st4" width="81.52" height="2.98"/>
					
						<rect x="371.72" y="276.38" transform="matrix(-1 -1.224647e-16 1.224647e-16 -1 813.5538 655.8041)" class="st2" width="70.12" height="103.04"/>
					<path class="st0" d="M433.55,283.16v41.44H380v-41.44h4.62c0.56,4.25,4.24,7.57,8.63,7.57h27.05c4.39,0,8.08-3.32,8.64-7.57
						H433.55 M434.55,282.16h-6.54c-0.07,4.19-3.49,7.57-7.71,7.57h-27.05c-4.21,0-7.63-3.38-7.7-7.57H379v43.44h55.55V282.16
						L434.55,282.16z"/>
					<path class="st0" d="M433.55,331.2v41.44H380V331.2h4.62c0.57,4.25,4.25,7.57,8.63,7.57h27.05c4.38,0,8.07-3.32,8.64-7.57
						H433.55 M434.55,330.2h-6.54c-0.08,4.2-3.5,7.57-7.71,7.57h-27.05c-4.2,0-7.62-3.37-7.7-7.57H379v43.44h55.55V330.2
						L434.55,330.2z"/>
				</g>
			</g>
			<g>
				<g>
					<rect x="277.59" y="276.38" class="st4" width="18.52" height="103.04"/>
					<rect x="281.15" y="379.42" class="st4" width="81.52" height="2.98"/>
					
						<rect x="296.11" y="276.38" transform="matrix(-1 -1.224647e-16 1.224647e-16 -1 662.33 655.8041)" class="st2" width="70.12" height="103.04"/>
					<path class="st0" d="M357.94,283.16v41.44h-53.55v-41.44H309c0.56,4.25,4.25,7.57,8.64,7.57h27.05c4.39,0,8.08-3.32,8.64-7.57
						H357.94 M358.94,282.16h-6.54c-0.07,4.19-3.49,7.57-7.71,7.57h-27.05c-4.22,0-7.64-3.38-7.71-7.57h-6.54v43.44h55.55V282.16
						L358.94,282.16z"/>
					<path class="st0" d="M357.94,331.2v41.44h-53.55V331.2H309c0.57,4.25,4.25,7.57,8.64,7.57h27.05c4.38,0,8.07-3.32,8.64-7.57
						H357.94 M358.94,330.2h-6.54c-0.08,4.2-3.5,7.57-7.71,7.57h-27.05c-4.21,0-7.63-3.37-7.71-7.57h-6.54v43.44h55.55V330.2
						L358.94,330.2z"/>
				</g>
			</g>
		</g>
		<g>
			<rect x="216.77" y="275.41" class="st5" width="9.61" height="106.98"/>
			<rect x="222.74" y="275.41" class="st4" width="6.67" height="106.98"/>
			
				<rect x="136.4" y="275.41" transform="matrix(-1 -1.224647e-16 1.224647e-16 -1 365.8095 562.6362)" class="st4" width="93.02" height="11.81"/>
			<rect x="130.07" y="287.22" class="st5" width="9.61" height="95.17"/>
			<rect x="136.04" y="287.22" class="st4" width="6.67" height="95.17"/>
			<rect x="61.67" y="287.22" class="st5" width="9.61" height="95.17"/>
			<rect x="67.64" y="287.22" class="st4" width="6.67" height="95.17"/>
			<rect x="155.95" y="287.22" class="st5" width="9.61" height="95.17"/>
			<rect x="161.92" y="287.22" class="st4" width="6.67" height="95.17"/>
			<rect x="61.67" y="275.41" class="st5" width="74.73" height="11.81"/>
		</g>
		<g>
			<g>
				<rect x="74.47" y="79.41" class="st1" width="234.33" height="130.46"/>
				<rect x="75.65" y="79.41" class="st2" width="246.02" height="130.46"/>
				
					<rect x="137.45" y="25.65" transform="matrix(-1.836970e-16 1 -1 -1.836970e-16 343.3029 -54.0202)" class="st3" width="122.42" height="237.98"/>
				<polygon class="st2" points="176.03,205.85 220.96,83.43 146.81,83.43 101.88,205.85 				"/>
				<polygon class="st2" points="247.4,205.85 292.33,83.43 236.4,83.43 191.47,205.85 				"/>
			</g>
		</g>
		<g>
			<polygon class="st5" points="84.6,252.15 84.6,254.78 86.28,254.78 87.67,275.41 108.17,275.41 109.56,254.78 111.24,254.78 
				111.24,252.15 			"/>
			<path class="st5" d="M90.64,201.19c-0.33-11.53,10.59-12.89,24.92-10.79c13.64,2,17.17-3.99,17.17-3.99s3.41,27.39-15.07,33.84
				C100.11,226.37,90.96,212.74,90.64,201.19z"/>
			<path class="st5" d="M97.81,218.07c-2.73-4.02-11.08-7.81-17.7,5.14c-4.79,9.36-10.84,5.86-10.84,5.86s11.01,16.41,23.68,11.27
				C104.97,235.45,102.6,225.15,97.81,218.07z"/>
			<path class="st5" d="M101.2,236.92c0.66-3.29,4.98-7.93,12.65-1.44c5.55,4.69,8.47,0.85,8.47,0.85s-2.65,13.4-12.09,13.49
				C101.27,249.91,100.03,242.7,101.2,236.92z"/>
			<path class="st5" d="M97.15,259.89c-0.21,0-0.42-0.09-0.57-0.27c-1.41-1.66-0.26-5.65,1.34-11.16
				c2.05-7.08,4.59-15.88,2.43-22.28c-1.22-3.61-2.72-6.79-4.18-9.87c-3.05-6.45-5.68-12.01-3.48-17.83
				c0.15-0.39,0.58-0.58,0.97-0.44c0.39,0.15,0.58,0.58,0.44,0.97c-1.97,5.22,0.42,10.27,3.44,16.66c1.41,2.97,3,6.34,4.24,10.03
				c2.31,6.84-0.31,15.9-2.42,23.17c-1.24,4.29-2.52,8.73-1.63,9.78c0.27,0.32,0.23,0.79-0.09,1.06
				C97.49,259.84,97.32,259.89,97.15,259.89z"/>
		</g>
	</g>
</g>
<g id="Background_Simple" class="st6">
	<g class="st7">
		<path class="st8" d="M252.43,167.88c8.84-0.01,17-1.74,25.29-2.55c12.94-1.26,27.46-0.47,42.07,2.3
			c18.76,3.56,40.41,11.74,58.23,29.34c14.57,14.39,23.44,32.18,27.96,48.56c5.12,18.53,5.42,35.99,2.82,51.24
			c-2.15,12.57-6.36,24.09-13.31,33.02c-31.24,36.5-153.74,24.09-185.2,11.39C110.21,309.68,53.77,173.92,71.22,118.94
			c6.17-19.44,23.25-32.16,47.39-29.12c19.26,2.42,42.03,14.71,60.54,31.57c18.93,17.24,34.55,37.65,57.08,44.24
			C241.96,167.31,247.31,167.88,252.43,167.88z"/>
		<path class="st9" d="M252.43,167.88c8.84-0.01,17-1.74,25.29-2.55c12.94-1.26,27.46-0.47,42.07,2.3
			c18.76,3.56,40.41,11.74,58.23,29.34c14.57,14.39,23.44,32.18,27.96,48.56c5.12,18.53,5.42,35.99,2.82,51.24
			c-2.15,12.57-6.36,24.09-13.31,33.02c-31.24,36.5-153.74,24.09-185.2,11.39C110.21,309.68,53.77,173.92,71.22,118.94
			c6.17-19.44,23.25-32.16,47.39-29.12c19.26,2.42,42.03,14.71,60.54,31.57c18.93,17.24,34.55,37.65,57.08,44.24
			C241.96,167.31,247.31,167.88,252.43,167.88z"/>
	</g>
</g>
<g id="Shadow_1_">
	<ellipse id="_x3C_Path_x3E__290_" class="st2" cx="250" cy="416.24" rx="193.89" ry="11.32"/>
</g>
<g id="Character_1_">
	<g>
		<path class="st8" d="M158.88,408.54c0.98,0.33,1.97,0.51,2.43,0.18c0.16-0.12,0.34-0.35,0.25-0.8c-0.05-0.25-0.2-0.46-0.43-0.62
			c-1.16-0.77-4.32-0.15-4.46-0.12c-0.08,0.02-0.14,0.08-0.15,0.16c-0.01,0.08,0.03,0.16,0.09,0.2
			C157.07,407.8,157.97,408.23,158.88,408.54z M160.58,407.46c0.13,0.04,0.24,0.1,0.34,0.16c0.15,0.1,0.24,0.22,0.27,0.37
			c0.05,0.27-0.03,0.36-0.1,0.41c-0.52,0.37-2.45-0.26-3.8-0.94C158.12,407.34,159.69,407.16,160.58,407.46z"/>
		<path class="st8" d="M156.65,407.55c0.03,0.01,0.05,0.01,0.08,0.01c1.06-0.1,3.43-1.14,3.57-2.06c0.03-0.21-0.03-0.52-0.51-0.73
			c-0.36-0.16-0.73-0.17-1.1-0.03c-1.23,0.47-2.12,2.46-2.15,2.55c-0.03,0.06-0.02,0.13,0.02,0.19
			C156.58,407.51,156.61,407.54,156.65,407.55z M159.53,405.08c0.04,0.01,0.07,0.03,0.11,0.04c0.31,0.14,0.29,0.28,0.29,0.32
			c-0.09,0.55-1.75,1.43-2.88,1.68c0.3-0.57,0.97-1.71,1.78-2.02C159.07,405.01,159.3,405,159.53,405.08z"/>
		<path class="st10" d="M155.79,407.08H147c-0.33,0-0.59,0.23-0.62,0.55l-0.7,7.16c-0.07,0.74,0.58,1.45,1.34,1.43
			c3.17-0.05,7.73-0.24,11.71-0.24c4.66,0,5,0.25,10.46,0.25c3.31,0,3.81-3.34,2.38-3.64c-6.47-1.38-7.91-1.53-13.77-4.88
			C157.17,407.35,156.48,407.08,155.79,407.08z"/>
		<path class="st8" d="M115.9,409.02c1.03,0,2.05-0.14,2.46-0.61c0.14-0.16,0.27-0.44,0.11-0.83c-0.09-0.22-0.28-0.37-0.54-0.45
			c-1.29-0.36-4.34,1.24-4.47,1.31c-0.07,0.04-0.12,0.12-0.12,0.2c0,0.08,0.05,0.14,0.13,0.16
			C113.96,408.89,114.94,409.02,115.9,409.02z M117.4,407.46c0.13,0,0.26,0.01,0.36,0.04c0.17,0.05,0.28,0.14,0.33,0.27
			c0.1,0.24,0.03,0.35-0.03,0.42c-0.45,0.52-2.49,0.53-3.95,0.32C114.93,408.13,116.46,407.46,117.4,407.46z"/>
		<path class="st8" d="M113.5,408.79c0.03,0,0.05-0.01,0.08-0.02c1.04-0.44,3.22-2.18,3.2-3.09c0-0.21-0.12-0.48-0.63-0.53
			c-0.39-0.04-0.76,0.07-1.11,0.33c-1.15,0.84-1.68,3.01-1.71,3.1c-0.02,0.07,0,0.13,0.05,0.17
			C113.42,408.78,113.46,408.79,113.5,408.79z M115.94,405.53c0.04,0,0.08,0,0.11,0.01c0.34,0.03,0.34,0.17,0.34,0.21
			c0.01,0.55-1.5,1.91-2.58,2.51c0.2-0.63,0.67-1.93,1.43-2.48C115.47,405.61,115.7,405.53,115.94,405.53z"/>
		<path class="st10" d="M110.89,407.08h-8.79c-0.33,0-0.62,0.23-0.7,0.55l-1.8,7.16c-0.19,0.74,0.36,1.45,1.12,1.43
			c3.17-0.05,7.76-0.24,11.75-0.24c4.66,0,2.82,0.25,8.29,0.25c3.31,0,4.32-3.34,2.95-3.64c-6.26-1.38-5.54-1.53-10.89-4.88
			C112.23,407.35,111.59,407.08,110.89,407.08z"/>
		<path class="st8" d="M149.84,203.2c0,0-9.34,61.85-12.96,84.81c-3.35,21.26-17.07,90.73-21.54,112.2
			c-0.31,1.47-0.38,2.84-1.18,3.98c1.06,1.37,0.22,4.22,0.22,4.22l-14.04,1.42c0,0-1.36-1.43-1.01-3.99
			c0.14-1.01,1.46-2.89,1.73-6.17c1.79-21.66,9.75-80.98,11.77-109.81c1.9-27.04,9.22-86.66,9.22-86.66H149.84z"/>
		<path class="st11" d="M141.88,234c-9.33,6.67-6.87,34.93-5.3,55.89c0.1-0.66,0.21-1.29,0.3-1.89c1.97-12.54,5.65-36.69,8.59-56.03
			C144.96,231.82,142.36,233.66,141.88,234z"/>
		<path class="st8" d="M165.12,203.2c0,0-0.6,60.2-1.29,84.76c-0.62,21.72-0.67,92.62-5.11,112.82c-0.45,2.06,0.6,2.46,0.4,3.28
			c-0.07,0.31-0.13,0.6-0.16,0.86c-0.14,1.13-1.01,2.02-2.11,2.27l-10.26,2.32c-0.9,0.2-1.82-0.33-2.06-1.23
			c-0.23-0.89-0.43-2.22-0.38-4.09c0.03-1.12,0.53-3.47,0.46-4.82c-1.35-25.36-4.72-89.5-5.35-109.46
			c-0.86-27.35-2.45-86.71-2.45-86.71H165.12z"/>
		<path class="st12" d="M126.47,145.44c-1.45,2.7-2.97,5.56-4.42,8.37c-1.46,2.82-2.88,5.65-4.25,8.49
			c-0.68,1.42-1.35,2.84-1.99,4.27c-0.66,1.42-1.28,2.85-1.87,4.27c-1.16,2.85-2.26,5.71-3.08,8.49l-4.63-6.76
			c0.88,0.18,1.78,0.41,2.68,0.47c0.91,0.1,1.82,0.11,2.76,0.04c0.95-0.05,1.9-0.22,2.87-0.46c0.48-0.12,0.97-0.26,1.45-0.42
			c0.23-0.08,0.48-0.16,0.71-0.25l0.34-0.12l0.16-0.05c0.05-0.01,0.11-0.04,0.1,0c1.16-1.2,3.07-1.24,4.27-0.08
			c1.2,1.16,1.24,3.07,0.08,4.27l-0.43,0.58c-0.13,0.17-0.25,0.33-0.38,0.49c-0.26,0.31-0.52,0.6-0.79,0.89
			c-0.55,0.55-1.12,1.09-1.74,1.57c-1.23,0.96-2.6,1.79-4.07,2.41c-1.47,0.6-3.03,1.12-4.63,1.34c-1.6,0.28-3.22,0.33-4.83,0.25
			c-2.82-0.13-5-2.52-4.87-5.34c0.01-0.28,0.05-0.55,0.1-0.81l0.13-0.61c0.76-3.53,1.77-6.84,2.91-10.07
			c1.12-3.23,2.41-6.34,3.74-9.42c1.33-3.08,2.78-6.08,4.27-9.06c1.52-2.99,3.04-5.87,4.79-8.83c1.71-2.9,5.45-3.87,8.36-2.16
			c2.83,1.67,3.82,5.27,2.28,8.14L126.47,145.44z"/>
		<path class="st12" d="M116.08,172.52l4.72-3.65l3.97,8.38c0,0-3.89,2.4-7.52,0.97L116.08,172.52z"/>
		<polygon class="st12" points="127.71,164.2 129.73,172.19 124.77,177.25 120.8,168.87 		"/>
		<path class="st10" d="M156.79,106.1c-0.05,0.65,0.25,1.2,0.67,1.24c0.42,0.04,0.81-0.46,0.86-1.1c0.05-0.65-0.25-1.2-0.67-1.24
			C157.23,104.96,156.84,105.46,156.79,106.1z"/>
		<path class="st13" d="M156.98,107.3c0,0,1.16,3.86,2.63,5.81c-1.23,0.96-3.14,0.3-3.14,0.3L156.98,107.3z"/>
		<path class="st12" d="M198.01,143.79l-0.38-9.12l-9.6,2.73c0,0,0.24,4.68,4.76,7.7L198.01,143.79z"/>
		<polygon class="st12" points="194.34,128.06 186.12,132.62 188.03,137.4 197.63,134.67 		"/>
		<g>
			<path class="st8" d="M194.19,123.34h-8.8c-0.44,0-0.84,0.36-0.88,0.81l-1.63,16.94c-0.04,0.44,0.29,0.81,0.73,0.81h8.8
				c0.44,0,0.84-0.36,0.88-0.81l1.63-16.94C194.96,123.7,194.63,123.34,194.19,123.34z"/>
			<path class="st8" d="M193.58,123.34h-8.8c-0.44,0-0.84,0.36-0.88,0.81l-1.63,16.94c-0.04,0.44,0.29,0.81,0.73,0.81h8.8
				c0.44,0,0.84-0.36,0.88-0.81l1.63-16.94C194.35,123.7,194.03,123.34,193.58,123.34z"/>
			<path class="st3" d="M182.99,141.55c-0.11,0-0.21-0.04-0.28-0.11c-0.07-0.08-0.1-0.18-0.09-0.3l1.63-16.94
				c0.03-0.27,0.27-0.5,0.54-0.5h8.8c0.11,0,0.21,0.04,0.28,0.11c0.07,0.08,0.1,0.18,0.09,0.3l-1.63,16.94
				c-0.03,0.27-0.27,0.5-0.54,0.5H182.99z"/>
			<path class="st8" d="M191.31,132.55c-0.17,1.75-1.65,3.2-3.32,3.24c-1.67,0.04-2.89-1.35-2.72-3.1c0.17-1.75,1.65-3.2,3.32-3.24
				C190.26,129.41,191.48,130.8,191.31,132.55z"/>
		</g>
		<path class="st12" d="M196.14,137.21c-0.6-0.45-4.2-5.71-4.53-6.84c-0.95,0.24-1.6,1.7-1.23,2.81c0.37,1.11,1.78,4,1.78,4
			s-0.68,3.48,0.6,5.9C194.02,145.48,196.14,137.21,196.14,137.21z"/>
		<path class="st10" d="M154.72,102.3c-0.09-0.03-0.17-0.09-0.22-0.17c-0.11-0.18-0.05-0.42,0.13-0.52c1.81-1.07,3.4-0.31,3.47-0.28
			c0.19,0.09,0.27,0.32,0.18,0.51c-0.09,0.19-0.32,0.26-0.51,0.17l0,0c-0.05-0.03-1.3-0.61-2.74,0.25
			C154.93,102.32,154.82,102.33,154.72,102.3z"/>
		<path class="st12" d="M135.56,113.38c1.2,5.89,1.95,14.05-2.14,17.98c0,0,1.65,5.98,12.6,5.98c12.04,0,5.75-5.24,5.75-5.24
			c-5.01-1.55-5.01-7.25-3.9-11.83L135.56,113.38z"/>
		<path class="st8" d="M131.2,135.3c-1.08-1.52-1.07-6.31,0.06-7.16c1.84-1.37,9.74-1.68,20.4,0.77c-1.11,4.65,1.36,7.08,1.36,7.08
			L131.2,135.3z"/>
		<g>
			<path class="st10" d="M119.02,133.19c-7.53,1.73-12.6,21.87-12.6,21.87l14.22,10.68c0,0,5.52-5.24,7.93-14.88
				C131.09,140.75,126.72,131.42,119.02,133.19z"/>
			<path class="st14" d="M119.02,133.19c-7.53,1.73-12.6,21.87-12.6,21.87l14.22,10.68c0,0,5.52-5.24,7.93-14.88
				C131.09,140.75,126.72,131.42,119.02,133.19z"/>
		</g>
		<path class="st12" d="M163.43,138.98c4.14,4.61,8.08,9.28,12.05,13.82c1.97,2.27,3.96,4.51,5.96,6.63
			c1.98,2.11,4.05,4.18,5.95,5.67c0.46,0.36,0.91,0.69,1.26,0.9c0.33,0.22,0.63,0.3,0.31,0.26c-0.16-0.01-0.54-0.04-1.13,0.13
			c-0.28,0.08-0.61,0.23-0.89,0.4c-0.27,0.16-0.59,0.47-0.54,0.43c-0.09,0.16,0.13-0.04,0.33-0.38c0.45-0.69,0.93-1.89,1.31-3.13
			c0.38-1.26,0.73-2.61,1.04-4.01c1.19-5.6,1.97-11.68,2.7-17.61l6.04-0.14c0.88,6.32,1.25,12.54,0.8,19.1
			c-0.12,1.64-0.3,3.31-0.63,5.04c-0.34,1.74-0.73,3.51-1.64,5.57c-0.49,1.02-1.08,2.15-2.26,3.39c-0.21,0.24-0.83,0.8-1.43,1.15
			c-0.6,0.38-1.29,0.67-1.94,0.85c-1.33,0.37-2.5,0.33-3.41,0.21c-1.84-0.28-2.96-0.83-3.98-1.33c-1-0.51-1.83-1.04-2.61-1.57
			c-3.05-2.14-5.39-4.36-7.73-6.6c-2.3-2.25-4.46-4.54-6.58-6.83c-4.21-4.61-8.21-9.29-12.15-13.91L163.43,138.98z"/>
		<path class="st15" d="M125.59,147.35c-4.07,4.06-5.35,11.44-5.62,17.87l0.67,0.52c0,0,5.53-5.25,7.94-14.88
			c0.15-0.6,0.28-1.21,0.38-1.8L125.59,147.35z"/>
		<path class="st8" d="M105.87,153.96l-0.29,0.78c-0.17,0.45-0.02,0.96,0.37,1.25l13.6,10.29c0.47,0.36,1.13,0.28,1.5-0.18
			l0.05-0.07c0.37-0.46,0.3-1.14-0.16-1.52l-13.36-11C107,153.03,106.13,153.26,105.87,153.96z"/>
		<g>
			<path class="st10" d="M166.77,141.26c1.71,8.7,3.21,39.37-1.31,74.75h-45.83c-0.35-6.61,6-51.67-0.61-82.82
				c0,0,7.37-1.48,14.4-1.82c5.5-0.27,13.47-0.44,18.31,0c2.02,0.18,4,0.48,5.77,0.79C162.17,132.98,165.85,136.61,166.77,141.26z"
				/>
			<path class="st14" d="M166.77,141.26c1.71,8.7,3.21,39.37-1.31,74.75h-45.83c-0.35-6.61,6-51.67-0.61-82.82
				c0,0,7.37-1.48,14.4-1.82c5.5-0.27,13.47-0.44,18.31,0c2.02,0.18,4,0.48,5.77,0.79C162.17,132.98,165.85,136.61,166.77,141.26z"
				/>
		</g>
		<path class="st15" d="M168,153l-7.07,1.69c-0.41,5.33,3.95,11.49,7.5,15.58C168.47,163.63,168.3,157.79,168,153z"/>
		<path class="st12" d="M135.32,102.79c-0.17,7.99-0.68,12.65,3,17.09c5.53,6.68,15.64,3.93,18.2-3.83
			c2.3-6.98,2.19-18.87-5.33-22.74C143.78,89.5,135.49,94.8,135.32,102.79z"/>
		<path class="st10" d="M152.58,108.76c0,0,3.17,2.55,3.23-1.46c0.06-4.01-0.43-5.74-0.43-5.74s2.05-0.14,1.88-3.54
			c-0.18-3.41-5.39-8.54-13.52-7.28c-8.13,1.26-7.59,5.32-7.59,5.32s-7.53,0.48-3.29,12.7c3.09,8.89,3.55,10.52,3.55,10.52
			s7.5,1.59,9.18-0.15C147.26,117.39,149.41,107.65,152.58,108.76z"/>
		<g>
			<path class="st8" d="M133.83,101.03c-7.81,3.95-14.19,10.29,1.89,10.27c16.08-0.02,20.15-12.01,20.15-12.01L133.83,101.03z"/>
			<path class="st16" d="M133.83,101.03c-7.81,3.95-14.19,10.29,1.89,10.27c16.08-0.02,20.15-12.01,20.15-12.01L133.83,101.03z"/>
		</g>
		<path class="st8" d="M157.56,97.79c-1.02,1.86-5.23,5.38-8.06,6.99c-2.83,1.61-8.62,2.18-10.84,2.09
			c-2.22-0.09-6.87-0.6-7.47-2.09c-0.6-1.49-0.52-5.98-0.33-8.91c0.19-2.93,8.15-8.01,11.31-8.67c3.16-0.66,9.98,1.31,12.01,3.11
			C156.2,92.11,157.56,97.79,157.56,97.79z"/>
		<path class="st12" d="M148.14,107.01c-0.04,2.09,0.77,4.13,1.84,5.51c1.6,2.07,3.52,1.03,4.02-1.28c0.45-2.09,0.15-5.68-1.91-6.92
			C150.06,103.09,148.18,104.62,148.14,107.01z"/>
		<g>
			<path class="st10" d="M149.91,143.9c-3.78,10.41,19.71,23.01,19.71,23.01l9-12.98c0,0-6.65-13.04-14.73-18.92
				C153.91,127.76,152.79,135.98,149.91,143.9z"/>
			<path class="st14" d="M149.91,143.9c-3.78,10.41,19.71,23.01,19.71,23.01l9-12.98c0,0-6.65-13.04-14.73-18.92
				C153.91,127.76,152.79,135.98,149.91,143.9z"/>
		</g>
		<path class="st8" d="M178.79,152.78l0.51,0.67c0.29,0.39,0.3,0.92,0.01,1.3l-9.07,12.31c-0.32,0.43-0.91,0.56-1.39,0.3l-0.14-0.07
			c-0.57-0.31-0.75-1.04-0.39-1.57l8.7-12.9C177.44,152.21,178.34,152.19,178.79,152.78z"/>
	</g>
</g>
<g id="Smartphone">
	<g>
		<path class="st10" d="M381.7,113.75H241.23c-7.07,0-13.17,5.79-13.55,12.86l-14.55,270.37c-0.38,7.07,5.09,12.86,12.17,12.86
			h140.47c7.07,0,13.17-5.79,13.55-12.86l14.55-270.37C394.25,119.54,388.77,113.75,381.7,113.75z"/>
		<rect x="254.02" y="110.25" class="st8" width="6.93" height="1"/>
		<path class="st8" d="M224.7,119.39l-0.86-0.5c3.1-5.33,8.76-8.64,14.78-8.64h10.92v1h-10.92
			C232.95,111.25,227.62,114.37,224.7,119.39z"/>
		<path class="st8" d="M379.08,113.75H238.61c-7.07,0-13.17,5.79-13.55,12.86l-14.55,270.37c-0.38,7.07,5.09,12.86,12.17,12.86
			h140.48c7.07,0,13.17-5.79,13.55-12.86l14.55-270.37C391.63,119.54,386.15,113.75,379.08,113.75z"/>
		<path class="st3" d="M222.79,407.7c-5.91,0-10.46-4.81-10.14-10.71l14.55-270.37c0.32-5.91,5.38-10.71,11.29-10.71h140.48
			c5.91,0,10.46,4.81,10.14,10.71l-14.55,270.37c-0.32,5.91-5.38,10.71-11.29,10.71H222.79z"/>
		<path class="st17" d="M228.76,221.5l4.29-79.61c0.17-3.17,2.88-5.73,6.04-5.73h137.1c3.17,0,5.6,2.57,5.43,5.73l-4.29,79.61
			c-0.17,3.17-2.88,5.73-6.04,5.73h-137.1C231.02,227.24,228.59,224.67,228.76,221.5z"/>
		<path class="st8" d="M312.42,125.84h-7.96c-2.23,0-4.1-1.49-4.58-3.63l-1.64-7.35h21.07l-1.84,7.04
			C316.88,124.19,314.77,125.84,312.42,125.84z"/>
		<path class="st18" d="M311.11,120.35c-0.08,1.45-1.31,2.62-2.76,2.62c-1.45,0-2.56-1.17-2.48-2.62c0.08-1.45,1.31-2.62,2.76-2.62
			C310.08,117.73,311.19,118.9,311.11,120.35z"/>
		<g>
			<path class="st8" d="M332.16,318.11H264.4c-0.29,0-0.52-0.23-0.54-0.51l-2.16-47.85c-0.01-0.15,0.05-0.29,0.15-0.39
				c0.1-0.11,0.24-0.17,0.39-0.17h77.24c0.16,0,0.3,0.07,0.41,0.19c0.1,0.12,0.15,0.28,0.12,0.43l-7.31,47.85
				C332.65,317.92,332.42,318.11,332.16,318.11z M264.91,317.04h66.79l7.15-46.78H262.8L264.91,317.04z"/>
			<path class="st8" d="M328.79,327.78h-59.17c-0.3,0-0.54-0.24-0.54-0.54s0.24-0.54,0.54-0.54h59.17c0.86,0,1.64-0.67,1.76-1.54
				l8.95-59.39c0.04-0.26,0.26-0.46,0.53-0.46h3.85c0.3,0,0.54,0.24,0.54,0.54s-0.24,0.54-0.54,0.54h-3.39l-8.88,58.93
				C331.41,326.72,330.19,327.78,328.79,327.78z"/>
			<path class="st8" d="M274.12,337.86c-1.49,0-2.87-0.58-3.87-1.64c-1-1.06-1.51-2.47-1.43-3.96c0.17-3.06,2.79-5.55,5.85-5.55
				c1.49,0,2.87,0.58,3.87,1.64c1,1.06,1.51,2.47,1.43,3.96C279.8,335.37,277.17,337.86,274.12,337.86z M274.66,327.78
				c-2.5,0-4.64,2.03-4.78,4.53c-0.06,1.2,0.34,2.32,1.14,3.17c0.8,0.84,1.9,1.31,3.09,1.31c2.5,0,4.64-2.03,4.78-4.53
				c0.06-1.2-0.34-2.33-1.14-3.17C276.95,328.24,275.85,327.78,274.66,327.78z"/>
			<path class="st8" d="M325.69,337.86c-1.49,0-2.87-0.58-3.87-1.64c-1-1.06-1.51-2.47-1.43-3.96c0.16-3.06,2.79-5.55,5.85-5.55
				c1.49,0,2.87,0.58,3.87,1.64c1,1.06,1.51,2.47,1.43,3.96l0,0C331.37,335.37,328.75,337.86,325.69,337.86z M326.23,327.78
				c-2.5,0-4.64,2.03-4.78,4.53c-0.07,1.2,0.34,2.32,1.14,3.17c0.8,0.84,1.9,1.31,3.09,1.31c2.5,0,4.64-2.03,4.78-4.53v0
				c0.07-1.2-0.34-2.32-1.14-3.17C328.53,328.24,327.43,327.78,326.23,327.78z"/>
		</g>
		<g>
			<path class="st10" d="M313.58,187.05c0,0,0.05-4.99,2.32-9.84c3.85,3.28,7.51,7.15,7.51,7.15s22.56,1.71,26.43,3.2
				c-0.82,2.76-1.41,5.44-1.41,5.44L313.58,187.05z"/>
			<path class="st10" d="M269,221.8c-0.14-0.48-0.38-0.94-0.64-1.42c-0.46-0.87-0.94-1.77-0.83-2.86c0.11-1.07,0.82-2.13,2.04-3.05
				c2.17-1.64,5-2.42,7.77-2.12c1.84,0.19,3.63,0.85,5.21,1.9c-0.1-1.12,0.11-2.27,0.64-3.27c1.08-2.04,3.42-3.3,5.57-2.99
				c0.8,0.12,1.53,0.45,2.14,0.93c0-0.16,0.01-0.32,0.02-0.48c0.11-1.86,0.79-3.31,1.92-4.1c1.45-1.01,3.38-0.9,5.89,0.35
				c0.12,0.06,0.29,0.15,0.48,0.25c-0.38-1.23-0.76-2.64-0.81-4.07c-0.07-1.91,0.74-2.91,1.44-3.41c1.54-1.12,3.91-0.94,5.79-0.35
				c-0.02-0.91,0.2-1.81,0.65-2.58c1.27-2.16,4.13-3.3,6.63-2.62l-0.28,1.04c-2.03-0.54-4.42,0.4-5.43,2.13
				c-0.42,0.72-0.58,1.61-0.46,2.46c1.16,0.59,2.26,1.65,2.14,3.09l-0.06,0.73l-0.67-0.28c-1.05-0.43-1.85-1.32-2.25-2.5
				c-0.03-0.09-0.06-0.18-0.09-0.28c-0.01,0-0.02-0.01-0.02-0.01c-1.61-0.59-3.97-0.94-5.31,0.04c-0.71,0.51-1.04,1.35-1,2.5
				c0.05,1.42,0.47,2.85,0.86,4.09c0.07,0.23,0.22,0.55,0.38,0.89c0.14,0.29,0.28,0.59,0.39,0.88c0.19,0.37,0.3,0.78,0.28,1.25
				c0,0,0,0,0,0l-1.07-0.04c0.01-0.19-0.07-0.46-0.18-0.75c-0.29-0.52-0.91-1.02-1.88-1.5c-2.12-1.06-3.69-1.2-4.79-0.43
				c-1.15,0.8-1.41,2.4-1.46,3.28c-0.04,0.58-0.02,1.17,0.05,1.75c0.41,0.72,0.62,1.56,0.56,2.41l-0.17,2.45l-0.86-2.3
				c-0.26-0.7-0.45-1.43-0.55-2.18c-0.53-0.82-1.4-1.44-2.4-1.59c-1.69-0.25-3.61,0.8-4.47,2.43c-0.6,1.14-0.69,2.51-0.31,3.73
				c0.19,0.16,0.38,0.34,0.56,0.51c0.26,0.26,0.47,0.73,0.35,1.13c-0.08,0.27-0.3,0.47-0.58,0.53l-0.34,0.07l-0.2-0.28
				c-0.29-0.41-0.53-0.86-0.71-1.33c-1.65-1.36-3.63-2.21-5.68-2.42c-2.5-0.26-5.05,0.43-7.01,1.91c-0.68,0.51-1.52,1.33-1.62,2.3
				c-0.08,0.76,0.3,1.49,0.71,2.25c0.27,0.51,0.55,1.05,0.72,1.63L269,221.8z"/>
			<path class="st8" d="M254.02,220.58c9.36-3.58,41.35-10.28,46.69-15.98c4.07-4.35,8.86-13.1,10.9-17.01
				c0.61-1.17,1.9-1.81,3.2-1.6l32.51,5.31c1.54,0.25,2.64,1.62,2.56,3.18l-0.17,3.07l0.04,32.42l-83.51,2.26L254.02,220.58z"/>
			<path class="st10" d="M250.22,230.87c0,0,2.37-8.72,3.8-10.28c1.43-1.56,37.51,3.02,40.53,11.18
				C272.56,233.22,250.22,230.87,250.22,230.87z"/>
			<path class="st10" d="M286.83,231.99c-5.77-6.93-10.89-12.3-10.57-15.54c0.32-3.24,3.55-4.16,8.56-5.83
				c5.02-1.68,14.58-4.67,19.22-11.83c4.63-7.15,7.63-2.57,9.02,0.67c1.39,3.24,3.12,11.66,30.2,3.8
				c-8.48,8.05-40.11,28.73-40.11,28.73H286.83z"/>
			<path class="st3" d="M300.58,230.87c0,0,1.01-11.39,10.72-17.38c9.71-5.99,36.77-10.34,38.89-14.37c0.7,3.69,0.36,7.94,0.36,7.94
				s-25.02,10.06-24.93,24.93C312.2,231.99,300.58,230.87,300.58,230.87z"/>
			<path class="st8" d="M248.39,232.67c-0.21,0.97,0.4,1.88,1.36,2.02c5.01,0.74,20.85,2.88,37.11,2.88h62.41
				c0.97,0,1.8-0.79,1.85-1.75l0.34-6.4c0.06-1.02-0.77-1.83-1.79-1.75c-9.81,0.79-56.06,4.17-98.91,1.92
				c-0.77-0.04-1.52,0.43-1.8,1.16C248.69,231.43,248.51,232.09,248.39,232.67z"/>
			<path class="st3" d="M281.86,230.85c-10.21,0-20.78-0.21-31.13-0.76c-0.28-0.01-0.49-0.25-0.47-0.53
				c0.01-0.28,0.26-0.51,0.53-0.47c43.02,2.26,89.89-1.2,98.85-1.92c0.28-0.02,0.52,0.18,0.54,0.46c0.02,0.28-0.18,0.52-0.46,0.54
				C342.89,228.72,314.16,230.85,281.86,230.85z"/>
			<path class="st10" d="M349.27,238.25h-62.41c-16.43,0-32.63-2.21-37.21-2.89c-0.64-0.09-1.2-0.44-1.56-0.96
				c-0.37-0.54-0.5-1.2-0.36-1.87l1.31,0.28c-0.06,0.3-0.01,0.59,0.15,0.82c0.15,0.22,0.38,0.36,0.66,0.4
				c4.55,0.67,20.67,2.87,37.01,2.87h62.41c0.62,0,1.15-0.5,1.18-1.12l1.34,0.07C351.72,237.17,350.59,238.25,349.27,238.25z"/>
			
				<rect x="325.17" y="183.63" transform="matrix(0.4275 -0.904 0.904 0.4275 10.7329 405.9135)" class="st10" width="1.34" height="21.7"/>
		</g>
		<g>
			<polygon class="st8" points="290.46,249.11 301.46,258.52 313.46,249.11 			"/>
		</g>
		<g>
			
				<ellipse transform="matrix(0.7165 -0.6975 0.6975 0.7165 -176.8956 311.8505)" class="st8" cx="295.26" cy="373.58" rx="21.51" ry="20.38"/>
			<g>
				<path class="st3" d="M280.79,372.56c0,0,8.54,4.94,12.04,11.31c2.92-4.97,7.29-11.88,17.78-19.64
					c-12.72,5.12-17.43,13.27-17.43,13.27S288.72,373.4,280.79,372.56z"/>
			</g>
		</g>
	</g>
</g>
</svg>
