<?xml version="1.0" encoding="utf-8"?>
<!-- Generator: Adobe Illustrator 23.0.3, SVG Export Plug-In . SVG Version: 6.00 Build 0)  -->
<svg version="1.1" xmlns="http://www.w3.org/2000/svg" xmlns:xlink="http://www.w3.org/1999/xlink" x="0px" y="0px"
	 viewBox="0 0 500 500" style="enable-background:new 0 0 500 500;" xml:space="preserve">
<style type="text/css">
	.st0{fill:#F0F0F0;}
	.st1{fill:#EBEBEB;}
	.st2{fill:#E6E6E6;}
	.st3{fill:#FFFFFF;}
	.st4{display:none;}
	.st5{display:inline;}
	.st6{fill:#577AFA;}
	.st7{opacity:0.8;enable-background:new    ;}
	.st8{fill:#F5F5F5;}
	.st9{fill:#407BFF;}
	.st10{opacity:0.3;fill:#FFFFFF;enable-background:new    ;}
	.st11{opacity:0.1;fill:#FFFFFF;enable-background:new    ;}
	.st12{opacity:0.1;enable-background:new    ;}
	.st13{fill:#263238;}
	.st14{opacity:0.3;fill:#FFFFFF;}
	.st15{opacity:0.1;fill:#FFFFFF;}
	.st16{opacity:0.2;enable-background:new    ;}
	.st17{opacity:0.6;enable-background:new    ;}
	.st18{opacity:0.6;fill:#FFFFFF;enable-background:new    ;}
	.st19{opacity:0.4;fill:#FFFFFF;}
	.st20{fill:#E0E0E0;}
	.st21{opacity:0.3;fill:#263238;}
	.st22{opacity:0.7;fill:#FFFFFF;enable-background:new    ;}
	.st23{fill:#E4897B;}
	.st24{opacity:0.2;fill:#FFFFFF;enable-background:new    ;}
	.st25{fill:#DE5753;}
	.st26{fill:none;stroke:#263238;stroke-width:0.7073;stroke-linecap:round;stroke-linejoin:round;stroke-miterlimit:10;}
	.st27{opacity:0.1;}
	.st28{fill:#2E353A;}
	.st29{opacity:0.2;}
	.st30{opacity:0.3;}
	.st31{opacity:0.2;fill:#FFFFFF;}
	.st32{opacity:0.2;fill:#2E353A;}
</style>
<g id="Background_Complete">
	<path class="st0" d="M439.31,153.37c0.09-0.58,0.15-1.16,0.15-1.77c0-6.23-5.05-11.28-11.28-11.28c-0.62,0-1.23,0.06-1.83,0.16
		c-2.25-3.75-6.35-6.26-11.04-6.26c-5.9,0-10.87,3.97-12.39,9.39c-0.79-0.24-1.62-0.38-2.49-0.38c-4.62,0-8.36,3.74-8.36,8.36
		c0,0.61,0.07,1.2,0.19,1.77H439.31z"/>
	<path class="st0" d="M145.01,108.86c0.16-0.99,0.26-2,0.26-3.04c0-10.71-8.68-19.39-19.39-19.39c-1.07,0-2.12,0.11-3.14,0.28
		c-3.87-6.44-10.91-10.75-18.97-10.75c-10.14,0-18.68,6.83-21.29,16.14c-1.35-0.42-2.78-0.65-4.27-0.65
		c-7.93,0-14.37,6.43-14.37,14.37c0,1.04,0.12,2.06,0.33,3.04H145.01z"/>
	<g>
		<rect y="382.4" class="st1" width="500" height="0.25"/>
		<rect x="416.78" y="398.49" class="st1" width="33.12" height="0.25"/>
		<rect x="322.53" y="401.21" class="st1" width="8.69" height="0.25"/>
		<rect x="396.59" y="389.21" class="st1" width="19.19" height="0.25"/>
		<rect x="52.46" y="390.89" class="st1" width="43.19" height="0.25"/>
		<rect x="104.56" y="390.89" class="st1" width="6.33" height="0.25"/>
		<rect x="131.47" y="395.11" class="st1" width="93.68" height="0.25"/>
		<path class="st1" d="M237.01,337.8H43.92c-3.15,0-5.71-2.56-5.71-5.71V60.66c0-3.15,2.56-5.71,5.71-5.71h193.1
			c3.15,0,5.71,2.56,5.71,5.71v271.43C242.72,335.24,240.16,337.8,237.01,337.8z M43.92,55.2c-3.01,0-5.46,2.45-5.46,5.46v271.43
			c0,3.01,2.45,5.46,5.46,5.46h193.1c3.01,0,5.46-2.45,5.46-5.46V60.66c0-3.01-2.45-5.46-5.46-5.46H43.92z"/>
		<path class="st1" d="M453.31,337.8h-193.1c-3.15,0-5.71-2.56-5.71-5.71V60.66c0-3.15,2.56-5.71,5.71-5.71h193.1
			c3.15,0,5.71,2.56,5.71,5.71v271.43C459.02,335.24,456.46,337.8,453.31,337.8z M260.21,55.2c-3.01,0-5.46,2.45-5.46,5.46v271.43
			c0,3.01,2.45,5.46,5.46,5.46h193.1c3.01,0,5.46-2.45,5.46-5.46V60.66c0-3.01-2.45-5.46-5.46-5.46H260.21z"/>
	</g>
	<g>
		<polygon class="st0" points="37.9,353.46 37.9,286.97 69.93,286.97 69.93,268.8 85.26,268.8 85.26,215.37 105.07,195.57 
			145.26,195.57 145.26,252.82 200.41,252.82 200.41,264.13 239.4,264.13 239.4,249.27 281.29,249.27 281.29,238.07 314,238.07 
			314,171.74 371.91,171.74 371.91,214.01 385.24,214.01 385.24,229.32 416.23,229.32 416.23,254.43 432.79,254.43 445.53,267.17 
			445.53,280.13 458.22,280.13 458.22,353.46 		"/>
		<polygon class="st2" points="76.91,286.97 70.48,286.97 69.93,286.6 69.93,286.97 37.9,286.97 37.9,353.46 76.91,353.46 		"/>
		<polygon class="st2" points="239.96,254.11 239.96,264.13 238.38,264.13 236.7,274.85 241.45,353.46 294.28,353.46 294.28,249.27 
			281.85,249.27 240.71,249.27 		"/>
		<polygon class="st2" points="362.95,229.32 362.95,353.46 458.77,353.46 458.77,280.13 446.08,280.13 446.08,267.17 
			433.34,254.43 416.78,254.43 416.78,229.32 388.66,229.32 385.79,229.32 		"/>
		<g>
			<g>
				<g>
					<rect x="427.61" y="261.17" class="st3" width="5.79" height="5.79"/>
				</g>
				<g>
					<rect x="417.38" y="261.17" class="st3" width="5.79" height="5.79"/>
				</g>
			</g>
			<g>
				<g>
					<rect x="427.61" y="271.96" class="st3" width="5.79" height="5.79"/>
				</g>
				<g>
					<rect x="417.38" y="271.96" class="st3" width="5.79" height="5.79"/>
				</g>
			</g>
		</g>
		<g>
			<g>
				<g>
					<rect x="395.99" y="233.99" class="st3" width="5.79" height="5.79"/>
				</g>
				<g>
					<rect x="385.76" y="233.99" class="st3" width="5.79" height="5.79"/>
				</g>
			</g>
		</g>
		<g>
			<g>
				<g>
					<rect x="64.4" y="296.35" class="st3" width="5.79" height="5.79"/>
				</g>
				<g>
					<rect x="54.17" y="296.35" class="st3" width="5.79" height="5.79"/>
				</g>
			</g>
		</g>
		<g>
			<g>
				<g>
					
						<rect x="281.82" y="266.28" transform="matrix(-1.836970e-16 1 -1 -1.836970e-16 553.8892 -15.5335)" class="st3" width="5.79" height="5.79"/>
				</g>
				<g>
					
						<rect x="281.82" y="256.05" transform="matrix(-1.836970e-16 1 -1 -1.836970e-16 543.6586 -25.764)" class="st3" width="5.79" height="5.79"/>
				</g>
			</g>
		</g>
	</g>
</g>
<g id="Background_Simple" class="st4">
	<g class="st5">
		<g>
			<path class="st6" d="M390.01,96.07c-58.5-28.18-107.46,13.96-119.38,49.95c-11.92,36-34.4,51.01-61.51,38.18
				C182,171.38,135.82,118,77.53,161.98c-58.29,43.98,28.36,143.59,149.53,170.95c66.22,14.95,159.49,26.11,194.66-61.38
				C442.67,219.42,437.13,118.78,390.01,96.07z"/>
		</g>
		<g class="st7">
			<path class="st3" d="M390.01,96.07c-58.5-28.18-107.46,13.96-119.38,49.95c-11.92,36-34.4,51.01-61.51,38.18
				C182,171.38,135.82,118,77.53,161.98c-58.29,43.98,28.36,143.59,149.53,170.95c66.22,14.95,159.49,26.11,194.66-61.38
				C442.67,219.42,437.13,118.78,390.01,96.07z"/>
		</g>
	</g>
</g>
<g id="Shadow_1_">
	<ellipse id="_x3C_Path_x3E__359_" class="st8" cx="248.06" cy="416.24" rx="193.89" ry="11.32"/>
</g>
<g id="Box_1_">
	<g>
		<g>
			<g>
				<g>
					<g>
						<rect x="388.9" y="366.94" class="st9" width="54.63" height="45.18"/>
						<rect x="388.9" y="366.94" class="st10" width="54.63" height="45.18"/>
						<rect x="360.03" y="366.94" class="st9" width="42.34" height="45.18"/>
						<rect x="360.03" y="366.94" class="st11" width="42.34" height="45.18"/>
					</g>
				</g>
				<rect x="375.21" y="366.94" class="st10" width="11.98" height="14.06"/>
				<rect x="419.91" y="366.94" class="st12" width="11.98" height="14.06"/>
			</g>
		</g>
		<g>
			<path class="st3" d="M420.56,393.53c-0.53-0.01-1.06-0.03-1.59-0.04c-0.01-0.46-0.03-0.92,0-1.38c0.06-0.71,0.56-2.1,1.55-1.48
				c0.31,0.19,0.67-0.25,0.36-0.44c-1.04-0.65-2.07,0.05-2.38,1.14c-0.19,0.69-0.12,1.44-0.11,2.15c-0.3-0.01-0.61-0.02-0.91-0.02
				c-0.36-0.01-0.46,0.55-0.09,0.56c0.34,0.01,0.67,0.02,1.01,0.03c0.01,0.88,0.03,1.76,0.04,2.64c0.01,0.37,0.57,0.3,0.57-0.06
				c-0.01-0.86-0.03-1.71-0.04-2.57c0.5,0.01,0.99,0.03,1.49,0.04C420.83,394.1,420.93,393.54,420.56,393.53z"/>
			<path class="st3" d="M423.18,392.29c-0.04,0.01-0.08,0.02-0.11,0.04c-2.6-0.19-2.18,4.06,0.3,3.96c1.13-0.04,1.81-1.19,1.84-2.23
				C425.25,392.93,424.27,392.14,423.18,392.29z M423.57,395.68c-1.87,0.49-2.47-2.97-0.55-2.78c0.07,0.01,0.13-0.01,0.17-0.04
				c0.01,0,0.03,0,0.04,0C425.02,392.62,425.02,395.3,423.57,395.68z"/>
			<path class="st3" d="M429.36,393.34c-0.76-2.51-4.64-0.45-3.54,1.83c0.48,1,1.81,1.18,2.76,0.81c1.08-0.41,1.37-1.61,0.84-2.56
				C429.4,393.39,429.38,393.36,429.36,393.34z M426.27,394.77c-0.53-1.52,2.04-2.99,2.57-1.2c0.02,0.07,0.06,0.12,0.11,0.15
				c0,0.01,0.01,0.02,0.01,0.03C429.92,395.47,426.81,396.35,426.27,394.77z"/>
			<path class="st3" d="M433.7,396.1c-0.17-2.3-0.33-4.59-0.5-6.89c-0.03-0.37-0.59-0.3-0.57,0.06c0.07,0.97,0.14,1.93,0.21,2.9
				c-1.29-0.36-2.66,0.44-2.73,1.87c-0.08,1.55,1.72,2.07,3.01,1.9c0.01,0.07,0.01,0.15,0.02,0.22
				C433.16,396.52,433.73,396.46,433.7,396.1z M430.68,394.28c-0.15-1.12,1.02-1.89,2.02-1.56c0.06,0.02,0.12,0.02,0.18,0
				c0.06,0.88,0.13,1.77,0.19,2.65C432.2,395.48,430.83,395.3,430.68,394.28z"/>
		</g>
	</g>
</g>
<g id="Device">
	<g>
		<g>
			<path class="st13" d="M249.98,95.51H115.02c-8.28,0-15,6.72-15,15v281.54c0,8.28,6.72,15,15,15h134.95c8.28,0,15-6.72,15-15
				V110.51C264.98,102.23,258.26,95.51,249.98,95.51z"/>
			<rect x="110.69" y="116.28" class="st9" width="143.62" height="250.56"/>
			<rect x="110.69" y="342" class="st14" width="143.62" height="24.83"/>
			<g>
				<path class="st15" d="M254.31,219.38c-36.51,36.32-104.12,104.24-143.62,143.96v3.5h80.25l63.37-63.37V219.38z"/>
			</g>
			<path class="st15" d="M110.69,242.28L236.7,116.28h-58.93c-15.6,15.48-42.25,42.19-67.08,67.11V242.28z"/>
			<polygon class="st15" points="110.69,294.95 254.31,151.33 254.31,120.6 110.69,264.21 			"/>
			<rect x="110.69" y="116.28" class="st16" width="143.62" height="11.3"/>
			
				<ellipse transform="matrix(0.9871 -0.1602 0.1602 0.9871 -59.16 34.1923)" class="st9" cx="182.5" cy="384.04" rx="9.79" ry="9.79"/>
			<g class="st17">
				
					<rect x="126.22" y="121.62" transform="matrix(-1 -1.224647e-16 1.224647e-16 -1 254.6142 246.141)" class="st18" width="2.17" height="2.9"/>
				
					<rect x="122.68" y="120.65" transform="matrix(-1 -1.224647e-16 1.224647e-16 -1 247.5284 245.1742)" class="st18" width="2.17" height="3.87"/>
				
					<rect x="119.13" y="119.69" transform="matrix(-1 -1.224647e-16 1.224647e-16 -1 240.4427 244.2074)" class="st18" width="2.17" height="4.83"/>
				
					<rect x="115.59" y="118.72" transform="matrix(-1 -1.224647e-16 1.224647e-16 -1 233.3569 243.2405)" class="st18" width="2.17" height="5.8"/>
			</g>
			<g>
				<rect x="237.78" y="120.56" class="st18" width="1.29" height="2.9"/>
				
					<rect x="239.96" y="119.51" transform="matrix(-1 -1.224647e-16 1.224647e-16 -1 490.1763 244.0257)" class="st18" width="10.27" height="5.01"/>
			</g>
			<path class="st19" d="M189.65,265.99c-3.3-2.95-7.15,1.05-7.15,1.05s-3.85-4-7.15-1.05c-4.7,4.21,2.13,11.74,7.15,13.25
				C187.52,277.73,194.35,270.2,189.65,265.99z"/>
			<g>
				<path class="st3" d="M223.63,286.97h-82.26c-5.18,0-9.38,4.2-9.38,9.38c0,5.18,4.2,9.38,9.38,9.38h82.26
					c5.18,0,9.38-4.2,9.38-9.38C233.01,291.17,228.81,286.97,223.63,286.97z"/>
				<g>
					<path class="st20" d="M155.37,301.37v-9.94h3.58c0.81,0,1.51,0.13,2.12,0.39c0.61,0.26,1.11,0.62,1.52,1.06
						c0.41,0.45,0.71,0.97,0.92,1.58c0.2,0.6,0.31,1.24,0.31,1.92c0,0.76-0.11,1.44-0.34,2.05c-0.23,0.61-0.55,1.13-0.98,1.57
						c-0.43,0.43-0.94,0.77-1.53,1.01c-0.6,0.24-1.27,0.36-2.01,0.36H155.37z M161.88,296.38c0-0.48-0.06-0.91-0.19-1.32
						c-0.13-0.4-0.32-0.75-0.57-1.04s-0.56-0.51-0.92-0.67c-0.37-0.16-0.78-0.24-1.24-0.24h-1.67v6.55h1.67
						c0.47,0,0.89-0.08,1.26-0.25c0.37-0.17,0.67-0.4,0.92-0.69c0.25-0.29,0.43-0.64,0.56-1.04
						C161.81,297.28,161.88,296.85,161.88,296.38z"/>
					<path class="st20" d="M169.51,301.44c-0.72,0-1.38-0.14-1.96-0.43c-0.59-0.28-1.09-0.66-1.51-1.13
						c-0.42-0.47-0.75-1.01-0.98-1.62c-0.23-0.61-0.35-1.23-0.35-1.86c0-0.66,0.12-1.3,0.37-1.9c0.25-0.61,0.58-1.14,1.01-1.61
						c0.43-0.47,0.94-0.84,1.53-1.11c0.59-0.28,1.24-0.41,1.93-0.41c0.71,0,1.36,0.15,1.95,0.44c0.59,0.29,1.09,0.68,1.51,1.16
						c0.42,0.48,0.74,1.02,0.97,1.62c0.23,0.61,0.35,1.22,0.35,1.85c0,0.66-0.12,1.29-0.36,1.9c-0.24,0.6-0.57,1.13-1,1.6
						c-0.43,0.46-0.94,0.83-1.53,1.11C170.85,301.3,170.21,301.44,169.51,301.44z M166.65,296.4c0,0.43,0.06,0.84,0.19,1.25
						c0.13,0.4,0.32,0.76,0.56,1.06c0.25,0.31,0.55,0.56,0.9,0.74c0.36,0.19,0.76,0.28,1.21,0.28c0.46,0,0.87-0.1,1.23-0.29
						c0.36-0.19,0.66-0.45,0.9-0.76c0.25-0.32,0.43-0.67,0.56-1.07c0.13-0.4,0.19-0.8,0.19-1.21c0-0.43-0.07-0.84-0.2-1.25
						c-0.13-0.4-0.32-0.76-0.57-1.06c-0.25-0.31-0.55-0.55-0.9-0.73c-0.36-0.18-0.76-0.27-1.2-0.27c-0.46,0-0.87,0.1-1.24,0.29
						c-0.36,0.19-0.66,0.44-0.9,0.76c-0.24,0.31-0.42,0.67-0.55,1.06C166.72,295.58,166.65,295.98,166.65,296.4z"/>
					<path class="st20" d="M177.72,295v6.37h-1.92v-9.94h1.49l5.14,6.52v-6.51h1.92v9.93h-1.56L177.72,295z"/>
					<path class="st20" d="M189.2,291.42h1.69l3.75,9.94h-1.97l-0.92-2.48h-3.44l-0.9,2.48h-1.97L189.2,291.42z M191.41,297.53
						l-1.36-3.91l-1.42,3.91H191.41z"/>
					<path class="st20" d="M202.12,293.12h-3.15v8.25h-1.9v-8.25h-3.15v-1.69h8.2V293.12z"/>
					<path class="st20" d="M210.19,299.67v1.69h-6.84v-9.94h6.72v1.69h-4.8v2.39h4.15v1.57h-4.15v2.59H210.19z"/>
				</g>
			</g>
		</g>
		<g>
			<polygon class="st21" points="264.98,184.39 234.85,188.68 242.72,244.66 264.98,242.4 			"/>
			<g>
				<g>
					<circle class="st22" cx="183.89" cy="198.96" r="55.46"/>
				</g>
				<g>
					<path class="st23" d="M203.78,165.05c0,0,11.33,16.75,17.69,17.44c6.36,0.68,31.24-20.72,31.24-20.72l4.23,3.65
						c0,0-23.67,26.04-33.55,27.52c-9.88,1.48-28.66-18.06-28.66-18.06L203.78,165.05z"/>
					<path class="st9" d="M201.08,166.3c0,0,3.99-3.92,9.5,2.88c5.51,6.8,7.76,8.2,7.76,8.2l-14.03,13.67
						C204.31,191.06,196.11,169.94,201.08,166.3z"/>
					<g>
						<g>
							<path class="st23" d="M250.74,160.22c0,0,0.49-6.29,1.96-6.7c1.47-0.41,0.94,4.25,0.94,4.25s7.7-4.69,9.25-4.28
								c1.55,0.42,1.29,3.46,1.02,4.28c-2.36,6.96-10.75,9.9-10.75,9.9l-3.39-3.19L250.74,160.22z"/>
						</g>
					</g>
					<path class="st13" d="M193,148.41c0,0,7.73,12.88,5.35,20.95c-2.38,8.07-14.55,0.83-14.55,0.83l0.15-15.98L193,148.41z"/>
					<path class="st13" d="M172.27,126.21c0,0-11.43,5.79-6.94,26.16c7.52,34.15,18.62,19.99,18.62,19.99s-0.49-13.46-5.05-19.99
						c-4.56-6.53-3.58-15.86-3.58-15.86L172.27,126.21z"/>
					<g>
						<path class="st9" d="M205.42,216.43l-34.27,2.96c-0.54-8.51-1.08-15.01-3.64-25.17c-0.82-3.28-1.85-6.95-3.17-11.18
							c-0.71-2.26-1.48-4.69-2.36-7.31c-0.65-1.98-1.36-4.09-2.14-6.31c4.66-1.48,9.41-2.64,14.22-3.44
							c5.08-0.9,10.23-1.44,15.39-1.62c6.67-0.05,14.33,0.7,14.33,0.7s1.09,0.26,1.78,7.33
							C206.18,179.02,206.79,192.29,205.42,216.43z"/>
						<path class="st24" d="M205.42,216.43l-34.27,2.96c-0.54-8.51-1.08-15.01-3.64-25.17c-0.82-3.28-1.85-6.95-3.17-11.18
							c-0.71-2.26-1.48-4.69-2.36-7.31c-0.65-1.98-1.36-4.09-2.14-6.31c4.66-1.48,9.41-2.64,14.22-3.44
							c5.08-0.9,10.23-1.44,15.39-1.62c6.67-0.05,14.33,0.7,14.33,0.7s1.09,0.26,1.78,7.33
							C206.18,179.02,206.79,192.29,205.42,216.43z"/>
						<path class="st16" d="M170.98,216.82c5.49-2.13,23.59-11.02,23.59-11.02l-24.05,5.42C170.7,213.06,170.85,214.9,170.98,216.82
							z"/>
					</g>
					<path class="st23" d="M186.63,171.92c-8.45-1.08-10.98-4.69-10.98-4.69c5.36-5.06,0.91-13.82,0.91-13.82l10.17,1.9
						c-0.27,1.68-0.38,3.09-0.4,4.28c-0.08,6.17,2.71,6.23,2.71,6.23C190.81,169.17,186.63,171.92,186.63,171.92z"/>
					<path class="st16" d="M186.71,155.32c-0.27,1.68-0.38,3.09-0.4,4.28c-6.87,0-9.77-6.18-9.77-6.18L186.71,155.32z"/>
					<path class="st23" d="M182.15,126.86c8.84-0.48,10.83,3.76,11.98,12.83c1.43,11.34-0.6,19.93-11.78,18.1
						c-12.27-2-15.71-21.43-8.33-28.85C175.77,127.17,179.34,127.01,182.15,126.86z"/>
					<path class="st25" d="M188.44,140.83c0,0,1.35,2.24,2.77,3.52c0,0-0.69,1.24-2.27,1.13L188.44,140.83z"/>
					<path class="st13" d="M183.09,139.81c0.51-0.17,0.86-0.87,0.86-0.87l-1.53,0.74c0.01,0.01,0.02,0.01,0.03,0.01
						c-0.39,0.15-0.65,0.68-0.6,1.32c0.06,0.72,0.49,1.28,0.98,1.24c0.48-0.04,0.83-0.66,0.77-1.38
						C183.56,140.4,183.35,140.02,183.09,139.81z"/>
					<path class="st13" d="M191.67,139.02c0.51-0.17,0.86-0.87,0.86-0.87l-1.53,0.74c0.01,0.01,0.02,0.01,0.03,0.02
						c-0.39,0.15-0.65,0.68-0.6,1.32c0.06,0.72,0.49,1.28,0.98,1.24c0.48-0.04,0.83-0.66,0.77-1.38
						C192.15,139.61,191.94,139.23,191.67,139.02z"/>
					<path class="st26" d="M183.08,135.73c0,0-2.5-0.19-3.76,1.55"/>
					<path class="st26" d="M188.45,135.37c0,0,1.35-0.97,3.59-0.24"/>
					<path class="st23" d="M167.81,168.17c0,0,9.92,8.05,19.15,7.92c9.23-0.13,12.48-10.51,12.48-10.51S185.12,161.34,167.81,168.17
						z"/>
					<path class="st23" d="M153.22,188.27c0,0-3.12,18.41-2.75,23.64c0.37,5.24,8.29,5.4,12.75,4.87
						c5.13-0.61,31.88-11.19,31.88-11.19l-1.23-5.29c0,0-20.95,5.64-29.85,6.67c-1.81,0.21-3.31-1.35-3.04-3.15l2.08-13.66
						L153.22,188.27z"/>
					<path class="st9" d="M159.84,169.41c0,0,5.46-1.21,6.53,7.48c1.07,8.69-2.04,15.53-2.04,15.53l-13.86-2.5
						C150.47,189.92,153.7,169.86,159.84,169.41z"/>
					<path class="st23" d="M200.69,195.04c-0.44-0.21-0.84-0.31-1.14-0.23c-1.64,0.43-6.63,5.35-6.92,6.02l1.28,4.67
						c0,0,2.62,1.4,3.88,0.98c1.26-0.42,7.71-5.15,7.72-6.28c0-0.05-0.02-0.12-0.04-0.19c0.22-0.17,0.42-0.31,0.55-0.4
						C207.17,198.9,203.14,195.89,200.69,195.04z"/>
					<path class="st13" d="M181.63,126.89c0,0,1.13,11.09-8.11,11.48c-9.24,0.39-1.52-9.93-1.52-9.93L181.63,126.89z"/>
					<path class="st13" d="M179.65,123.47c-15.19,0.48-13.93,22.7-5.72,28.89c0,0-3.98-5.37-1.68-10.05c0,0,2.95-7.24,2.02-12.81
						c0,0,3.4-1.59,7.39-1.91c1.71,2.08,5.97,8.4,11.62,8.27c0.23,0.91,0.63,1.91,0.74,3.01
						C194.03,138.87,194.86,122.99,179.65,123.47z"/>
					<path class="st13" d="M190.74,149.74L190.74,149.74c-1.67,0.9-3.84,0.97-5.61,0.09c-0.1-0.06-0.13-0.19-0.08-0.29
						c0.05-0.1,0.17-0.14,0.27-0.08c0,0,0.01,0.01,0.01,0.01c1.66,0.79,3.58,0.74,5.21-0.11c0.1-0.06,0.22-0.02,0.28,0.07
						c0,0.01,0.01,0.01,0.01,0.02c0.06,0.1,0.02,0.22-0.07,0.28C190.76,149.74,190.75,149.74,190.74,149.74z"/>
					<path class="st23" d="M173.8,144.1c-0.14-1.42-1.74-3.75-4.37-3.31c-2.72,0.45-3.72,6.14,3.17,7.12
						C173.58,148.05,174.08,147.06,173.8,144.1z"/>
					<path class="st9" d="M172.77,184.51l9.2-1.31c0,0,3.02,9.81-2.45,10.87C173.54,195.23,172.77,184.51,172.77,184.51z"/>
				</g>
				<path class="st13" d="M207.43,237.37c-0.46-4.54-1.17-10.73-2.1-15.58l0.09-5.36l-34.27,2.96l-0.31,4.98
					c-0.8,1.48-4.3,8.81-5.88,26.74c5.91,2.15,12.28,3.32,18.93,3.32c9.01,0,17.52-2.16,25.04-5.98L207.43,237.37z"/>
			</g>
		</g>
	</g>
</g>
<g id="Character">
	<g>
		<path class="st23" d="M294.34,220.82l-17.43,4.42c0,0-2.05-1.38-4.52-0.92c-2.46,0.46-8.65,5.51-8.4,6.25
			c0.24,0.73,7.69,4.17,8.76,3.89c3.84-1,7.8-5.47,7.8-5.47l15.58-3.21L294.34,220.82z"/>
		<g>
			<path class="st23" d="M338.03,158.14c-3.54,3.77-12.92,3.45-12.92,3.45s-3.09,0.27-3.86-2.36c3.39-0.84,3.91-3.28,4.44-5.39
				c0.3-1.23,0.26-2.58,0.04-3.96c-0.11-0.72-0.28-1.45-0.46-2.17l10.89-9.48C335.08,144.02,333.97,154.34,338.03,158.14z"/>
			<path class="st16" d="M333.91,143.9c0.09,6.97-5.46,9.34-8.22,9.95c0.3-1.23,0.26-2.58,0.04-3.96L333.91,143.9z"/>
			<path class="st23" d="M334.81,145.44c-2.46,4.22-6.92,5.62-10.95,4.69c-2.6-0.6-5.02-2.17-6.63-4.58c-0.22-0.31-0.41-0.65-0.6-1
				c-3.34-6.38-5.15-17.85,1.48-22.73c4.71-3.51,11.38-2.55,14.9,2.17c1.01,1.33,1.67,2.9,1.96,4.55
				C336.44,136.2,337.66,140.63,334.81,145.44z"/>
			<path class="st13" d="M323.63,134.05c0.2,0.6-0.04,1.19-0.45,1.29c-0.41,0.1-0.85-0.32-1.01-0.93c-0.16-0.61,0.05-1.2,0.45-1.29
				C323.02,133.02,323.47,133.43,323.63,134.05z"/>
			<path class="st13" d="M316.88,135.47c0.2,0.6-0.05,1.2-0.45,1.29c-0.4,0.1-0.85-0.32-1.01-0.93c-0.16-0.61,0.05-1.2,0.45-1.29
				C316.27,134.44,316.73,134.89,316.88,135.47z"/>
			<path class="st25" d="M319.31,135.66c-0.26,2.07-0.6,3.95-1.41,5.87c1.01,0.39,2.39-0.23,3.35-0.75L319.31,135.66z"/>
			<path class="st13" d="M325.63,130.77c-0.13,0.05-0.28,0.03-0.39-0.05c-0.72-0.61-1.69-0.84-2.62-0.62
				c-0.19,0.06-0.4-0.04-0.47-0.23c-0.06-0.19,0.04-0.4,0.23-0.47c0,0,0,0,0,0c1.1-0.29,2.37-0.04,3.31,0.74
				c0.16,0.12,0.2,0.35,0.07,0.52c0,0,0,0-0.01,0.01C325.74,130.7,325.69,130.74,325.63,130.77z"/>
			<path class="st13" d="M322.68,143.8L322.68,143.8c1.78-0.17,3.51-1.26,4.42-2.88c0.05-0.1,0.01-0.21-0.09-0.26
				c-0.09-0.05-0.21-0.01-0.26,0.08c0,0,0,0.01-0.01,0.01c-0.88,1.48-2.4,2.47-4.11,2.65c-0.1,0.01-0.18,0.1-0.18,0.2
				c0,0.01,0,0.01,0,0.02c0.01,0.1,0.1,0.18,0.2,0.18C322.66,143.8,322.67,143.8,322.68,143.8z"/>
			<path class="st13" d="M313.48,133.68c-0.06,0.04-0.13,0.07-0.21,0.07c-0.2-0.04-0.33-0.23-0.29-0.43c0,0,0-0.01,0-0.01
				c0.22-1.18,0.99-2.18,2.09-2.69c0.19-0.07,0.4,0.02,0.48,0.21c0,0,0,0,0,0c0.07,0.19-0.02,0.4-0.21,0.48l0,0
				c-0.85,0.42-1.45,1.22-1.62,2.15C313.67,133.57,313.59,133.65,313.48,133.68z"/>
			<path class="st23" d="M339.84,133.9c-0.4,1.92-1.55,3.6-3.2,4.67c-2.18,1.41-4.04-0.37-4.08-2.83c-0.01-2.19,1.08-5.62,3.59-6.02
				C338.66,129.34,340.3,131.54,339.84,133.9z"/>
		</g>
		<path class="st9" d="M305.4,164.08c0,0-5.38,4.55-8.02,12.97c-1.88,5.99-3.64,20.13-4.5,27.8c-0.34,3.06-2.67,5.53-5.7,6.05
			l-21.07,3.67l1.68,10.71l26.68-2.56c5.87-0.56,10.68-4.91,11.82-10.69c1.63-8.25,3.81-20.21,4.8-29.68
			C312.77,166.23,311.02,162.42,305.4,164.08z"/>
		<path class="st27" d="M305.4,164.08c0,0-5.38,4.55-8.02,12.97c-1.88,5.99-3.64,20.13-4.5,27.8c-0.34,3.06-2.67,5.53-5.7,6.05
			l-21.07,3.67l1.68,10.71l26.68-2.56c5.87-0.56,10.68-4.91,11.82-10.69c1.63-8.25,3.81-20.21,4.8-29.68
			C312.77,166.23,311.02,162.42,305.4,164.08z"/>
		<polygon class="st23" points="290.61,402.1 282.69,400.15 287.2,383.18 295.12,385.13 		"/>
		<path class="st28" d="M282.77,397.41l8.98,3.24c0.3,0.11,0.49,0.42,0.45,0.74l-0.92,7.11c-0.09,0.63-0.67,1.08-1.31,0.99
			c-0.08-0.01-0.17-0.03-0.25-0.06c-2.89-1.1-4.94-2.04-8.59-3.36c-2.25-0.81-9.11-3.03-12.22-4.15c-3.1-1.12-2.4-4.33-1.03-4.16
			c6.15,0.82,11.06,0.64,13.47-0.33C281.8,397.24,282.31,397.23,282.77,397.41z"/>
		<path class="st9" d="M279.85,397.82c-0.52-0.14-0.97-0.45-1.28-0.89c-0.19-0.33-0.21-0.73-0.03-1.07
			c0.07-0.21,0.26-0.36,0.48-0.38c0.97-0.13,2.83,2.2,3.03,2.47c0.05,0.05,0.06,0.14,0.02,0.2c-0.04,0.07-0.11,0.11-0.19,0.1
			C281.2,398.18,280.51,398.04,279.85,397.82z M279.3,395.89c-0.08-0.03-0.16-0.05-0.24-0.03c-0.05-0.02-0.13,0.03-0.19,0.17
			c-0.11,0.23-0.11,0.49,0.01,0.72c0.69,0.68,1.62,1.06,2.59,1.08C280.88,397.05,280.14,396.39,279.3,395.89z"/>
		<path class="st9" d="M281.84,398.24l-0.08-0.03c-0.61-0.69-1.5-2.85-1.07-3.58c0.15-0.25,0.46-0.36,0.73-0.26
			c0.28,0.06,0.52,0.24,0.66,0.49c0.6,1.01,0.02,3.2-0.01,3.3c-0.02,0.06-0.08,0.11-0.14,0.13
			C281.89,398.29,281.86,398.27,281.84,398.24z M281.43,394.71l-0.08-0.03c-0.23-0.08-0.29,0.04-0.32,0.09
			c-0.27,0.45,0.23,2.02,0.78,2.87c0.25-0.86,0.24-1.78-0.04-2.63C281.7,394.86,281.58,394.76,281.43,394.71z"/>
		<polygon class="st16" points="295.12,385.13 287.2,383.18 284.88,391.94 292.8,393.89 		"/>
		<polygon class="st23" points="343.05,402.02 334.95,402.98 333.2,385.51 341.3,384.55 		"/>
		<path class="st28" d="M334.06,400.39l9.55-0.12c0.32,0,0.6,0.22,0.68,0.53l1.64,6.98c0.14,0.62-0.25,1.25-0.88,1.39
			c-0.08,0.02-0.17,0.03-0.25,0.03c-3.09-0.01-5.34-0.17-9.22-0.12c-2.39,0.03-9.6,0.37-12.9,0.42c-3.3,0.04-3.77-3.21-2.43-3.53
			c6.04-1.4,10.58-3.29,12.5-5.05C333.1,400.57,333.57,400.38,334.06,400.39z"/>
		<path class="st9" d="M331.48,401.8c-0.53,0.05-1.07-0.08-1.52-0.38c-0.3-0.24-0.45-0.62-0.4-0.99c-0.01-0.22,0.11-0.43,0.31-0.52
			c0.86-0.46,3.42,1.07,3.71,1.24c0.07,0.03,0.1,0.11,0.09,0.18c-0.01,0.08-0.06,0.14-0.14,0.16
			C332.86,401.67,332.17,401.77,331.48,401.8z M330.29,400.19c-0.08-0.01-0.17,0.01-0.24,0.05c-0.05,0-0.11,0.07-0.12,0.22
			c-0.03,0.25,0.07,0.5,0.26,0.67c0.89,0.39,1.89,0.43,2.8,0.1C332.16,400.71,331.25,400.36,330.29,400.19z"/>
		<path class="st9" d="M333.48,401.5l-0.09,0c-0.82-0.43-2.41-2.14-2.26-2.97c0.05-0.29,0.3-0.49,0.59-0.5
			c0.29-0.04,0.57,0.04,0.79,0.23c0.92,0.73,1.14,2.99,1.15,3.1c0,0.07-0.03,0.13-0.09,0.17
			C333.55,401.52,333.51,401.51,333.48,401.5z M331.86,398.33l-0.09,0c-0.24,0-0.26,0.14-0.27,0.19c-0.09,0.51,0.92,1.81,1.74,2.41
			c-0.06-0.89-0.4-1.75-0.96-2.45C332.17,398.38,332.02,398.32,331.86,398.33z"/>
		<polygon class="st16" points="341.3,384.55 333.2,385.51 334.11,394.52 342.21,393.56 		"/>
		<path class="st9" d="M305.38,242.36c0,0-20.36,99.67-21.08,137.9l13.58,6.07c0,0,11.06-43.23,14.65-67.52
			c0,0,9.52-19.29,12.09-35.01c0,0-0.53,68.97,6.61,105.41l12.74-0.98c0,0,12.85-129.43,10.54-150.16L305.38,242.36z"/>
		<path class="st18" d="M305.38,242.36c0,0-20.36,99.67-21.08,137.9l13.58,6.07c0,0,11.06-43.23,14.65-67.52
			c0,0,9.52-19.29,12.09-35.01c0,0-0.53,68.97,6.61,105.41l12.74-0.98c0,0,12.85-129.43,10.54-150.16L305.38,242.36z"/>
		<path class="st16" d="M322.4,258.66c0,0-1.51,23.69,0.64,32.39c0.64-2.44,1.19-4.89,1.57-7.25L322.4,258.66z"/>
		<polygon class="st9" points="329.61,392.11 347.1,389.51 346.56,384.67 328.38,387.05 		"/>
		<polygon class="st9" points="282,383.99 298.89,389.19 300.5,384.59 283.07,378.89 		"/>
		<path class="st9" d="M305.4,164.08c0,0,2.16-4.27,21.14-5.37c18.98-1.1,27.48,1.71,27.48,1.71s-1.72,40.18,0.48,77.66
			c0,0-31.75,11.3-49.12,4.29C305.38,242.36,292.36,193.83,305.4,164.08z"/>
		<path class="st29" d="M333.34,158.47c-2.1,0.03-4.36,0.1-6.8,0.24c-1.46,0.09-2.82,0.19-4.09,0.31c0.02,0.03,1.62,3.07,4.09,3.07
			C329.57,162.09,332.27,160.33,333.34,158.47z"/>
		<path class="st30" d="M353.51,210.68l-28.89,14.61c0,0,18.21,0.56,29.11-5.34C353.63,216.81,353.56,213.72,353.51,210.68z"/>
		<polygon class="st27" points="326.17,169.96 336.44,215.65 334.16,221.56 		"/>
		<g>
			<g>
				<g>
					<g>
						
							<rect x="275.86" y="173.83" transform="matrix(0.9882 -0.1529 0.1529 0.9882 -27.011 48.7167)" class="st9" width="54.63" height="52.21"/>
						
							<rect x="275.86" y="173.83" transform="matrix(0.9882 -0.1529 0.1529 0.9882 -27.011 48.7167)" class="st11" width="54.63" height="52.21"/>
						
							<rect x="247.39" y="179.19" transform="matrix(0.9882 -0.1529 0.1529 0.9882 -28.2374 43.4875)" class="st9" width="42.34" height="52.21"/>
						
							<rect x="247.39" y="179.19" transform="matrix(0.9882 -0.1529 0.1529 0.9882 -28.2374 43.4875)" class="st10" width="42.34" height="52.21"/>
					</g>
				</g>
				
					<rect x="259.66" y="179.41" transform="matrix(0.9882 -0.1529 0.1529 0.9882 -25.3888 42.8203)" class="st10" width="11.98" height="14.06"/>
				
					<rect x="303.83" y="172.58" transform="matrix(0.9882 -0.1529 0.1529 0.9882 -23.8236 49.4951)" class="st12" width="11.98" height="14.06"/>
			</g>
			
				<rect x="276.79" y="218.5" transform="matrix(0.9882 -0.1529 0.1529 0.9882 -30.6914 45.9461)" class="st31" width="13.09" height="7.97"/>
			<path class="st32" d="M309.41,224.88l-1.33-1.76l-4.29,0.91c0,0-0.35,0.97-0.26,2.26l5.95-0.92L309.41,224.88z"/>
			<g>
				<path class="st3" d="M302.03,203.22c-0.98,0.34-2.41,0.32-2.54-1.01c-0.11-1.09,1.19-1.96,2.18-1.81
					c0.38,0.06,0.48-0.53,0.1-0.59c-1.38-0.2-3.01,0.97-2.87,2.46c0.17,1.74,2,1.97,3.35,1.51
					C302.61,203.65,302.4,203.09,302.03,203.22z"/>
				<path class="st3" d="M303.02,197.72c-0.08-0.37-0.68-0.31-0.59,0.06c0.42,1.9,0.84,3.81,1.27,5.71
					c0.08,0.37,0.68,0.31,0.59-0.06C303.86,201.53,303.44,199.62,303.02,197.72z"/>
				<path class="st3" d="M306.55,198.84c-0.04,0.02-0.08,0.04-0.1,0.07c-2.67,0.51-1.1,4.69,1.38,3.91c1.13-0.35,1.5-1.69,1.25-2.75
					C308.81,198.92,307.61,198.39,306.55,198.84z M307.87,202.15c-1.76,1-3.3-2.32-1.31-2.66c0.07-0.01,0.12-0.04,0.17-0.08
					c0.01,0,0.03-0.01,0.04-0.01C308.5,198.67,309.23,201.37,307.87,202.15z"/>
				<path class="st3" d="M311.54,197.26c-0.36,0.06-0.73,0.13-1.09,0.19c-0.06-0.39-0.12-0.79-0.18-1.18
					c-0.06-0.38-0.65-0.32-0.59,0.06c0.06,0.41,0.13,0.81,0.19,1.22c-0.36,0.06-0.72,0.12-1.07,0.19c-0.38,0.06-0.32,0.66,0.06,0.59
					c0.37-0.06,0.74-0.13,1.1-0.19c0.22,1.43,0.44,2.86,0.66,4.29c0.06,0.38,0.65,0.32,0.59-0.06c-0.22-1.44-0.45-2.89-0.67-4.33
					c0.35-0.06,0.71-0.12,1.06-0.18C311.98,197.79,311.92,197.19,311.54,197.26z"/>
				<path class="st3" d="M315.72,198.05c-0.79-0.42-1.67-0.42-2.38,0.08c-0.14-0.78-0.29-1.56-0.45-2.33
					c-0.08-0.37-0.67-0.31-0.59,0.06c0.41,1.99,0.76,3.99,1.04,6.01c0.05,0.38,0.65,0.32,0.59-0.06c-0.14-1-0.3-2.01-0.47-3.01
					c0,0,0.01-0.01,0.01-0.01c0.6-0.62,1.8-0.63,2.31,0.09c0.44,0.62,0.48,1.7,0.56,2.44c0.04,0.38,0.63,0.32,0.59-0.06
					C316.82,200.21,316.78,198.62,315.72,198.05z"/>
				<path class="st3" d="M318.24,196.91c-1.13,0.44-1.2,1.88-0.67,2.8c0.68,1.19,1.86,1.54,3.05,0.94c0.34-0.17,0.13-0.73-0.22-0.55
					c-0.68,0.34-1.27,0.41-1.87-0.12c-0.18-0.16-0.35-0.38-0.48-0.62c0.88,0.07,2.49-0.11,2.53-1.08
					C320.64,197.06,319.23,196.52,318.24,196.91z M319.92,198.38c-0.1,0.14-0.5,0.23-0.66,0.28c-0.48,0.15-0.91,0.17-1.4,0.08
					c-0.01,0-0.01,0-0.02,0c-0.05-0.32-0.01-0.65,0.2-0.92c0.3-0.39,0.76-0.49,1.23-0.37C319.58,197.52,320.2,197.97,319.92,198.38z
					"/>
				<path class="st3" d="M325.03,198.07c-0.31-0.64-1.05-0.8-1.69-0.67c-0.48,0.1-1.64,0.58-1.38-0.37
					c0.17-0.63,1.04-0.87,1.59-0.82c0.38,0.04,0.48-0.55,0.1-0.59c-1-0.09-2.93,0.8-2.31,2.12c0.29,0.61,1.03,0.54,1.57,0.4
					c0.31-0.08,0.65-0.24,0.97-0.19c0.56,0.08,0.83,0.65,0.47,1.12c-0.42,0.55-1.24,0.45-1.84,0.35c-0.38-0.06-0.48,0.53-0.1,0.59
					c0.75,0.12,1.61,0.17,2.21-0.37C325.05,199.25,325.29,198.61,325.03,198.07z"/>
			</g>
		</g>
		<path class="st23" d="M334.23,214.58l-17.47,4.26c0,0-2.04-1.4-4.51-0.97c-2.47,0.44-8.7,5.43-8.46,6.17
			c0.23,0.74,6.02,5.27,7.07,4.93c1.05-0.34,7.79-5.09,7.79-5.09l16.65-1.39L334.23,214.58z"/>
		<path class="st9" d="M352.89,160.36c0,0-7.35,1.95-6.3,15.57c0.46,5.92,0.69,12.24,0.8,17.5c0.16,7.19-3.85,13.82-10.3,17.02
			l-14.34,5.86l1.85,8.98c0,0,20.83-1.9,28.16-7.77s9.88-18.37,8.69-28.73C359.81,174.38,360.36,159.78,352.89,160.36z"/>
		<path class="st27" d="M352.89,160.36c0,0-7.35,1.95-6.3,15.57c0.46,5.92,0.69,12.24,0.8,17.5c0.16,7.19-3.85,13.82-10.3,17.02
			l-14.34,5.86l1.85,8.98c0,0,20.83-1.9,28.16-7.77s9.88-18.37,8.69-28.73C359.81,174.38,360.36,159.78,352.89,160.36z"/>
		<polygon class="st9" points="324.12,214.01 325.34,226.53 321.97,226.85 320.18,215.13 		"/>
		<polygon class="st18" points="324.12,214.01 325.34,226.53 321.97,226.85 320.18,215.13 		"/>
		
			<rect x="330.19" y="180.13" transform="matrix(0.996 -0.0891 0.0891 0.996 -14.7969 30.6622)" class="st19" width="11.67" height="1.86"/>
		<path class="st9" d="M326.54,158.71l3.76,5.01l7.93-5.23v-0.5c0-0.85-0.34-1.71-1.04-2.2c-0.63-0.44-1.44-0.54-2.55-0.17
			L326.54,158.71z"/>
		<path class="st9" d="M321.25,159.11l0.93-1.54c1.16-1.38,2.09-0.67,2.09-0.67l2.26,1.81l-3.3,5.01L321.25,159.11z"/>
		<path class="st18" d="M326.54,158.71l3.76,5.01l7.93-5.23v-0.5c0-0.85-0.34-1.71-1.04-2.2c-0.63-0.44-1.44-0.54-2.55-0.17
			L326.54,158.71z"/>
		<path class="st18" d="M321.25,159.11l0.93-1.54c1.16-1.38,2.09-0.67,2.09-0.67l2.26,1.81l-3.3,5.01L321.25,159.11z"/>
		<path class="st28" d="M339.64,133.7c0.53-3.42-1.85-3.89-3.41-3.47c-1.63,0.43-3.25,2.88-3.25,2.88
			c-1.52-2.46-2.38-8.68-2.38-8.68s-5.39,3.54-12.71,0.54c0,0-0.96,3.08-4.14,5.07c0,0-2.81-1.29-1.25-7.77
			c1.78-7.36,12.85-14.49,24.01-7.15c11.16,7.34,4.4,20.97,4.4,20.97s-2.52,4.46-4.77,6.14c0,0,0.33-2.28-0.01-3.97
			C336.15,138.25,339.13,137.03,339.64,133.7z"/>
		<g>
			<path class="st28" d="M316.58,123.13c0.61,0.75,1.4,1.48,2.23,2.07c0.83,0.61,1.75,1.11,2.72,1.48c0.97,0.38,1.99,0.64,3.04,0.73
				c1.05,0.13,2.11,0.04,3.16-0.08c-1.04,0.21-2.1,0.38-3.18,0.33c-1.07-0.01-2.15-0.19-3.18-0.51c-1.04-0.31-2.04-0.76-2.97-1.33
				c-0.94-0.58-1.79-1.23-2.59-2.07L316.58,123.13z"/>
		</g>
	</g>
</g>
<g id="Love">
	<g>
		<g>
			<path class="st9" d="M445.17,179.64c-8.09-7.24-17.56,2.58-17.56,2.58s-9.46-9.82-17.56-2.58
				c-11.54,10.33,5.24,28.82,17.56,32.53C439.93,208.47,456.71,189.97,445.17,179.64z"/>
			<path class="st18" d="M445.17,179.64c-8.09-7.24-17.56,2.58-17.56,2.58s-9.46-9.82-17.56-2.58
				c-11.54,10.33,5.24,28.82,17.56,32.53C439.93,208.47,456.71,189.97,445.17,179.64z"/>
		</g>
		<g>
			<path class="st9" d="M281.67,83.34c-8.09-7.24-17.56,2.58-17.56,2.58s-9.46-9.82-17.56-2.58c-11.54,10.33,5.24,28.82,17.56,32.53
				C276.43,112.16,293.21,93.66,281.67,83.34z"/>
			<path class="st18" d="M281.67,83.34c-8.09-7.24-17.56,2.58-17.56,2.58s-9.46-9.82-17.56-2.58
				c-11.54,10.33,5.24,28.82,17.56,32.53C276.43,112.16,293.21,93.66,281.67,83.34z"/>
		</g>
		<g>
			<path class="st9" d="M376.84,113.4c-3.31-2.96-7.17,1.05-7.17,1.05s-3.87-4.01-7.17-1.05c-4.72,4.22,2.14,11.78,7.17,13.29
				C374.7,125.18,381.55,117.62,376.84,113.4z"/>
			<path class="st18" d="M376.84,113.4c-3.31-2.96-7.17,1.05-7.17,1.05s-3.87-4.01-7.17-1.05c-4.72,4.22,2.14,11.78,7.17,13.29
				C374.7,125.18,381.55,117.62,376.84,113.4z"/>
		</g>
		<g>
			<path class="st9" d="M74.47,192.86c-3.31-2.96-7.17,1.05-7.17,1.05s-3.87-4.01-7.17-1.05c-4.72,4.22,2.14,11.78,7.17,13.29
				C72.33,204.64,79.19,197.08,74.47,192.86z"/>
			<path class="st18" d="M74.47,192.86c-3.31-2.96-7.17,1.05-7.17,1.05s-3.87-4.01-7.17-1.05c-4.72,4.22,2.14,11.78,7.17,13.29
				C72.33,204.64,79.19,197.08,74.47,192.86z"/>
		</g>
	</g>
</g>
</svg>
