<?xml version="1.0" encoding="utf-8"?>
<!-- Generator: Adobe Illustrator 23.0.3, SVG Export Plug-In . SVG Version: 6.00 Build 0)  -->
<svg version="1.1" xmlns="http://www.w3.org/2000/svg" xmlns:xlink="http://www.w3.org/1999/xlink" x="0px" y="0px"
	 viewBox="0 0 500 500" style="enable-background:new 0 0 500 500;" xml:space="preserve">
<style type="text/css">
	.st0{fill:#FFFDF5;}
	.st1{clip-path:url(#SVGID_2_);}
	.st2{fill:#895C4C;}
	.st3{fill:#FFCDBB;}
	.st4{fill:#EA8686;}
	.st5{fill:#634840;}
	.st6{fill:none;}
	.st7{fill:#CC526F;}
	.st8{fill:#E56780;}
	.st9{fill:#F28BA3;}
	.st10{fill:#4A6DA0;}
	.st11{fill:#FFFFFF;}
	.st12{opacity:0.3;clip-path:url(#SVGID_4_);}
	.st13{clip-path:url(#SVGID_6_);}
	.st14{fill:#B692C0;}
	.st15{clip-path:url(#SVGID_8_);}
	.st16{fill:#9572A0;}
	.st17{fill:#D8A67D;}
	.st18{fill:#ADE080;}
	.st19{clip-path:url(#SVGID_10_);}
	.st20{fill:#82AD59;}
	.st21{fill:#FFCC33;}
	.st22{fill:#CC6633;}
	.st23{fill:#F7903C;}
	.st24{fill:#F4B39F;}
	.st25{fill:#608EC6;}
	.st26{fill:#966B41;}
	.st27{fill:#669999;}
	.st28{opacity:0.3;clip-path:url(#SVGID_12_);}
	.st29{opacity:0.5;clip-path:url(#SVGID_12_);}
</style>
<g id="BACKGROUND">
	<rect x="0" y="0" class="st0" width="500" height="500"/>
</g>
<g id="OBJECTS">
	<g>
		<defs>
			<rect id="SVGID_1_" x="0" y="0" width="500" height="500"/>
		</defs>
		<clipPath id="SVGID_2_">
			<use xlink:href="#SVGID_1_"  style="overflow:visible;"/>
		</clipPath>
		<g class="st1">
			<g>
				<g>
					<path class="st2" d="M173.77,301.85c-0.8-4.58-2.4-8.77-3.2-13.35c-1.2-8.77-0.8-13.73,6.79-19.07
						c9.59-6.49,5.99-18.31,3.59-28.23c-2.8-11.83-5.19-24.03-9.59-35.09c-3.59-9.54-11.58-12.97-19.97-17.93
						c-8.79-5.34-17.18-12.59-21.97-21.36c-4.79-8.01-6.79-16.02-1.2-24.41c6.79-9.16,14.78-13.35,24.76-16.02
						c13.12-11.92,28.38-27.48,46-32.77c7.93-2.38,16.37-2.61,24.61-2.5c12.96,0.18,21.63,6.71,28.22,17.08
						c13.74,21.61,14.19,47.61,21.8,71.21c1.6,4.96,3.59,9.54,5.19,14.5c1.2,3.43,2,9.54,4.39,12.59c3.2,3.81,9.59,2.67,11.98,7.63
						c2,4.2-0.4,9.16-2.8,12.21c-2.4,3.05-6.39,5.34-5.19,9.54c1.2,3.81,5.19,3.81,8.39,4.96c6.39,2.29,7.99,9.16,8.39,15.26
						c0.4,6.87,0,12.21-2.8,18.31c-2.8,6.87-6.39,20.22-16.38,20.6L173.77,301.85z"/>
				</g>
				<g>
					<path class="st3" d="M258.18,289.73c-2.36,0.35-6.38-0.04-7.72,0.1c-4.39,0.57-8.39,1.91-12.38,3.24
						c-7.79,2.67-16.78,9.73-16.18,18.5c-3-5.91-5.99-10.87-13.18-13.35c-3.19-1.14-8.59-1.91-11.98-0.38
						c3.4-1.53,8.79-0.76,11.98,0.38c7.19,2.48,10.19,7.44,13.18,13.35c-0.6-8.77,8.39-15.83,16.18-18.5
						c3.99-1.34,7.99-2.67,12.38-3.24C251.8,289.69,255.81,290.08,258.18,289.73c-0.35-4.87-0.86-9.72-1.63-14.68
						c-5.39-0.57-10.19,1.43-15.28-1.43c-3.53-2.25-12.41-20.02-17.52-32.25c9.94-7.06,14.78-18.06,20.21-28.69
						c5.99-11.16,4.49-26.61,0.9-38.34c-0.4-1.25-0.8-2.51-1.21-3.77c-7.38-4.95-14.24-13.18-18.26-18.83
						c-3.65-5.33-7.13-11.69-9.92-18.02c-6.8,1.21-13.67,2.12-19.73,2.86c-10.78,1.43-20.07,0.57-30.86,1.14
						c-2.1,8.3-3.59,14.88-9.29,22.03c-2.28,2.91-5.05,6.15-8.3,8.36c0.38,1.73,0.86,3.44,1.41,5.09c1.8,6.01,4.79,11.73,6.89,17.74
						c2.4,6.01,3.89,12.3,6.29,18.31c2.1,6.29,5.09,12.88,5.99,19.17c1.5,7.44,4.19,10.3,11.38,13.16
						c5.99,2.58,11.98,4.58,18.57,4.86c0.77,0.04,1.55,0.08,2.33,0.14c2.18,7.51,5.51,20.86,4.27,28.76
						c-0.9,5.15-6.89,6.58-11.08,8.58l-2.1,26.32c0.6,2.29,0.9,5.72,2.1,7.72c4.49,6.29,16.48,4.01,23.07,4.29
						c4.49,0,8.99,0.86,13.48,0.57c4.49-0.29,8.69-3.15,12.88-4.86c4.49-2.29,10.19-5.44,13.78-8.87c3.59-3.15,2.4-6.87,2.1-11.16
						C258.54,295.17,258.37,292.44,258.18,289.73z"/>
				</g>
				<g>
					<g>
						<path class="st4" d="M195.73,228.98c2.22,0.19,4.36,0.04,6.36-0.52c2-0.57,3.88-1.48,5.56-2.68c1.71-1.18,3.22-2.64,4.59-4.26
							c1.35-1.63,2.52-3.43,3.56-5.41c-0.23,2.23-1.08,4.39-2.29,6.32c-1.2,1.94-2.82,3.64-4.7,4.98c-1.9,1.31-4.1,2.27-6.41,2.57
							C200.11,230.31,197.74,229.98,195.73,228.98z"/>
					</g>
					<g>
						<path class="st4" d="M183.45,188.93c2.06,1.23,3.57,3.34,4.37,5.68c0.42,1.18,0.6,2.45,0.55,3.75
							c-0.01,0.63-0.21,1.4-0.44,1.98c-0.23,0.61-0.51,1.16-0.79,1.69c-0.57,1.04-1.16,2.01-1.4,2.92c-0.25,0.91-0.1,1.63,0.6,2.31
							c0.73,0.65,1.78,1.17,2.82,1.61c1.05,0.46,2.16,0.83,3.27,1.24c-1.19,0.03-2.37-0.09-3.56-0.3c-1.18-0.25-2.37-0.54-3.51-1.32
							c-0.14-0.1-0.28-0.21-0.42-0.33c-0.07-0.06-0.15-0.15-0.22-0.22l-0.15-0.17c-0.26-0.35-0.42-0.64-0.56-1.01
							c-0.27-0.73-0.26-1.53-0.13-2.22c0.31-1.37,0.97-2.42,1.48-3.44c0.28-0.5,0.53-0.99,0.73-1.47c0.21-0.5,0.3-0.88,0.37-1.42
							c0.14-1.03,0.03-2.11-0.17-3.18C185.87,192.87,184.94,190.77,183.45,188.93z"/>
					</g>
					<g>
						<g>
							<path class="st5" d="M158.89,174.62c-0.71-0.84-1.08-1.91-1.22-3c-0.13-1.09-0.01-2.24,0.4-3.31c0.4-1.07,1.13-2.06,2.1-2.71
								c0.97-0.65,2.15-0.93,3.22-0.71c-0.91,0.6-1.63,1.2-2.18,1.89c-0.55,0.68-0.95,1.43-1.27,2.25c-0.31,0.82-0.54,1.69-0.7,2.62
								C159.06,172.58,158.98,173.54,158.89,174.62z"/>
						</g>
						<g>
							<path class="st5" d="M214.01,151.16c-1.1-0.64-2.11-1.23-3.15-1.74c-1.03-0.52-2.06-0.96-3.1-1.3
								c-1.05-0.33-2.1-0.55-3.19-0.59c-1.09-0.04-2.21,0.13-3.44,0.48c0.75-1.04,1.96-1.75,3.28-2.04
								c1.32-0.29,2.71-0.16,3.96,0.24c1.26,0.4,2.4,1.07,3.37,1.9C212.7,148.97,213.53,149.97,214.01,151.16z"/>
						</g>
					</g>
					<g>
						<path d="M218.05,176.84c0.74,3.48-0.46,6.66-2.69,7.09c-2.23,0.44-4.64-2.04-5.38-5.52c-0.74-3.48,0.46-6.66,2.69-7.09
							C214.89,170.89,217.3,173.36,218.05,176.84z"/>
						<path d="M177.81,189.2c1.06,3.41,0.16,6.67-2.02,7.29c-2.18,0.62-4.81-1.63-5.88-5.04c-1.06-3.41-0.16-6.67,2.02-7.29
							C174.12,183.53,176.75,185.79,177.81,189.2z"/>
					</g>
				</g>
				<g>
					<path class="st3" d="M240.97,173.48c4.79-4.29,11.38-8.01,18.57-4.29c10.79,5.44,8.69,25.46-1.5,30.61
						c-5.39,2.58-10.79,2.29-16.48,0.57L240.97,173.48z"/>
				</g>
			</g>
			<path class="st6" d="M255.06,273.59c-0.1,5.79-0.43,15.03-0.59,26.06C256.86,291.72,255.1,280.8,255.06,273.59z"/>
			<g>
				<g>
					<path class="st7" d="M186.15,285.63c-3.59,0-6.59,1.72-10.19,3.43c-10.79,4.01-20.97,6.29-21.57,20.03
						c-1.2,25.75,2.4,51.5,4.79,77.25c1.8,18.88,1.8,37.77,2.4,56.65c0.6,18.88-2.4,43.77-1.2,62.65
						c14.98,0.57,33.55,1.86,46.14,1.29L186.15,285.63z"/>
				</g>
				<g>
					<g>
						<path class="st8" d="M331.33,419.16c-0.83-2.04-1.56-4.15-2.33-6.17c-3.11-8.12-7.41-15.87-11.83-23.4
							c-9.19-15.64-15.18-31.66-22.37-48.07c-6.79-15.64-14.38-30.9-14.38-48.07c0-7.63,2.8-18.31,13.18-18.31
							c9.19,0,12.38,12.59,14.78,19.07c5.99,16.4,13.18,32.81,19.97,49.21c6.39,15.64,14.78,30.14,21.57,45.01
							c3.99,8.39,11.18,24.41,7.99,33.18c-2.22,6.11-8.36,11.12-15.4,9.14C336.28,429.02,333.44,424.31,331.33,419.16z"/>
					</g>
					<g>
						<g>
							<g>
								<path class="st3" d="M338.73,350.29c2.4-6.1,2.4-15.26,2.8-21.74l0,0c-5.59-1.91-6.79-16.02-6.39-20.98
									c0-3.81,2-7.25,2.4-11.06c0.4-4.2,0-8.39-0.4-12.21c-0.8-8.39-0.8-16.4-0.8-24.8c0-3.43,1.11-8.45,3.6-9.16
									c4.8-1.36,4,5.72,4,9.54c0.4,9.92-0.4,21.74,3.19,31.28c3.2-7.25,2.99-45.34,11.58-43.91c6.34,1.06-3.99,39.33-2.79,46.2
									c12.78,0.76,24.17-9.54,16.18,21.55c-1.52,5.93-4.66,21.74-16.98,18.88c0,5.34,0.4,10.68,0.4,16.02c0,3.05,0,5.72,0,8.39
									c0,0.76,0,3.43,0,1.14L338.73,350.29z"/>
							</g>
							<g>
								<path class="st3" d="M367.09,289.07c0.4-1.53,3.4-1.53,4.79-1.14c3.4,0.76,3.4,4.01,3.2,6.87c-0.2,4.77-3,9.16-6.59,12.4
									c-1.4,1.33-3.39,2.48-5.39,0.95c-1.2-0.95-1.4-2.67-1-3.82L367.09,289.07z"/>
								<g>
									<path class="st4" d="M367.09,289.07c0.15-0.57,0.67-0.93,1.21-1.11c0.54-0.19,1.11-0.26,1.68-0.28
										c1.13-0.02,2.31,0.08,3.35,0.67c0.51,0.29,0.97,0.7,1.29,1.21c0.33,0.51,0.53,1.07,0.67,1.65c0.28,1.15,0.3,2.34,0.29,3.48
										c0.05,2.34-0.52,4.74-1.55,6.87c-1.03,2.15-2.49,4.06-4.16,5.71c-0.82,0.76-1.75,1.69-3.03,2.2
										c-0.63,0.27-1.38,0.39-2.12,0.3c-0.74-0.09-1.42-0.4-1.97-0.82c-1.22-0.89-1.66-2.42-1.53-3.72
										c0.03-0.33,0.11-0.67,0.22-0.99l0.32-0.81l0.62-1.58C364.07,297.63,365.68,293.38,367.09,289.07z M367.09,289.07
										c-1.41,4.31-2.62,8.68-3.76,13.09l-0.43,1.65l-0.21,0.81c-0.05,0.22-0.07,0.45-0.07,0.68c0,0.94,0.44,1.83,1.12,2.23
										c1.51,1.04,3.2-0.08,4.74-1.7c3.09-3.02,5.65-6.79,6.12-11.21c0.14-1.12,0.26-2.23,0.11-3.31
										c-0.13-1.07-0.58-2.14-1.53-2.73c-0.92-0.6-2.08-0.82-3.2-0.83c-0.56,0-1.13,0.06-1.67,0.24
										C367.78,288.16,367.26,288.5,367.09,289.07z"/>
								</g>
							</g>
							<g>
								<path class="st3" d="M355.11,302.42c1-6.29-0.2-14.69,3.4-20.22c1.6-2.29,3.99-2.67,6.39-1.34c2.4,1.14,2.79,3.05,2.4,5.34
									c-0.6,4.58-2,9.54-3.2,13.92c-0.8,2.67-1.6,5.72-4.79,6.48c-2.8,0.57-4.19-1.33-4.39-3.81L355.11,302.42z"/>
								<g>
									<path class="st4" d="M355.11,302.42c0.38-5.31-0.41-10.64,0.82-16.08c0.29-1.35,0.77-2.68,1.46-3.94
										c0.63-1.27,1.82-2.56,3.41-3.04c1.59-0.5,3.32-0.05,4.55,0.64c0.63,0.3,1.35,0.77,1.9,1.4c0.57,0.62,0.92,1.45,1.08,2.24
										c0.14,0.8,0.11,1.58,0.01,2.3l-0.31,2c-0.23,1.34-0.5,2.66-0.82,3.97c-0.65,2.61-1.37,5.19-2.16,7.74
										c-0.4,1.29-0.79,2.57-1.4,3.86c-0.61,1.26-1.58,2.52-2.95,3.13c-0.67,0.3-1.4,0.47-2.13,0.47c-0.72,0-1.49-0.17-2.09-0.61
										c-1.23-0.89-1.59-2.39-1.6-3.7l0-0.01l0-0.01L355.11,302.42z M355.11,302.42l-0.17,0.4l0-0.02
										c0.21,1.29,0.77,2.62,1.86,3.19c1.06,0.58,2.41,0.33,3.43-0.25c1.05-0.58,1.74-1.62,2.19-2.77
										c0.46-1.16,0.79-2.45,1.1-3.73c0.62-2.59,1.3-5.16,1.83-7.74c0.28-1.29,0.54-2.58,0.74-3.87l0.28-1.95
										c0.08-0.6,0.08-1.16-0.01-1.68c-0.18-1.02-0.81-1.74-1.91-2.27c-1.06-0.61-2.14-0.82-3.13-0.57
										c-0.99,0.27-1.84,1.02-2.42,2.1c-0.61,1.06-1.13,2.23-1.47,3.46C355.99,291.69,356.3,297.19,355.11,302.42z"/>
								</g>
							</g>
							<g>
								<path class="st3" d="M354.91,325.31c2.2-6.87-2.6-16.02-9.59-18.69c4.99,1.72,9.79,4.58,15.38,4.2
									c7.99-0.57,2.4-6.29-0.4-9.16c-4.59-4.77-18.17-12.59-23.97-6.29c-4.19,4.58-4,13.92-3.2,19.65c1,6.29,3.6,10.49,8.99,13.92
									"/>
								<path class="st4" d="M354.91,325.31c0.5-1.85,0.49-3.78,0.16-5.62c-0.33-1.85-1.01-3.62-1.93-5.24
									c-1.84-3.22-4.65-5.97-8.06-7.2l0.46-1.26c3.79,1.24,7.33,3.02,11.04,3.69c1.83,0.33,3.75,0.41,5.49,0.03
									c0.85-0.17,1.6-0.57,1.73-0.98c0.2-0.38-0.05-1.21-0.49-1.95c-0.9-1.53-2.25-2.93-3.61-4.32c-1.3-1.35-2.82-2.5-4.41-3.57
									c-3.17-2.1-6.67-3.87-10.33-4.63c-1.82-0.36-3.69-0.45-5.35,0.07c-0.83,0.26-1.58,0.67-2.22,1.24
									c-0.64,0.55-1.17,1.32-1.65,2.08c-1.8,3.21-2.31,7.16-2.38,10.99c-0.04,3.86,0.22,7.79,1.53,11.41
									c0.67,1.8,1.62,3.5,2.88,4.98c1.24,1.49,2.74,2.77,4.35,3.9c-1.69-1-3.32-2.15-4.68-3.61c-1.38-1.44-2.49-3.14-3.3-4.97
									c-0.8-1.84-1.34-3.79-1.63-5.77c-0.29-1.97-0.48-3.95-0.53-5.94c-0.03-1.99,0.06-4,0.38-6c0.33-1.99,0.85-4,1.88-5.85
									c0.55-0.91,1.13-1.79,1.96-2.55c0.82-0.75,1.81-1.32,2.85-1.66c2.1-0.69,4.28-0.6,6.29-0.21c4.05,0.83,7.71,2.66,11.07,4.86
									c1.66,1.13,3.28,2.37,4.7,3.86c1.36,1.42,2.78,2.87,3.88,4.74c0.26,0.48,0.51,0.99,0.66,1.59c0.14,0.59,0.2,1.33-0.12,2.04
									c-0.31,0.71-0.9,1.19-1.44,1.47c-0.55,0.28-1.1,0.45-1.63,0.55c-2.11,0.41-4.19,0.26-6.21-0.14
									c-4.03-0.85-7.53-2.79-11.15-4.1l0.46-1.26c1.86,0.76,3.51,1.93,4.9,3.32c1.4,1.39,2.52,3.02,3.37,4.77
									c0.85,1.75,1.43,3.62,1.66,5.54C355.73,321.54,355.56,323.51,354.91,325.31z"/>
							</g>
						</g>
						<g>
							<path class="st9" d="M336.24,345.14c-0.3,1.72-0.9,3.72-0.9,5.72c-0.3,3.72-0.9,5.72-1.8,9.16c-1.2,3.72-0.3,5.72,0.3,9.16
								c0.3,3.43-1.5,6.01-2.4,9.16c-0.9,3.15-1.2,6.29-1.8,9.44c-0.9,6.01-3,12.02-3,18.02c0.3,12.3,8.39,27.18,22.47,28.61
								c13.48,1.43,11.68-22.89,11.08-31.47c-0.3-4.58-1.8-8.87-1.2-13.45c1.2-5.44,1.2-7.15-0.3-12.59
								c-2.1-6.58,2.7-17.74,4.19-24.32L336.24,345.14z"/>
						</g>
					</g>
				</g>
				<g>
					<g>
						<path class="st8" d="M212.11,458.63c0-20.98,3.2-45.01-5.19-64.47c-3.2-8.01-7.19-15.26-8.79-23.65
							c-1.6-8.39-1.2-16.79-1.2-25.56c0-12.21,1.62-47.4,2.4-63.46c0-1.67,0-2.73,0-2.73l-19.77,8.58c2.4,14.88,1.8,30.9-0.6,45.21
							c-1.2,11.44-4.79,22.32-5.39,33.19c-0.6,13.16,8.39,24.61,13.78,36.05c13.78,31.47,4.79,72.67,0,104.71
							c1.92,0.13,11.06,0.26,24.04,0.36C210.89,490.94,212.11,474.34,212.11,458.63z"/>
					</g>
					<g>
						<path class="st8" d="M328.15,481.33c-8.99-12.59-14.98-23.46-19.77-37.19c-4.79-13.16-7.79-24.03-7.79-37.77
							c0-13.73,2.4-27.47,4.19-41.2c1.2-11.44,1.8-23.46,2.4-35.48c0.6-12.02,2.4-24.61,0-35.48c-3-13.73-8.09-20.89-22.47-20.89
							h-29.65c0,0.09,0,0.17-0.01,0.26c0.04,7.21,1.8,18.13-0.59,26.06c-0.43,29.72,0.35,72.4,9.97,95.27
							c9.19,21.74,11.18,45.4,13.98,68.67c1.66,14.3,2.21,28.87,2.35,43.48c32.3-0.06,61.05-0.35,63.4-1.07
							c0-0.04,0.03-0.06,0.15-0.06c-0.02,0.02-0.08,0.04-0.15,0.06c0,0.15,0.75,0.51,0.75,0.51
							C338.33,500.21,332.94,488.77,328.15,481.33z"/>
					</g>
					<g>
						<path class="st10" d="M278.15,461.28c-21.65,4.01-45.39,6.49-66.07,1.77c-0.18,14.39-1.14,29.37-0.68,43.82
							c18.56,0.15,44.97,0.24,69.38,0.2c-0.14-14.61-0.69-29.18-2.35-43.48C278.33,462.82,278.24,462.05,278.15,461.28z"/>
					</g>
					<g>
						<g>
							<path class="st11" d="M278.15,461.28c-2.66-22.52-4.82-45.33-13.71-66.36c-9.63-22.87-10.41-65.55-9.97-95.27
								c-0.66,2.17-1.61,4.14-3.01,5.72c-6.59,6.87-23.97,7.15-33.55,7.73c-3.59,0-10.78,1.14-14.38,0
								c-5.39-1.72-5.1-6.36-5.1-12.08c0-5.11-1.49,31.72-1.49,43.93c0,8.77-0.4,17.17,1.2,25.56c1.6,8.39,5.59,15.64,8.79,23.65
								c8.39,19.46,5.19,43.49,5.19,64.47c0,1.46-0.02,2.94-0.04,4.42C232.76,467.77,256.5,465.29,278.15,461.28z"/>
						</g>
						<g>
							<defs>
								<path id="SVGID_3_" d="M278.15,461.28c-2.66-22.52-4.82-45.33-13.71-66.36c-9.63-22.87-10.41-65.55-9.97-95.27
									c-0.66,2.17-1.61,4.14-3.01,5.72c-6.59,6.87-23.97,7.15-33.55,7.73c-3.59,0-10.78,1.14-14.38,0
									c-5.39-1.72-5.1-6.36-5.1-12.08c0-5.11-1.49,31.72-1.49,43.93c0,8.77-0.4,17.17,1.2,25.56c1.6,8.39,5.59,15.64,8.79,23.65
									c8.39,19.46,5.19,43.49,5.19,64.47c0,1.46-0.02,2.94-0.04,4.42C232.76,467.77,256.5,465.29,278.15,461.28z"/>
							</defs>
							<clipPath id="SVGID_4_">
								<use xlink:href="#SVGID_3_"  style="overflow:visible;"/>
							</clipPath>
							<g class="st12">
								<g>
									<g>
										<path class="st10" d="M352.87,348.56c-82.3,20.43-168.65,25.9-254.81,15.34c0.46-4.18,0.93-8.36,1.4-12.54
											c84.64,10.4,169.45,5.04,250.27-15.01C350.77,340.41,351.82,344.49,352.87,348.56z"/>
									</g>
									<g>
										<path class="st10" d="M345.96,321.46C266.95,341.06,184,346.29,101.21,336.1c0.48-4.18,0.97-8.36,1.47-12.53
											c81.28,10.01,162.69,4.87,240.22-14.35C343.91,313.3,344.93,317.38,345.96,321.46z"/>
									</g>
									<g>
										<path class="st10" d="M359.94,375.63c-85.59,21.29-175.35,27.01-264.86,16.09c0.44-4.19,0.88-8.37,1.32-12.56
											c87.99,10.77,176.21,5.16,260.32-15.74C357.8,367.49,358.87,371.56,359.94,375.63z"/>
									</g>
									<g>
										<path class="st10" d="M367.18,402.66c-88.88,22.17-182.04,28.16-274.91,16.9c0.41-4.19,0.83-8.38,1.25-12.57
											c91.35,11.11,182.98,5.25,270.37-16.53C364.98,394.53,366.08,398.59,367.18,402.66z"/>
									</g>
									<g>
										<path class="st10" d="M374.57,429.65C282.41,452.72,185.84,459,89.61,447.42c0.39-4.19,0.78-8.38,1.18-12.58
											c94.71,11.44,189.74,5.29,280.42-17.37C372.33,421.53,373.44,425.59,374.57,429.65z"/>
									</g>
								</g>
							</g>
						</g>
					</g>
				</g>
			</g>
		</g>
	</g>
	<g>
		<defs>
			<rect id="SVGID_5_" x="0" y="0" width="500" height="500"/>
		</defs>
		<clipPath id="SVGID_6_">
			<use xlink:href="#SVGID_5_"  style="overflow:visible;"/>
		</clipPath>
		<g class="st13">
			<g>
				<path class="st3" d="M462.46,193.18c-4.23,0.36-8.29,1.39-12.78,0.74c-4.83-0.57-4.58-2.43-7.31-6.06
					c-3.06-3.54-5.35-4.04-6.22-8.86c-1.65-7.87-1.42-15.49-0.53-23.29c1.05-11.44-10.36-5.29-13.29,1.58
					c-2.43,6.02-1.21,12.2-1.02,18.64c0.03,7.2-6.99,7.91-13.25,10.22c-5.33,1.72-13.62,3.11-17.58,7.36
					c-5.31,6.04,1.16,13.04,7.77,13.51c-1.84,4.07,0.8,8.8,4.54,10.73c-2.52,4.25,3.49,10.4,4.48,10.34c0,0,0.41,4.62,4.06,6.22
					c5.17,1.92,15.15-1.34,20.06-3.31c6.59-2.4,11.82-7.34,16.8-11.85c4.64-4.42,13.27-4.46,19.46-4.24L462.46,193.18z"/>
			</g>
			<g>
				<path class="st14" d="M537.81,152.36c-24.08,11.54-56.54,26.3-83.06,32.52c1.96,11.93,5.83,25,9.31,36.54
					c8.37-3.21,14.61,0.06,22.6-2.52c7.48-2.45,16.38-1.47,24.89-2.02c5.97,0.1,40.4,1.59,41.28-1.33L537.81,152.36z"/>
			</g>
			<g>
				<defs>
					<path id="SVGID_7_" d="M537.81,152.36c-24.08,11.54-56.54,26.3-83.06,32.52c1.96,11.93,5.83,25,9.31,36.54
						c8.37-3.21,14.61,0.06,22.6-2.52c7.48-2.45,16.38-1.47,24.89-2.02c5.97,0.1,40.4,1.59,41.28-1.33L537.81,152.36z"/>
				</defs>
				<clipPath id="SVGID_8_">
					<use xlink:href="#SVGID_7_"  style="overflow:visible;"/>
				</clipPath>
				<g class="st15">
					<g>
						<g>
							<path class="st16" d="M482.51,174.03c6.42,18.9,11.6,38.26,14.52,58.02c0.04,0.27,1.01,0.41,0.96,0.09
								c-2.92-19.76-8.1-39.12-14.52-58.02C483.38,173.85,482.42,173.76,482.51,174.03L482.51,174.03z"/>
						</g>
					</g>
					<g>
						<path class="st16" d="M481.47,213c0.36,1.41,2.61,2.05,5.02,1.43c2.41-0.61,4.08-2.25,3.72-3.66
							c-0.36-1.41-2.61-2.05-5.02-1.43C482.78,209.95,481.11,211.59,481.47,213z"/>
					</g>
				</g>
			</g>
		</g>
		<g class="st13">
			<g>
				<path class="st17" d="M39.81,432.53c3.6-2.25,17.77-8.9,20.97-12.12c3.52-3.35,2.21-4.7,2.21-9.24
					c0.33-4.67,1.86-6.44-0.34-10.82c-3.41-7.28-8.16-13.25-13.55-18.95c-7.7-8.52,5.11-10.44,11.58-6.71
					c5.56,3.36,8.29,9.03,12,14.3c4.29,5.78,10.34,2.13,16.73,0.23c5.29-1.82,12.76-5.69,18.48-4.66c7.87,1.64,6.9,11.12,1.9,15.47
					c3.92,2.15,4.64,7.52,2.81,11.31c4.56,1.88,3.45,10.41,2.62,10.96c0,0,2.44,3.94,0.48,7.41c-2.99,4.64-12.92,8.02-18.03,9.39
					c-6.72,2.04-13.86,1.22-20.55,0.6c-6.36-0.76-21.81,11.03-26.62,14.92L39.81,432.53z"/>
			</g>
			<g>
				<path class="st18" d="M-44.94,446.39c26.19-5.22,61.01-12.89,85.95-23.83c5.59,10.72,10.34,23.49,14.48,34.82
					c-8.62,2.45-11.65,8.81-19.59,11.55c-7.45,2.53-13.99,8.65-21.12,13.32c-4.72,3.66-31.36,25.52-33.82,23.71L-44.94,446.39z"/>
			</g>
			<g>
				<defs>
					<path id="SVGID_9_" d="M-44.94,446.39c26.19-5.22,61.01-12.89,85.95-23.83c5.59,10.72,10.34,23.49,14.48,34.82
						c-8.62,2.45-11.65,8.81-19.59,11.55c-7.45,2.53-13.99,8.65-21.12,13.32c-4.72,3.66-31.36,25.52-33.82,23.71L-44.94,446.39z"/>
				</defs>
				<clipPath id="SVGID_10_">
					<use xlink:href="#SVGID_9_"  style="overflow:visible;"/>
				</clipPath>
				<g class="st19">
					<g>
						<g>
							<path class="st20" d="M21.55,420.83c9.42,18.43,21.48,36.46,23.31,57.62c0.02,0.28,1.02,0.17,0.99-0.12
								c-1.83-21.2-13.92-39.26-23.36-57.72C22.38,420.37,21.41,420.54,21.55,420.83L21.55,420.83z"/>
						</g>
					</g>
					<ellipse class="st20" cx="46.69" cy="455.31" rx="2.5" ry="2.42"/>
				</g>
			</g>
		</g>
		<g class="st13">
			<g>
				<path class="st2" d="M443.18,405.16c4.81-0.51,9.23,0.14,12.45-3.38c5.28-5.74,5.24-11.41,3.28-18.71
					c-2.27-7.7-4.67-14.35-4.42-22.46c0.6-8.07,1.47-15.39,3.08-22.98c0.76-3.45,0.99-8.37-4.1-7.21c-3.61,0.63-4.23,5.87-4.95,8.96
					c-1.57,7.24-2.13,14.96-4.74,22.08c0,0,5.75-41.08-2.1-41.99c-8.75-1.02-5.34,36.16-7.87,42.58c-0.04,0.35-0.08,0.7-0.12,1.05
					c-0.53-7.49-0.71-14.94-0.89-22.39c-0.04-5.66,1.53-21.93-5.24-21.49c-9.63,0.63-2.72,43.9-2.72,43.9s-3.72-8.93-7.57-12.22
					c-5.48-4.54-10.21-1.92-14.28,2.55c-2.03,2.24-9.35,10.21-7.28,13.64c2.87,5.65,13.61-7.38,13.61-7.38
					c7.33,0.87,9.41,16.12,7.27,22.23c-1.54,4.06-7.91,4.02-10.32,0.55c-2.46-3.12-1.49-8.31-3.99-11.09
					c-7.51-8.32-8.54,6.42-8.38,11.04c0.84,7.88,7.29,16.08,14.37,19.04c7.84,3.28,16.77,3.27,25.27,3.76
					C436.54,405.41,439.9,405.5,443.18,405.16z"/>
			</g>
			<g>
				<path class="st2" d="M482.9,402.27c-12.17-2.5-22.54-13.55-29.04-23.61c-3.1,6-6.04,10.69-10.85,15.43
					c-3.9,3.78-11.63,6.32-15.52,10.1c6.99-0.76,18.99,0.92,25.16,4.84c3.94,2.59,7.88,5.18,11.82,7.77
					c2.46,1.62,6.28,5.25,8.6,5.79L482.9,402.27z"/>
			</g>
			<g>
				<path class="st21" d="M564.7,430.8c-10.03-4.9-20.13-9.28-30.28-13.14c-5.11-1.67-7.94-4.65-12.4-7.31
					c-4.4-3.17-8.19-2.56-13.36-3.7c-4.65-1.08-7.94-4.65-12.52-6.26c-1.97-1.29-4.13-1.02-6.16-1.79
					c-2.49-1.36-3.35-3.05-5.91-3.88c-7.31,12.4-17.17,23.97-24.41,35.85c2.31,2.93,6.16,1.79,9.76,2.75
					c5.63,1.73,6.25,5.52,10.65,8.69c3.48,2,7.72,1.98,11.33,2.93c5.05,2.19,6.89,4.53,10.18,8.11c3.69,4.68,39.57,33.34,40.8,31.89
					L564.7,430.8z"/>
			</g>
		</g>
		<g class="st13">
			<g>
				<path class="st22" d="M49.23,92.01c-5.16,12.6-16.16,20.03-24.57,16.59c-8.41-3.44-11.05-16.45-5.89-29.06
					c5.16-12.61,16.16-20.03,24.57-16.59C51.75,66.39,54.39,79.4,49.23,92.01z"/>
			</g>
			<g>
				<path class="st3" d="M59.04,82.89C47.79,76.6,36.81,68.66,26.13,60.94c-15.56-11.26-47.7-36.84-48.39-37.8
					C-27.84,26.99-44.02,53.85-48,59.34l0,0l0,0c14.64,10.59,93.25,45.17,94.17,45.83L59.04,82.89z"/>
			</g>
			<g>
				<path class="st23" d="M23.42,107.99c0.6-7.56-1.33-15.11,1.09-22.68c3.33-9.38,12.65-15.96,21.13-21.1
					c-7.54-6.57-13.26-8.25-19.61-10.97c-3.93-1.82-4.84-4.54-7.87-7.26c-2.42-2.72-6.05-3.93-8.77-6.05
					c-3.93-2.72-6.96-6.35-10.59-9.38c-1.82-1.51-1.51-2.42-3.63-1.51c-2.12,0.91-5.14,5.45-6.66,7.26
					c-5.75,7.26-11.5,17.55-14.22,26.32c-1.21,4.24-1.51,8.77-2.12,13.31c4.84,2.12,9.08,5.75,13.62,8.47
					c4.54,2.12,9.38,3.93,13.31,6.96C1.2,92.88,2.11,95,3.93,96.51c2.12,2.12,3.49,0.43,5.45,2.12
					C14.67,103.19,23.42,107.99,23.42,107.99z"/>
			</g>
			<g>
				<g>
					<path class="st3" d="M74.43,103.6c0.43-3.59,4.98-8.08,7.25-11.21c4.32-5.97,8.4-13.4,14.22-17.85
						c2.1,3.68,1.22,13.87,6.89,13.21c6.94-0.61,5.81-9.22,4.53-14.04c-4.03-14.17-16.22-8.7-24.71-0.56
						c3.91-5.4,27.39-31.27,21.19-37.06c-5.92-5.58-24.72,27.58-28.42,32.69c1.9-3.82,22.15-34.2,14.04-36.16
						c-5.7-1.1-11.01,12.82-12.9,16.64c-3.34,5.81-6.88,11.9-10.79,17.3c3.54-6.09,6.16-13.29,8.64-19.72
						c1.08-2.69,3.92-8.42,1.29-10.76c-3.49-2.96-6.49,1.79-8.06,4.56c-7.21,12.96-12.39,26.1-22.09,37.7
						c-3.65,3.85-8.62,8.92-8.04,14.1c0.66,5.67,4.33,11.36,8.18,15.01c7.58,8.08,18.32,12.39,25.56,1.18L74.43,103.6z"/>
				</g>
				<g>
					<path class="st3" d="M57.97,101.22c6.06-10.77,22.97-2.43,28.56,4.21c3.78-4.62,6.85-13.66,12.42-16.56
						c10.22-5.16,1.19,12.12-0.58,15.16c-4.16,6.95-8.35,12.14-16.96,13.27c-6.57,1.31-18.59,0.18-24.52-2.38"/>
					<path class="st24" d="M57.97,101.22c0.64-1.22,1.51-2.35,2.6-3.23c1.09-0.88,2.4-1.49,3.76-1.84c2.75-0.69,5.65-0.4,8.35,0.31
						c2.71,0.73,5.29,1.88,7.71,3.3c2.41,1.44,4.7,3.11,6.6,5.27l-0.95,0.01c2.21-2.87,3.82-6.28,5.8-9.49
						c0.99-1.61,2.06-3.2,3.38-4.63c0.66-0.71,1.38-1.38,2.2-1.96c0.41-0.29,0.82-0.55,1.3-0.79c0.4-0.2,0.89-0.42,1.35-0.59
						c0.47-0.17,0.97-0.32,1.53-0.38c0.55-0.05,1.23-0.02,1.85,0.41c0.61,0.44,0.86,1.12,0.95,1.67c0.1,0.57,0.08,1.09,0.03,1.6
						c-0.25,2.01-0.92,3.8-1.61,5.57c-0.71,1.76-1.52,3.47-2.38,5.15c-0.84,1.68-1.8,3.34-2.84,4.91c-2.05,3.14-4.45,6.27-7.73,8.36
						c-1.62,1.05-3.42,1.82-5.27,2.31c-0.93,0.25-1.87,0.43-2.81,0.55c-0.88,0.14-1.87,0.3-2.8,0.37c-3.78,0.32-7.55,0.1-11.27-0.4
						c-3.71-0.53-7.44-1.24-10.86-2.78c3.5,1.32,7.22,1.89,10.92,2.26c1.85,0.17,3.71,0.27,5.57,0.27c1.86,0.02,3.71-0.04,5.55-0.25
						c0.93-0.1,1.78-0.26,2.75-0.43c0.9-0.14,1.8-0.34,2.67-0.6c1.75-0.51,3.4-1.29,4.9-2.31c2.99-2.05,5.29-4.97,7.26-8.09
						c1.01-1.56,1.91-3.15,2.73-4.82c0.83-1.66,1.6-3.34,2.28-5.05c0.66-1.7,1.27-3.47,1.46-5.18c0.1-0.83-0.01-1.71-0.36-1.92
						c-0.32-0.27-1.24-0.16-2.02,0.14c-0.42,0.15-0.78,0.31-1.22,0.52c-0.36,0.18-0.75,0.41-1.1,0.66c-0.72,0.5-1.38,1.1-1.99,1.75
						c-1.23,1.31-2.28,2.82-3.26,4.39c-0.98,1.56-1.89,3.19-2.84,4.81c-0.96,1.61-1.92,3.25-3.16,4.74L87,105.83
						c-0.22,0.26-0.6,0.29-0.86,0.08c-0.03-0.02-0.06-0.05-0.08-0.08c-1.71-2.05-3.89-3.75-6.18-5.2c-2.31-1.44-4.8-2.63-7.41-3.41
						c-2.6-0.77-5.37-1.19-8.04-0.65C61.75,97.08,59.37,98.83,57.97,101.22z"/>
				</g>
			</g>
		</g>
		<g class="st13">
			<g>
				<g>
					<path class="st3" d="M26.63,261.21c0-9.59,0-19.56,0.37-29.15c0,0,32.47,1.84,38.37,0.37c2.21,7.01,3.32,19.19,2.95,25.46
						L26.63,261.21z"/>
					<g>
						<path class="st4" d="M27.12,261.31c0-2.63,0.49-29.01,0.06-29.03c3.21,0.18,6.43,0.33,9.65,0.47
							c5.51,0.23,11.02,0.42,16.53,0.47c4,0.04,8.4,0.35,12.33-0.57c-0.27-0.09-0.53-0.17-0.8-0.26c1.43,4.68,2.11,9.57,2.59,14.43
							c0.1,1.01,0.69,10.85,0.51,10.86c-4.01,0.32-8.02,0.64-12.03,0.96c-9.85,0.78-19.69,1.57-29.54,2.35
							c-0.65,0.05,0.12,0.47,0.42,0.44c13.9-1.11,27.79-2.21,41.69-3.32c0.06,0,0.27-0.01,0.28-0.12c0.43-8.38-0.5-17.48-2.96-25.51
							c-0.07-0.24-0.61-0.3-0.8-0.26c-2.77,0.65-5.79,0.53-8.62,0.56c-4.23,0.04-8.45-0.07-12.68-0.2
							c-5.62-0.17-11.24-0.42-16.85-0.73c-0.08,0-0.39-0.03-0.4,0.11c-0.36,9.71-0.37,19.43-0.37,29.15
							C26.15,261.42,27.12,261.55,27.12,261.31z"/>
					</g>
				</g>
				<g>
					<g>
						<path class="st3" d="M58.27,231.32c3.91-5.24,6-7.69,14.02-8.76c1.45-0.19,4.43-0.6,4.43-0.55
							c8.86,0.28,32.09-5.07,35.96,6.83c1.94,6.36-3.31,13.65-4.69,20.01c-1.38,6.36-3.6,14.11-9.69,17.43
							c-6.09,3.6-17.16,1.94-24.07,1.66c-8.3-0.55-16.05-4.43-17.99-13.56l-1.66-9.13C54.95,240.25,57.56,235.74,58.27,231.32z"/>
						<g>
							<path class="st4" d="M58.75,231.4c1.46-1.95,2.91-3.9,4.8-5.45c2.31-1.89,5.29-2.62,8.17-3.09
								c3.82-0.63,7.63-0.65,11.48-0.95c4.72-0.37,9.45-0.79,14.19-0.62c4.56,0.16,9.83,0.89,13.06,4.46
								c4.22,4.67,1.29,11.51-0.71,16.46c-2.33,5.78-3.04,12.1-5.95,17.64c-3.35,6.38-9.41,8.3-16.22,8.49
								c-3.16,0.09-6.32-0.16-9.46-0.38c-3.17-0.22-6.28-0.32-9.36-1.17c-3.96-1.09-7.43-3.42-9.74-6.82
								c-1.69-2.48-2.23-5.36-2.75-8.24c-0.39-2.14-0.78-4.29-1.17-6.44c-0.37-2.01,0.95-4.93,1.57-6.81
								c0.79-2.37,1.66-4.69,2.11-7.16c0.05-0.26-0.94-0.36-1-0.06c-0.97,5.23-4.34,10.33-3.36,15.74
								c0.61,3.35,0.98,6.87,2.14,10.09c3.81,10.53,15.77,10.93,25.13,11.49c5.25,0.31,10.93,0.51,15.87-1.6
								c4.84-2.06,7.49-6.79,9.16-11.52c0.93-2.63,1.4-5.36,2.14-8.04c0.92-3.33,2.5-6.45,3.62-9.71c1.57-4.56,1.76-9.54-2.01-13
								c-3.12-2.86-7.9-3.5-11.94-3.78c-5.18-0.37-10.4,0.15-15.56,0.56c-4.46,0.35-8.8,0.41-13.22,1.24
								c-5.5,1.03-8.71,4.16-11.95,8.49C57.63,231.46,58.57,231.64,58.75,231.4z"/>
						</g>
					</g>
					<g>
						<path class="st3" d="M90.56,254.66c-1.94,0-4.43,1.11-5.26,3.04c-1.66,4.15,4.98,9.96,8.3,11.07
							c4.15,1.38,11.07,1.11,14.94-1.11c2.77-1.94,6.64-9.68,1.94-11.62L90.56,254.66z"/>
						<g>
							<path class="st4" d="M90.56,254.66c-1.52,0.03-3.04,0.61-4.17,1.62c-0.56,0.51-1,1.17-1.17,1.9c-0.17,0.73-0.1,1.5,0.12,2.22
								c0.45,1.44,1.38,2.68,2.4,3.77c1.03,1.09,2.2,2.06,3.46,2.87c0.63,0.4,1.28,0.77,1.95,1.04c0.66,0.27,1.39,0.43,2.11,0.57
								c1.46,0.26,2.95,0.32,4.44,0.3c2.95-0.1,6-0.57,8.49-1.93l-0.06,0.04c0.79-0.56,1.5-1.45,2.09-2.35
								c0.6-0.91,1.1-1.9,1.44-2.92c0.33-1.02,0.55-2.1,0.39-3.09c-0.14-1-0.77-1.82-1.73-2.23l0.14,0.03l-9.94-1.01
								C97.19,255.16,93.88,254.9,90.56,254.66z M90.56,254.66c3.32,0.22,6.64,0.42,9.97,0.56l9.98,0.38l0.06,0l0.08,0.03
								c0.59,0.22,1.17,0.58,1.61,1.08c0.44,0.5,0.74,1.13,0.88,1.76c0.28,1.28,0.1,2.54-0.24,3.71c-0.35,1.17-0.85,2.27-1.48,3.3
								c-0.66,1.02-1.37,2-2.45,2.79l-0.02,0.01l-0.04,0.02c-1.43,0.83-2.98,1.27-4.53,1.58c-1.55,0.31-3.13,0.41-4.69,0.39
								c-1.57-0.02-3.13-0.2-4.67-0.57c-0.77-0.2-1.53-0.41-2.27-0.77c-0.72-0.36-1.38-0.78-2.01-1.25c-1.26-0.93-2.39-2-3.38-3.19
								c-0.98-1.19-1.84-2.53-2.23-4.05c-0.19-0.75-0.25-1.56-0.04-2.31c0.2-0.76,0.69-1.4,1.26-1.91
								C87.5,255.23,89.03,254.67,90.56,254.66z"/>
						</g>
					</g>
					<g>
						<path class="st3" d="M91.39,244.14c-8.58,3.6-0.55,13.01,4.98,14.67c4.43,1.11,13.84,2.21,16.33-2.21
							c1.11-2.21,1.38-6.09,0.28-8.3c-1.11-3.04-3.32-2.49-5.53-3.87L91.39,244.14z"/>
						<g>
							<path class="st4" d="M91.39,244.14c-0.87,0.42-1.68,0.96-2.33,1.65c-0.65,0.68-1.06,1.56-1.14,2.47
								c-0.09,0.91,0.12,1.83,0.48,2.67c0.36,0.85,0.84,1.65,1.41,2.39c1.15,1.47,2.58,2.74,4.16,3.71
								c0.79,0.48,1.63,0.88,2.48,1.13c0.84,0.21,1.83,0.39,2.75,0.53c1.87,0.27,3.77,0.41,5.64,0.37c1.86-0.06,3.75-0.32,5.3-1.11
								c0.77-0.39,1.43-0.93,1.84-1.62c0.38-0.71,0.64-1.58,0.79-2.48c0.15-0.89,0.21-1.81,0.16-2.71c-0.05-0.9-0.22-1.79-0.57-2.54
								l-0.02-0.05l-0.01-0.02c-0.18-0.5-0.4-0.96-0.72-1.32c-0.31-0.37-0.71-0.64-1.19-0.86c-0.96-0.44-2.21-0.74-3.28-1.46
								l0.28,0.08l-4.01-0.16c-1.34-0.06-2.67-0.1-4.01-0.18C96.73,244.46,94.06,244.35,91.39,244.14z M91.39,244.14
								c2.68-0.11,5.35-0.14,8.03-0.2c1.34-0.03,2.68-0.02,4.01-0.04l4.01-0.03l0.14,0l0.14,0.08c0.92,0.56,2.01,0.76,3.21,1.23
								c0.59,0.25,1.2,0.63,1.66,1.15c0.47,0.52,0.77,1.13,1,1.72l-0.03-0.07c0.49,0.99,0.7,2.03,0.78,3.05
								c0.09,1.02,0.02,2.04-0.14,3.05c-0.17,1-0.43,2.02-0.96,3.01c-0.58,0.97-1.48,1.7-2.42,2.18c-1.92,0.95-3.97,1.17-5.95,1.23
								c-1.99,0.05-3.96-0.16-5.89-0.49c-0.98-0.18-1.9-0.36-2.92-0.64c-0.99-0.33-1.88-0.83-2.72-1.38
								c-1.66-1.13-3.1-2.53-4.25-4.16c-1.12-1.61-2.03-3.59-1.69-5.65c0.17-1.01,0.71-1.93,1.44-2.6
								C89.59,244.91,90.48,244.48,91.39,244.14z"/>
						</g>
					</g>
					<g>
						<path class="st3" d="M91.39,233.9c-6.36,6.36,0,13.84,6.92,15.22c4.98,1.11,12.73,1.38,16.33-2.49
							c3.87-4.43,3.32-13.28-3.87-13.56c-1.38,0-2.77,0.28-4.15,0.55L91.39,233.9z"/>
						<g>
							<path class="st4" d="M91.39,233.9c-0.84,0.92-1.53,1.98-1.96,3.13c-0.42,1.15-0.52,2.39-0.28,3.56
								c0.5,2.36,2.12,4.34,4.07,5.72c0.98,0.7,2.06,1.25,3.19,1.66c0.56,0.2,1.14,0.36,1.72,0.48c0.61,0.11,1.21,0.23,1.81,0.33
								c2.42,0.37,4.88,0.48,7.28,0.21c2.37-0.27,4.78-0.95,6.46-2.47c1.62-1.51,2.54-3.91,2.61-6.2c0.1-2.29-0.74-4.71-2.7-5.84
								c-0.95-0.56-2.11-0.84-3.26-0.82c-1.17,0.02-2.39,0.23-3.62,0.45l-0.06,0.01h-0.03c-2.54-0.02-5.07,0.01-7.61-0.06
								C96.46,234.02,93.92,233.99,91.39,233.9z M91.39,233.9c2.53-0.18,5.07-0.3,7.6-0.44c2.53-0.15,5.07-0.22,7.61-0.33
								l-0.09,0.01c1.22-0.27,2.46-0.55,3.79-0.63c1.33-0.08,2.72,0.17,3.94,0.86c1.22,0.68,2.18,1.8,2.74,3.05
								c0.57,1.25,0.79,2.62,0.76,3.95c-0.1,2.66-1.03,5.33-3.05,7.27c-2.08,1.85-4.77,2.52-7.31,2.8
								c-2.57,0.25-5.14,0.06-7.65-0.38c-0.63-0.11-1.25-0.25-1.87-0.4c-0.64-0.16-1.26-0.36-1.86-0.61
								c-1.2-0.49-2.34-1.14-3.36-1.94c-2.02-1.57-3.74-3.79-4.08-6.42c-0.17-1.29,0.04-2.62,0.57-3.78
								C89.64,235.74,90.47,234.74,91.39,233.9z"/>
						</g>
					</g>
					<g>
						<path class="st3" d="M95.54,219.79c6.92,0,17.99-2.21,21.03,5.81c4.98,12.45-19.65,12.18-26.57,8.02
							c-5.81-3.6-6.36-12.18,1.38-13.56L95.54,219.79z"/>
						<g>
							<path class="st4" d="M95.54,219.79c3.17-0.04,6.32-0.38,9.49-0.36c1.58,0.03,3.18,0.1,4.75,0.43c1.57,0.32,3.13,0.9,4.45,1.9
								c1.33,0.98,2.32,2.44,2.89,3.95c0.62,1.52,0.93,3.31,0.37,5.02c-0.55,1.72-1.93,2.99-3.37,3.83
								c-1.46,0.86-3.05,1.35-4.64,1.72c-3.19,0.7-6.45,0.77-9.66,0.51c-3.2-0.31-6.41-0.9-9.36-2.37
								c-2.92-1.56-5.03-4.63-5.06-7.92c-0.02-1.63,0.59-3.26,1.73-4.4c1.13-1.16,2.69-1.76,4.24-2.03h0l0,0L95.54,219.79z
								 M95.54,219.79l-4.15,0.3l0,0c-1.55,0.28-3.06,0.95-4.12,2.11c-1.08,1.14-1.56,2.74-1.46,4.27c0.2,3.1,2.36,5.85,5.07,7.1
								c1.39,0.62,2.9,1,4.43,1.28c1.53,0.27,3.07,0.46,4.63,0.54c3.1,0.18,6.23,0.04,9.24-0.57c1.5-0.31,2.96-0.79,4.26-1.49
								c1.3-0.7,2.4-1.71,2.91-3.02c0.52-1.3,0.37-2.85-0.11-4.27c-0.47-1.47-1.26-2.77-2.43-3.76c-1.16-0.99-2.61-1.63-4.11-2.02
								c-1.51-0.4-3.09-0.59-4.66-0.65C101.87,219.47,98.7,219.79,95.54,219.79z"/>
						</g>
					</g>
					<g>
						<path class="st3" d="M73.95,251.61c2.49-3.87,5.26-6.36,6.64-11.07c0.55-2.77,0.83-6.36,0.28-9.13
							c-0.83-3.32-5.26-10.24-5.26-10.24c0-1.38,1.66-11.07,1.94-14.11c0.55-5.81-0.55-14.11-6.64-16.88
							c-5.81-2.49-5.26,6.92-5.26,10.24c0.28,4.15,1.38,9.69,0,13.56c-1.38,4.15-4.43,8.02-7.19,11.35
							c-4.43,5.53-3.41,14.33-3.68,20.97"/>
						<path class="st4" d="M73.95,251.61c1.12-1.86,2.44-3.58,3.64-5.37c1.2-1.79,2.17-3.72,2.72-5.78l-0.01,0.03
							c0.3-1.68,0.45-3.39,0.47-5.09c0.01-0.85-0.03-1.7-0.12-2.54c-0.04-0.42-0.11-0.83-0.19-1.24c-0.08-0.37-0.23-0.77-0.37-1.16
							c-0.62-1.56-1.44-3.08-2.28-4.57c-0.85-1.49-1.75-2.96-2.68-4.39l-0.1-0.15l0.01-0.16c0.05-1.13,0.2-2.06,0.32-3.08l0.43-2.99
							l0.85-5.96c0.28-1.99,0.43-3.93,0.33-5.89c-0.09-1.96-0.39-3.9-0.98-5.74c-0.59-1.83-1.5-3.56-2.83-4.87
							c-0.66-0.65-1.41-1.21-2.23-1.63c-0.81-0.42-1.67-0.64-2.34-0.43c-0.66,0.19-1.17,0.89-1.48,1.74
							c-0.32,0.85-0.49,1.8-0.6,2.76c-0.2,1.91-0.19,3.97-0.11,5.89c0.16,1.98,0.42,3.98,0.54,6.02c0.11,2.03,0.14,4.12-0.38,6.19
							c-1.18,4.06-3.64,7.42-6.17,10.55c-0.62,0.78-1.33,1.55-1.91,2.32c-0.57,0.76-1.06,1.63-1.45,2.52
							c-0.79,1.8-1.26,3.74-1.54,5.71c-0.57,3.96-0.41,8-0.69,12.01c0.03-4.02-0.28-8.04,0.13-12.08c0.21-2.01,0.58-4.04,1.37-5.95
							c0.4-0.96,0.87-1.87,1.49-2.73c0.62-0.85,1.26-1.58,1.87-2.38c2.43-3.14,4.72-6.52,5.7-10.26c0.43-1.85,0.41-3.84,0.28-5.81
							c-0.13-1.98-0.41-3.96-0.58-5.99c-0.02-0.28-0.05-0.46-0.05-0.8l-0.01-0.75l-0.01-1.52c0-1.02,0.04-2.05,0.14-3.08
							c0.11-1.03,0.28-2.08,0.66-3.12c0.2-0.52,0.45-1.04,0.83-1.52c0.37-0.48,0.92-0.9,1.55-1.1c1.29-0.4,2.51,0.02,3.46,0.49
							c0.98,0.48,1.86,1.13,2.62,1.91c1.53,1.54,2.51,3.49,3.14,5.48c1.23,3.99,1.23,8.25,0.61,12.25l-0.91,5.97l-0.46,2.98
							c-0.15,0.97-0.33,2.02-0.38,2.9l-0.09-0.32c0.91,1.49,1.78,2.99,2.61,4.52c0.82,1.54,1.61,3.09,2.23,4.75
							c0.15,0.42,0.29,0.84,0.39,1.32c0.08,0.44,0.14,0.88,0.17,1.32c0.08,0.88,0.09,1.76,0.06,2.64c-0.06,1.75-0.31,3.49-0.67,5.19
							l0,0.02l0,0.01c-0.65,2.1-1.74,4.05-3.02,5.8C76.59,248.19,75.17,249.82,73.95,251.61z"/>
					</g>
				</g>
			</g>
			<g>
				<path class="st10" d="M29.91,223.49c6.95,0.17,16.5-3.13,17.2,6.77c0.52,9.38,0.52,19.11,0.52,28.66c0,4.34-0.35,7.64-5.21,7.99
					c-2.08,0.17-4.17,0-6.25,0.35c-1.22,0.17-2.78,0.35-3.82-0.17L29.91,223.49z"/>
			</g>
			<g>
				<path class="st25" d="M-13.45,217.84c1.39,0,2.61-0.17,4-0.52c2.26-0.35,14.52-0.35,16.95-0.35c5.21-0.17,10.25-0.52,15.46,0.17
					c2.43,0.17,4.86,0,6.77,1.39c2.43,1.74,2.61,4.34,2.78,6.95c0.35,5.04,0.69,10.08,0.87,15.11c0.17,4.86,0.52,9.55,0.87,14.24
					c0.17,2.61,0.35,5.04,0.35,7.64c0,1.91,0.69,4.34,0.35,6.25c-1.04,5.04-9.21,4.86-13.2,5.39c-4.86,0.52-10.08,1.04-14.94,0.52
					c-2.43-0.35-14.86-0.87-17.3-0.87L-13.45,217.84z"/>
			</g>
		</g>
		<g class="st13">
			<g>
				<g>
					<path class="st17" d="M450.25,58.04c-5.27-8.22-10.73-16.76-16.31-24.77c0,0-26.81,19.4-32.68,21.38
						c1.95,7.22,7.68,18.26,11.44,23.44L450.25,58.04z"/>
				</g>
				<g>
					<g>
						<path class="st17" d="M406.74,49.79c-6.23-2.35-9.36-3.3-16.82,0.19c-1.35,0.63-4.13,1.92-4.1,1.96
							c-7.44,5.1-30.28,13.27-27.07,25.59c1.83,6.52,10.33,9.88,15,14.57c4.68,4.69,10.83,10.12,17.87,9.62
							c7.19-0.26,15.76-7.76,21.54-11.79c6.81-5.03,11.32-12.6,7.97-21.49l-3.59-8.74C414.49,55.62,409.78,53.19,406.74,49.79z"/>
					</g>
					<g>
						<path class="st17" d="M391.88,87.5c1.66-1.06,4.4-1.48,6.18-0.28c3.7,2.65,1.2,11.27-1.04,14.04
							c-2.8,3.46-8.88,7.02-13.41,7.25c-3.43-0.14-11.01-4.65-8.04-8.9L391.88,87.5z"/>
						<g>
							<path class="st26" d="M391.88,87.5c1.31-0.83,2.93-1.19,4.48-0.96c0.76,0.12,1.54,0.41,2.12,0.94c0.59,0.54,1,1.25,1.24,2
								c0.5,1.51,0.49,3.13,0.31,4.69c-0.19,1.57-0.59,3.11-1.15,4.59c-0.28,0.74-0.62,1.47-1.04,2.17
								c-0.44,0.71-0.97,1.31-1.52,1.9c-1.11,1.16-2.35,2.17-3.69,3.05c-1.33,0.88-2.74,1.65-4.24,2.24
								c-1.5,0.58-3.07,1.06-4.75,1.13l-0.04,0l-0.02,0c-1.36-0.09-2.51-0.54-3.63-1.05c-1.1-0.54-2.14-1.2-3.08-2.01
								c-0.93-0.81-1.78-1.79-2.24-3.04c-0.22-0.62-0.32-1.32-0.21-1.99c0.1-0.67,0.4-1.29,0.78-1.81l0.05-0.07l0.05-0.03l8.35-5.81
								C386.42,91.51,389.16,89.52,391.88,87.5z M391.88,87.5c-2.71,2.03-5.41,4.08-8.08,6.17l-7.97,6.31l0.1-0.1
								c-0.6,0.88-0.69,1.94-0.26,2.87c0.41,0.94,1.19,1.75,2.04,2.44c0.86,0.69,1.83,1.26,2.84,1.72c1,0.45,2.09,0.82,3.08,0.87
								l-0.07,0c2.89-0.21,5.76-1.48,8.34-3.01c1.29-0.8,2.53-1.67,3.64-2.7c0.54-0.51,1.08-1.05,1.49-1.64
								c0.42-0.61,0.78-1.28,1.1-1.97c0.63-1.38,1.1-2.85,1.38-4.36c0.26-1.5,0.38-3.07-0.02-4.55c-0.2-0.73-0.57-1.43-1.11-1.96
								c-0.55-0.54-1.28-0.86-2.04-0.99C394.82,86.36,393.21,86.69,391.88,87.5z"/>
						</g>
					</g>
					<g>
						<path class="st17" d="M385.4,78.95c9.33-1.63,7.61,10.84,3.78,15.3c-3.19,3.38-10.64,9.49-15.2,7.06
							c-2.16-1.29-4.53-4.46-4.79-6.96c-0.72-3.22,1.48-3.96,2.62-6.36L385.4,78.95z"/>
						<g>
							<path class="st26" d="M385.4,78.95c0.96-0.21,1.96-0.32,2.96-0.14c0.99,0.17,1.96,0.66,2.66,1.43
								c1.42,1.58,1.73,3.78,1.65,5.77c-0.09,2.03-0.56,4.02-1.36,5.89c-0.41,0.93-0.9,1.85-1.57,2.67c-0.72,0.8-1.4,1.46-2.15,2.15
								c-1.48,1.35-3.05,2.6-4.78,3.65c-1.73,1.03-3.6,1.97-5.77,2.21c-1.07,0.1-2.24-0.03-3.27-0.54
								c-1.04-0.58-1.76-1.27-2.47-2.04c-1.36-1.56-2.51-3.35-2.8-5.58l0.01,0.08c-0.13-0.64-0.2-1.33-0.09-2.02
								c0.11-0.7,0.42-1.36,0.79-1.9c0.77-1.06,1.6-1.83,2.08-2.82l0.07-0.14l0.12-0.08l3.45-2.18c1.15-0.72,2.29-1.46,3.46-2.17
								C380.74,81.77,383.05,80.33,385.4,78.95z M385.4,78.95c-2.18,1.64-4.41,3.21-6.61,4.81c-1.1,0.8-2.23,1.57-3.34,2.35
								l-3.35,2.34l0.19-0.22c-0.52,1.2-1.44,2.14-2.01,3.05c-0.29,0.46-0.49,0.91-0.55,1.4c-0.07,0.49-0.01,1.01,0.11,1.53l0,0.02
								l0.01,0.06c0.24,1.7,1.32,3.38,2.53,4.74c0.61,0.67,1.36,1.32,2.05,1.69c0.74,0.36,1.6,0.46,2.47,0.38
								c1.77-0.17,3.53-0.99,5.16-1.96c1.63-0.99,3.18-2.15,4.63-3.41c0.71-0.62,1.46-1.32,2.07-1.96c0.59-0.69,1.09-1.49,1.5-2.34
								c0.82-1.7,1.36-3.57,1.53-5.47c0.08-0.95,0.06-1.9-0.1-2.83c-0.16-0.92-0.48-1.83-1.06-2.56c-0.57-0.73-1.4-1.25-2.33-1.49
								C387.37,78.85,386.38,78.83,385.4,78.95z"/>
						</g>
					</g>
					<g>
						<path class="st17" d="M379.78,70.18c8.95,1.96,7.59,11.86,2.42,16.84c-3.66,3.68-10.15,8.17-15.36,6.83
							c-5.75-1.67-10.13-9.56-4.12-13.75c1.18-0.76,2.52-1.28,3.86-1.8L379.78,70.18z"/>
						<g>
							<path class="st26" d="M379.78,70.18c1.25,0.22,2.5,0.62,3.58,1.34c1.09,0.71,2,1.73,2.56,2.93c1.16,2.43,0.89,5.28,0.03,7.73
								c-0.44,1.24-1.06,2.42-1.82,3.5c-0.38,0.54-0.8,1.06-1.26,1.54c-0.44,0.46-0.9,0.93-1.38,1.37c-1.91,1.75-4,3.32-6.34,4.52
								c-2.33,1.16-5,2.05-7.79,1.61c-2.79-0.55-5.05-2.32-6.6-4.55c-0.76-1.12-1.32-2.42-1.52-3.8c-0.21-1.38,0-2.86,0.67-4.11
								c0.67-1.26,1.72-2.23,2.9-2.89c1.18-0.66,2.39-1.1,3.59-1.54l-0.08,0.04c2.23-1.3,4.44-2.63,6.7-3.89
								C375.28,72.7,377.51,71.41,379.78,70.18z M379.78,70.18c-2.13,1.47-4.29,2.88-6.44,4.32c-2.14,1.44-4.33,2.81-6.49,4.22
								l-0.03,0.02l-0.05,0.02c-1.17,0.48-2.33,0.98-3.35,1.6c-1,0.62-1.84,1.5-2.35,2.5c-1.06,2.04-0.45,4.58,0.89,6.5
								c1.33,1.92,3.43,3.47,5.65,3.88c2.28,0.39,4.72-0.35,6.9-1.43c2.2-1.09,4.26-2.54,6.12-4.18c0.46-0.41,0.91-0.84,1.37-1.27
								c0.43-0.42,0.84-0.88,1.21-1.36c0.74-0.96,1.36-2.03,1.82-3.17c0.92-2.26,1.21-4.85,0.35-7.14c-0.44-1.14-1.21-2.15-2.2-2.9
								C382.18,71.03,381.01,70.51,379.78,70.18z"/>
						</g>
					</g>
					<g>
						<path class="st17" d="M368.48,60.36c-5.93,3.8-16.63,7.97-14.83,16.52c2.57,13.4,23.52-0.35,27.17-7.7
							c3-6.27-1.23-13.93-8.63-10.86L368.48,60.36z"/>
						<g>
							<path class="st26" d="M368.48,60.36c-2.71,1.73-5.6,3.19-8.22,5.06c-1.32,0.92-2.56,1.95-3.64,3.12
								c-1.07,1.17-1.97,2.51-2.42,3.99c-0.46,1.48-0.43,3.05-0.02,4.55c0.36,1.49,1.08,2.9,2.24,3.74
								c1.16,0.84,2.66,1.11,4.16,0.99c1.5-0.11,3.02-0.51,4.47-1.07c2.92-1.12,5.67-2.73,8.23-4.59c1.29-0.93,2.5-1.94,3.67-3.01
								c1.15-1.08,2.24-2.23,3.09-3.53c1.64-2.56,1.98-6.11,0.44-8.87c-0.75-1.37-2.04-2.48-3.6-2.86
								c-1.54-0.41-3.21-0.15-4.69,0.46l0,0L368.48,60.36z M368.48,60.36l3.7-2.06l0,0l0,0c1.48-0.61,3.14-0.96,4.75-0.58
								c1.6,0.35,3.02,1.42,3.9,2.82c1.78,2.83,1.66,6.62,0.01,9.56c-1.72,2.88-4.15,5.15-6.72,7.16c-2.6,1.99-5.43,3.71-8.55,4.86
								c-1.56,0.56-3.19,1.02-4.91,1.07c-1.69,0.08-3.56-0.27-4.98-1.42c-1.42-1.15-2.13-2.86-2.43-4.49
								c-0.35-1.62-0.29-3.4,0.3-4.98c0.58-1.58,1.6-2.93,2.76-4.07c1.17-1.14,2.49-2.09,3.84-2.98
								C362.86,63.5,365.75,62.07,368.48,60.36z"/>
						</g>
					</g>
					<g>
						<path class="st17" d="M404.44,75.78c-4.26-1.95-8-2.57-11.77-5.84c-1.99-2.07-4.21-5-5.25-7.67
							c-1.11-3.3-1.11-11.66-1.11-11.66c-0.76-1.19-7.5-8.57-9.41-11.03c-3.66-4.68-7.27-12.4-3.57-18.11
							c3.61-5.32,8.3,3.04,10.13,5.89c2.04,3.71,4.13,9.06,7.44,11.62c3.46,2.8,8.2,4.45,12.39,5.77
							c6.83,2.31,10.78,10.41,14.67,15.95"/>
						<path class="st26" d="M404.44,75.78c-2.03-0.87-4.14-1.49-6.19-2.3c-2.06-0.8-4.05-1.87-5.77-3.31l-0.01-0.01l-0.01-0.01
							c-1.25-1.26-2.42-2.61-3.43-4.08c-0.51-0.73-0.98-1.5-1.39-2.29c-0.21-0.4-0.4-0.81-0.58-1.23c-0.18-0.46-0.29-0.9-0.39-1.34
							c-0.39-1.76-0.56-3.53-0.7-5.29c-0.13-1.77-0.21-3.53-0.25-5.3l0.09,0.32c-0.54-0.72-1.27-1.53-1.92-2.28l-2.03-2.3
							l-4.05-4.62c-2.74-3.09-5.06-6.72-6.2-10.83c-0.55-2.05-0.77-4.25-0.32-6.41c0.22-1.08,0.63-2.12,1.2-3.07
							c0.56-0.92,1.37-1.95,2.69-2.31c0.65-0.17,1.34-0.11,1.92,0.1c0.59,0.2,1.09,0.51,1.54,0.84c0.9,0.68,1.61,1.48,2.28,2.31
							c0.66,0.83,1.25,1.69,1.81,2.56l0.82,1.31l0.4,0.65c0.18,0.3,0.26,0.47,0.4,0.72c0.96,1.84,1.82,3.69,2.79,5.46
							c0.97,1.76,2.04,3.47,3.43,4.83c2.89,2.67,6.71,4.31,10.52,5.66c0.96,0.35,1.92,0.63,2.91,1.01c1,0.4,1.91,0.92,2.77,1.52
							c1.73,1.2,3.16,2.73,4.44,4.34c2.57,3.24,4.52,6.85,6.75,10.28c-2.43-3.29-4.52-6.84-7.18-9.92
							c-1.32-1.54-2.79-2.94-4.45-4.05c-0.83-0.55-1.72-1.03-2.63-1.36c-0.92-0.34-1.95-0.61-2.91-0.93
							c-3.89-1.29-7.84-2.81-11.07-5.65c-1.58-1.49-2.7-3.3-3.72-5.1c-1.01-1.81-1.89-3.67-2.84-5.45
							c-0.99-1.69-2.11-3.46-3.33-4.99c-0.62-0.77-1.29-1.49-2.03-2.04c-0.74-0.55-1.56-0.88-2.24-0.68
							c-0.7,0.19-1.32,0.85-1.78,1.66c-0.47,0.81-0.82,1.7-1.02,2.63c-0.41,1.85-0.24,3.84,0.25,5.73c1.03,3.82,3.18,7.3,5.83,10.33
							l4,4.64l2.01,2.33c0.66,0.81,1.31,1.53,1.97,2.46l0.09,0.13l0,0.18c-0.01,1.74,0.03,3.49,0.11,5.24
							c0.1,1.74,0.23,3.49,0.55,5.17c0.08,0.42,0.18,0.84,0.32,1.2c0.15,0.4,0.32,0.79,0.52,1.17c0.38,0.77,0.81,1.52,1.29,2.24
							c0.96,1.44,2.02,2.83,3.2,4.11l-0.02-0.02c1.6,1.46,3.49,2.59,5.5,3.46C400.38,74.06,402.47,74.81,404.44,75.78z"/>
					</g>
				</g>
			</g>
			<g>
				<path class="st27" d="M491.48-33c-38.78,23.99-63.92,56.16-62.61,58.83c-5.08,3.64-11.22,5.63-16.03,9.09
					c3.32,7.63,8.84,15.02,13.45,22.21c4.25,6.64,7.85,14.09,12.38,20.55c5.97-2.26,10.54-7.92,16.43-10.91
					c4.63,6.01,67.91-25.04,80.36-33.02L491.48-33z"/>
			</g>
			<g>
				<defs>
					<path id="SVGID_11_" d="M491.48-33c-38.78,23.99-63.92,56.16-62.61,58.83c-5.08,3.64-11.22,5.63-16.03,9.09
						c3.32,7.63,8.84,15.02,13.45,22.21c4.25,6.64,7.85,14.09,12.38,20.55c5.97-2.26,10.54-7.92,16.43-10.91
						c4.63,6.01,67.91-25.04,80.36-33.02L491.48-33z"/>
				</defs>
				<clipPath id="SVGID_12_">
					<use xlink:href="#SVGID_11_"  style="overflow:visible;"/>
				</clipPath>
				<g class="st28">
					<path class="st11" d="M540.83,13.64c-3.34,8.18-12.62,13.37-20.3,16.76c-2.64,1.16-4.13,1.74-7.04,2.64
						c-2.3,0.71-4.96,1.03-7.07,2.21c-5.35,2.99-9.94,7.17-15.32,10.11c-5.75,3.13-11.91,5.1-18.23,6.73
						c-4.9,1.26-10.22,1.97-14.86,4.05c-4.61,2.06-8.26,6.21-12.44,8.98c-2.31,1.53-4.84,2.73-7.27,4.04
						c-1.88,1.01-4.31,2.16-5.63,3.87c-1.78,2.29-5.42,3.39-8.18,3.62c-1.53,0.13-5.12-0.34-3.31-2.67
						c3.26-4.2,8.63-6.61,13.21-9.05c4.74-2.53,8.63-6.2,13.02-9.26c9.82-6.83,22.2-7.33,33.18-11.28
						c5.04-1.81,9.31-5.46,13.66-8.48c5.25-3.64,10.69-5.85,16.8-7.57c0.86-0.24,1.75-0.48,2.58-0.81c1.82-0.69,2.16-0.82,1.02-0.39
						c0.55-0.22,1.09-0.45,1.62-0.69c2.08-0.92,2.92-1.41,4.99-2.71c2.91-1.82,5.9-4.31,7.23-7.56c1.03-2.51,4.66-3.69,7.05-4.18
						C536.38,11.81,541.84,11.18,540.83,13.64L540.83,13.64z"/>
					<path class="st11" d="M527.71-4.89c-1.52,0.89-2.75,2.47-3.95,3.93c-1.7,2.06-3.48,3.89-5.46,5.68
						c-4.31,3.9-8.83,7.57-13.53,10.98c-4.96,3.6-10.62,6.54-16.39,8.59c-4.74,1.68-9.21,3.19-13.54,5.71
						c-9.2,5.36-17.59,12.02-27.29,16.53c-3.74,1.73-6.97,4.9-10.44,7.59c-4.4,3.4-9.49,5.77-13.87,9.16
						c-2.21,1.72-5.45,3.52-8.38,3.11c-2.88-0.4-0.72-3.27,0.51-4.22c4.35-3.37,9.18-5.96,13.71-9.05c4.57-3.11,8.37-7.06,13.22-9.8
						c4.47-2.52,8.61-4.32,12.92-7.08c4.53-2.9,8.96-5.97,13.57-8.76c4.91-2.97,10.02-5.57,15.4-7.58
						c4.63-1.73,9.37-2.87,13.45-5.84c4.71-3.42,9.17-7.17,13.48-11.07c1.61-1.46,2.87-3.32,4.3-4.96c1.99-2.29,4.34-4.35,6.97-5.88
						c1.95-1.14,5.63-3.23,7.97-1.92C532.63-8.51,528.66-5.43,527.71-4.89L527.71-4.89z"/>
					<path class="st11" d="M512.98-25.89c-0.77,1.87-2.38,3.15-3.99,4.3c-1.95,1.4-3.62,2.76-5.32,4.48
						c-4.04,4.09-7.92,8.21-12.29,11.96c-3.98,3.41-6.95,7.37-10.37,11.28c-3.49,3.99-7.92,6.68-12.81,8.63
						c-4.23,1.68-8.16,3.9-11.77,6.67c-3.95,3.03-6.78,6.9-9.86,10.74c-6.21,7.73-16.7,9.91-23.25,17.13
						c-1.96,2.16-5.6,3.03-8.4,3.08c-1.5,0.03-5.12-0.69-3.13-2.88c6.3-6.94,15.78-9.43,22.25-16.01c1.66-1.68,2.92-3.74,4.43-5.56
						c1.75-2.12,3.71-4.03,5.78-5.84c3.85-3.37,8.18-6.12,12.75-8.41c4.05-2.04,8.26-3.05,11.51-6.31
						c3.64-3.64,6.38-7.92,10.25-11.39c4.2-3.76,8.22-7.53,12.12-11.6c1.83-1.91,3.68-3.84,5.73-5.51c1.12-0.92,3.32-1.73,3.86-3.04
						c1.01-2.45,5.03-3.4,7.31-3.72C508.79-28.02,513.99-28.33,512.98-25.89L512.98-25.89z"/>
				</g>
				<g class="st29">
					<path class="st11" d="M415.86,20.56c2.5,3.5,5.5,6,7.5,9.5c4,5.5,6,12,9.5,18c4,6.5,9,12.5,13,19c2.5,3.5,5,12.5,10,8.5
						c-4.5-10.5-13-21-19-31c-5-8.5-9-18-14.5-26.5L415.86,20.56z"/>
					<path class="st11" d="M431.86,9.56c20,14,29,42.5,45,60.5c1-1.5,3.5-3,5.5-4c-8-12-16-24-24-36c-6-9.5-11.5-19.5-19.5-27
						L431.86,9.56z"/>
					<path class="st11" d="M456.36-10.44c5,11.5,14.5,22.5,22,33c8.5,12,15.5,25.5,23,38c1.5-2.5,4-4,6-6c-7.5-14-16.5-27.5-25-41
						c-5-8-11.5-23-20-28.5L456.36-10.44z"/>
				</g>
			</g>
		</g>
	</g>
</g>
</svg>
