<?xml version="1.0" encoding="utf-8"?>
<!-- Generator: Adobe Illustrator 23.0.3, SVG Export Plug-In . SVG Version: 6.00 Build 0)  -->
<svg version="1.1" xmlns="http://www.w3.org/2000/svg" xmlns:xlink="http://www.w3.org/1999/xlink" x="0px" y="0px"
	 viewBox="0 0 1100 800" style="enable-background:new 0 0 1100 800;" xml:space="preserve">
<style type="text/css">
	.st0{fill:#EED5D5;}
	.st1{opacity:0.3;}
	.st2{fill:#FFFFFF;}
	.st3{fill:#EACDB0;}
	.st4{fill:#8CABEF;}
	.st5{fill:#F7F7F7;}
	.st6{fill:#5D66D3;}
	.st7{fill:#474EBB;}
	.st8{opacity:0.1;}
	.st9{fill:#3B3387;}
	.st10{fill:#BABCBE;}
	.st11{fill:#242956;}
	.st12{fill:#292949;}
	.st13{fill:#C15D78;}
	.st14{fill:#D67086;}
	.st15{fill:#403C99;}
	.st16{fill:#FFF5CC;}
	.st17{fill:#353A85;}
	.st18{fill:#B99A6F;}
	.st19{fill:#558AB2;}
</style>
<g id="Background">
	<rect class="st0" width="1100" height="800"/>
</g>
<g id="Shadow">
	<g class="st1">
		<path class="st2" d="M517.02,618.12c-29.11,0.08-58.22,0.76-87.28,3.89c-10.96,1.18-21.68,3.78-32.66,4.82
			c-21.93,2.09-43.48,5.99-65.49,7.79c-17.73,1.45-35.53,2.3-53.2,4.14c-16.57,1.72-34.92,1.33-51.36-1.52
			c-12.17-2.11-24.4-3.3-36.37-6.68c-13.39-3.79-27.93-6.5-41.88-6.4c-19.89,0.14-39.26,0.16-58.3,6.85
			c-6.68,2.35-14.86,6.21-19.94,11.14c-11.62,11.28-13.19,39.43-1.59,51.13c19.54,19.69,61.23,27.42,88.62,27.79
			c30.01,0.4,59.16-1.76,89.21-3.03c27.92-1.18,55.78-2.86,83.75-2.8c57.13,0.12,114.26,0,171.29-3.7
			c53.58-3.47,107.29-2.28,160.98-2.28c55.06,0,109.75,0.42,164.41,7.51c23.82,3.09,48.08,4.17,72.02,6.33
			c21.44,1.94,42.04-0.04,63.39-1.83c17.93-1.5,35.74-5.96,52.03-13.5c12.89-5.97,35.88-24.51,39.83-38.75
			c11.08-39.93-156.22-38.97-181.91-38.88c-28.74,0.1-57.7,1.02-86.41-0.04c-12.08-0.45-23.98-2.73-35.77-5.24
			c-11.74-2.5-23.57-1.86-35.48-2.91c-49.66-4.37-99.42-3.73-149.23-3.73C549.46,618.21,533.24,618.07,517.02,618.12z"/>
	</g>
</g>
<g id="Object">
	<g>
		<g>
			<polygon class="st3" points="242.9,257.61 247.78,251.03 246.61,243.9 247.99,242.89 249.31,244.54 250.03,238.35 253.69,234.85 
				260.31,236.1 264.9,241.33 262.96,247.77 257.13,253.24 250.84,262.54 			"/>
			<path class="st4" d="M257.08,260.23c-3.79,7.67-7.48,15.39-11.36,23.02c-20.8,40.94-42.75,62.39-48.78,73.79
				c-0.26,0.49-0.58,1.04-1.12,1.19c-0.35,0.1-0.73,0-1.08-0.09c-1.89-0.5-3.77-1.02-5.65-1.56c-4.07-1.17-8.14-2.39-12.13-3.78
				c-3.73-1.3-8.33-4.55-7.36-8.04c0.6-2.16,37.24-41.31,38.51-43.15c4.85-7.02,9.7-14.03,14.55-21.05
				c7.2-10.42,14.4-20.84,21.6-31.25L257.08,260.23z"/>
		</g>
		<g>
			<g>
				<g>
					<path class="st4" d="M290.7,118.27c0.29,2.16-0.78,4.23-1.93,6.01c-7.64,11.88-26.06,25.11-39.24,18.01
						c1.45-0.34,5.26-0.49,8.23-1.28c7.04-1.87,11.35-9.36,14.86-16.07c2.15-4.11,2.15-15.56,6.65-17.34
						C283.57,105.91,290.12,113.96,290.7,118.27z"/>
					<path class="st5" d="M250.77,126.7c2.84-6.88,5.89-11.35,9.93-16.38c4.04-5.03,9.69-8.97,15.96-9.34
						c0.75-0.04,1.52-0.03,2.21,0.28c0.79,0.36,1.38,1.07,1.95,1.76c3.12,3.81,8.99,8.82,9.76,14.33
						c-10.92-0.41-22.14,3.94-30.67,11.03c-6.37,5.29-9.85,14.56-10.55,14.59C242.65,143.23,249.43,129.94,250.77,126.7z"/>
				</g>
				<g>
					<path class="st4" d="M202.9,132.04c0.31,2.16,1.91,3.85,3.5,5.25c10.6,9.33,31.94,17.01,42.68,6.57
						c-1.49,0.07-5.2,0.97-8.26,1.03c-7.29,0.13-13.48-5.89-18.7-11.38c-3.2-3.37-6.33-14.38-11.15-14.86
						C206.37,118.21,202.27,127.74,202.9,132.04z"/>
					<path class="st5" d="M243.61,129.21c-4.62-5.84-8.77-9.3-14.04-13.03c-5.27-3.73-11.78-5.98-17.91-4.61
						c-0.73,0.16-1.47,0.39-2.05,0.88c-0.66,0.56-1.04,1.41-1.39,2.23c-1.95,4.52-6.22,10.94-5.45,16.46
						c10.39-3.39,22.37-2.28,32.52,2.2c7.57,3.35,13.46,11.3,14.15,11.13C255.95,142.89,245.79,131.96,243.61,129.21z"/>
				</g>
			</g>
			<g>
				
					<rect x="193.88" y="142.98" transform="matrix(0.9904 -0.1384 0.1384 0.9904 -24.7775 37.5836)" class="st6" width="128.13" height="108.07"/>
				
					<rect x="179.54" y="143.37" transform="matrix(0.9904 -0.1384 0.1384 0.9904 -19.297 36.4259)" class="st7" width="145.65" height="27.29"/>
			</g>
			<g class="st8">
				<polygon points="196.2,178.64 317.7,161.67 319.05,171.3 				"/>
			</g>
			<path class="st5" d="M272.19,249.59l-15.71,2.19l-15.14-108.37c-0.15-1.1,0.58-2.11,1.64-2.26l11.87-1.66
				c1.06-0.15,2.04,0.62,2.2,1.72L272.19,249.59z"/>
		</g>
		<polygon class="st9" points="344.15,319.69 389.93,313.73 424.27,270.69 436.09,281.64 400.32,333.21 353.63,344.75 
			338.29,331.98 339.25,319.52 		"/>
		<path class="st9" d="M744.06,284.94c-0.82-0.18-16.4,3.72-16.4,3.72l-40.26,30.52h-55.19l-2.6,15.58l66.88,12.99L744.06,284.94z"
			/>
		<g>
			<g>
				<polygon class="st10" points="661.68,438.17 650.94,537.76 657.37,668.12 671.82,669.51 692.35,551.77 723.52,435.06 				"/>
			</g>
			<polygon class="st11" points="773.21,669.8 762.21,681.93 766.11,687.71 788.36,679.78 786.82,668.02 			"/>
			<polygon class="st10" points="720.06,482.77 742.91,577.68 769,671.85 788.23,668.4 774.54,568.97 774.14,475.14 745.12,465.96 
							"/>
			<path class="st9" d="M746.97,283.65c0,0-27.26,9.58-54.73,55.98c-27.97,47.24-42.72,115.34-42.72,115.34
				s127.31,55.94,130.12,33.1c0,0,49.38-177.78-8.51-197.01C768.5,290.19,748.7,282.9,746.97,283.65z"/>
			<path class="st2" d="M753.9,284.94c-16.18,21.93-32.05,48.26-48.48,70.01c-9.73,12.89-13.59,27.94-18.32,43.08
				c-4.71,15.06-9.42,30.11-14.12,45.17c-1.99,6.36-3.98,12.72-5.97,19.09l54.11,19.81c1.45-19.31,2.43-38.66,4.24-57.94
				c1.67-17.78,2.46-38.02,9.95-54.48c3.65-8.01,7.41-15.99,11.1-24c6.76-14.68,12.02-30.13,18.91-44.75
				c0.48-1.02,1.58-10.34,1.51-11.5L753.9,284.94z"/>
			<g>
				<path class="st3" d="M752.58,288.16c4.46,0.73,8.93,1.46,13.39,2.19c0.97-3.47,1.67-7.03,2.07-10.61
					c3.97-0.31,8.66-1.1,10.31-4.72c0.52-1.14,0.64-2.42,0.75-3.66c0.46-5.16,0.93-10.32,1.39-15.47c0.16-1.78,0.31-3.62-0.22-5.33
					c-0.94-3-3.8-4.96-6.66-6.28c-7.28-3.36-16.04-3.93-23.3-0.5c-1.93,0.91-3.78,2.13-4.99,3.89c-1.87,2.71-1.95,6.22-1.96,9.52
					c-0.01,3.04-0.02,6.08-0.03,9.11c-0.01,3.49,0.23,7.54,3.05,9.6c1.5,1.1,3.52,1.43,4.78,2.8
					C753.36,281.08,751.95,284.95,752.58,288.16z"/>
				<polygon class="st12" points="737.07,249.2 743.57,267.09 743.78,251.43 				"/>
				<path class="st12" d="M723.14,227.58c0.81-3.4,2.2-6.7,3.69-9.61c2.57-4.99,9.45-5.72,14.96-4.66
					c11.9,2.29,24.59-0.02,34.92,7.1c5.91,4.07,14.52,6.95,19.55,11.82c2.1,2.03,3.5,4.7,4.4,7.48c3.13,9.63,0.14,20.96-7.33,27.79
					c-1.68,1.53-3.54,2.84-5.46,4.06c-3.97,2.52-8.75,5.66-13.32,5.77c0.91-3.82,7.55-14.84,5.46-18.72
					c-3.3-6.16-14.2-7.22-20.25-7.54c-6.6-0.34-13.35,2.6-19.8,1.89c-4.64-0.51-9.74-4.21-12.92-7.53
					C722.07,240.24,721.67,233.73,723.14,227.58z"/>
			</g>
			<polygon class="st11" points="657.23,667.82 643.89,675.7 645.59,681.62 668.44,679.35 669.67,669.3 			"/>
		</g>
		<g>
			<g>
				<g>
					<path class="st13" d="M654.67,197.07c-0.84,5.05-4.65,8.94-8.46,12.16c-25.3,21.39-75.73,38.39-100.43,13.4
						c3.5,0.23,12.14,2.53,19.34,2.8c17.08,0.65,31.9-13.18,44.4-25.81c7.66-7.75,15.54-33.44,26.86-34.33
						C647.19,164.44,656.34,187,654.67,197.07z"/>
					<path class="st14" d="M559.29,188.52c11.12-13.48,21.02-21.4,33.55-29.91c12.53-8.51,27.91-13.47,42.23-9.98
						c1.7,0.41,3.43,0.97,4.76,2.15c1.52,1.35,2.36,3.35,3.15,5.29c4.37,10.69,14.09,25.96,12.02,38.87
						c-24.22-8.45-52.38-6.41-76.39,3.63c-17.92,7.5-32.12,25.88-33.71,25.46C529.71,220.01,554.06,194.86,559.29,188.52z"/>
				</g>
				<g>
					<path class="st13" d="M448.23,167.55c-0.78,5.06,1.63,9.95,4.23,14.19c17.35,28.23,59.95,60.13,91.22,44.11
						c-3.39-0.88-12.33-1.39-19.25-3.38c-16.43-4.72-26.19-22.49-34.11-38.39c-4.86-9.75-4.32-36.62-14.79-41
						C465.53,138.89,449.79,157.47,448.23,167.55z"/>
					<path class="st14" d="M541.51,189.22c-6.35-16.28-13.29-26.9-22.53-38.9c-9.25-12-22.3-21.51-37-22.67
						c-1.75-0.14-3.56-0.15-5.2,0.56c-1.87,0.81-3.29,2.45-4.65,4.04c-7.49,8.79-21.49,20.26-23.56,33.16
						c25.65-0.46,51.76,10.28,71.43,27.31c14.68,12.72,22.43,34.62,24.08,34.71C559.77,228.38,544.49,196.88,541.51,189.22z"/>
				</g>
			</g>
			<g>
				
					<rect x="376.68" y="224.39" transform="matrix(0.9874 0.1582 -0.1582 0.9874 62.1875 -78.944)" class="st6" width="300.65" height="253.58"/>
				
					<rect x="371.12" y="225.59" transform="matrix(0.9874 0.1582 -0.1582 0.9874 47.5735 -82.4937)" class="st4" width="341.76" height="64.03"/>
			</g>
			<polygon class="st8" points="685.37,313 549.44,291.22 535,288.52 534.94,288.9 401.15,267.46 533.26,299.52 505.31,475.87 
				530.98,480.03 558.04,305.87 681.76,335.55 			"/>
			<path class="st14" d="M522.78,478.91l-36.74-5.89l40.61-253.52c0.41-2.57,2.75-4.33,5.23-3.93l27.77,4.45
				c2.48,0.4,4.15,2.8,3.74,5.37L522.78,478.91z"/>
		</g>
		<polygon class="st8" points="621.17,411.39 682.14,411.15 686.84,381.85 625.07,397.75 		"/>
		<path class="st15" d="M780.91,296.46c0,0-11.91,4.14-12.77,6.29c-0.86,2.15-41.12,65.14-41.12,65.14l-83.13,20l3.91,18.96
			l76.62-8.44l27.92-1.95l44.8-64.93l-1.49-22.84L780.91,296.46z"/>
		<polygon class="st3" points="644.55,391.91 627.01,391.91 615.33,403.6 621.17,411.39 647.46,405.24 		"/>
		<g>
			<g>
				<g>
					<polygon class="st11" points="276.04,671.55 274.47,677.66 284.54,687.08 291.92,682.64 287.67,674.88 277.6,665.45 					"/>
					<polygon class="st12" points="304.99,482.13 300.24,500.67 307.31,567.88 275.93,669.41 286.85,675.13 332.59,578.29 
						341.87,549.51 351.15,487.01 					"/>
				</g>
				<g>
					<polygon class="st12" points="390.11,499.57 383.12,677.22 372.03,678.32 358.88,566.2 330.88,489.37 					"/>
					<polygon class="st11" points="371.96,676.93 372.58,683.23 385.2,688.33 390.57,681.44 383.95,675.74 					"/>
				</g>
				<g>
					<path class="st14" d="M296.65,462.13c9.52-62.53,6.12-108.07,6.61-120.57c0.49-12.5,9.27-18.99,9.27-18.99
						c3.85-0.86,7.2-3.34,11.09-4.32c26.31-6.62,40.66,13.47,50.51,35.13c12.13,26.7,22.33,54.28,30.57,82.42
						c7.23,24.7,14.48,49.62,17.52,75.25c1.25,10.58,2.3,20.6-9.28,25.27c-18.45,7.43-39.18,7.27-58.67,9.66
						c-22.39,2.74-44.8,4.74-67.34,5.68C275.16,552.14,287.13,524.66,296.65,462.13z"/>
				</g>
			</g>
			<path class="st16" d="M318.24,320.56c0,0,0.83,19.7,12.65,20.32c11.82,0.62,18.66-4.98,18.04-11.82c-0.62-6.84-4-9.99-4-9.99
				S330.47,312.68,318.24,320.56z"/>
			<polygon class="st14" points="418.5,316.32 384.51,358.37 320.45,328.66 304.35,332.17 303.67,340.23 306.16,361.13 
				387.33,390.35 406.81,380.61 432.78,322.17 			"/>
			<g>
				<path class="st12" d="M360.12,301.07c-6.3-2.94-8.63-8.87-9.48-12.41c-0.14-1-0.3-1.95-0.48-2.84l0-0.02c0,0,0,0.01,0,0.01
					c-2.43-12.46-7.65-14.94-7.65-14.94l0,0c-1.84-1.5-4-2.62-6.31-3.17c-3.55,3.19-5.76,7.82-6.02,12.59l-0.52,0.01
					c2.17,0.05,4.32,0.55,6.31,1.41c1.52,10.76,3.84,27.88,3.92,32.88c0.12,7.46,1.89,7.6,6.91,9.24c3.12,1.02,6.35-0.22,8.34-1.3h0
					C361.98,320.95,369.45,305.42,360.12,301.07z"/>
				<g>
					<path class="st3" d="M345.27,285.82c-7.88-17.17-29.59-8.48-32.41,7.72c-1.61,9.21,3.28,25.21,14.28,25.37
						c0.55,1.56,1.5,4.5,2.99,5.26c1.61,0.83,5.49-1.31,7.02-2.09c0.43-0.22,0.86-0.46,1.11-0.87c0.31-0.51,0.1-1.63-0.19-2.85
						c1.17-0.38,2.34-0.92,3.48-1.63c4.8-3.02,7.38-8.81,7.64-14.48C349.44,296.56,347.64,290.98,345.27,285.82z"/>
				</g>
				<path class="st12" d="M330.59,282.8c12.39-4.47,8.84-14.15,8.84-14.15c-10.15-14.57-31.87-5.11-31.87-5.11
					s-11.34,6.24-13.48,19.77c-0.19,1.23-0.34,2.38-0.45,3.48c-0.48,3.43-0.92,10.73-0.65,14.3c0.04,4.36-0.26,7.66-3.46,11.76
					c-5.85,7.48,1.3,10.79,4.18,12.99c2.88,2.2-2.76,19.09,18.6,12.72c13.95-7.2,17.22-7.23,12.06-14.81l0,0
					c-2.2-3.66-7.24-8.66-9.52-15.15C311.24,298.34,318.2,287.26,330.59,282.8z"/>
			</g>
			<polygon class="st3" points="420.07,316.97 425.64,305.93 438.63,303.99 438.63,319.57 431.3,321.56 			"/>
		</g>
		<g>
			<g>
				<polygon class="st11" points="90.91,673.3 89.95,681.24 104.88,691.1 113.78,684.12 106.8,675.22 91.87,665.35 				"/>
				<polygon class="st17" points="94.88,430.49 91.97,454.62 111.53,563.04 90.39,670.64 105.76,675.69 158.18,548.27 
					161.66,509.08 156.42,427.67 				"/>
			</g>
			<g>
				<polygon class="st17" points="202.66,438.65 203.84,540.78 184.6,672.46 169.8,672.46 160.45,550.95 140.2,429.45 				"/>
				<polygon class="st11" points="185.89,670.7 169.88,670.7 169.88,678.7 185.89,686.7 193.89,678.7 				"/>
			</g>
			<path class="st4" d="M92.9,458.18c-0.2,9.32,0.09,21.88,3.67,22.34c0.67,0.09,1.31-0.25,1.9-0.57
				c6.19-3.38,10.57-8.14,16.67-11.4c6.4-3.42,13.71-5.24,20.89-6.51c10.73-1.96,21.69-3.18,32.63-3.37
				c11.87-0.21,34.97,2.13,34.97,2.13c6.67-1.12,13.05-3.42,19.44-5.55c10.98-3.66,22.19-6.89,32.49-12.02
				c3.31-1.65,12.43-6.51,9.17-10.91c-2.47-3.33-10.85-5.56-14.63-7.61c-8.44-4.57-16.55-9.79-23.69-16.06
				c-10.15-8.91-17.64-19.84-22.33-32.15c-2.37-6.21-4.07-12.64-5.48-19.1c-0.76-3.5-1.43-7.02-2.06-10.55
				c-0.36-2-0.35-9.58-1.82-10.83c-14.84-12.75-19.2-23.92-37.17-21.14c-40.99,6.35-38.09,8.16-47.24,28.25
				c-3.68,8.08-8.66,29.77-10.07,38.45c-1.7,10.52-3.28,21.05-4.51,31.63c-1.37,11.8-2.31,23.66-2.51,35.54
				C93.21,450.06,93,453.75,92.9,458.18z"/>
			<g>
				<polygon class="st5" points="128.79,294.83 113,326.54 193.31,349.71 195.7,328.54 				"/>
				<polygon class="st5" points="170.35,300.27 151.73,306.39 122.61,329.31 119.28,461.58 172.42,453.99 160.03,341.72 
					188.11,324.71 195.7,315.75 				"/>
			</g>
			<g>
				<path class="st3" d="M156.71,309.22c-4.57-0.62-9.14-1.25-13.71-1.87c0.09-3.68,0.48-7.35,1.15-10.96
					c-3.77-1.48-8.12-3.66-8.64-7.69c-0.16-1.27,0.1-2.55,0.37-3.79c1.09-5.17,2.18-10.33,3.27-15.5c0.38-1.79,0.78-3.63,1.81-5.13
					c1.82-2.64,5.19-3.7,8.36-4.13c8.1-1.1,16.81,0.97,22.86,6.47c1.61,1.46,3.05,3.21,3.71,5.28c1.01,3.2,0.04,6.65-0.93,9.86
					c-0.9,2.96-1.79,5.93-2.69,8.89c-1.03,3.41-2.48,7.28-5.85,8.45c-1.79,0.62-3.86,0.34-5.49,1.3
					C158.06,302.09,158.29,306.28,156.71,309.22z"/>
				<path class="st12" d="M205.09,259.08c0.84-1.27,1.74-2.49,2.73-3.63c2.16-2.47,4.78-4.56,6.55-7.32
					c1.77-2.76,2.49-6.57,0.59-9.25c-1.22-1.73-3.28-2.64-5.29-3.31c-6.61-2.21-13.82-2.61-20.64-1.14
					c-6.49,1.4-12.35,3.9-18.74,1.24c-6-2.5-10.43-1.73-16.87,0.3c-6.97,2.2-16.23,2.44-22.59,5.68c-2.65,1.35-4.81,3.54-6.52,5.98
					c-5.92,8.45-6.4,20.39-1.15,29.28c1.18,1.99,2.6,3.83,4.11,5.59c3.12,3.64,6.84,8.13,11.26,9.6c0.25-3.99-2.92-16.72,0.27-19.89
					c5.06-5.02,16-2.8,22-1.3c6.54,1.64,12.24,6.52,18.73,7.76c4.67,0.89,10.76-1.19,14.85-3.48
					C199.41,272.38,202.03,263.71,205.09,259.08z"/>
			</g>
		</g>
		<g>
			<polygon class="st18" points="842.02,281.34 837.92,273.91 840.12,266.72 838.84,265.49 837.25,267.01 837.38,260.53 
				834.1,256.43 827.12,256.83 821.65,261.6 822.75,268.49 827.98,274.92 833.15,285.35 			"/>
			<path class="st2" d="M840.2,272.72c-0.98,0.19,17.88,28.53,21.89,30.74c13.03,7.16,35.4,2.44,49.46,1.57
				c2.9-0.18,6.07-0.25,8.4,1.49c2.35,1.76,3.18,5.01,2.81,7.93c-0.37,2.92-1.74,5.6-3.09,8.21c-4.22,8.17-7.82,16.09-14.11,22.81
				c-3.42,3.65-14.56,17.43-18.8,17.65c-0.62,0.03-1.16-0.36-1.65-0.74c-13.26-10.32-25.79-21.59-37.45-33.69
				c-12.14-12.59-13.03-19.3-16.23-35.83c-0.23-1.2-3.32-17.41-3.68-17.33C827.76,275.5,840.19,272.72,840.2,272.72z"/>
		</g>
		<g>
			<g>
				<polygon class="st11" points="990.59,665.01 991.49,671.29 979.23,679.47 971.75,674.14 977.42,666.91 989.68,658.73 				"/>
				<polygon class="st17" points="984.01,472.36 969.18,492.79 971.98,577.97 990.98,662.89 978.29,667.26 933.06,567.34 
					929.64,536.32 932.9,471.57 				"/>
			</g>
			<g>
				<polygon class="st17" points="886.32,487.37 891.64,568.23 915.72,671.26 927.98,670.39 928.23,573.72 937.52,476.41 				"/>
				<polygon class="st11" points="927.8,669 914.54,669.95 908.4,676.75 915.53,682.61 928.3,675.33 				"/>
			</g>
		</g>
		<path class="st2" d="M939.34,301.38h33.6l42.84,55.12l-23.24,171.8c0,0-68.57,4.67-118.97-4.08c0,0-14.03-33.83,0.64-120.75
			c5.74-34.03,17.86-78.75,19.77-80.5C909.34,308.91,933.47,302.91,939.34,301.38z"/>
		<g>
			<path class="st18" d="M977.68,264.52c-7.45-19.72-37.05-25.53-42.95-2.03c-1.77,7.06-2.71,14.52-1.03,21.6
				c1.68,7.08,6.34,13.76,13.15,16.42c0.04,0.02,0.08,0.03,0.12,0.04c-0.19,1.86-0.38,3.73-0.56,5.59c-0.04,0.4-0.07,0.84,0.17,1.17
				c0.27,0.37,0.78,0.45,1.24,0.5c2.24,0.24,4.47,0.49,6.71,0.73c1.11,0.12,2.26,0.24,3.31-0.14c2.29-0.83,3.15-3.64,3.16-6.07
				c0-0.58-0.03-1.17-0.06-1.75C973.9,295.56,982.55,277.41,977.68,264.52z"/>
			<g>
				<path class="st12" d="M934.38,233.43c-5.43,0-9.19,5.79-13.7,9.21c-3.75,2.84-8.28,4.12-12.24,6.6
					c-3.95,2.48-7.53,6.97-6.89,11.83c-4.62-1.59-9.6-3.17-14.26-1.54c-4.66,1.63-8.27,7.99-5.66,12.41c2.34,3.96,8.01,4.13,10.47,8
					c3.88,6.12-2.45,17.46,3.56,21.02c1.45,0.85,3.24,0.85,4.66,1.74c1.77,1.1,2.62,3.32,3.63,5.26
					c4.56,8.78,14.83,13.44,23.91,10.83c5.36-3.53,9.12-9.75,10.23-16.4c1.34-8.01-3.18-10.08-4.94-17.15
					c-1.93-7.73-0.66-16.41,3.39-23.24c2.64-4.44,6.75-8.54,11.57-9.73c1.96-0.48,1.58,1.26,3.59-0.6c0.86-0.8,1.8-3.47,1.89-4.7
					C947.59,243.48,941.53,233.43,934.38,233.43z"/>
				<path class="st12" d="M993.39,235.11c2.86,0.35,5.82-0.2,8.6,0.56c4.18,1.13,4.55,5.22,6.18,8.57
					c1.81,3.71,4.38,8.68,7.42,11.33c2.19,1.91,4.98,2.77,7.5,4.12c2.52,1.35,4.98,3.53,5.38,6.57c0.38,2.88-1.18,5.76-1.03,8.67
					c0.29,4.34,1.37,6.42,0.69,10.99c-0.35,2.36-0.76,4.87-2.23,6.66c-1.94,2.36-5.15,2.8-8.03,2.74c-2.88-0.05-5.9-0.4-8.53,0.94
					c-5.71,2.9-3.69,8.78-4.53,14.08c-1.28,8.07-9.6,13.9-16.89,12.17c-6.18-1.46-10.56-7.7-11.29-14.39
					c-0.37-3.35,0.5-6.65,0.1-9.99c-0.39-3.23-2.87-7.41-0.33-10.39c0.62-0.73,1.49-1.19,2.02-1.99c0.43-0.65,0.61-1.46,0.67-2.25
					c0.23-2.75-0.79-5.56-2.67-7.36c-1.35-1.29-3.13-2.12-4.09-3.78c-1.1-1.9-0.82-4.36-1.02-6.61c-0.48-5.44-4.24-10.3-9.07-11.71
					c-3.18-0.93-5.99-1.35-8.9-3.05c-0.44-0.26-7.14-4.59-7.13-3.44c-0.03-2,0.87-3.88,1.8-5.62c1.53-2.87,3.28-5.7,5.74-7.64
					c7.97-6.29,10.13,5.27,16.9,2.71c1.63-0.62,2.67-2.35,4.06-3.49c2.61-2.16,6.23-2.06,9.36-1.19
					C987.19,233.18,990.17,234.71,993.39,235.11z"/>
			</g>
		</g>
		<g>
			<g>
				<g>
					<path class="st19" d="M285.5,333.07c0.45,3.36-1.21,6.58-3,9.36c-11.89,18.49-40.57,39.09-61.1,28.04
						c2.26-0.54,8.2-0.76,12.81-1.99c10.96-2.91,17.67-14.57,23.14-25.01c3.35-6.4,3.35-24.23,10.36-27
						C274.4,313.82,284.6,326.36,285.5,333.07z"/>
					<path class="st14" d="M223.34,346.2c4.43-10.71,9.17-17.66,15.46-25.5c6.29-7.84,15.08-13.97,24.85-14.55
						c1.16-0.07,2.36-0.05,3.44,0.44c1.23,0.56,2.15,1.67,3.03,2.74c4.85,5.93,13.99,13.73,15.19,22.31
						c-17.01-0.64-34.47,6.13-47.75,17.17c-9.91,8.24-15.34,22.66-16.43,22.71C210.7,371.93,221.25,351.24,223.34,346.2z"/>
				</g>
				<g>
					<path class="st19" d="M148.8,354.51c0.49,3.36,2.97,6,5.45,8.18c16.5,14.53,49.72,26.47,66.44,10.23
						c-2.32,0.1-8.09,1.51-12.87,1.6c-11.34,0.21-20.99-9.17-29.11-17.71c-4.98-5.24-9.86-22.39-17.36-23.13
						C154.21,332.97,147.83,347.81,148.8,354.51z"/>
					<path class="st14" d="M212.19,350.11c-7.19-9.09-13.66-14.48-21.86-20.29c-8.2-5.81-18.33-9.3-27.88-7.18
						c-1.13,0.25-2.29,0.6-3.19,1.37c-1.03,0.88-1.61,2.19-2.16,3.47c-3.04,7.03-9.69,17.03-8.49,25.62
						c16.18-5.28,34.83-3.55,50.63,3.43c11.79,5.21,20.96,17.59,22.03,17.34C231.39,371.39,215.57,354.38,212.19,350.11z"/>
				</g>
			</g>
			<g>
				
					<rect x="134.77" y="371.54" transform="matrix(0.9904 -0.1384 0.1384 0.9904 -60.7883 36.8282)" class="st6" width="199.48" height="168.25"/>
				
					<rect x="112.43" y="372.14" transform="matrix(0.9904 -0.1384 0.1384 0.9904 -52.256 35.0257)" class="st17" width="226.75" height="42.49"/>
			</g>
			<g class="st8">
				<polygon points="138.38,427.05 327.53,400.63 329.63,415.63 				"/>
			</g>
			<path class="st14" d="M256.68,537.51l-24.45,3.42l-23.57-168.71c-0.24-1.71,0.9-3.28,2.55-3.51l18.48-2.58
				c1.65-0.23,3.18,0.97,3.42,2.68L256.68,537.51z"/>
		</g>
		<g>
			<g>
				<g>
					<path class="st4" d="M906.32,317.12c0.34,2.56-0.92,5-2.28,7.11c-9.03,14.05-30.82,29.7-46.42,21.31
						c1.72-0.41,6.23-0.58,9.73-1.51c8.33-2.21,13.42-11.07,17.58-19c2.55-4.86,2.55-18.41,7.87-20.51
						C897.88,302.51,905.63,312.03,906.32,317.12z"/>
					<path class="st6" d="M859.09,327.1c3.36-8.14,6.97-13.42,11.75-19.38c4.78-5.96,11.46-10.61,18.88-11.05
						c0.88-0.05,1.8-0.04,2.61,0.33c0.93,0.43,1.63,1.27,2.3,2.08c3.69,4.51,10.63,10.43,11.54,16.95
						c-12.92-0.49-26.19,4.66-36.28,13.04c-7.53,6.26-11.65,17.22-12.48,17.25C849.49,346.65,857.51,330.93,859.09,327.1z"/>
				</g>
				<g>
					<path class="st4" d="M802.47,333.42c0.37,2.55,2.25,4.55,4.14,6.21c12.54,11.04,37.78,20.11,50.48,7.77
						c-1.76,0.08-6.15,1.15-9.77,1.22c-8.62,0.16-15.94-6.96-22.11-13.46c-3.78-3.98-7.49-17.01-13.19-17.57
						C806.57,317.05,801.73,328.33,802.47,333.42z"/>
					<path class="st6" d="M850.62,330.07c-5.47-6.9-10.38-11-16.61-15.41c-6.23-4.42-13.93-7.07-21.18-5.45
						c-0.86,0.19-1.74,0.46-2.42,1.04c-0.78,0.66-1.22,1.67-1.64,2.63c-2.31,5.34-7.36,12.94-6.45,19.47
						c12.29-4.01,26.46-2.7,38.46,2.6c8.96,3.96,15.92,13.37,16.73,13.17C865.21,346.24,853.19,333.32,850.62,330.07z"/>
				</g>
			</g>
			<g>
				
					<rect x="791.8" y="346.35" transform="matrix(0.9904 -0.1384 0.1384 0.9904 -48.4186 123.9808)" class="st14" width="151.55" height="127.82"/>
				
					<rect x="774.83" y="346.81" transform="matrix(0.9904 -0.1384 0.1384 0.9904 -41.9363 122.6113)" class="st14" width="172.27" height="32.28"/>
			</g>
			<g class="st8">
				<polygon points="794.55,388.53 938.25,368.45 939.84,379.85 				"/>
			</g>
			<path class="st6" d="M884.42,472.44l-18.58,2.6l-17.91-128.17c-0.18-1.3,0.69-2.49,1.94-2.67l14.04-1.96
				c1.25-0.18,2.41,0.74,2.6,2.04L884.42,472.44z"/>
		</g>
		<g>
			<polygon class="st18" points="956.27,403.11 950.03,408.91 942.51,408.53 941.62,410.08 943.49,411.24 937.16,412.71 
				933.97,416.88 936.04,423.55 941.99,427.67 948.43,424.92 953.41,418.28 962.3,410.72 			"/>
			<path class="st2" d="M948.33,406.98c7.76-5.49,13.46-12.47,21.24-18.02c1.4-1,2.87-1.98,4.56-2.31c3.58-0.68,6.99,1.77,9.44,4.45
				c9.99,10.91-5.61,15.71-13.58,19.44c-1.11,0.52-16.12,7.48-15.95,7.81C954.03,418.34,948.33,406.99,948.33,406.98z"/>
		</g>
		<g>
			<polygon class="st3" points="160.12,394.86 166.98,399.25 173.97,397.59 175.07,398.89 173.52,400.32 179.71,400.6 
				183.44,403.99 182.65,410.64 177.79,415.56 171.27,414.08 165.44,408.68 155.78,403.08 			"/>
			<polygon class="st4" points="166.35,397.09 126.56,373.02 130.77,337.79 114.56,322 87.59,381.33 161.91,412.34 			"/>
		</g>
	</g>
</g>
</svg>
