<svg xmlns="http://www.w3.org/2000/svg" viewBox="0 0 203.15 105.37"><defs><style>.cls-1{fill:none;stroke-width:10px;}.cls-1,.cls-2{stroke:#000;stroke-miterlimit:10;}</style></defs><g id="Layer_2" data-name="Layer 2"><path d="M87.84,81.26a42.12,42.12,0,0,1-19.17,12A41.54,41.54,0,0,1,57.37,95,49.25,49.25,0,0,1,45.9,93.76a48.24,48.24,0,0,1-10.82-4,44.48,44.48,0,0,1-9.34-6.59c-.72-.63-1.32-1.37-2-2l-1-1L21.9,79c-.56-.76-1.21-1.46-1.71-2.26l-1.5-2.4A8.33,8.33,0,0,1,18,73l-.62-1.27-.52-1a5.51,5.51,0,0,1-.31-.7l2.9-1.2A39,39,0,0,1,9,58.65a47,47,0,0,0-4,16.26L7.79,73.7a6.92,6.92,0,0,0,.39.88l.64,1.31.78,1.59A11.19,11.19,0,0,0,10.45,79l1.88,3c.64,1,1.42,1.89,2.13,2.83l1.09,1.4,1.21,1.29c.82.83,1.59,1.74,2.47,2.52a54.2,54.2,0,0,0,11.44,8.08,57.92,57.92,0,0,0,13,4.85,58.92,58.92,0,0,0,13.82,1.53A51.54,51.54,0,0,0,94.88,87.66Z"/><path class="cls-1" d="M11,42.41A46.87,46.87,0,0,1,56.69,6.13c17.56,0,37.29,8.64,44.39,32.52"/><path d="M110.35,66.56a29.1,29.1,0,0,0,6.29,11.52,49.08,49.08,0,0,0,10.61,9.17A53.27,53.27,0,0,0,140,93.33c.56.17,1.11.38,1.67.51l1.67.4a33.26,33.26,0,0,0,3.33.59,13.24,13.24,0,0,0,1.64.13c.55,0,1.07.08,1.64.08l3.47-.18a43.61,43.61,0,0,0,13.38-3.43,40.62,40.62,0,0,0,11.54-7.62,43.79,43.79,0,0,0,8.51-10.91,42.71,42.71,0,0,0,4.41-13.09l.26-1.72.13-.85,0-.87.17-3.48-.18-3.47c0-.29,0-.58-.05-.87l-.13-.86L191.23,46a41.67,41.67,0,0,0-24.56-31.54,43.72,43.72,0,0,0-13.4-3.37l-3.47-.18c-1.16,0-2.32,0-3.48.15a42.61,42.61,0,0,0-6.84,1.12,43.44,43.44,0,0,0-6.56,2.26c-.52.24-1.06.45-1.58.72l-.49.25-.17.09-.69.35,1.48,2.76a39.38,39.38,0,0,0-7.15-.14,43.46,43.46,0,0,0-7.52,1.27,48.39,48.39,0,0,1,2.83-7.62A51.36,51.36,0,0,1,124,4.67l1.48,2.76.84-.43.21-.1.61-.31c.63-.33,1.29-.6,1.93-.89a53.13,53.13,0,0,1,8.05-2.77,51.67,51.67,0,0,1,58,25.42,52.86,52.86,0,0,1,5.48,16.06l.32,2.1.16,1.06c0,.35,0,.7.07,1.06l.21,4.25c0,1.41-.13,2.83-.2,4.25l-.06,1.06L201,59.24l-.32,2.11a52.11,52.11,0,0,1-5.43,16.07,53.26,53.26,0,0,1-10.41,13.37,50.28,50.28,0,0,1-14.15,9.34,53.2,53.2,0,0,1-16.43,4.21l-4.25.22c-.72,0-1.48-.06-2.23-.1a20,20,0,0,1-2.21-.18,42.28,42.28,0,0,1-4.27-.75l-2.09-.5c-.7-.17-1.35-.41-2-.62a62.59,62.59,0,0,1-15.08-7.18,58.57,58.57,0,0,1-12.69-11,38.5,38.5,0,0,1-8.29-15.45Z"/><path d="M31.82,41.74H48.5a3.31,3.31,0,0,1,1.41.23,1.1,1.1,0,0,1,.6.7,4.34,4.34,0,0,1,.15,1.26,4.22,4.22,0,0,1-.15,1.25,1,1,0,0,1-.51.64,3.45,3.45,0,0,1-1.52.27H42.74V61.18a8.56,8.56,0,0,1,0,1,2.46,2.46,0,0,1-.27.77,1.28,1.28,0,0,1-.79.61,5.21,5.21,0,0,1-1.5.18,5,5,0,0,1-1.49-.18,1.26,1.26,0,0,1-.78-.61,2.42,2.42,0,0,1-.27-.78,9.06,9.06,0,0,1,0-1V46.09H31.8a3.27,3.27,0,0,1-1.41-.22,1.16,1.16,0,0,1-.61-.71,4.38,4.38,0,0,1-.14-1.26,4.19,4.19,0,0,1,.14-1.24A1.09,1.09,0,0,1,30.3,42,3.42,3.42,0,0,1,31.82,41.74Z"/><path d="M69.14,60a4.76,4.76,0,0,1,.45,1.56q0,1.14-1.86,1.92a4.11,4.11,0,0,1-1.54.42,1.54,1.54,0,0,1-1-.28,2.19,2.19,0,0,1-.56-.59q-.3-.57-2.34-5.43l-.93.06H57.62v3.39a9.06,9.06,0,0,1,0,1,2.41,2.41,0,0,1-.29.79q-.42.81-2.34.81-2.1,0-2.46-1.11A5,5,0,0,1,52.31,61V44.38a8.39,8.39,0,0,1,0-1,2.4,2.4,0,0,1,.28-.8q.42-.81,2.34-.81h6.48a8.32,8.32,0,0,1,5.13,1.92,7,7,0,0,1,2,2.52,7.93,7.93,0,0,1,.78,3.54A7.45,7.45,0,0,1,67.1,55.3Q67.76,56.89,69.14,60ZM57.62,52.36h3.84a2.87,2.87,0,0,0,1.74-.66,2.33,2.33,0,0,0,.87-2,2.36,2.36,0,0,0-.87-2,2.91,2.91,0,0,0-1.8-.68H57.62Z"/><path d="M85.61,42.58a1.53,1.53,0,0,1,.87-.66,4.84,4.84,0,0,1,1.43-.18,5,5,0,0,1,1.36.15,2.37,2.37,0,0,1,.78.36,1.18,1.18,0,0,1,.39.63,5,5,0,0,1,.18,1.56V53.5a11.62,11.62,0,0,1-2.46,7.2,9,9,0,0,1-3.09,2.48,9.2,9.2,0,0,1-4.18.94,9,9,0,0,1-4.17-1,8.7,8.7,0,0,1-3-2.52,11.55,11.55,0,0,1-2.43-7.2v-9a8.72,8.72,0,0,1,.05-1.06,2.4,2.4,0,0,1,.28-.8,1.32,1.32,0,0,1,.81-.63,6.59,6.59,0,0,1,3.06,0,1.2,1.2,0,0,1,.78.63,4.13,4.13,0,0,1,.36,1.89v9a7.16,7.16,0,0,0,.9,3.48,3.37,3.37,0,0,0,1.35,1.35,4.25,4.25,0,0,0,2.13.51,3.66,3.66,0,0,0,3.27-1.62,6.6,6.6,0,0,0,1.08-3.75V44.23A3.3,3.3,0,0,1,85.61,42.58Z"/><path d="M101.13,59.21l9.08-1.72a7.32,7.32,0,0,1,1-.15,2.57,2.57,0,0,1,.84.13c.58.17,1,.89,1.23,2.15s0,2.25-.63,2.62a5.2,5.2,0,0,1-1.5.47L99.49,64.92c-1.37.26-2.25,0-2.63-.66a4.89,4.89,0,0,1-.46-1.47L93.3,46.4a2.87,2.87,0,0,1,.17-2.15,3.09,3.09,0,0,1,2-1l11.61-2.2a7.32,7.32,0,0,1,1-.15,2.57,2.57,0,0,1,.84.13c.58.18,1,.89,1.23,2.15s0,2.25-.63,2.62a5,5,0,0,1-1.5.47L99,48l.56,3,5.84-1.1a7.21,7.21,0,0,1,1-.15,2.48,2.48,0,0,1,.83.13c.58.18,1,.89,1.23,2.15s0,2.25-.66,2.63a5,5,0,0,1-1.5.47l-5.78,1.09Z"/><path d="M134.64,58l2,1.35c.72.54,1.08,1.06,1.08,1.55a4.16,4.16,0,0,1-.9,2q-.9,1.32-1.83,1.32a3.69,3.69,0,0,1-1.74-.81l-.84-.57q-.69-.48-1.08-.72A10,10,0,0,1,125,64.36a10.48,10.48,0,0,1-7.84-3.3A10.91,10.91,0,0,1,114,53.2a12.05,12.05,0,0,1,.9-4.66,10.84,10.84,0,0,1,2.4-3.65,11.23,11.23,0,0,1,3.45-2.31,10.06,10.06,0,0,1,4-.84A10.64,10.64,0,0,1,132.48,45a10.91,10.91,0,0,1,3.27,8.13A11.94,11.94,0,0,1,134.64,58Zm-15.33-5A5.77,5.77,0,0,0,121,57.39a5.33,5.33,0,0,0,7.69,0,5.72,5.72,0,0,0,1.72-4.35,5.78,5.78,0,0,0-1.73-4.38,5.46,5.46,0,0,0-3.86-1.65A5.38,5.38,0,0,0,121,48.72,5.77,5.77,0,0,0,119.31,53.05Z"/><path d="M152.52,42.58a1.53,1.53,0,0,1,.87-.66,4.84,4.84,0,0,1,1.43-.18,5,5,0,0,1,1.36.15,2.37,2.37,0,0,1,.78.36,1.18,1.18,0,0,1,.39.63,5,5,0,0,1,.18,1.56V53.5a11.62,11.62,0,0,1-2.46,7.2A9,9,0,0,1,152,63.18a9.2,9.2,0,0,1-4.18.94,9,9,0,0,1-4.17-1,8.7,8.7,0,0,1-3-2.52,11.55,11.55,0,0,1-2.43-7.2v-9a8.72,8.72,0,0,1,0-1.06,2.4,2.4,0,0,1,.28-.8,1.32,1.32,0,0,1,.81-.63,6.59,6.59,0,0,1,3.06,0,1.2,1.2,0,0,1,.78.63,4.13,4.13,0,0,1,.36,1.89v9a7.16,7.16,0,0,0,.9,3.48,3.37,3.37,0,0,0,1.35,1.35,4.25,4.25,0,0,0,2.13.51,3.66,3.66,0,0,0,3.27-1.62,6.6,6.6,0,0,0,1.08-3.75V44.23A3.3,3.3,0,0,1,152.52,42.58Z"/><path d="M159.93,44.38a8.39,8.39,0,0,1,0-1,2.4,2.4,0,0,1,.28-.8q.42-.81,2.34-.81,2.1,0,2.49,1.11a6,6,0,0,1,.15,1.56V61.09a8.92,8.92,0,0,1,0,1,2.45,2.45,0,0,1-.29.78q-.42.81-2.34.81-2.1,0-2.46-1.14a4.72,4.72,0,0,1-.18-1.53Z"/><path d="M181.85,42.63a1.43,1.43,0,0,1,.85-.71,4.84,4.84,0,0,1,1.43-.18,5.17,5.17,0,0,1,1.38.15,2.19,2.19,0,0,1,.78.36,1.22,1.22,0,0,1,.37.63,4.72,4.72,0,0,1,.18,1.53V61.06a8.92,8.92,0,0,1,0,1,2.45,2.45,0,0,1-.29.78q-.42.81-2.34.81a4.94,4.94,0,0,1-1.62-.18,1.75,1.75,0,0,1-.75-.57q-6.75-9-8.88-11.76v9.87a8.92,8.92,0,0,1,0,1,2.45,2.45,0,0,1-.29.78q-.42.81-2.34.81T168,62.89a2.37,2.37,0,0,1-.28-.81,8.9,8.9,0,0,1-.05-1V44.29a3.62,3.62,0,0,1,.29-1.66,1.43,1.43,0,0,1,.85-.71,5,5,0,0,1,1.47-.18,4.93,4.93,0,0,1,1.43.17,1.81,1.81,0,0,1,.73.37,7.82,7.82,0,0,1,.69.78q6.33,8.61,8.46,11.37V44.29A3.62,3.62,0,0,1,181.85,42.63Z"/><polygon class="cls-2" points="113.08 22.22 135.24 19.9 122.16 1.88 113.08 22.22"/><polygon class="cls-2" points="7.98 54.09 2.09 75.57 23.63 69.94 7.98 54.09"/></g></svg>