<?xml version="1.0" encoding="utf-8"?>
<!-- Generator: Adobe Illustrator 23.0.3, SVG Export Plug-In . SVG Version: 6.00 Build 0)  -->
<svg version="1.1" xmlns="http://www.w3.org/2000/svg" xmlns:xlink="http://www.w3.org/1999/xlink" x="0px" y="0px"
	 viewBox="0 0 750 500" style="enable-background:new 0 0 750 500;" xml:space="preserve">
<style type="text/css">
	.st0{fill:#E0E0E0;}
	.st1{fill:#FAFAFA;}
	.st2{fill:#EBEBEB;}
	.st3{display:none;}
	.st4{display:inline;fill:#EBEBEB;}
	.st5{fill:#263238;}
	.st6{fill:#455A64;}
	.st7{fill:#FFFFFF;}
	.st8{fill:#F5F5F5;}
	.st9{fill:#E8505B;}
	.st10{opacity:0.2;}
	.st11{opacity:0.5;}
	.st12{opacity:0.4;}
	.st13{fill:#FFBE9D;}
	.st14{fill:#EB996E;}
</style>
<g id="Background_Complete">
	<g>
		<rect x="609.92" y="57.32" class="st0" width="100.34" height="137.13"/>
		<rect x="613.41" y="61.07" class="st1" width="93.31" height="129.78"/>
		<rect x="644.85" y="91.45" class="st0" width="30.44" height="74.34"/>
	</g>
	<g>
		<g>
			<g>
				<path class="st2" d="M107.81,440.8c23.56-11.44,32.74-38.16,35.84-63.01c0.52-4.15,1.66-8.42,0.28-12.36
					c-1.39-3.93-5.57-7.13-9.54-5.98c-3.29,0.95-5.2,4.31-7.38,6.98c-2.9,3.56-6.82,6.26-11.15,7.7c-2.84,0.94-6.23,1.26-8.59-0.58
					c-3.25-2.53-2.88-7.51-2.2-11.61c1.27-7.64,2.53-15.28,3.79-22.92c0.68-4.1,1.36-8.29,0.7-12.38c-0.66-4.1-2.9-8.16-6.63-9.88
					c-3.73-1.71-8.91-0.23-10.38,3.65c-0.61,1.62-0.54,3.41-0.93,5.09c-0.38,1.69-1.48,3.44-3.17,3.66c-1.71,0.22-3.17-1.2-4.21-2.6
					c-3.58-4.82-5.6-10.61-7.44-16.34c-1.84-5.73-3.58-11.58-6.71-16.71c-3.12-5.13-7.87-9.56-13.69-10.82
					c-5.82-1.27-12.66,1.36-15.06,6.89c-2.41,5.55,0.03,11.95,2.96,17.22c4.34,7.81,9.81,14.98,16.18,21.21
					c1.15,1.12,2.39,2.34,2.64,3.94c0.46,2.88-2.57,5.18-5.41,5.65c-3.22,0.53-6.49-0.31-9.75-0.45c-3.26-0.13-6.95,0.73-8.64,3.56
					c-2.35,3.93,0.46,8.88,3.45,12.31c5.99,6.87,13.16,12.67,21.09,17.1c2.84,1.58,5.86,3.06,7.96,5.57
					c2.1,2.51,2.98,6.43,1.05,9.08c-1.93,2.66-5.85,2.98-8.92,1.89c-3.07-1.09-5.62-3.26-8.46-4.87c-5.3-3.03-12.64-3.8-17.03,0.5
					c-2.88,2.83-3.8,7.25-3.21,11.26c0.59,4.01,2.5,7.69,4.61,11.13c7.35,12.04,17.56,22.42,29.92,29.03
					C82.13,440.33,94.06,443.48,107.81,440.8"/>
			</g>
		</g>
		<g>
			<g>
				<g>
					<path class="st0" d="M104.47,442.11c0.66-9.93,1.1-4.78-0.57-17.82c-1.65-13.05-4.65-27.21-8.29-41.9
						c-0.92-3.67-1.84-7.3-2.74-10.87c-0.91-3.57-1.81-7.1-2.9-10.51c-2.16-6.82-4.75-13.21-7.4-19.21c-2.65-6-5.38-11.59-7.98-16.8
						c-2.61-5.21-5.13-10.01-7.61-14.3c-4.94-8.59-9.74-15.03-13.22-19.32c-1.73-2.15-3.13-3.78-4.09-4.86
						c-0.46-0.52-0.83-0.92-1.1-1.23c-0.25-0.27-0.39-0.41-0.4-0.4c-0.01,0.01,0.1,0.16,0.34,0.45c0.26,0.32,0.61,0.74,1.05,1.28
						c0.92,1.12,2.28,2.77,3.98,4.95c3.4,4.34,8.11,10.81,12.98,19.41c2.45,4.29,4.93,9.1,7.51,14.31c2.57,5.22,5.28,10.81,7.9,16.8
						c2.63,5.98,5.2,12.36,7.33,19.15c1.08,3.39,1.97,6.89,2.88,10.47c0.9,3.57,1.81,7.2,2.73,10.87
						c3.64,14.69,6.65,28.8,8.34,41.81c1.71,13,1.32,7.8,0.73,17.7"/>
				</g>
			</g>
		</g>
		<g>
			<g>
				<g>
					<path class="st0" d="M89.76,360.94c0.05,0.02,0.29-0.58,0.68-1.69c0.4-1.1,0.92-2.71,1.53-4.71c1.23-3.99,2.74-9.56,4.38-15.71
						c1.64-6.15,3.23-11.69,4.52-15.65c0.64-1.98,1.17-3.58,1.55-4.68c0.38-1.1,0.56-1.72,0.51-1.74c-0.05-0.02-0.33,0.56-0.79,1.64
						c-0.47,1.07-1.08,2.65-1.79,4.62c-1.42,3.93-3.1,9.47-4.74,15.62c-1.61,6.07-3.06,11.57-4.17,15.76
						c-0.51,1.89-0.95,3.49-1.29,4.77C89.85,360.29,89.71,360.93,89.76,360.94z"/>
				</g>
			</g>
		</g>
		<g>
			<g>
				<g>
					<path class="st0" d="M38.58,342.69c-0.01,0.05,0.73,0.26,2.06,0.59c1.33,0.34,3.27,0.81,5.64,1.48
						c4.75,1.29,11.24,3.3,18.32,5.84c7.07,2.55,13.37,5.12,17.87,7.12c2.26,0.98,4.07,1.83,5.32,2.4c1.25,0.58,1.95,0.88,1.98,0.83
						c0.02-0.05-0.63-0.44-1.85-1.1c-1.21-0.66-2.99-1.58-5.23-2.63c-4.46-2.13-10.75-4.79-17.83-7.35
						c-7.09-2.54-13.64-4.48-18.44-5.64c-2.39-0.6-4.35-0.99-5.71-1.24C39.34,342.74,38.59,342.64,38.58,342.69z"/>
				</g>
			</g>
		</g>
		<g>
			<g>
				<g>
					<path class="st0" d="M103.4,423.22c0.02,0.01,0.18-0.19,0.46-0.59c0.33-0.48,0.72-1.06,1.21-1.76c1.04-1.54,2.49-3.8,4.24-6.62
						c3.51-5.64,8.11-13.58,13.06-22.41c4.96-8.83,9.48-16.81,12.86-22.51c1.65-2.77,3.02-5.05,4.03-6.74
						c0.43-0.74,0.79-1.34,1.09-1.84c0.24-0.42,0.36-0.65,0.33-0.67c-0.02-0.01-0.18,0.19-0.46,0.59c-0.33,0.48-0.72,1.06-1.21,1.76
						c-1.04,1.54-2.49,3.8-4.24,6.62c-3.51,5.64-8.11,13.58-13.06,22.41c-4.96,8.83-9.48,16.8-12.86,22.51
						c-1.66,2.77-3.02,5.05-4.03,6.74c-0.43,0.74-0.79,1.34-1.09,1.84C103.5,422.97,103.38,423.2,103.4,423.22z"/>
				</g>
			</g>
		</g>
		<g>
			<g>
				<g>
					<path class="st0" d="M36.91,389.47c-0.01,0.02,0.21,0.16,0.65,0.4c0.52,0.27,1.16,0.6,1.93,1.01c1.78,0.91,4.19,2.14,7.12,3.63
						c6.01,3.06,14.26,7.39,23.38,12.18c9.12,4.8,17.42,9.05,23.49,11.99c3.04,1.47,5.51,2.64,7.23,3.41
						c0.8,0.35,1.46,0.64,1.99,0.88c0.46,0.19,0.71,0.28,0.72,0.26c0.01-0.02-0.21-0.16-0.65-0.4c-0.52-0.27-1.15-0.6-1.93-1
						c-1.78-0.91-4.19-2.13-7.12-3.63c-6.01-3.06-14.26-7.39-23.38-12.19c-9.11-4.79-17.41-9.05-23.49-11.99
						c-3.04-1.47-5.51-2.64-7.23-3.41c-0.8-0.35-1.45-0.64-1.99-0.88C37.16,389.53,36.92,389.45,36.91,389.47z"/>
				</g>
			</g>
		</g>
	</g>
	<g>
		<rect x="51.12" y="142" class="st0" width="79.24" height="77.85"/>
		<rect x="53.88" y="144.13" class="st1" width="73.68" height="73.68"/>
		<rect x="78.7" y="168.96" class="st0" width="24.04" height="24.04"/>
	</g>
</g>
<g id="Background_Simple" class="st3">
	<path class="st4" d="M80.53,261.53C51.12,200.7,55.07,147.95,79.07,98.66S157,16.21,211.82,17.04c41.53,0.63,80.82,19,115.81,41.38
		c34.99,22.38,67.16,49.12,103.32,69.55c36.16,20.43,77.89,34.5,118.97,28.34c21.5-3.23,42.58-11.91,64.22-9.8
		c30.79,3.01,56.4,28.75,64.94,58.49c8.55,29.74,2.16,62.23-11.5,89.99c-26.8,54.46-80.09,92.75-137.85,111.4
		c-57.76,18.65-119.87,19.44-180.29,13.7c-55.93-5.32-96.93-8.89-146.63-35.09C153.12,358.79,109.76,307.28,80.53,261.53"/>
</g>
<g id="Floor">
	<g>
		<g>
			<path class="st5" d="M686.66,441.88c0,0.14-139.55,0.26-311.65,0.26c-172.16,0-311.68-0.12-311.68-0.26
				c0-0.14,139.52-0.26,311.68-0.26C547.11,441.62,686.66,441.73,686.66,441.88z"/>
		</g>
	</g>
</g>
<g id="Device">
	<g>
		<g>
			<g>
				<g>
					<g>
						<g>
							<g>
								<path class="st6" d="M577.31,84.72H172.69c-6.98,0-12.63,5.65-12.63,12.63v285.79c0,6.98,5.65,12.63,12.63,12.63h155.29
									c0,0,9.88,30.55-20.74,46.35h145.2c0,0-34.57-11.85-25.68-46.35h150.55c6.97,0,12.63-5.65,12.63-12.63V97.35
									C589.94,90.37,584.28,84.72,577.31,84.72z"/>
							</g>
						</g>
					</g>
					<g>
						<g>
							<g>
								<path class="st5" d="M380.4,365.71c5.5,7.87-3.11,16.48-10.98,10.98c-0.26-0.18-0.5-0.42-0.68-0.68
									c-5.49-7.86,3.11-16.47,10.98-10.98C379.98,365.21,380.22,365.45,380.4,365.71z"/>
							</g>
						</g>
					</g>
				</g>
				<g>
					<g>
						<g>
							<g>
								<g>
									<path class="st1" d="M576.69,345.5H172.47c-1.81,0-3.27-1.47-3.27-3.27V105.12c0-1.81,1.47-3.27,3.27-3.27h404.22
										c1.81,0,3.27,1.47,3.27,3.27v237.11C579.96,344.04,578.5,345.5,576.69,345.5z"/>
									<path class="st7" d="M576.69,346H172.47c-2.08,0-3.77-1.69-3.77-3.77V105.12c0-2.08,1.69-3.77,3.77-3.77h404.22
										c2.08,0,3.77,1.69,3.77,3.77v237.11C580.46,344.31,578.77,346,576.69,346z M172.47,102.35c-1.53,0-2.77,1.24-2.77,2.77
										v237.11c0,1.53,1.24,2.77,2.77,2.77h404.22c1.53,0,2.77-1.24,2.77-2.77V105.12c0-1.53-1.24-2.77-2.77-2.77H172.47z"/>
								</g>
							</g>
						</g>
						<g>
							<g>
								<g>
									<path class="st6" d="M202.88,111.26c0,1.81-1.47,3.28-3.28,3.28c-1.81,0-3.28-1.47-3.28-3.28c0-1.81,1.47-3.28,3.28-3.28
										C201.41,107.98,202.88,109.45,202.88,111.26z"/>
								</g>
							</g>
						</g>
						<g>
							<g>
								<g>
									<path class="st6" d="M183,111.26c0,1.81-1.47,3.28-3.28,3.28c-1.81,0-3.28-1.47-3.28-3.28c0-1.81,1.47-3.28,3.28-3.28
										C181.53,107.98,183,109.45,183,111.26z"/>
								</g>
							</g>
						</g>
						<g>
							<g>
								<g>
									<path class="st6" d="M192.54,111.26c0,1.81-1.47,3.28-3.28,3.28c-1.81,0-3.28-1.47-3.28-3.28c0-1.81,1.47-3.28,3.28-3.28
										C191.08,107.98,192.54,109.45,192.54,111.26z"/>
								</g>
							</g>
						</g>
					</g>
				</g>
			</g>
			<g>
				<g>
					<path class="st5" d="M580.26,121.11c0,0.14-92.09,0.26-205.67,0.26c-113.62,0-205.69-0.12-205.69-0.26
						c0-0.14,92.07-0.26,205.69-0.26C488.16,120.85,580.26,120.96,580.26,121.11z"/>
				</g>
			</g>
		</g>
		<g>
			<g>
				<g>
					<g>
						<g>
							<g>
								
									<rect x="483.56" y="143.06" transform="matrix(1 -1.838830e-03 1.838830e-03 1 -0.3167 0.9577)" class="st8" width="74.21" height="59.33"/>
							</g>
						</g>
					</g>
				</g>
				<g>
					
						<rect x="486.12" y="146.8" transform="matrix(1 -1.837705e-03 1.837705e-03 1 -0.3165 0.957)" class="st2" width="69" height="51.86"/>
				</g>
				<g>
					<polygon class="st0" points="486.17,198.72 510.21,166.44 525.18,186.58 535.28,175.78 555.17,198.6 					"/>
				</g>
				<g>
					<g>
						<g>
							<path class="st0" d="M531.47,162.46c0.01,3-2.42,5.44-5.42,5.44c-3,0.01-5.44-2.42-5.44-5.42c-0.01-3,2.42-5.44,5.42-5.44
								C529.03,157.03,531.46,159.46,531.47,162.46z"/>
						</g>
					</g>
				</g>
			</g>
			<g>
				<g>
					<g>
						<g>
							<g>
								
									<rect x="483.56" y="270.09" transform="matrix(1 -1.838833e-03 1.838833e-03 1 -0.5503 0.9579)" class="st8" width="74.21" height="59.33"/>
							</g>
						</g>
					</g>
				</g>
				<g>
					
						<rect x="486.12" y="273.83" transform="matrix(1 -1.837705e-03 1.837705e-03 1 -0.55 0.9573)" class="st2" width="69" height="51.86"/>
				</g>
				<g>
					<polygon class="st0" points="486.17,325.75 510.21,293.47 525.18,313.61 535.28,302.81 555.17,325.62 					"/>
				</g>
				<g>
					<g>
						<g>
							<path class="st0" d="M531.47,289.48c0.01,3-2.42,5.44-5.42,5.44c-3,0.01-5.44-2.42-5.44-5.42c-0.01-3,2.42-5.44,5.42-5.44
								C529.03,284.05,531.46,286.48,531.47,289.48z"/>
						</g>
					</g>
				</g>
			</g>
			<g>
				<g>
					<g>
						<g>
							<g>
								
									<rect x="186.04" y="143.06" transform="matrix(1 -1.838908e-03 1.838908e-03 1 -0.3173 0.4106)" class="st8" width="74.21" height="59.33"/>
							</g>
						</g>
					</g>
				</g>
				<g>
					
						<rect x="188.6" y="146.8" transform="matrix(1 -1.837707e-03 1.837707e-03 1 -0.3171 0.4103)" class="st2" width="69" height="51.86"/>
				</g>
				<g>
					<polygon class="st0" points="188.64,198.72 212.68,166.44 227.65,186.58 237.76,175.78 257.64,198.6 					"/>
				</g>
				<g>
					<g>
						<g>
							<path class="st0" d="M233.94,162.46c0.01,3-2.42,5.44-5.42,5.44c-3,0.01-5.44-2.42-5.44-5.42c-0.01-3,2.42-5.44,5.42-5.44
								C231.5,157.03,233.94,159.46,233.94,162.46z"/>
						</g>
					</g>
				</g>
			</g>
			<g>
				<g>
					<g>
						<g>
							<g>
								
									<rect x="186.04" y="207.01" transform="matrix(1 -1.838911e-03 1.838911e-03 1 -0.4348 0.4107)" class="st8" width="74.21" height="59.33"/>
							</g>
						</g>
					</g>
				</g>
				<g>
					
						<rect x="188.6" y="210.74" transform="matrix(1 -1.839157e-03 1.839157e-03 1 -0.4349 0.4107)" class="st2" width="69" height="51.86"/>
				</g>
				<g>
					<polygon class="st0" points="188.64,262.67 212.68,230.39 227.65,250.53 237.76,239.73 257.64,262.54 					"/>
				</g>
				<g>
					<g>
						<g>
							<path class="st0" d="M233.94,226.4c0.01,3-2.42,5.44-5.42,5.44c-3,0.01-5.44-2.42-5.44-5.42c-0.01-3,2.42-5.44,5.42-5.44
								C231.5,220.97,233.94,223.4,233.94,226.4z"/>
						</g>
					</g>
				</g>
			</g>
			<g>
				<g>
					<g>
						<g>
							<g>
								
									<rect x="186.04" y="271.52" transform="matrix(1 -1.838911e-03 1.838911e-03 1 -0.5535 0.4109)" class="st8" width="74.21" height="59.33"/>
							</g>
						</g>
					</g>
				</g>
				<g>
					
						<rect x="188.6" y="275.26" transform="matrix(1 -1.839157e-03 1.839157e-03 1 -0.5536 0.4108)" class="st2" width="69" height="51.86"/>
				</g>
				<g>
					<polygon class="st0" points="188.64,327.18 212.68,294.9 227.65,315.04 237.76,304.24 257.64,327.05 					"/>
				</g>
				<g>
					<g>
						<g>
							<path class="st0" d="M233.94,290.91c0.01,3-2.42,5.44-5.42,5.44c-3,0.01-5.44-2.42-5.44-5.42c-0.01-3,2.42-5.44,5.42-5.44
								C231.5,285.48,233.94,287.91,233.94,290.91z"/>
						</g>
					</g>
				</g>
			</g>
		</g>
	</g>
</g>
<g id="Character">
	<g>
		<g>
			<g>
				<path class="st9" d="M568.85,201.33c0,0-6.89-1.57-12.89,4.45c-5.23,5.25-27.02,24.42-27.02,24.42l-31.58-6.32l-4.36,14.1
					c0,0,37.3,11.6,40.02,10.61c2.72-1,22.94-14.7,22.94-14.7L568.85,201.33z"/>
			</g>
			<g>
				<g>
					<g>
						<g>
							<g>
								<g>
									
										<rect x="392.61" y="162.43" transform="matrix(0.9909 -0.1346 0.1346 0.9909 -25.8446 65.201)" class="st2" width="153.43" height="122.66"/>
								</g>
							</g>
							<g>
								<g>
									<g>
										<path class="st5" d="M537.09,152.66c0,0-0.25,0.04-0.73,0.11c-0.49,0.07-1.2,0.17-2.12,0.3
											c-1.88,0.26-4.64,0.65-8.24,1.15c-7.21,1-17.74,2.45-31.1,4.3c-26.7,3.66-64.66,8.86-109.8,15.05l0.23-0.3
											c4.92,36.17,10.57,77.64,16.54,121.53l0,0.01l-0.33-0.25c56.29-7.63,108.6-14.71,152.04-20.6l-0.21,0.28
											c-4.92-36.63-9-66.99-11.85-88.21c-1.41-10.62-2.52-18.95-3.28-24.63c-0.37-2.84-0.66-5.01-0.85-6.49
											C537.17,153.43,537.09,152.66,537.09,152.66s0.12,0.73,0.32,2.19c0.21,1.47,0.51,3.62,0.9,6.44
											c0.78,5.67,1.93,13.97,3.4,24.56c2.92,21.25,7.09,51.65,12.13,88.33l0.03,0.25l-0.25,0.03
											c-43.43,5.91-95.74,13.04-152.02,20.7l-0.3,0.04l-0.04-0.3l0-0.01c-5.95-43.89-11.57-85.36-16.48-121.54l-0.04-0.26
											l0.26-0.04c45.22-6.09,83.26-11.21,110.01-14.81c13.34-1.78,23.86-3.19,31.06-4.15c3.58-0.47,6.33-0.84,8.2-1.08
											c0.92-0.12,1.62-0.21,2.1-0.27C536.86,152.68,537.09,152.66,537.09,152.66z"/>
									</g>
								</g>
							</g>
						</g>
					</g>
				</g>
				<g>
					<g>
						
							<rect x="397.9" y="170.16" transform="matrix(0.9909 -0.1346 0.1346 0.9909 -25.8473 65.1876)" class="st9" width="142.65" height="107.22"/>
					</g>
				</g>
				<g>
					<g>
						<polygon class="st9" points="405.77,286.49 446.17,213.75 482.36,250.91 500.1,226 547.12,267.29 						"/>
					</g>
				</g>
				<g>
					<g>
						<g>
							<g>
								<path class="st9" d="M488.63,199.74c0.83,6.15-3.47,11.81-9.62,12.64c-6.15,0.83-11.81-3.47-12.64-9.62
									c-0.83-6.15,3.47-11.81,9.62-12.64C482.14,189.29,487.8,193.59,488.63,199.74z"/>
							</g>
						</g>
					</g>
				</g>
				<g class="st10">
					<g>
						<polygon points="405.77,286.49 446.17,213.75 482.36,250.91 500.1,226 547.12,267.29 						"/>
					</g>
				</g>
				<g class="st10">
					<g>
						<g>
							<g>
								<path d="M488.63,199.74c0.83,6.15-3.47,11.81-9.62,12.64c-6.15,0.83-11.81-3.47-12.64-9.62
									c-0.83-6.15,3.47-11.81,9.62-12.64C482.14,189.29,487.8,193.59,488.63,199.74z"/>
							</g>
						</g>
					</g>
				</g>
			</g>
			<g>
				<path class="st9" d="M604.74,217.09c1.43-9.88-3.16-12.96-10.37-15.94c-9.01-3.73-26.16-1.88-31.95,3.35l-6.64,19.51
					c-2.77,3.23-2.33,8.17-0.73,12.12c1.6,3.95,4.18,7.49,5.37,11.57c2.31,7.9,0.69,14.89,0.14,23.11c-0.13,1.9-1.59,5.4-0.18,6.68
					c1.29,1.18,3.23,1.22,4.97,1.15c13.75-0.55,27.37-4,39.72-10.06c-4.7-9.5-9.9-20.49-6.87-27.77
					C600.89,234.36,603.45,226.04,604.74,217.09z"/>
			</g>
			<g>
				<g>
					<g>
						<g>
							<g>
								<path class="st9" d="M542.46,237.32l-4.45,15.18c0,0,23.29,8.47,35.9,8.32c11.82-0.15,15.2-1.48,19.36-11.03
									c4.16-9.54,8.88-20.51,9.87-26.82c0,0,1.01-2.78,1.5-6.44c1.73-12.95-14.03-16.36-16.33-3.5l-1.88,6.89
									c0,0-4.29,9.7-4.5,10.24c-1.9,5.03-5.18,13.09-7.56,13.98S542.46,237.32,542.46,237.32z"/>
							</g>
						</g>
					</g>
				</g>
			</g>
			<g>
				<g>
					<path class="st5" d="M599.33,237.98c0.01,0-0.03,0.13-0.12,0.36c-0.1,0.26-0.24,0.6-0.41,1.04c-0.37,0.91-0.92,2.24-1.73,3.92
						c-0.81,1.68-1.85,3.71-3.28,5.95c-1.43,2.23-3.22,4.7-5.68,6.99c-0.58,0.61-1.31,1.08-1.98,1.65
						c-0.71,0.52-1.49,0.97-2.28,1.44c-0.42,0.19-0.85,0.38-1.27,0.57c-0.22,0.09-0.43,0.2-0.65,0.29l-0.69,0.19
						c-0.46,0.13-0.93,0.26-1.4,0.39c-0.48,0.06-0.97,0.12-1.47,0.17c-3.96,0.38-8.17-0.16-12.54-0.89
						c-8.73-1.54-18.15-4.1-27.9-7.3l-0.24-0.08l0.07-0.24c0.18-0.61,0.37-1.26,0.56-1.92c1.33-4.54,2.64-8.99,3.89-13.26l0.07-0.24
						l0.24,0.06c8.52,2.28,16.57,4.27,23.91,5.6c1.83,0.32,3.63,0.61,5.37,0.74c0.87,0.07,1.74,0.1,2.54,0
						c0.21-0.01,0.39-0.08,0.57-0.13c0.17-0.08,0.29-0.13,0.41-0.32c0.24-0.32,0.47-0.65,0.67-1.01c1.64-2.83,2.89-5.62,4.09-8.12
						c2.34-5.03,4.13-9.09,5.38-11.88c0.61-1.37,1.09-2.45,1.43-3.2c0.16-0.35,0.28-0.62,0.38-0.83c0.09-0.18,0.14-0.28,0.14-0.27
						c0.01,0-0.03,0.1-0.1,0.29c-0.08,0.21-0.2,0.49-0.34,0.84c-0.32,0.76-0.77,1.85-1.35,3.24c-1.19,2.81-2.94,6.9-5.24,11.95
						c-1.18,2.51-2.41,5.3-4.05,8.18c-0.2,0.36-0.43,0.72-0.7,1.07c-0.09,0.17-0.35,0.35-0.56,0.44c-0.22,0.07-0.44,0.15-0.66,0.16
						c-0.88,0.12-1.76,0.09-2.64,0.02c-1.77-0.13-3.57-0.41-5.41-0.72c-7.37-1.31-15.43-3.28-23.97-5.55l0.31-0.17
						c-1.25,4.27-2.55,8.72-3.88,13.26c-0.19,0.66-0.38,1.31-0.56,1.92l-0.17-0.32c9.72,3.19,19.13,5.76,27.81,7.32
						c4.34,0.74,8.53,1.29,12.41,0.93c0.48-0.05,0.96-0.11,1.43-0.16c0.46-0.13,0.91-0.25,1.36-0.37l0.67-0.18
						c0.22-0.08,0.42-0.18,0.63-0.27c0.42-0.19,0.83-0.37,1.24-0.55c0.78-0.45,1.54-0.89,2.24-1.4c0.67-0.55,1.39-1.01,1.96-1.61
						c2.44-2.24,4.24-4.68,5.69-6.88c1.45-2.21,2.51-4.22,3.34-5.88c0.83-1.66,1.42-2.98,1.81-3.87c0.19-0.43,0.34-0.76,0.45-1.02
						C599.26,238.09,599.32,237.97,599.33,237.98z"/>
				</g>
			</g>
			<g>
				<g>
					<path class="st5" d="M559.28,220.31c0.07,0.04-0.6,1.07-1.62,2.76c-0.98,1.68-2.4,4.08-2.87,7c-0.5,2.94,0.49,5.59,1.24,7.37
						c0.78,1.8,1.34,2.9,1.26,2.93c-0.03,0.02-0.21-0.24-0.49-0.71c-0.28-0.48-0.68-1.17-1.11-2.07c-0.43-0.9-0.9-2-1.22-3.29
						c-0.33-1.29-0.44-2.79-0.2-4.31c0.5-3.07,2-5.48,3.07-7.12C558.46,221.23,559.23,220.28,559.28,220.31z"/>
				</g>
			</g>
			<g class="st10">
				<g>
					<path d="M561.34,259.04c-0.1,1.73,0.75,3.42,2.01,4.61c1.26,1.19,2.88,1.93,4.54,2.41c5.22,1.53,11.05,0.7,15.7-2.13
						c4.64-2.83,7.8-7.97,9.08-13.25c0,0-2.93,3.69-4.86,5.61c-2.57,2.56-5.36,3.78-8.99,4.29c-5.87,0.83-11.81-0.36-17.61-1.54"/>
				</g>
			</g>
			<g>
				<g>
					<path class="st1" d="M559.53,206.11c0.02-0.03,0.61,0.26,1.63,0.78c1.15,0.61,2.53,1.33,4.09,2.14l0.37,0.19l-0.36,0.23
						c-0.88,0.58-1.84,1.2-2.83,1.84c-0.92,0.59-1.81,1.15-2.63,1.68l-0.38,0.24l0-0.44c-0.02-1.94-0.02-3.61,0-4.79
						C559.43,206.81,559.47,206.11,559.53,206.11c0.06,0,0.12,0.69,0.19,1.87c0.07,1.18,0.13,2.85,0.18,4.79l-0.39-0.2
						c0.82-0.54,1.71-1.11,2.63-1.71c1-0.64,1.96-1.25,2.86-1.83l0.01,0.42C561.73,207.64,559.44,206.24,559.53,206.11z"/>
				</g>
			</g>
			<g>
				<g>
					<path class="st1" d="M548.41,216.01c0.02-0.03,0.61,0.26,1.63,0.78c1.15,0.61,2.53,1.33,4.09,2.14l0.37,0.19l-0.36,0.23
						c-0.88,0.58-1.84,1.2-2.83,1.84c-0.92,0.59-1.81,1.15-2.63,1.68l-0.38,0.24l0-0.44c-0.02-1.94-0.02-3.61,0-4.79
						C548.31,216.71,548.35,216.02,548.41,216.01c0.06,0,0.12,0.69,0.19,1.87c0.07,1.18,0.13,2.85,0.18,4.79l-0.39-0.2
						c0.82-0.54,1.71-1.11,2.63-1.71c1-0.64,1.96-1.25,2.86-1.83l0.01,0.42C550.61,217.54,548.32,216.15,548.41,216.01z"/>
				</g>
			</g>
			<g>
				<g>
					<path class="st1" d="M578.16,219.39c-0.04-0.01,0.02-0.67,0.12-1.8c0.13-1.3,0.29-2.84,0.47-4.59l0.04-0.41l0.35,0.24
						c0.86,0.61,1.79,1.26,2.76,1.94c0.89,0.64,1.74,1.25,2.54,1.82l0.37,0.26l-0.41,0.17c-1.8,0.74-3.35,1.36-4.45,1.78
						C578.84,219.23,578.18,219.45,578.16,219.39c-0.02-0.05,0.6-0.37,1.67-0.87c1.07-0.5,2.6-1.18,4.38-1.95l-0.04,0.43
						c-0.8-0.57-1.67-1.17-2.57-1.8c-0.97-0.69-1.89-1.36-2.76-1.97l0.39-0.17C578.76,216.78,578.31,219.42,578.16,219.39z"/>
				</g>
			</g>
			<g>
				<g>
					<path class="st1" d="M558.52,231.08c-0.02-0.03,0.4-0.53,1.14-1.4c0.86-0.98,1.89-2.14,3.05-3.46l0.27-0.31l0.14,0.4
						c0.35,1,0.73,2.07,1.12,3.18c0.35,1.03,0.69,2.03,1.01,2.96l0.15,0.43l-0.43-0.1c-1.89-0.44-3.51-0.84-4.66-1.14
						S558.51,231.14,558.52,231.08c0.01-0.06,0.7,0.04,1.87,0.26c1.16,0.22,2.8,0.55,4.7,0.96l-0.28,0.33
						c-0.33-0.93-0.68-1.92-1.04-2.96c-0.38-1.13-0.75-2.21-1.1-3.21l0.41,0.09C560.52,229.3,558.63,231.19,558.52,231.08z"/>
				</g>
			</g>
			<g>
				<g>
					<path class="st1" d="M573.87,232.65c-0.04-0.01,0.02-0.67,0.12-1.8c0.13-1.3,0.29-2.84,0.47-4.59l0.04-0.41l0.35,0.24
						c0.86,0.61,1.79,1.26,2.76,1.94c0.89,0.64,1.74,1.25,2.54,1.82l0.37,0.26l-0.41,0.17c-1.8,0.74-3.35,1.36-4.45,1.78
						C574.56,232.48,573.89,232.7,573.87,232.65c-0.02-0.05,0.6-0.37,1.67-0.87c1.07-0.5,2.6-1.18,4.38-1.95l-0.04,0.43
						c-0.8-0.57-1.67-1.17-2.57-1.8c-0.97-0.69-1.89-1.36-2.76-1.97l0.39-0.17C574.47,230.04,574.03,232.67,573.87,232.65z"/>
				</g>
			</g>
			<g>
				<g>
					<path class="st1" d="M568.41,242.01c-0.04-0.01,0.02-0.67,0.12-1.8c0.13-1.3,0.29-2.84,0.47-4.59l0.04-0.41l0.35,0.24
						c0.86,0.61,1.79,1.26,2.76,1.94c0.89,0.64,1.74,1.25,2.54,1.82l0.37,0.26l-0.41,0.17c-1.8,0.74-3.35,1.36-4.45,1.78
						C569.1,241.84,568.44,242.07,568.41,242.01c-0.02-0.05,0.6-0.37,1.67-0.87c1.07-0.5,2.6-1.18,4.38-1.95l-0.04,0.43
						c-0.8-0.57-1.67-1.17-2.57-1.8c-0.97-0.69-1.89-1.36-2.76-1.97l0.39-0.17C569.01,239.4,568.57,242.04,568.41,242.01z"/>
				</g>
			</g>
			<g>
				<g>
					<path class="st1" d="M579.75,273.5c-0.04-0.01,0.02-0.67,0.12-1.8c0.13-1.3,0.29-2.84,0.47-4.59l0.04-0.41l0.35,0.24
						c0.86,0.61,1.79,1.26,2.76,1.94c0.89,0.64,1.74,1.25,2.54,1.82l0.37,0.26l-0.41,0.17c-1.8,0.74-3.35,1.36-4.45,1.78
						C580.43,273.33,579.77,273.55,579.75,273.5c-0.02-0.05,0.6-0.37,1.67-0.87c1.07-0.5,2.6-1.18,4.38-1.95l-0.04,0.43
						c-0.8-0.57-1.67-1.17-2.57-1.8c-0.97-0.69-1.89-1.36-2.76-1.97l0.39-0.17C580.34,270.89,579.9,273.53,579.75,273.5z"/>
				</g>
			</g>
			<g>
				<g>
					<path class="st1" d="M589.6,211.29c-0.04-0.01,0.02-0.67,0.12-1.8c0.13-1.3,0.29-2.84,0.47-4.59l0.04-0.41l0.35,0.24
						c0.86,0.61,1.79,1.26,2.76,1.94c0.89,0.64,1.74,1.25,2.54,1.82l0.37,0.26l-0.41,0.17c-1.8,0.74-3.35,1.36-4.45,1.78
						S589.62,211.34,589.6,211.29c-0.02-0.05,0.6-0.37,1.67-0.87c1.07-0.5,2.6-1.18,4.38-1.95l-0.04,0.43
						c-0.8-0.57-1.67-1.17-2.57-1.8c-0.97-0.69-1.89-1.36-2.76-1.97l0.39-0.17C590.2,208.67,589.76,211.31,589.6,211.29z"/>
				</g>
			</g>
			<g>
				<g>
					<path class="st1" d="M565.03,222.32c-0.04-0.01,0.02-0.67,0.12-1.8c0.13-1.3,0.29-2.84,0.47-4.59l0.04-0.41l0.35,0.24
						c0.86,0.61,1.79,1.26,2.76,1.94c0.89,0.64,1.74,1.25,2.54,1.82l0.37,0.26l-0.41,0.17c-1.8,0.74-3.35,1.36-4.45,1.78
						C565.71,222.15,565.05,222.37,565.03,222.32c-0.02-0.05,0.6-0.37,1.67-0.87c1.07-0.5,2.6-1.18,4.38-1.95l-0.04,0.43
						c-0.8-0.57-1.67-1.17-2.57-1.8c-0.97-0.69-1.89-1.36-2.76-1.97l0.39-0.17C565.63,219.7,565.18,222.34,565.03,222.32z"/>
				</g>
			</g>
			<g>
				<g>
					<path class="st1" d="M566.42,270.9c-0.04-0.01,0.02-0.67,0.12-1.8c0.13-1.3,0.29-2.84,0.47-4.59l0.04-0.41l0.35,0.24
						c0.86,0.61,1.79,1.26,2.76,1.94c0.89,0.64,1.74,1.25,2.54,1.82l0.37,0.26l-0.41,0.17c-1.8,0.74-3.35,1.36-4.45,1.78
						C567.11,270.73,566.44,270.96,566.42,270.9c-0.02-0.05,0.6-0.37,1.67-0.87c1.07-0.5,2.6-1.18,4.38-1.95l-0.04,0.43
						c-0.8-0.57-1.67-1.17-2.57-1.8c-0.97-0.69-1.89-1.36-2.76-1.97l0.39-0.17C567.02,268.29,566.58,270.93,566.42,270.9z"/>
				</g>
			</g>
			<g>
				<g>
					<path class="st1" d="M592.75,230.29c-0.04-0.01,0.02-0.67,0.12-1.8c0.13-1.3,0.29-2.84,0.47-4.59l0.04-0.41l0.35,0.24
						c0.86,0.61,1.79,1.26,2.76,1.94c0.89,0.64,1.74,1.25,2.54,1.82l0.37,0.26l-0.41,0.17c-1.8,0.74-3.35,1.36-4.45,1.78
						C593.44,230.12,592.77,230.34,592.75,230.29c-0.02-0.05,0.6-0.37,1.67-0.87c1.07-0.5,2.6-1.18,4.38-1.95l-0.04,0.43
						c-0.8-0.57-1.67-1.17-2.57-1.8c-0.97-0.69-1.89-1.36-2.76-1.97l0.39-0.17C593.35,227.67,592.91,230.31,592.75,230.29z"/>
				</g>
			</g>
			<g>
				<g>
					<path class="st1" d="M581.35,252.93c-0.04-0.01,0.02-0.67,0.12-1.8c0.13-1.3,0.29-2.84,0.47-4.59l0.04-0.41l0.35,0.24
						c0.86,0.61,1.79,1.26,2.76,1.94c0.89,0.64,1.74,1.25,2.54,1.82l0.37,0.26l-0.41,0.17c-1.8,0.74-3.35,1.36-4.45,1.78
						C582.03,252.76,581.37,252.98,581.35,252.93c-0.02-0.05,0.6-0.37,1.67-0.87c1.07-0.5,2.6-1.18,4.38-1.95l-0.04,0.43
						c-0.8-0.57-1.67-1.17-2.57-1.8c-0.97-0.69-1.89-1.36-2.76-1.97l0.39-0.17C581.95,250.32,581.5,252.96,581.35,252.93z"/>
				</g>
			</g>
			<g>
				<g>
					<path class="st1" d="M590.87,263.42c-0.04-0.01,0.02-0.67,0.12-1.8c0.13-1.3,0.29-2.84,0.47-4.59l0.04-0.41l0.35,0.24
						c0.86,0.61,1.79,1.26,2.76,1.94c0.89,0.64,1.74,1.25,2.54,1.82l0.37,0.26l-0.41,0.17c-1.8,0.74-3.35,1.36-4.45,1.78
						C591.55,263.25,590.89,263.47,590.87,263.42c-0.02-0.05,0.6-0.37,1.67-0.87c1.07-0.5,2.6-1.18,4.38-1.95l-0.04,0.43
						c-0.8-0.57-1.67-1.17-2.57-1.8c-0.97-0.69-1.89-1.36-2.76-1.97l0.39-0.17C591.46,260.8,591.02,263.44,590.87,263.42z"/>
				</g>
			</g>
			<g>
				<g>
					<path class="st1" d="M584.35,241.42c-0.04-0.01,0.02-0.67,0.12-1.8c0.13-1.3,0.29-2.84,0.47-4.59l0.04-0.41l0.35,0.24
						c0.86,0.61,1.79,1.26,2.76,1.94c0.89,0.64,1.74,1.25,2.54,1.82l0.37,0.26l-0.41,0.17c-1.8,0.74-3.35,1.36-4.45,1.78
						C585.03,241.25,584.37,241.47,584.35,241.42c-0.02-0.05,0.6-0.37,1.67-0.87c1.07-0.5,2.6-1.18,4.38-1.95l-0.04,0.43
						c-0.8-0.57-1.67-1.17-2.57-1.8c-0.97-0.69-1.89-1.36-2.76-1.97l0.39-0.17C584.95,238.81,584.51,241.44,584.35,241.42z"/>
				</g>
			</g>
			<g>
				<g>
					<path class="st1" d="M553.85,254.9c-0.04-0.01,0.02-0.67,0.12-1.8c0.13-1.3,0.29-2.84,0.47-4.59l0.04-0.41l0.35,0.24
						c0.86,0.61,1.79,1.26,2.76,1.94c0.89,0.64,1.74,1.25,2.54,1.82l0.37,0.26l-0.41,0.17c-1.8,0.74-3.35,1.36-4.45,1.78
						S553.87,254.95,553.85,254.9c-0.02-0.05,0.6-0.37,1.67-0.87c1.07-0.5,2.6-1.18,4.38-1.95l-0.04,0.43
						c-0.8-0.57-1.67-1.17-2.57-1.8c-0.97-0.69-1.89-1.36-2.76-1.97l0.39-0.17C554.45,252.29,554,254.93,553.85,254.9z"/>
				</g>
			</g>
			<g>
				<g>
					<path class="st1" d="M568.88,251.73c-0.04-0.01,0.02-0.67,0.12-1.8c0.13-1.3,0.29-2.84,0.47-4.59l0.04-0.41l0.35,0.24
						c0.86,0.61,1.79,1.26,2.76,1.94c0.89,0.64,1.74,1.25,2.54,1.82l0.37,0.26l-0.41,0.17c-1.8,0.74-3.35,1.36-4.45,1.78
						C569.57,251.56,568.91,251.79,568.88,251.73c-0.02-0.05,0.6-0.37,1.67-0.87c1.07-0.5,2.6-1.18,4.38-1.95l-0.04,0.43
						c-0.8-0.57-1.67-1.17-2.57-1.8c-0.97-0.69-1.89-1.36-2.76-1.97l0.39-0.17C569.48,249.12,569.04,251.76,568.88,251.73z"/>
				</g>
			</g>
			<g>
				<g>
					<path class="st1" d="M542.72,248.15c-0.04-0.01,0.02-0.67,0.12-1.8c0.13-1.3,0.29-2.84,0.47-4.59l0.04-0.41l0.35,0.24
						c0.86,0.61,1.79,1.26,2.76,1.94c0.89,0.64,1.74,1.25,2.54,1.82l0.37,0.26l-0.41,0.17c-1.8,0.74-3.35,1.36-4.45,1.78
						C543.41,247.98,542.74,248.21,542.72,248.15c-0.02-0.05,0.6-0.37,1.67-0.87c1.07-0.5,2.6-1.18,4.38-1.95l-0.04,0.43
						c-0.8-0.57-1.67-1.17-2.57-1.8c-0.97-0.69-1.89-1.36-2.76-1.97l0.39-0.17C543.32,245.54,542.88,248.18,542.72,248.15z"/>
				</g>
			</g>
			<g>
				<g>
					<path class="st1" d="M601.69,219.13c-0.02,0.03-0.65-0.14-1.75-0.45c-1.25-0.37-2.74-0.81-4.42-1.31l-0.4-0.12l0.3-0.3
						c0.76-0.74,1.57-1.53,2.42-2.36c0.79-0.76,1.55-1.48,2.26-2.16l0.33-0.31l0.09,0.43c0.39,1.9,0.72,3.54,0.92,4.71
						C601.65,218.43,601.75,219.12,601.69,219.13c-0.06,0.01-0.26-0.66-0.55-1.8c-0.29-1.15-0.68-2.77-1.11-4.67l0.42,0.12
						c-0.7,0.69-1.46,1.42-2.25,2.19c-0.86,0.82-1.68,1.61-2.45,2.34l-0.09-0.41C599.24,218.06,601.75,218.99,601.69,219.13z"/>
				</g>
			</g>
		</g>
		<g>
			<g>
				<g>
					<g>
						<g>
							<path class="st9" d="M506.69,429.76l4.39-8.49l15.95,8.12l-6.29,12.49l-1.02-0.44c-4.53-2-22.88-10.47-25.37-12.86
								C491.58,425.91,506.69,429.76,506.69,429.76z"/>
						</g>
					</g>
					<g class="st11">
						<g>
							<path class="st7" d="M515.03,438.81c0.91-1.22,2.28-2.08,3.77-2.37c1.49-0.29,3.03-0.06,4.32,0.74l-2.27,4.46L515.03,438.81z
								"/>
						</g>
					</g>
				</g>
				<g class="st12">
					<g>
						<path class="st7" d="M499.19,428.12c0,0-5.45-1.05-5.25,0.04c0.19,1.08,18.42,10.34,26.81,13.72l0.16-0.37l-21.35-10.62
							C499.56,430.89,500.1,428.63,499.19,428.12z"/>
					</g>
				</g>
				<g>
					<g>
						<g>
							<path class="st5" d="M521.16,441.63c0,0.01-0.1-0.03-0.29-0.11c-0.24-0.11-0.51-0.22-0.81-0.35
								c-0.81-0.37-1.8-0.82-2.96-1.35c-2.49-1.16-5.92-2.8-9.66-4.7c-3.74-1.9-7.09-3.69-9.5-5.02c-1.12-0.63-2.07-1.16-2.84-1.59
								c-0.28-0.17-0.53-0.31-0.76-0.45c-0.17-0.1-0.26-0.16-0.26-0.17s0.1,0.04,0.28,0.13c0.24,0.12,0.49,0.26,0.78,0.41
								c0.78,0.42,1.74,0.93,2.87,1.53c2.42,1.29,5.78,3.06,9.53,4.96c3.74,1.9,7.15,3.56,9.63,4.75c1.16,0.56,2.14,1.03,2.93,1.41
								c0.3,0.14,0.56,0.27,0.8,0.39C521.07,441.57,521.16,441.62,521.16,441.63z"/>
						</g>
					</g>
				</g>
				<g>
					<g>
						<g>
							<path class="st5" d="M499.44,431.14c-0.06-0.02,0.24-0.74,0.16-1.66c-0.07-0.92-0.48-1.58-0.42-1.61
								c0.04-0.04,0.57,0.61,0.64,1.6C499.9,430.45,499.48,431.17,499.44,431.14z"/>
						</g>
					</g>
				</g>
				<g>
					<g>
						<g>
							<path class="st5" d="M505.36,431.14c-0.06,0.01-0.15-0.38-0.19-0.87c-0.05-0.49-0.04-0.88,0.02-0.89
								c0.06-0.01,0.15,0.38,0.19,0.87C505.43,430.74,505.42,431.14,505.36,431.14z"/>
						</g>
					</g>
				</g>
				<g>
					<g>
						<g>
							<path class="st5" d="M507,431.12c-0.06,0.02-0.22-0.27-0.37-0.66c-0.15-0.39-0.23-0.72-0.17-0.74
								c0.06-0.02,0.22,0.27,0.37,0.66C506.98,430.76,507.05,431.09,507,431.12z"/>
						</g>
					</g>
				</g>
				<g>
					<g>
						<g>
							<path class="st5" d="M508.58,430.02c-0.03,0.05-0.42-0.09-0.89-0.32s-0.82-0.46-0.79-0.51c0.03-0.05,0.42,0.09,0.89,0.32
								C508.25,429.74,508.61,429.97,508.58,430.02z"/>
						</g>
					</g>
				</g>
				<g>
					<g>
						<g>
							<path class="st5" d="M509.4,429.1c-0.01,0.06-0.51,0.03-1.07-0.2c-0.56-0.23-0.93-0.57-0.89-0.62
								c0.04-0.05,0.44,0.19,0.98,0.42C508.95,428.93,509.41,429.04,509.4,429.1z"/>
						</g>
					</g>
				</g>
				<g>
					<g>
						<g>
							<path class="st5" d="M505.53,429.48c-0.01,0.02-0.43-0.13-1.02-0.53c-0.3-0.2-0.63-0.46-0.97-0.8
								c-0.16-0.17-0.35-0.33-0.49-0.58c-0.07-0.12-0.13-0.27-0.09-0.45c0.04-0.18,0.21-0.31,0.36-0.33
								c1.24-0.01,1.94,1.04,2.05,1.73c0.07,0.36,0.03,0.66-0.01,0.85c-0.05,0.2-0.1,0.29-0.11,0.29c-0.04-0.01,0.14-0.44-0.02-1.11
								c-0.08-0.33-0.26-0.71-0.59-1.01c-0.31-0.29-0.81-0.58-1.26-0.54c-0.22,0.04-0.26,0.26-0.13,0.46
								c0.11,0.19,0.3,0.37,0.45,0.54c0.32,0.33,0.64,0.6,0.92,0.81C505.15,429.24,505.54,429.44,505.53,429.48z"/>
						</g>
					</g>
				</g>
				<g>
					<g>
						<g>
							<path class="st5" d="M505.23,429.39c-0.02,0-0.04-0.33,0.24-0.77c0.14-0.21,0.36-0.44,0.66-0.61
								c0.3-0.14,0.69-0.33,1.12-0.09c0.22,0.15,0.2,0.48,0.08,0.63c-0.11,0.17-0.27,0.28-0.41,0.37c-0.28,0.18-0.56,0.3-0.8,0.37
								c-0.48,0.15-0.8,0.14-0.8,0.12c-0.01-0.03,0.3-0.08,0.75-0.26c0.22-0.09,0.48-0.22,0.74-0.4c0.25-0.15,0.54-0.49,0.31-0.66
								c-0.24-0.16-0.64-0.03-0.9,0.09c-0.27,0.14-0.48,0.33-0.63,0.52C505.31,429.09,505.27,429.4,505.23,429.39z"/>
						</g>
					</g>
				</g>
				<g>
					<g>
						<g>
							<path class="st5" d="M523.05,437.09c-0.02,0.03-0.44-0.28-1.2-0.56c-0.75-0.28-1.9-0.5-3.11-0.25
								c-1.21,0.25-2.18,0.9-2.76,1.45c-0.59,0.56-0.85,1.01-0.88,0.99c-0.01-0.01,0.04-0.12,0.16-0.32
								c0.12-0.2,0.32-0.47,0.61-0.77c0.57-0.6,1.56-1.3,2.83-1.56c1.27-0.26,2.45-0.01,3.21,0.32c0.38,0.16,0.68,0.33,0.87,0.47
								C522.97,437,523.06,437.08,523.05,437.09z"/>
						</g>
					</g>
				</g>
				<g>
					<g>
						<g>
							<path class="st5" d="M524.77,429.61c0.05,0.03-0.63,1.53-1.53,3.35c-0.9,1.82-1.67,3.28-1.72,3.25
								c-0.05-0.03,0.63-1.53,1.53-3.35C523.95,431.04,524.72,429.58,524.77,429.61z"/>
						</g>
					</g>
				</g>
				<g>
					<g>
						<g>
							<path class="st5" d="M513.81,436.23c-0.02,0.05-1.15-0.3-2.45-0.95c-1.3-0.65-2.27-1.33-2.24-1.37
								c0.03-0.05,1.04,0.54,2.34,1.18C512.75,435.73,513.83,436.17,513.81,436.23z"/>
						</g>
					</g>
				</g>
				<g>
					<g>
						<g>
							<path class="st5" d="M516.94,437.82c0.02,0.06-0.2,0.18-0.43,0.36c-0.23,0.18-0.39,0.37-0.45,0.34
								c-0.05-0.03,0.05-0.29,0.31-0.51C516.64,437.8,516.93,437.76,516.94,437.82z"/>
						</g>
					</g>
				</g>
				<g>
					<g>
						<g>
							<path class="st5" d="M518.86,436.95c0.02,0.06-0.17,0.17-0.42,0.25c-0.25,0.08-0.47,0.11-0.49,0.05
								c-0.02-0.06,0.17-0.17,0.42-0.25C518.63,436.91,518.85,436.89,518.86,436.95z"/>
						</g>
					</g>
				</g>
				<g>
					<g>
						<g>
							<path class="st5" d="M520.89,437.14c-0.04,0.05-0.25-0.06-0.53-0.1c-0.28-0.04-0.51,0-0.53-0.06
								c-0.03-0.05,0.22-0.21,0.56-0.16C520.74,436.87,520.93,437.09,520.89,437.14z"/>
						</g>
					</g>
				</g>
				<g>
					<g>
						<g>
							<path class="st5" d="M522.25,437.43c-0.01,0.06-0.14,0.09-0.3,0.08c-0.16-0.02-0.28-0.08-0.28-0.14
								c0.01-0.06,0.14-0.09,0.3-0.08C522.14,437.31,522.26,437.37,522.25,437.43z"/>
						</g>
					</g>
				</g>
			</g>
		</g>
		<g>
			<g>
				<g>
					<g>
						<g>
							<path class="st9" d="M611.43,433.16l-3.8-8.77l16.38-7.23l5.7,12.77l-0.99,0.51c-4.41,2.25-22.57,11.11-26,11.52
								C598.9,442.44,611.43,433.16,611.43,433.16z"/>
						</g>
					</g>
					<g class="st11">
						<g>
							<path class="st7" d="M623.71,432.43c-0.37-1.47-0.17-3.08,0.55-4.41c0.72-1.34,1.87-2.38,3.3-2.88l2.02,4.58L623.71,432.43z"
								/>
						</g>
					</g>
				</g>
				<g class="st12">
					<g>
						<path class="st7" d="M605.42,437.94c0,0-4.26,3.56-3.29,4.09c0.96,0.53,19.66-7.73,27.58-12.1l-0.19-0.35l-21.72,9.83
							C607.8,439.41,606.39,437.56,605.42,437.94z"/>
					</g>
				</g>
				<g>
					<g>
						<g>
							<path class="st5" d="M629.77,429.46c0,0.01-0.09,0.06-0.27,0.15c-0.24,0.12-0.49,0.26-0.79,0.41
								c-0.79,0.39-1.77,0.87-2.92,1.44c-2.47,1.2-5.91,2.82-9.75,4.52c-3.84,1.7-7.35,3.16-9.9,4.19
								c-1.19,0.47-2.21,0.87-3.03,1.19c-0.31,0.11-0.58,0.22-0.83,0.31c-0.19,0.07-0.29,0.1-0.29,0.09c0-0.01,0.09-0.05,0.28-0.14
								c0.24-0.1,0.51-0.22,0.81-0.35c0.82-0.34,1.82-0.76,3-1.26c2.54-1.06,6.03-2.54,9.87-4.24c3.83-1.7,7.28-3.29,9.77-4.46
								c1.16-0.54,2.15-1.01,2.95-1.38c0.3-0.14,0.56-0.26,0.8-0.37C629.67,429.49,629.77,429.45,629.77,429.46z"/>
						</g>
					</g>
				</g>
				<g>
					<g>
						<g>
							<path class="st5" d="M607.91,439.66c-0.06,0.03-0.42-0.66-1.18-1.17c-0.76-0.53-1.53-0.63-1.52-0.69
								c-0.01-0.05,0.83-0.06,1.64,0.51C607.67,438.86,607.97,439.65,607.91,439.66z"/>
						</g>
					</g>
				</g>
				<g>
					<g>
						<g>
							<path class="st5" d="M611.66,435.07c-0.03,0.05-0.39-0.13-0.79-0.4c-0.41-0.27-0.71-0.53-0.67-0.58
								c0.03-0.05,0.39,0.13,0.79,0.4C611.39,434.76,611.69,435.02,611.66,435.07z"/>
						</g>
					</g>
				</g>
				<g>
					<g>
						<g>
							<path class="st5" d="M612.68,433.78c-0.02,0.06-0.35,0-0.75-0.13c-0.39-0.13-0.7-0.28-0.68-0.34c0.02-0.06,0.35,0,0.75,0.13
								C612.39,433.58,612.69,433.73,612.68,433.78z"/>
						</g>
					</g>
				</g>
				<g>
					<g>
						<g>
							<path class="st5" d="M612.83,431.87c0.02,0.05-0.34,0.27-0.81,0.49c-0.47,0.21-0.87,0.34-0.9,0.29
								c-0.02-0.05,0.34-0.27,0.81-0.49C612.4,431.94,612.81,431.81,612.83,431.87z"/>
						</g>
					</g>
				</g>
				<g>
					<g>
						<g>
							<path class="st5" d="M612.64,430.65c0.04,0.04-0.29,0.41-0.83,0.7c-0.54,0.29-1.03,0.36-1.04,0.3
								c-0.02-0.06,0.43-0.22,0.94-0.5C612.21,430.89,612.59,430.6,612.64,430.65z"/>
						</g>
					</g>
				</g>
				<g>
					<g>
						<g>
							<path class="st5" d="M610.47,433.89c0.01,0.02-0.37,0.25-1.06,0.46c-0.34,0.1-0.76,0.2-1.23,0.25
								c-0.24,0.02-0.48,0.06-0.76,0.02c-0.13-0.02-0.29-0.07-0.4-0.21c-0.11-0.14-0.11-0.35-0.03-0.49
								c0.78-0.97,2.03-0.85,2.64-0.49c0.32,0.17,0.53,0.39,0.65,0.55c0.12,0.16,0.16,0.27,0.15,0.27
								c-0.03,0.03-0.25-0.38-0.88-0.69c-0.31-0.15-0.71-0.24-1.16-0.19c-0.42,0.05-0.96,0.26-1.22,0.64
								c-0.11,0.2,0.04,0.37,0.27,0.39c0.22,0.04,0.48,0,0.7-0.01c0.46-0.04,0.87-0.11,1.21-0.2
								C610.06,434.03,610.46,433.86,610.47,433.89z"/>
						</g>
					</g>
				</g>
				<g>
					<g>
						<g>
							<path class="st5" d="M610.22,434.06c-0.01,0.02-0.28-0.18-0.44-0.68c-0.08-0.24-0.11-0.56-0.05-0.9
								c0.08-0.32,0.18-0.74,0.64-0.92c0.26-0.08,0.5,0.15,0.54,0.34c0.06,0.19,0.05,0.39,0.03,0.55c-0.04,0.33-0.12,0.62-0.22,0.86
								c-0.19,0.47-0.39,0.71-0.41,0.69c-0.03-0.02,0.13-0.28,0.27-0.74c0.07-0.23,0.13-0.51,0.16-0.83
								c0.05-0.29-0.03-0.73-0.32-0.66c-0.27,0.09-0.43,0.47-0.5,0.75c-0.06,0.3-0.05,0.59,0,0.82
								C610.04,433.81,610.25,434.04,610.22,434.06z"/>
						</g>
					</g>
				</g>
				<g>
					<g>
						<g>
							<path class="st5" d="M627.46,425.12c0.01,0.04-0.49,0.16-1.19,0.58c-0.7,0.41-1.58,1.16-2.16,2.25
								c-0.57,1.1-0.68,2.26-0.62,3.06c0.06,0.81,0.24,1.29,0.21,1.31c-0.01,0-0.07-0.11-0.15-0.33c-0.08-0.22-0.16-0.55-0.21-0.96
								c-0.11-0.82-0.02-2.03,0.58-3.17c0.6-1.14,1.54-1.91,2.28-2.29c0.37-0.2,0.69-0.31,0.91-0.38
								C627.33,425.13,627.45,425.11,627.46,425.12z"/>
						</g>
					</g>
				</g>
				<g>
					<g>
						<g>
							<path class="st5" d="M622.75,419.06c0.05-0.02,0.78,1.45,1.63,3.3c0.85,1.85,1.49,3.37,1.43,3.39
								c-0.05,0.02-0.78-1.45-1.63-3.3C623.33,420.6,622.69,419.08,622.75,419.06z"/>
						</g>
					</g>
				</g>
				<g>
					<g>
						<g>
							<path class="st5" d="M620.95,431.74c0.03,0.05-0.96,0.7-2.29,1.29c-1.32,0.6-2.46,0.92-2.48,0.87
								c-0.02-0.06,1.08-0.47,2.39-1.06C619.88,432.24,620.91,431.69,620.95,431.74z"/>
						</g>
					</g>
				</g>
				<g>
					<g>
						<g>
							<path class="st5" d="M624.15,430.32c0.06,0.02,0.01,0.27,0.01,0.56c0,0.29,0.04,0.54-0.02,0.56
								c-0.05,0.02-0.2-0.22-0.19-0.56C623.95,430.53,624.1,430.29,624.15,430.32z"/>
						</g>
					</g>
				</g>
				<g>
					<g>
						<g>
							<path class="st5" d="M624.7,428.28c0.06,0.02,0.03,0.24-0.07,0.48c-0.09,0.25-0.21,0.43-0.27,0.41
								c-0.06-0.02-0.03-0.24,0.07-0.49C624.52,428.44,624.64,428.26,624.7,428.28z"/>
						</g>
					</g>
				</g>
				<g>
					<g>
						<g>
							<path class="st5" d="M626.12,426.82c0.01,0.06-0.21,0.15-0.41,0.35c-0.21,0.19-0.32,0.4-0.38,0.38
								c-0.06-0.01-0.02-0.3,0.23-0.54C625.82,426.78,626.12,426.77,626.12,426.82z"/>
						</g>
					</g>
				</g>
				<g>
					<g>
						<g>
							<path class="st5" d="M627.21,425.96c0.04,0.04-0.01,0.17-0.13,0.28c-0.11,0.11-0.24,0.17-0.28,0.13
								c-0.04-0.04,0.01-0.17,0.13-0.28C627.04,425.97,627.17,425.91,627.21,425.96z"/>
						</g>
					</g>
				</g>
			</g>
		</g>
		<g>
			<g>
				<g>
					<path class="st5" d="M628.15,422.62l-23.05,13.1l-32.31-64.75c-4.8-17.31-9.42-78.24-9.42-78.24l26.63,2.03
						c0,0,4.1,43.74,10.54,66.29L628.15,422.62z"/>
				</g>
				<g>
					<path class="st5" d="M603.24,266.14c0.64-0.04,5.31,18.03-0.38,28.92c-0.55,1.06-4.64,6.97-4.64,6.97
						c-14.51,17.12-29.21,50.32-33.31,59.05c-8.42,17.89-39.45,76.76-39.45,76.76l-19.93-11.41l29.15-74.94l24.99-73.53
						L603.24,266.14z"/>
					<g>
						<path class="st6" d="M590.15,312.39c-0.03-0.02-0.33,0.51-0.84,1.47c-0.55,1.04-1.28,2.42-2.16,4.09
							c-1.82,3.45-4.38,8.2-7.21,13.43c-2.84,5.24-5.35,10.02-7.09,13.51c-0.87,1.75-1.56,3.17-2.02,4.16
							c-0.46,0.99-0.7,1.55-0.67,1.56c0.03,0.02,0.33-0.51,0.84-1.47c0.55-1.04,1.28-2.42,2.16-4.09c1.82-3.45,4.38-8.2,7.21-13.44
							c2.84-5.24,5.35-10.01,7.09-13.51c0.87-1.75,1.56-3.17,2.02-4.16C589.94,312.96,590.18,312.4,590.15,312.39z"/>
					</g>
				</g>
			</g>
		</g>
		<g>
			<g>
				<path class="st13" d="M535.13,248.51c-3.73-0.37-8.2-0.88-10.5-1.44c-4.27-1.03-4.2-1.42-4-1.91c0.52-1.3,7.58,1.53,6.39,0.04
					c-1.19-1.49-9.01-2.45-8.41-3.78c0.78-1.73,8.12,1.36,8.76,1.58c0.62,0.21,0.95-0.71,0.36-0.87c-0.84-0.24-9.65-2.93-8.9-4.64
					c0.42-0.95,2.04,0,2.04,0s8.07,3.13,8.4,2.31c0.33-0.83-4.35-2.83-5.97-3.4c-1.6-0.56-2.01-1.55-1.19-2.06
					c0.56-0.35,5.56,1.25,7.16,1.85c1.59,0.59,5.93,2.3,4.43-0.3c-1.5-2.6-1.7-5.15-1.29-5.87c0.42-0.72,1.57-0.37,1.66,0.55
					c0.08,0.75,0.59,1.96,1,2.85c0.34,0.74,0.8,1.42,1.37,2c0.49,0.51,0.94,0.94,1.35,1.32l3.56,3.37l-2.48,8.74L535.13,248.51z"/>
			</g>
		</g>
		<g>
			<g>
				<path class="st5" d="M579.91,153.64c-1.28-2.05-3.94-2.79-6.35-2.76c-6.71,0.09-12.98,5.42-14.16,12.03
					c-0.48,2.71-0.2,5.56-1.05,8.18c-0.62,1.89-1.79,3.54-2.88,5.21c-1.09,1.67-2.13,3.44-2.42,5.41c-0.29,1.97,0.33,4.19,1.99,5.3
					c-1.95,1.99-2.43,5.26-1.14,7.73c1.29,2.47,4.26,3.93,7,3.46c1.46-0.25,3.02-0.97,4.33-0.28c0.65,0.35,1.09,0.98,1.6,1.51
					c2,2.05,5.34,2.39,8.01,1.35c2.68-1.04,4.76-3.22,6.34-5.62c0.42-0.63,0.97-1.37,1.72-1.29c0.44,0.04,0.79,0.36,1.14,0.64
					c2.62,2.05,6.77,1.73,9.05-0.68c2.28-2.41,2.36-6.58,0.16-9.08c2.39-0.67,4.27-2.71,5.06-5.07c0.79-2.36,0.56-4.97-0.28-7.31
					c-1.25-3.47-3.76-6.31-6.2-9.06c-2.24-2.52-2.9-6.41-5.15-8.93c-0.97-1.09-2.13-2.42-4.18-2.79c-1.43-0.26-3.54,0.35-4.8,1.07"
					/>
			</g>
			<g>
				<g>
					<g>
						<g>
							<g>
								<g>
									<g>
										<path class="st13" d="M574.88,154.84c6.97,0,12.6,5.69,12.53,12.66l-0.37,34.25c-0.06,4.37-3.86,7.79-8.53,7.69h0
											c-4.72-0.1-8.55-3.75-8.57-8.16c-0.01-4.63-0.11-9.5-0.11-9.5s-5.96-0.99-7.2-8.77c-0.31-1.96-0.33-9.13-0.28-15.75
											C562.41,160.38,568,154.84,574.88,154.84L574.88,154.84z"/>
									</g>
								</g>
								<g>
									<g>
										<g>
											<path class="st5" d="M564.13,172.02c-0.02,0.53,0.41,0.98,0.96,1.01c0.55,0.03,1.01-0.37,1.03-0.9
												c0.02-0.53-0.41-0.98-0.96-1.01C564.61,171.1,564.14,171.5,564.13,172.02z"/>
										</g>
									</g>
									<g>
										<g>
											<g>
												<path class="st5" d="M563.91,170.91c0.12,0.13,0.88-0.43,1.95-0.43c1.07-0.01,1.86,0.54,1.98,0.41
													c0.06-0.06-0.07-0.29-0.41-0.54c-0.34-0.25-0.91-0.49-1.58-0.49c-0.67,0-1.23,0.25-1.55,0.5
													C563.96,170.61,563.85,170.85,563.91,170.91z"/>
											</g>
										</g>
									</g>
								</g>
								<g>
									<g>
										<g>
											<path class="st5" d="M574.87,172.02c-0.02,0.53,0.41,0.98,0.96,1.01c0.55,0.03,1.01-0.37,1.03-0.9
												c0.02-0.53-0.41-0.98-0.96-1.01C575.35,171.1,574.89,171.5,574.87,172.02z"/>
										</g>
									</g>
									<g>
										<g>
											<g>
												<path class="st5" d="M574.46,171.11c0.12,0.13,0.88-0.43,1.95-0.43c1.07-0.01,1.86,0.54,1.98,0.41
													c0.06-0.06-0.07-0.29-0.41-0.54c-0.34-0.25-0.91-0.49-1.58-0.49c-0.67,0-1.23,0.25-1.55,0.5
													C574.52,170.81,574.4,171.05,574.46,171.11z"/>
											</g>
										</g>
									</g>
								</g>
								<g>
									<g>
										<g>
											<path class="st5" d="M570.57,179.07c0-0.06-0.66-0.18-1.74-0.31c-0.27-0.03-0.53-0.08-0.58-0.27
												c-0.06-0.2,0.05-0.49,0.18-0.81c0.26-0.66,0.53-1.36,0.81-2.09c1.13-2.97,1.94-5.42,1.82-5.46
												c-0.12-0.04-1.13,2.33-2.26,5.3c-0.27,0.73-0.53,1.43-0.78,2.1c-0.1,0.31-0.28,0.67-0.14,1.08
												c0.07,0.2,0.28,0.35,0.45,0.4c0.18,0.05,0.33,0.06,0.47,0.06C569.89,179.13,570.56,179.13,570.57,179.07z"/>
										</g>
									</g>
								</g>
								<g>
									<g>
										<path class="st14" d="M569.82,191.78c0,0,5.23,0.34,10.42-2.78c0,0-2.53,5.34-10.32,4.62L569.82,191.78z"/>
									</g>
								</g>
								<g>
									<g>
										<path class="st14" d="M571.02,181.66c0.39-0.51,1.06-0.79,1.73-0.72c0.47,0.05,0.94,0.27,1.22,0.65
											c0.28,0.38,0.34,0.92,0.09,1.28c-0.29,0.41-0.9,0.5-1.41,0.36c-0.51-0.15-0.95-0.48-1.37-0.82
											c-0.12-0.09-0.23-0.19-0.31-0.32c-0.07-0.13-0.09-0.29,0-0.4"/>
									</g>
								</g>
								<g>
									<g>
										<g>
											<path class="st5" d="M573.73,179.81c-0.17-0.01-0.18,1.16-1.17,1.98c-1,0.83-2.24,0.7-2.25,0.86
												c-0.02,0.07,0.28,0.23,0.8,0.24c0.51,0.02,1.27-0.15,1.88-0.65c0.61-0.51,0.87-1.18,0.91-1.66
												C573.94,180.1,573.81,179.81,573.73,179.81z"/>
										</g>
									</g>
								</g>
							</g>
						</g>
					</g>
					<g>
						<g>
							<path class="st5" d="M574.42,168.1c0.11,0.29,1.18,0.15,2.44,0.31c1.26,0.13,2.28,0.5,2.45,0.23c0.07-0.13-0.1-0.4-0.51-0.68
								c-0.41-0.28-1.06-0.55-1.81-0.63c-0.76-0.08-1.45,0.04-1.91,0.22C574.6,167.73,574.37,167.96,574.42,168.1z"/>
						</g>
					</g>
					<g>
						<g>
							<path class="st5" d="M564.3,167.8c0.19,0.24,0.93-0.01,1.82-0.02c0.89-0.04,1.64,0.16,1.82-0.09
								c0.08-0.12-0.04-0.37-0.37-0.6c-0.32-0.23-0.87-0.42-1.48-0.4c-0.61,0.02-1.14,0.24-1.45,0.49
								C564.32,167.43,564.22,167.68,564.3,167.8z"/>
						</g>
					</g>
				</g>
			</g>
			<g>
				<path class="st5" d="M590.22,167.29c-0.55-4.71-2.77-9.46-6.82-11.94c-3.55-2.18-7.17-2.67-10.7-0.75
					c-2.94-0.47-6.05,0.58-8.25,2.59c-2.3,2.1-3.65,5.12-4.01,8.21c-0.35,3.09,0.25,6.24,1.4,9.13c0.2-2.63,0.4-5.26,0.6-7.88
					c4.04-1.72,8.46-5.11,10.03-9.22c1.52,5.53,6.17,10.18,11.79,11.49c-0.81,4.58,1.03,9.54,4.62,12.49
					C589.86,176.76,590.77,172.01,590.22,167.29z"/>
			</g>
			<g>
				<path class="st5" d="M585.06,171.96c0.6,3.01-0.43,6.08-1.19,9.06c-0.76,2.98-1.22,6.34,0.38,8.96c0.46,0.76,1.1,1.5,1.08,2.39
					c-0.02,0.79-0.58,1.46-0.81,2.21c-0.43,1.39,0.33,2.96,1.55,3.75c1.22,0.79,2.78,0.9,4.2,0.6c1.42-0.29,2.74-0.95,4.04-1.59
					c1.26-0.63,2.53-1.26,3.79-1.89c0.56-0.28,1.13-0.57,1.59-1c0.78-0.73,1.15-1.79,1.38-2.82c0.89-4.03,0-8.34-2.02-11.94
					c-2.03-3.6-1.13-9.57-4.61-11.78"/>
			</g>
			<g>
				<g>
					<path class="st6" d="M596.17,196.07c-0.02-0.07,0.82-0.07,2.03-0.8c0.59-0.37,1.27-0.93,1.84-1.74
						c0.58-0.8,1.05-1.87,1.16-3.11c0.13-1.24-0.09-2.63-0.68-3.97c-0.3-0.67-0.68-1.33-1.16-1.94c-0.48-0.62-1.05-1.2-1.64-1.81
						c-0.58-0.61-1.19-1.25-1.71-1.99c-0.52-0.74-0.93-1.63-1.04-2.6c-0.24-1.92,0.49-3.81,0.18-5.65c-0.15-0.91-0.66-1.7-1.38-2.23
						c-0.72-0.55-1.58-0.88-2.44-1.18c-1.74-0.53-3.46-1.22-4.87-2.17c-2.86-1.88-4.97-4.13-6.65-6.05
						c-1.68-1.93-2.9-3.61-3.73-4.77c-0.41-0.58-0.73-1.04-0.93-1.36c-0.21-0.32-0.31-0.49-0.29-0.5c0.01-0.01,0.14,0.14,0.38,0.43
						c0.27,0.34,0.6,0.77,1.01,1.3c0.88,1.12,2.14,2.76,3.84,4.65c1.7,1.88,3.83,4.08,6.64,5.89c1.41,0.92,3,1.56,4.78,2.09
						c0.87,0.3,1.78,0.64,2.59,1.25c0.81,0.59,1.41,1.53,1.57,2.55c0.32,2.05-0.41,3.92-0.18,5.68c0.19,1.77,1.45,3.12,2.59,4.32
						c0.58,0.61,1.15,1.21,1.65,1.86c0.49,0.65,0.89,1.35,1.19,2.05c0.59,1.42,0.8,2.88,0.65,4.18c-0.14,1.31-0.67,2.42-1.29,3.24
						c-0.62,0.83-1.34,1.39-1.97,1.74c-0.64,0.35-1.18,0.51-1.56,0.57C596.38,196.08,596.17,196.08,596.17,196.07z"/>
				</g>
			</g>
			<g>
				<g>
					<path class="st6" d="M593.77,165.42c-0.01,0.03-0.3-0.03-0.83-0.17c-0.53-0.14-1.27-0.38-2.18-0.73
						c-1.82-0.69-4.25-1.86-6.71-3.53c-2.46-1.68-4.44-3.51-5.75-4.95c-0.66-0.72-1.16-1.32-1.48-1.76
						c-0.32-0.44-0.49-0.69-0.46-0.71c0.07-0.05,0.84,0.86,2.21,2.21c1.36,1.36,3.35,3.12,5.78,4.77c2.43,1.64,4.8,2.85,6.56,3.62
						C592.67,164.95,593.8,165.34,593.77,165.42z"/>
				</g>
			</g>
			<g>
				<g>
					<path class="st6" d="M566.42,153.4c-0.04-0.05,0.36-0.48,1.14-1.03c0.77-0.53,2.01-1.19,3.52-1.22
						c0.75-0.01,1.47,0.14,2.06,0.43c0.59,0.29,1.04,0.7,1.33,1.09c0.6,0.8,0.59,1.46,0.53,1.46c-0.08,0.02-0.21-0.56-0.81-1.22
						c-0.59-0.66-1.73-1.29-3.1-1.23c-1.37,0.03-2.54,0.58-3.34,1.01C566.95,153.13,566.47,153.46,566.42,153.4z"/>
				</g>
			</g>
		</g>
	</g>
</g>
<g id="Plants">
	<g>
		<path class="st9" d="M123.23,326.26c0,0,6.57,0.29,4.27,14.84c-2.3,14.55-4.7,22.16-4.7,22.16s-0.19,3.26,2.4,2.92
			c2.58-0.34,7.67-2.95,9.73-0.32c2.13,2.73,0.84,6.38-2.88,10.42c-3.72,4.04-11.55,13.2-12.26,14.04
			c-0.69,0.82-1.12,2.45,0.68,2.49c1.8,0.05,14.28-2.62,15.2,3.37c0.91,6-11.31,15.56-12.62,16.63c-1.32,1.07-1.47,1.83-1.08,2.61
			c0.39,0.79,4.5-0.51,8.09-1.12c3.58-0.61,7.84-0.7,8.08,2.81c0.24,3.51-5.76,12.99-25.07,21.44l-9.2,3.33l-7.62-6.21
			c-15.5-14.28-18.08-25.2-16.71-28.44c1.37-3.24,5.37-1.77,8.55-0.02c3.19,1.75,6.65,4.31,7.28,3.7c0.63-0.62,0.73-1.38-0.17-2.82
			c-0.9-1.44-9.33-14.47-6.51-19.84c2.82-5.37,13.75,1.22,15.47,1.76s1.84-1.14,1.45-2.14c-0.4-1.02-4.81-12.23-7.01-17.26
			c-2.2-5.04-2.24-8.91,0.67-10.79c2.8-1.82,6.76,2.31,9.1,3.47c2.33,1.17,3.22-1.98,3.22-1.98s0.21-7.98,2.78-22.48
			c2.57-14.5,9.02-12.56,9.02-12.56"/>
		<g>
			<path class="st5" d="M121.2,339.29c0.01,0,0,0.09-0.03,0.27c-0.03,0.19-0.07,0.45-0.12,0.78c-0.12,0.71-0.28,1.71-0.49,2.99
				c-0.44,2.62-1.08,6.37-1.86,10.99c-1.53,9.31-3.65,22.13-5.98,36.29c-2.31,14.18-4.46,27.01-6.09,36.28
				c-0.83,4.62-1.5,8.36-1.98,10.97c-0.24,1.28-0.43,2.28-0.56,2.98c-0.07,0.32-0.12,0.58-0.16,0.77c-0.04,0.17-0.06,0.26-0.07,0.26
				c-0.01,0,0-0.09,0.03-0.27c0.03-0.19,0.07-0.45,0.12-0.78c0.12-0.71,0.28-1.71,0.49-2.99c0.44-2.62,1.08-6.37,1.86-10.99
				c1.57-9.28,3.68-22.12,5.98-36.3c2.31-14.18,4.46-27,6.09-36.28c0.83-4.62,1.5-8.36,1.98-10.97c0.24-1.28,0.43-2.28,0.56-2.98
				c0.07-0.32,0.12-0.58,0.16-0.77C121.17,339.38,121.19,339.29,121.2,339.29z"/>
		</g>
		<g>
			<path class="st5" d="M127.96,369.78c0.03,0.04-0.73,0.7-1.97,1.75c-1.31,1.12-2.98,2.55-4.82,4.13
				c-1.88,1.62-3.59,3.07-4.87,4.08c-0.64,0.51-1.16,0.9-1.53,1.17c-0.37,0.26-0.59,0.4-0.6,0.38c-0.03-0.04,0.74-0.69,1.96-1.75
				c1.3-1.13,2.96-2.57,4.79-4.16c1.88-1.62,3.61-3.05,4.9-4.05c0.64-0.5,1.17-0.9,1.54-1.16
				C127.73,369.9,127.95,369.76,127.96,369.78z"/>
		</g>
		<g>
			<path class="st5" d="M113.34,380.9c-0.08,0.06-3-3.54-6.52-8.05c-3.52-4.51-6.3-8.22-6.22-8.28c0.08-0.06,3,3.54,6.52,8.05
				C110.64,377.13,113.43,380.83,113.34,380.9z"/>
		</g>
		<g>
			<path class="st5" d="M110.45,406.11c-0.01,0.02-0.24-0.1-0.64-0.34c-0.4-0.24-0.96-0.6-1.66-1.06c-1.38-0.92-3.26-2.25-5.25-3.81
				c-2-1.56-3.73-3.07-4.95-4.2c-0.61-0.56-1.1-1.03-1.42-1.36c-0.33-0.33-0.5-0.52-0.48-0.54c0.04-0.04,0.82,0.63,2.08,1.7
				c1.26,1.07,3.02,2.54,5.01,4.1c1.99,1.56,3.83,2.92,5.17,3.89C109.65,405.46,110.48,406.06,110.45,406.11z"/>
		</g>
		<g>
			<path class="st5" d="M125.88,398.96c0.02,0.05-0.82,0.48-2.21,1.14c-1.39,0.66-3.31,1.54-5.44,2.5c-2.14,0.96-4.08,1.8-5.49,2.4
				c-1.41,0.59-2.3,0.94-2.32,0.89c-0.02-0.05,0.82-0.48,2.21-1.14c1.39-0.66,3.31-1.54,5.45-2.5c2.13-0.96,4.08-1.8,5.49-2.39
				C124.97,399.26,125.86,398.91,125.88,398.96z"/>
		</g>
		<g>
			<path class="st5" d="M126.15,421.54c0.01,0.02-0.26,0.17-0.75,0.41c-0.57,0.27-1.28,0.6-2.11,0.99
				c-1.79,0.82-4.27,1.92-7.01,3.12c-2.75,1.2-5.25,2.26-7.06,3.02c-0.85,0.35-1.57,0.64-2.16,0.87c-0.51,0.2-0.8,0.3-0.81,0.27
				c-0.01-0.02,0.26-0.17,0.75-0.41c0.57-0.27,1.28-0.6,2.11-0.99c1.79-0.82,4.27-1.92,7.02-3.12c2.75-1.2,5.24-2.26,7.06-3.02
				c0.85-0.35,1.57-0.64,2.16-0.87C125.85,421.61,126.14,421.52,126.15,421.54z"/>
		</g>
		<g>
			<path class="st5" d="M106.66,429.88c-0.02,0.02-0.29-0.15-0.78-0.48c-0.49-0.33-1.18-0.82-2.03-1.44
				c-1.7-1.24-4.01-3.01-6.48-5.07c-2.48-2.05-4.64-4-6.17-5.44c-0.77-0.72-1.38-1.32-1.79-1.73c-0.41-0.42-0.64-0.66-0.62-0.68
				c0.02-0.02,0.27,0.18,0.72,0.57c0.5,0.44,1.13,0.99,1.87,1.64c1.58,1.39,3.77,3.3,6.24,5.35c2.47,2.05,4.75,3.85,6.4,5.15
				c0.78,0.61,1.44,1.13,1.96,1.54C106.43,429.64,106.68,429.85,106.66,429.88z"/>
		</g>
	</g>
	<g>
		<g>
			<path class="st9" d="M658.21,378.2c2.93,1.27,5.09,3.98,6.17,6.99c1.08,3.01,1.18,6.3,0.82,9.47c-0.7,6.15-4.19,12.35-7.95,17.27
				c-5.18-4.52-6.37-12.4-6.72-16.44C649.97,389.12,652.84,377.25,658.21,378.2"/>
		</g>
		<g>
			<path class="st9" d="M663.27,422.08c-0.83-3.47,0.62-7.29,3.28-9.66c2.67-2.38,6.39-3.38,9.96-3.11
				c1.65,0.13,3.43,0.61,4.37,1.96c0.88,1.27,0.78,3.04,0.07,4.41c-0.72,1.37-1.95,2.39-3.26,3.21
				C673.2,421.71,668.34,423.61,663.27,422.08"/>
		</g>
		<g>
			<g>
				<path class="st5" d="M656.63,440.93c-0.03-0.01,0.04-0.46,0.18-1.26c0.16-0.89,0.37-2.04,0.63-3.41
					c0.57-2.85,1.31-6.94,3.52-10.91c2.19-3.96,5.25-6.87,7.83-8.32c1.28-0.74,2.4-1.18,3.19-1.41c0.39-0.13,0.71-0.18,0.92-0.23
					c0.21-0.04,0.32-0.06,0.33-0.05c0.04,0.1-1.79,0.43-4.28,1.96c-2.49,1.49-5.45,4.37-7.6,8.26c-2.17,3.89-2.95,7.91-3.6,10.75
					c-0.31,1.43-0.57,2.59-0.77,3.39C656.79,440.5,656.66,440.94,656.63,440.93z"/>
			</g>
		</g>
		<g>
			<g>
				<path class="st5" d="M656.82,387.43c0.02,0,0.04,0.19,0.06,0.55c0.02,0.41,0.06,0.93,0.09,1.58c0.07,1.38,0.15,3.37,0.23,5.83
					c0.16,4.93,0.28,11.73,0.25,19.26c-0.03,7.52-0.22,14.33-0.42,19.26c-0.1,2.46-0.2,4.45-0.28,5.83
					c-0.04,0.65-0.08,1.17-0.11,1.58c-0.03,0.36-0.05,0.55-0.07,0.55c-0.02,0-0.02-0.19-0.02-0.55c0.01-0.41,0.01-0.94,0.02-1.59
					c0.03-1.43,0.08-3.41,0.14-5.83c0.12-4.93,0.25-11.73,0.29-19.25c0.03-7.52-0.04-14.32-0.12-19.25
					c-0.04-2.42-0.07-4.4-0.09-5.83c0-0.65-0.01-1.18-0.01-1.59C656.8,387.63,656.81,387.43,656.82,387.43z"/>
			</g>
		</g>
		<g>
			<path class="st9" d="M654.31,425.83c-1.18-7.44-6.19-14.16-12.98-17.42c-1.73-0.83-3.99-1.37-5.41-0.08
				c-1.42,1.29-1.11,3.6-0.41,5.39c2.9,7.45,10.69,12.71,18.68,12.61"/>
		</g>
		<g>
			<g>
				<path class="st5" d="M642.17,414.24c0.01-0.03,0.4,0.14,1.1,0.48c0.35,0.17,0.78,0.37,1.24,0.66c0.47,0.29,1.03,0.57,1.58,0.99
					c0.56,0.4,1.2,0.82,1.81,1.36c0.64,0.5,1.27,1.11,1.92,1.75c1.28,1.31,2.56,2.88,3.66,4.7c1.08,1.82,1.86,3.7,2.41,5.45
					c0.25,0.88,0.48,1.72,0.61,2.53c0.18,0.8,0.24,1.55,0.31,2.24c0.1,0.69,0.06,1.32,0.09,1.86c0.03,0.55-0.01,1.02-0.04,1.41
					c-0.06,0.77-0.1,1.19-0.13,1.19c-0.1,0,0.07-1.71-0.23-4.43c-0.09-0.68-0.17-1.42-0.36-2.2c-0.14-0.79-0.39-1.61-0.64-2.48
					c-0.56-1.71-1.34-3.55-2.4-5.34c-1.08-1.78-2.33-3.33-3.57-4.64c-0.64-0.64-1.24-1.25-1.87-1.75c-0.59-0.54-1.2-0.98-1.75-1.39
					C643.68,415.04,642.12,414.33,642.17,414.24z"/>
			</g>
		</g>
	</g>
</g>
<g id="Image_upload">
	<g>
		<g>
			<g>
				<rect x="267.87" y="133.15" class="st8" width="199.44" height="199.44"/>
			</g>
			<g>
				<g>
					<path class="st5" d="M467.3,332.59c0-1.92-0.09-79.88-0.23-199.44l0.23,0.23c-57.96,0.01-126.4,0.02-199.42,0.04h-0.02
						l0.26-0.26c-0.01,73.03-0.02,141.47-0.04,199.44l-0.23-0.23C387.43,332.5,465.38,332.59,467.3,332.59
						c-1.92,0-79.87,0.09-199.44,0.23l-0.23,0v-0.23c-0.01-57.96-0.02-126.4-0.04-199.44l0-0.26h0.26h0.02
						c73.02,0.01,141.45,0.02,199.42,0.04h0.23l0,0.23C467.39,252.71,467.3,330.67,467.3,332.59z"/>
				</g>
			</g>
		</g>
		<g>
			<g>
				<g>
					<path class="st6" d="M449.42,320.7c0-0.14,2.69-0.26,6-0.26c-0.52,0.52-0.14,0.14-0.26,0.26v0v0v-0.01v-0.02v-0.04l0-0.08
						l0-0.15l0-0.3c0-0.2,0-0.4,0-0.6c0.01-0.38,0.01-0.76,0.02-1.13c0.02-0.66,0.04-1.29,0.06-1.91c0.05-1.09,0.11-1.76,0.18-1.76
						s0.14,0.67,0.18,1.76c0.02,0.62,0.04,1.25,0.06,1.91c0.01,0.37,0.01,0.74,0.02,1.13c0,0.2,0,0.4,0,0.6l0,0.3l0,0.15l0,0.08
						v0.04v0.02v0.01v0v0c-0.12,0.12,0.26-0.26-0.26,0.26C452.1,320.96,449.42,320.85,449.42,320.7z"/>
				</g>
			</g>
			<g>
				<g>
					<path class="st6" d="M424.24,320.7c0-0.14,2.82-0.26,6.29-0.26c3.48,0,6.3,0.12,6.3,0.26s-2.82,0.26-6.3,0.26
						C427.06,320.96,424.24,320.85,424.24,320.7z"/>
				</g>
			</g>
			<g>
				<g>
					<path class="st6" d="M399.06,320.7c0-0.14,2.82-0.26,6.29-0.26c3.48,0,6.3,0.12,6.3,0.26s-2.82,0.26-6.3,0.26
						C401.88,320.96,399.06,320.85,399.06,320.7z"/>
				</g>
			</g>
			<g>
				<g>
					<path class="st6" d="M373.88,320.7c0-0.14,2.82-0.26,6.29-0.26c3.48,0,6.3,0.12,6.3,0.26s-2.82,0.26-6.3,0.26
						C376.7,320.96,373.88,320.85,373.88,320.7z"/>
				</g>
			</g>
			<g>
				<g>
					<path class="st6" d="M348.7,320.7c0-0.14,2.82-0.26,6.29-0.26c3.48,0,6.3,0.12,6.3,0.26s-2.82,0.26-6.3,0.26
						C351.52,320.96,348.7,320.85,348.7,320.7z"/>
				</g>
			</g>
			<g>
				<g>
					<path class="st6" d="M323.52,320.7c0-0.14,2.82-0.26,6.29-0.26c3.48,0,6.3,0.12,6.3,0.26s-2.82,0.26-6.3,0.26
						C326.34,320.96,323.52,320.85,323.52,320.7z"/>
				</g>
			</g>
			<g>
				<g>
					<path class="st6" d="M298.34,320.7c0-0.14,2.82-0.26,6.29-0.26c3.48,0,6.3,0.12,6.3,0.26s-2.82,0.26-6.3,0.26
						C301.16,320.96,298.34,320.85,298.34,320.7z"/>
				</g>
			</g>
			<g>
				<g>
					<path class="st6" d="M279.75,314.7c0.14,0,0.26,2.69,0.26,6c-0.52-0.52-0.14-0.14-0.26-0.26h0h0h0.01h0.02h0.04l0.08,0l0.15,0
						l0.3,0c0.2,0,0.4,0,0.6,0c0.38,0.01,0.76,0.01,1.13,0.02c0.66,0.02,1.29,0.04,1.91,0.06c1.09,0.05,1.76,0.11,1.76,0.18
						s-0.67,0.14-1.76,0.18c-0.62,0.02-1.25,0.04-1.91,0.06c-0.37,0.01-0.74,0.01-1.13,0.02c-0.2,0-0.4,0-0.6,0l-0.3,0l-0.15,0
						l-0.08,0h-0.04h-0.02h-0.01h0h0c-0.12-0.12,0.26,0.26-0.26-0.26C279.49,317.39,279.61,314.7,279.75,314.7z"/>
				</g>
			</g>
			<g>
				<g>
					<path class="st6" d="M279.75,289.52c0.14,0,0.26,2.82,0.26,6.29c0,3.48-0.12,6.3-0.26,6.3c-0.14,0-0.26-2.82-0.26-6.3
						C279.49,292.34,279.61,289.52,279.75,289.52z"/>
				</g>
			</g>
			<g>
				<g>
					<path class="st6" d="M279.75,264.34c0.14,0,0.26,2.82,0.26,6.29c0,3.48-0.12,6.3-0.26,6.3c-0.14,0-0.26-2.82-0.26-6.3
						C279.49,267.16,279.61,264.34,279.75,264.34z"/>
				</g>
			</g>
			<g>
				<g>
					<path class="st6" d="M279.75,239.17c0.14,0,0.26,2.82,0.26,6.29c0,3.48-0.12,6.3-0.26,6.3c-0.14,0-0.26-2.82-0.26-6.3
						C279.49,241.98,279.61,239.17,279.75,239.17z"/>
				</g>
			</g>
			<g>
				<g>
					<path class="st6" d="M279.75,213.99c0.14,0,0.26,2.82,0.26,6.29c0,3.48-0.12,6.3-0.26,6.3c-0.14,0-0.26-2.82-0.26-6.3
						C279.49,216.8,279.61,213.99,279.75,213.99z"/>
				</g>
			</g>
			<g>
				<g>
					<path class="st6" d="M279.75,188.81c0.14,0,0.26,2.82,0.26,6.29c0,3.48-0.12,6.3-0.26,6.3c-0.14,0-0.26-2.82-0.26-6.3
						C279.49,191.63,279.61,188.81,279.75,188.81z"/>
				</g>
			</g>
			<g>
				<g>
					<path class="st6" d="M279.75,163.63c0.14,0,0.26,2.82,0.26,6.29c0,3.48-0.12,6.3-0.26,6.3c-0.14,0-0.26-2.82-0.26-6.3
						C279.49,166.45,279.61,163.63,279.75,163.63z"/>
				</g>
			</g>
			<g>
				<g>
					<path class="st6" d="M285.75,145.04c0,0.14-2.69,0.26-6,0.26c0.52-0.52,0.14-0.14,0.26-0.26v0v0v0.01v0.02l0,0.04v0.08l0,0.15
						l0,0.3c0,0.2,0,0.4,0,0.6c-0.01,0.38-0.01,0.76-0.02,1.13c-0.02,0.66-0.04,1.29-0.06,1.91c-0.05,1.09-0.11,1.76-0.18,1.76
						c-0.07,0-0.14-0.67-0.18-1.76c-0.02-0.62-0.04-1.25-0.06-1.91c-0.01-0.37-0.01-0.74-0.02-1.13c0-0.2,0-0.39,0-0.6l0-0.3l0-0.15
						l0-0.08v-0.04v-0.02v-0.01v0v0c0.12-0.12-0.26,0.26,0.26-0.26C283.06,144.78,285.75,144.89,285.75,145.04z"/>
				</g>
			</g>
			<g>
				<g>
					<path class="st6" d="M310.93,145.04c0,0.14-2.82,0.26-6.29,0.26c-3.48,0-6.3-0.12-6.3-0.26c0-0.14,2.82-0.26,6.3-0.26
						C308.11,144.78,310.93,144.89,310.93,145.04z"/>
				</g>
			</g>
			<g>
				<g>
					<path class="st6" d="M336.11,145.04c0,0.14-2.82,0.26-6.29,0.26c-3.48,0-6.3-0.12-6.3-0.26c0-0.14,2.82-0.26,6.3-0.26
						C333.29,144.78,336.11,144.89,336.11,145.04z"/>
				</g>
			</g>
			<g>
				<g>
					<path class="st6" d="M361.29,145.04c0,0.14-2.82,0.26-6.29,0.26c-3.48,0-6.3-0.12-6.3-0.26c0-0.14,2.82-0.26,6.3-0.26
						C358.47,144.78,361.29,144.89,361.29,145.04z"/>
				</g>
			</g>
			<g>
				<g>
					<path class="st6" d="M386.47,145.04c0,0.14-2.82,0.26-6.29,0.26c-3.48,0-6.3-0.12-6.3-0.26c0-0.14,2.82-0.26,6.3-0.26
						C383.65,144.78,386.47,144.89,386.47,145.04z"/>
				</g>
			</g>
			<g>
				<g>
					<path class="st6" d="M411.65,145.04c0,0.14-2.82,0.26-6.29,0.26c-3.48,0-6.3-0.12-6.3-0.26c0-0.14,2.82-0.26,6.3-0.26
						C408.83,144.78,411.65,144.89,411.65,145.04z"/>
				</g>
			</g>
			<g>
				<g>
					<path class="st6" d="M436.83,145.04c0,0.14-2.82,0.26-6.29,0.26c-3.48,0-6.3-0.12-6.3-0.26c0-0.14,2.82-0.26,6.3-0.26
						C434.01,144.78,436.83,144.89,436.83,145.04z"/>
				</g>
			</g>
			<g>
				<g>
					<path class="st6" d="M455.42,151.04c-0.14,0-0.26-2.69-0.26-6c0.52,0.52,0.14,0.14,0.26,0.26h0h0h-0.01h-0.02h-0.04l-0.08,0
						l-0.15,0l-0.3,0c-0.2,0-0.4,0-0.6,0c-0.38-0.01-0.76-0.01-1.13-0.02c-0.66-0.02-1.29-0.04-1.91-0.06
						c-1.09-0.05-1.76-0.11-1.76-0.18c0-0.07,0.67-0.14,1.76-0.18c0.62-0.02,1.25-0.04,1.91-0.06c0.37-0.01,0.74-0.01,1.13-0.02
						c0.2,0,0.4,0,0.6,0l0.3,0l0.15,0l0.08,0h0.04h0.02h0.01h0h0c0.12,0.12-0.26-0.26,0.26,0.26
						C455.68,148.35,455.56,151.04,455.42,151.04z"/>
				</g>
			</g>
			<g>
				<g>
					<path class="st6" d="M455.42,176.22c-0.14,0-0.26-2.82-0.26-6.29c0-3.48,0.12-6.3,0.26-6.3s0.26,2.82,0.26,6.3
						C455.68,173.4,455.56,176.22,455.42,176.22z"/>
				</g>
			</g>
			<g>
				<g>
					<path class="st6" d="M455.42,201.4c-0.14,0-0.26-2.82-0.26-6.29c0-3.48,0.12-6.3,0.26-6.3s0.26,2.82,0.26,6.3
						C455.68,198.58,455.56,201.4,455.42,201.4z"/>
				</g>
			</g>
			<g>
				<g>
					<path class="st6" d="M455.42,226.58c-0.14,0-0.26-2.82-0.26-6.29c0-3.48,0.12-6.3,0.26-6.3s0.26,2.82,0.26,6.3
						C455.68,223.76,455.56,226.58,455.42,226.58z"/>
				</g>
			</g>
			<g>
				<g>
					<path class="st6" d="M455.42,251.76c-0.14,0-0.26-2.82-0.26-6.29c0-3.48,0.12-6.3,0.26-6.3s0.26,2.82,0.26,6.3
						C455.68,248.94,455.56,251.76,455.42,251.76z"/>
				</g>
			</g>
			<g>
				<g>
					<path class="st6" d="M455.42,276.93c-0.14,0-0.26-2.82-0.26-6.29c0-3.48,0.12-6.3,0.26-6.3s0.26,2.82,0.26,6.3
						C455.68,274.12,455.56,276.93,455.42,276.93z"/>
				</g>
			</g>
			<g>
				<g>
					<path class="st6" d="M455.42,302.11c-0.14,0-0.26-2.82-0.26-6.29c0-3.48,0.12-6.3,0.26-6.3s0.26,2.82,0.26,6.3
						C455.68,299.3,455.56,302.11,455.42,302.11z"/>
				</g>
			</g>
		</g>
		<g>
			<g>
				<g>
					<path class="st5" d="M359.02,199.05c0,0-0.36,0.02-1.02-0.13c-0.66-0.14-1.64-0.53-2.57-1.46c-0.91-0.89-1.79-2.44-1.6-4.34
						c0.1-0.94,0.54-1.9,1.27-2.68c0.73-0.77,1.77-1.39,3.02-1.42l-0.2,0.19c-0.02-1.36,0.05-2.96,1.05-4.27
						c0.49-0.64,1.23-1.11,2.05-1.32c0.82-0.21,1.68-0.21,2.54-0.03l-0.28,0.25c-0.18-1.78,0.42-3.78,1.95-5.04
						c0.74-0.64,1.64-1.09,2.59-1.36l0.72-0.2l0.74-0.12c0.49-0.1,0.99-0.13,1.5-0.15c2-0.08,4.18,0.13,6.04,1.3
						c0.91,0.6,1.67,1.44,2.19,2.41c0.53,0.98,0.81,2.07,0.92,3.18c0.04,0.48,0.06,0.96,0.02,1.45l-0.27-0.29
						c1.98-0.09,4.02,0.38,5.58,1.56c1.57,1.16,2.6,2.83,3.28,4.51c0.36,0.82,0.6,1.78,0.51,2.69c-0.07,0.92-0.39,1.79-0.87,2.52
						c-0.97,1.49-2.59,2.41-4.21,2.6l-0.01,0l-0.01,0c-7.42,0.07-13.64,0.13-18.05,0.17c-2.15,0-3.86,0.01-5.07,0.01
						c-0.56-0.01-1-0.01-1.34-0.01C359.18,199.07,359.02,199.06,359.02,199.05c0-0.01,0.16-0.03,0.46-0.04
						c0.34-0.01,0.78-0.03,1.34-0.05c1.22-0.03,2.93-0.08,5.08-0.14c4.41-0.09,10.63-0.21,18.04-0.36l-0.02,0
						c1.5-0.19,2.99-1.04,3.86-2.41c0.91-1.36,1.07-3.17,0.3-4.76c-0.66-1.62-1.66-3.2-3.13-4.28c-1.46-1.1-3.36-1.55-5.25-1.46
						l-0.3,0.01l0.03-0.3c0.04-0.43,0.02-0.89-0.02-1.34c-0.17-2.1-1.18-4.1-2.88-5.2c-1.72-1.08-3.8-1.31-5.74-1.23
						c-1.93,0.1-3.89,0.5-5.26,1.69c-1.4,1.13-1.97,3-1.82,4.61l0.03,0.32l-0.31-0.07c-1.54-0.35-3.27,0-4.15,1.17
						c-0.91,1.15-1.02,2.68-1,4l0,0.19l-0.2,0c-1.07,0.02-2.08,0.57-2.76,1.28c-0.69,0.72-1.11,1.61-1.22,2.48
						c-0.21,1.77,0.59,3.27,1.45,4.16c0.87,0.92,1.81,1.33,2.45,1.5C358.67,199,359.03,199.01,359.02,199.05z"/>
				</g>
			</g>
			<g>
				<g>
					<path class="st5" d="M375.92,193.01c-0.11,0.09-2.21-2.09-4.73-4.9l0.38,0.01c-0.03,0.03-0.06,0.06-0.09,0.1
						c-2.68,2.75-4.93,4.9-5.03,4.8c-0.1-0.1,1.98-2.41,4.66-5.16c0.03-0.03,0.06-0.07,0.09-0.1l0.19-0.2l0.19,0.21
						C374.09,190.58,376.03,192.92,375.92,193.01z"/>
				</g>
			</g>
			<g>
				<g>
					<path class="st5" d="M371.38,204.7c-0.14,0-0.26-3.75-0.26-8.38c0-4.63,0.12-8.38,0.26-8.38s0.26,3.75,0.26,8.38
						C371.64,200.95,371.53,204.7,371.38,204.7z"/>
				</g>
			</g>
		</g>
		<g>
			<path class="st5" d="M329.63,222.28h-4.58l-0.95,2.15h-1.27l3.9-8.62h1.22l3.92,8.62h-1.29L329.63,222.28z M329.2,221.3
				l-1.86-4.22l-1.86,4.22H329.2z"/>
			<path class="st5" d="M339.07,215.3v9.14h-1.13v-1.03c-0.53,0.74-1.37,1.11-2.33,1.11c-1.91,0-3.3-1.34-3.3-3.34
				s1.39-3.32,3.3-3.32c0.92,0,1.74,0.34,2.28,1.05v-3.6H339.07z M337.9,221.18c0-1.39-0.95-2.29-2.19-2.29
				c-1.26,0-2.2,0.9-2.2,2.29s0.95,2.3,2.2,2.3C336.95,223.48,337.9,222.57,337.9,221.18z"/>
			<path class="st5" d="M347.47,215.3v9.14h-1.13v-1.03c-0.53,0.74-1.37,1.11-2.33,1.11c-1.91,0-3.3-1.34-3.3-3.34
				s1.39-3.32,3.3-3.32c0.92,0,1.74,0.34,2.28,1.05v-3.6H347.47z M346.3,221.18c0-1.39-0.95-2.29-2.19-2.29
				c-1.26,0-2.2,0.9-2.2,2.29s0.95,2.3,2.2,2.3C345.35,223.48,346.3,222.57,346.3,221.18z"/>
			<path class="st5" d="M352.81,215.89c0-0.43,0.34-0.78,0.8-0.78c0.46,0,0.8,0.33,0.8,0.75c0,0.44-0.33,0.79-0.8,0.79
				C353.15,216.66,352.81,216.32,352.81,215.89z M353.02,217.91h1.18v6.53h-1.18V217.91z"/>
			<path class="st5" d="M360.12,224.06c-0.36,0.31-0.9,0.46-1.43,0.46c-1.32,0-2.07-0.73-2.07-2.04v-3.58h-1.11v-0.97h1.11v-1.43
				h1.18v1.43h1.87v0.97h-1.87v3.53c0,0.7,0.37,1.1,1.02,1.1c0.34,0,0.68-0.11,0.92-0.31L360.12,224.06z"/>
			<path class="st5" d="M367.2,221.57h-5.29c0.15,1.15,1.07,1.91,2.36,1.91c0.76,0,1.4-0.26,1.88-0.79l0.65,0.76
				c-0.59,0.69-1.49,1.06-2.57,1.06c-2.11,0-3.51-1.39-3.51-3.34c0-1.93,1.39-3.32,3.28-3.32c1.88,0,3.23,1.35,3.23,3.36
				C367.23,221.31,367.22,221.46,367.2,221.57z M361.91,220.72h4.19c-0.12-1.1-0.95-1.87-2.09-1.87
				C362.87,218.85,362.03,219.61,361.91,220.72z"/>
			<path class="st5" d="M379.7,220.68v3.76h-1.18v-3.62c0-1.28-0.62-1.91-1.69-1.91c-1.18,0-1.96,0.75-1.96,2.17v3.36h-1.18v-3.62
				c0-1.28-0.62-1.91-1.69-1.91c-1.18,0-1.96,0.75-1.96,2.17v3.36h-1.18v-6.53H370v0.97c0.47-0.66,1.27-1.03,2.25-1.03
				c1,0,1.84,0.39,2.27,1.21c0.49-0.74,1.4-1.21,2.51-1.21C378.62,217.85,379.7,218.76,379.7,220.68z"/>
			<path class="st5" d="M384.98,215.89c0-0.43,0.34-0.78,0.8-0.78c0.46,0,0.8,0.33,0.8,0.75c0,0.44-0.33,0.79-0.8,0.79
				C385.32,216.66,384.98,216.32,384.98,215.89z M385.19,217.91h1.18v6.53h-1.18V217.91z"/>
			<path class="st5" d="M399.46,220.68v3.76h-1.18v-3.62c0-1.28-0.62-1.91-1.69-1.91c-1.18,0-1.96,0.75-1.96,2.17v3.36h-1.18v-3.62
				c0-1.28-0.62-1.91-1.69-1.91c-1.18,0-1.96,0.75-1.96,2.17v3.36h-1.18v-6.53h1.13v0.97c0.47-0.66,1.27-1.03,2.25-1.03
				c1,0,1.83,0.39,2.27,1.21c0.49-0.74,1.4-1.21,2.51-1.21C398.38,217.85,399.46,218.76,399.46,220.68z"/>
			<path class="st5" d="M406.81,220.5v3.94h-1.12v-0.86c-0.39,0.59-1.12,0.94-2.14,0.94c-1.48,0-2.41-0.79-2.41-1.92
				c0-1.05,0.68-1.91,2.62-1.91h1.87v-0.23c0-1-0.58-1.58-1.75-1.58c-0.78,0-1.56,0.27-2.07,0.7l-0.49-0.89
				c0.68-0.54,1.65-0.84,2.7-0.84C405.8,217.85,406.81,218.71,406.81,220.5z M405.63,222.44v-0.91h-1.82c-1.17,0-1.5,0.46-1.5,1.01
				c0,0.65,0.54,1.06,1.44,1.06C404.63,223.6,405.33,223.2,405.63,222.44z"/>
			<path class="st5" d="M415.28,217.91v5.64c0,2.3-1.17,3.35-3.39,3.35c-1.19,0-2.4-0.33-3.12-0.97l0.57-0.91
				c0.6,0.52,1.55,0.85,2.51,0.85c1.54,0,2.24-0.71,2.24-2.19v-0.52c-0.57,0.68-1.42,1.01-2.35,1.01c-1.88,0-3.31-1.28-3.31-3.16
				c0-1.88,1.43-3.15,3.31-3.15c0.97,0,1.86,0.36,2.41,1.07v-1.01H415.28z M414.12,221c0-1.27-0.94-2.12-2.24-2.12
				c-1.32,0-2.25,0.85-2.25,2.12c0,1.26,0.94,2.13,2.25,2.13C413.19,223.13,414.12,222.26,414.12,221z"/>
			<path class="st5" d="M423.4,221.57h-5.29c0.15,1.15,1.07,1.91,2.36,1.91c0.76,0,1.4-0.26,1.88-0.79l0.65,0.76
				c-0.59,0.69-1.49,1.06-2.57,1.06c-2.11,0-3.51-1.39-3.51-3.34c0-1.93,1.39-3.32,3.28-3.32c1.88,0,3.23,1.35,3.23,3.36
				C423.43,221.31,423.42,221.46,423.4,221.57z M418.11,220.72h4.19c-0.12-1.1-0.95-1.87-2.09-1.87
				C419.07,218.85,418.23,219.61,418.11,220.72z"/>
		</g>
		<g>
			<path class="st9" d="M367.86,270.08h-56.36c-1.94,0-3.52-1.58-3.52-3.52l0,0c0-1.94,1.58-3.52,3.52-3.52h56.36
				c1.94,0,3.52,1.58,3.52,3.52l0,0C371.38,268.5,369.81,270.08,367.86,270.08z"/>
		</g>
		<g>
			<path class="st5" d="M354.85,277.99v3.74h-0.64v-0.57c-0.28,0.39-0.74,0.61-1.27,0.61c-0.97,0-1.61-0.53-1.61-1.63v-2.15H352
				v2.08c0,0.73,0.37,1.1,1.01,1.1c0.71,0,1.16-0.44,1.16-1.24v-1.94H354.85z"/>
			<path class="st5" d="M360.02,279.86c0,1.15-0.8,1.91-1.89,1.91c-0.53,0-1-0.2-1.31-0.61v1.94h-0.68v-5.11h0.65v0.59
				c0.3-0.42,0.78-0.63,1.33-0.63C359.22,277.95,360.02,278.72,360.02,279.86z M359.34,279.86c0-0.79-0.54-1.31-1.26-1.31
				c-0.71,0-1.26,0.52-1.26,1.31c0,0.8,0.54,1.32,1.26,1.32C358.79,281.18,359.34,280.66,359.34,279.86z"/>
			<path class="st5" d="M360.96,276.49h0.68v5.24h-0.68V276.49z"/>
			<path class="st5" d="M362.59,279.86c0-1.12,0.83-1.91,1.95-1.91c1.12,0,1.94,0.79,1.94,1.91c0,1.12-0.82,1.91-1.94,1.91
				C363.42,281.77,362.59,280.98,362.59,279.86z M365.8,279.86c0-0.8-0.54-1.31-1.26-1.31s-1.26,0.52-1.26,1.31
				c0,0.8,0.54,1.32,1.26,1.32S365.8,280.66,365.8,279.86z"/>
			<path class="st5" d="M370.36,279.47v2.26h-0.64v-0.49c-0.23,0.34-0.64,0.54-1.23,0.54c-0.85,0-1.38-0.45-1.38-1.1
				c0-0.6,0.39-1.09,1.5-1.09h1.07v-0.13c0-0.57-0.33-0.9-1-0.9c-0.45,0-0.9,0.16-1.19,0.4l-0.28-0.51
				c0.39-0.31,0.95-0.48,1.55-0.48C369.78,277.95,370.36,278.45,370.36,279.47z M369.68,280.59v-0.52h-1.05
				c-0.67,0-0.86,0.26-0.86,0.58c0,0.37,0.31,0.61,0.83,0.61C369.11,281.25,369.51,281.02,369.68,280.59z"/>
			<path class="st5" d="M375.17,276.49v5.24h-0.65v-0.59c-0.3,0.42-0.78,0.64-1.34,0.64c-1.09,0-1.89-0.77-1.89-1.91
				c0-1.14,0.8-1.91,1.89-1.91c0.53,0,1,0.2,1.31,0.6v-2.06H375.17z M374.5,279.86c0-0.8-0.54-1.31-1.26-1.31
				c-0.72,0-1.26,0.52-1.26,1.31c0,0.8,0.54,1.32,1.26,1.32C373.96,281.18,374.5,280.66,374.5,279.86z"/>
			<path class="st5" d="M376.34,276.83c0-0.25,0.2-0.44,0.46-0.44c0.26,0,0.46,0.19,0.46,0.43c0,0.25-0.19,0.45-0.46,0.45
				C376.54,277.27,376.34,277.08,376.34,276.83z M376.46,277.99h0.68v3.74h-0.68V277.99z"/>
			<path class="st5" d="M381.99,279.58v2.15h-0.68v-2.08c0-0.73-0.37-1.09-1.01-1.09c-0.72,0-1.19,0.43-1.19,1.24v1.93h-0.68v-3.74
				h0.65v0.57c0.28-0.38,0.76-0.6,1.35-0.6C381.34,277.95,381.99,278.48,381.99,279.58z"/>
			<path class="st5" d="M386.85,277.99v3.24c0,1.32-0.67,1.92-1.94,1.92c-0.69,0-1.38-0.19-1.79-0.56l0.32-0.52
				c0.35,0.3,0.89,0.49,1.44,0.49c0.88,0,1.29-0.41,1.29-1.26V281c-0.33,0.39-0.81,0.58-1.35,0.58c-1.08,0-1.9-0.74-1.9-1.82
				c0-1.08,0.82-1.81,1.9-1.81c0.56,0,1.07,0.2,1.38,0.61v-0.58H386.85z M386.19,279.76c0-0.73-0.54-1.22-1.29-1.22
				c-0.76,0-1.29,0.49-1.29,1.22c0,0.72,0.54,1.22,1.29,1.22C385.65,280.98,386.19,280.48,386.19,279.76z"/>
			<path class="st5" d="M387.83,281.29c0-0.28,0.22-0.48,0.48-0.48c0.25,0,0.47,0.2,0.47,0.48c0,0.28-0.21,0.49-0.47,0.49
				C388.05,281.77,387.83,281.57,387.83,281.29z"/>
			<path class="st5" d="M389.43,281.29c0-0.28,0.22-0.48,0.48-0.48c0.25,0,0.47,0.2,0.47,0.48c0,0.28-0.21,0.49-0.47,0.49
				C389.65,281.77,389.43,281.57,389.43,281.29z"/>
			<path class="st5" d="M391.04,281.29c0-0.28,0.22-0.48,0.48-0.48c0.25,0,0.47,0.2,0.47,0.48c0,0.28-0.21,0.49-0.47,0.49
				C391.26,281.77,391.04,281.57,391.04,281.29z"/>
		</g>
		<g>
			<path class="st9" d="M367.08,255.95c0,1.19-0.84,2.14-2.6,2.14c-0.97,0-1.94-0.31-2.53-0.83l0.45-0.78
				c0.46,0.43,1.23,0.74,2.06,0.74c1.04,0,1.63-0.48,1.63-1.23c0-0.78-0.49-1.26-2.08-1.26h-1.56l0.36-3.6h3.88v0.85h-3.06
				l-0.19,1.89h0.77C366.27,253.87,367.08,254.73,367.08,255.95z"/>
			<path class="st9" d="M367.89,254.57c0-2.24,1.2-3.52,2.81-3.52c1.6,0,2.8,1.28,2.8,3.52c0,2.24-1.2,3.52-2.8,3.52
				C369.09,258.09,367.89,256.81,367.89,254.57z M372.52,254.57c0-1.76-0.75-2.64-1.82-2.64c-1.08,0-1.83,0.88-1.83,2.64
				c0,1.76,0.75,2.64,1.83,2.64C371.77,257.21,372.52,256.33,372.52,254.57z"/>
			<path class="st9" d="M374.34,252.95c0-1.12,0.65-1.88,1.6-1.88c0.95,0,1.59,0.75,1.59,1.88c0,1.13-0.64,1.88-1.59,1.88
				C374.98,254.82,374.34,254.07,374.34,252.95z M376.9,252.95c0-0.83-0.36-1.32-0.96-1.32c-0.59,0-0.96,0.5-0.96,1.32
				c0,0.82,0.37,1.32,0.96,1.32C376.54,254.26,376.9,253.77,376.9,252.95z M380.08,251.13h0.76l-4.7,6.88h-0.76L380.08,251.13z
				 M378.7,256.19c0-1.12,0.64-1.88,1.59-1.88c0.95,0,1.6,0.76,1.6,1.88c0,1.12-0.65,1.88-1.6,1.88
				C379.34,258.07,378.7,257.31,378.7,256.19z M381.25,256.19c0-0.82-0.37-1.32-0.96-1.32c-0.6,0-0.96,0.49-0.96,1.32
				c0,0.83,0.36,1.32,0.96,1.32C380.88,257.51,381.25,257.01,381.25,256.19z"/>
		</g>
		<g>
			<g>
				<path class="st5" d="M426.57,270.08c0-0.02,0.22,0,0.64-0.09c0.41-0.08,1.05-0.29,1.67-0.85c0.6-0.55,1.2-1.51,1.12-2.73
					c-0.02-1.19-0.86-2.6-2.37-3.09c-0.74-0.25-1.59-0.14-2.48-0.16c-0.89,0-1.82,0.01-2.79,0.01c-1.95,0.01-4.06,0.01-6.33,0.02
					c-4.55,0.01-9.72,0.02-15.44,0.04c-22.89,0.02-54.49,0.05-89.38,0.08c-1.01,0-2.01,0.49-2.61,1.3c-0.62,0.8-0.8,1.89-0.53,2.85
					c0.26,0.96,1.01,1.78,1.93,2.14c0.47,0.19,0.94,0.24,1.47,0.23l1.6,0c4.25,0,8.44,0,12.55,0c8.23,0.01,16.17,0.01,23.73,0.02
					c15.12,0.02,28.74,0.04,40.18,0.06c11.43,0.03,20.68,0.06,27.09,0.08c3.19,0.02,5.66,0.04,7.37,0.05
					c0.83,0.01,1.47,0.02,1.92,0.03C426.35,270.06,426.57,270.08,426.57,270.08s-0.22,0.02-0.65,0.03
					c-0.45,0.01-1.09,0.01-1.92,0.03c-1.7,0.01-4.18,0.03-7.37,0.05c-6.41,0.02-15.67,0.05-27.09,0.08
					c-11.44,0.02-25.06,0.03-40.18,0.06c-7.56,0-15.5,0.01-23.73,0.02c-4.12,0-8.3,0-12.55,0l-1.6,0c-0.53,0.01-1.14-0.05-1.67-0.27
					c-1.07-0.42-1.93-1.36-2.24-2.48c-0.32-1.11-0.1-2.38,0.62-3.3c0.69-0.94,1.85-1.51,3.02-1.51c34.9,0.03,66.49,0.06,89.38,0.08
					c5.72,0.01,10.89,0.03,15.44,0.04c2.27,0.01,4.38,0.01,6.33,0.02c0.97,0,1.9,0.01,2.79,0.01c0.88,0.03,1.75-0.08,2.54,0.19
					c1.59,0.53,2.45,2.03,2.46,3.28c0.06,1.28-0.58,2.27-1.21,2.82c-0.65,0.56-1.3,0.76-1.73,0.82
					C426.79,270.11,426.57,270.08,426.57,270.08z"/>
			</g>
		</g>
	</g>
</g>
</svg>
