<?xml version="1.0" encoding="utf-8"?>
<!-- Generator: Adobe Illustrator 23.0.3, SVG Export Plug-In . SVG Version: 6.00 Build 0)  -->
<svg version="1.1" xmlns="http://www.w3.org/2000/svg" xmlns:xlink="http://www.w3.org/1999/xlink" x="0px" y="0px"
	 viewBox="0 0 500 500" style="enable-background:new 0 0 500 500;" xml:space="preserve">
<style type="text/css">
	.st0{fill:#C6FF00;}
	.st1{opacity:0.7;fill:#FFFFFF;}
	.st2{opacity:0.3;}
	.st3{fill:#FFFFFF;}
	.st4{fill:none;stroke:#C6FF00;stroke-miterlimit:10;}
	.st5{opacity:0.3;fill:#FFFFFF;}
	.st6{fill:#FFFFFF;stroke:#263238;stroke-linecap:round;stroke-linejoin:round;stroke-miterlimit:10;}
	.st7{clip-path:url(#XMLID_4_);fill:#C6FF00;}
	.st8{opacity:0.5;clip-path:url(#XMLID_4_);fill:#FFFFFF;}
	.st9{fill:#C6FF00;stroke:#263238;stroke-linecap:round;stroke-linejoin:round;stroke-miterlimit:10;}
	.st10{fill:none;stroke:#263238;stroke-linecap:round;stroke-linejoin:round;stroke-miterlimit:10;}
	.st11{clip-path:url(#XMLID_5_);fill:#C6FF00;}
	.st12{opacity:0.5;clip-path:url(#XMLID_5_);fill:#FFFFFF;}
	.st13{fill:#263238;stroke:#263238;stroke-miterlimit:10;}
	.st14{clip-path:url(#XMLID_6_);}
	.st15{fill:#263238;stroke:#263238;stroke-linecap:round;stroke-linejoin:round;stroke-miterlimit:10;}
	.st16{fill:none;stroke:#FFFFFF;stroke-linecap:round;stroke-linejoin:round;stroke-miterlimit:10;}
	.st17{fill:#263238;}
	.st18{font-family:'Nunito-Bold';}
	.st19{font-size:12px;}
</style>
<g id="Background_Simple">
	<g>
		<path class="st0" d="M400.89,221.37c-3.07-14.32-6.45-28.57-10.97-42.53c-13.12-40.53-38.39-81.79-80.6-96.4
			c-31.15-10.78-64.41-4.54-90.12,15.48c-40.32,31.39-69.23,74.77-113.52,101.77c-36.97,22.54-55.79,59.84-42.05,113.44
			s56.46,85.58,102.41,82.77c38.21-2.34,78.29,1.93,111.79,21.76c29.93,17.72,81.86,4.04,124.09-41.69
			c24.6-26.63,21.43-61.25,12.54-93.75C408.98,262.18,405.25,241.7,400.89,221.37z"/>
		<path class="st1" d="M400.89,221.37c-3.07-14.32-6.45-28.57-10.97-42.53c-13.12-40.53-38.39-81.79-80.6-96.4
			c-31.15-10.78-64.41-4.54-90.12,15.48c-40.32,31.39-69.23,74.77-113.52,101.77c-36.97,22.54-55.79,59.84-42.05,113.44
			s56.46,85.58,102.41,82.77c38.21-2.34,78.29,1.93,111.79,21.76c29.93,17.72,81.86,4.04,124.09-41.69
			c24.6-26.63,21.43-61.25,12.54-93.75C408.98,262.18,405.25,241.7,400.89,221.37z"/>
	</g>
</g>
<g id="Plants">
	<g>
		<g>
			<g>
				<g>
					<path class="st0" d="M134.83,296.41c0,0-18.46,14.66-27.27,29.93C98.74,341.61,99,351.96,99,351.96s26.04-18.63,31.93-31.21
						C136.83,308.18,134.83,296.41,134.83,296.41z"/>
					<path class="st0" d="M56.83,275.97c0,0-4.04,26.32,5.64,42.52c9.68,16.2,36.33,33.05,36.33,33.05s3.83-11.83-10.14-29.79
						C74.7,303.79,56.83,275.97,56.83,275.97z"/>
					<path class="st0" d="M100.2,322.36c0,0-0.26-20.25-12.82-41.11c-12.57-20.87-27.63-42.02-31.17-51.01
						c-3.54-8.99-5.69-19.09-5.69-19.09s-5.23,17.36,4.56,40.44C64.87,274.68,100.2,322.36,100.2,322.36z"/>
					<path class="st0" d="M99.25,314.05c0,0,14.84-18.88,25.09-40.46c10.25-21.58,8.61-43.98,8.61-43.98s-19.24,24.94-25.36,44.42
						C101.47,293.51,99.25,314.05,99.25,314.05z"/>
					<path class="st0" d="M96.32,271.38c0,0-3.49-31.01-11.85-48.21C76.1,205.97,59,179.38,59,179.38s-2.1,29.77,11.35,53.51
						C83.8,256.64,96.32,271.38,96.32,271.38z"/>
					<path class="st0" d="M95.62,253.57c0,0,17.39-25.91,22.14-44.43s8.9-49.87,8.9-49.87s-20.86,21.34-25.95,48.16
						C95.61,234.24,95.62,253.57,95.62,253.57z"/>
					<path class="st0" d="M104.26,141.76c0,0-16.33,12.05-13.75,37.33c2.58,25.28,5.05,33.81,5.05,33.81
						C93,195.59,104.26,141.76,104.26,141.76z"/>
				</g>
			</g>
			<g class="st2">
				<g>
					<path class="st3" d="M134.83,296.41c0,0-18.46,14.66-27.27,29.93C98.74,341.61,99,351.96,99,351.96s26.04-18.63,31.93-31.21
						C136.83,308.18,134.83,296.41,134.83,296.41z"/>
					<path class="st3" d="M56.83,275.97c0,0-4.04,26.32,5.64,42.52c9.68,16.2,36.33,33.05,36.33,33.05s3.83-11.83-10.14-29.79
						C74.7,303.79,56.83,275.97,56.83,275.97z"/>
					<path class="st3" d="M100.2,322.36c0,0-0.26-20.25-12.82-41.11c-12.57-20.87-27.63-42.02-31.17-51.01
						c-3.54-8.99-5.69-19.09-5.69-19.09s-5.23,17.36,4.56,40.44C64.87,274.68,100.2,322.36,100.2,322.36z"/>
					<path class="st3" d="M99.25,314.05c0,0,14.84-18.88,25.09-40.46c10.25-21.58,8.61-43.98,8.61-43.98s-19.24,24.94-25.36,44.42
						C101.47,293.51,99.25,314.05,99.25,314.05z"/>
					<path class="st3" d="M96.32,271.38c0,0-3.49-31.01-11.85-48.21C76.1,205.97,59,179.38,59,179.38s-2.1,29.77,11.35,53.51
						C83.8,256.64,96.32,271.38,96.32,271.38z"/>
					<path class="st3" d="M95.62,253.57c0,0,17.39-25.91,22.14-44.43s8.9-49.87,8.9-49.87s-20.86,21.34-25.95,48.16
						C95.61,234.24,95.62,253.57,95.62,253.57z"/>
					<path class="st3" d="M104.26,141.76c0,0-16.33,12.05-13.75,37.33c2.58,25.28,5.05,33.81,5.05,33.81
						C93,195.59,104.26,141.76,104.26,141.76z"/>
				</g>
			</g>
		</g>
		<g>
			<path class="st4" d="M98.5,360c0,0,1.5-4,1.5-34.5S96,283,96,253s-2-58-2-58"/>
			<path class="st4" d="M96.22,268.43c0,0-10.87-23.42-15.47-32.2c-4.26-8.13-9.2-21.33-9.2-21.33"/>
			<path class="st4" d="M72.38,272.19c0,0,24.28,45.16,27.82,50.18"/>
			<line class="st4" x1="99.98" y1="310.24" x2="119.63" y2="263.41"/>
			<path class="st4" d="M76.56,322.37c4.6,7.53,23.42,27.18,23.42,27.18s12.54-13.38,20.49-25.51"/>
			<line class="st4" x1="96.22" y1="249.19" x2="108.34" y2="208.21"/>
		</g>
		<g>
			<polygon class="st0" points="111.87,354.71 84.51,354.71 84.51,364.48 87.09,364.48 90.42,385.99 105.96,385.99 109.29,364.48 
				111.87,364.48 			"/>
			<polygon class="st5" points="111.87,354.71 84.51,354.71 84.51,364.48 87.09,364.48 90.42,385.99 105.96,385.99 109.29,364.48 
				111.87,364.48 			"/>
		</g>
	</g>
</g>
<g id="Device">
	<g>
		<g>
			<g>
				<path id="XMLID_64_" class="st6" d="M152.27,257.1c0,0-14.98,0.83-19.15,7.7c-4.16,6.87,1.25,13.94,9.16,16.86
					c7.91,2.91,10.61,1.67,11.65-0.21C154.98,279.57,152.27,257.1,152.27,257.1z"/>
				<g>
					<defs>
						<path id="XMLID_63_" d="M440.98,299.96c0,0-8.03,0.4-34.12-20.47c-26.09-20.87-27.69-32.91-66.23-52.98
							c-38.53-20.07-56.99-22.08-58.2-17.66c-1.2,4.42-0.4,189.45,4.42,193.46c4.82,4.01,36.12,2.01,60.61-2.01
							c24.48-4.01,50.97-1.2,60.21,2.01c9.23,3.21,36.52,11.64,36.52,11.64"/>
					</defs>
					<use xlink:href="#XMLID_63_"  style="overflow:visible;fill:#FFFFFF;"/>
					<clipPath id="XMLID_4_">
						<use xlink:href="#XMLID_63_"  style="overflow:visible;"/>
					</clipPath>
					<path class="st7" d="M330.47,392.96c-6.52-5.01-11.03-25.07-4.51-35.09c6.52-10.03,15.04-6.52,22.06-6.52
						c7.02,0-10.03-8.52-17.05-20.56c-7.02-12.03,23.56-76.71,19.55-92.75c-0.71-2.84-2.36-5.78-4.57-8.68
						c-1.7-0.93-3.45-1.88-5.31-2.85c-38.53-20.07-56.99-22.08-58.2-17.66c-1.2,4.42-0.4,189.45,4.42,193.46
						c4.82,4.01,36.12,2.01,60.61-2.01c2.68-0.44,5.39-0.79,8.09-1.08C345.24,397.72,333.82,395.54,330.47,392.96z"/>
					<path class="st8" d="M330.47,392.96c-6.52-5.01-11.03-25.07-4.51-35.09c6.52-10.03,15.04-6.52,22.06-6.52
						c7.02,0-10.03-8.52-17.05-20.56c-7.02-12.03,23.56-76.71,19.55-92.75c-0.71-2.84-2.36-5.78-4.57-8.68
						c-1.7-0.93-3.45-1.88-5.31-2.85c-38.53-20.07-56.99-22.08-58.2-17.66c-1.2,4.42-0.4,189.45,4.42,193.46
						c4.82,4.01,36.12,2.01,60.61-2.01c2.68-0.44,5.39-0.79,8.09-1.08C345.24,397.72,333.82,395.54,330.47,392.96z"/>
					
						<use xlink:href="#XMLID_63_"  style="overflow:visible;fill:none;stroke:#263238;stroke-linecap:round;stroke-linejoin:round;stroke-miterlimit:10;"/>
				</g>
				<path id="XMLID_62_" class="st9" d="M147.7,176.76c0,0-12.28-2.91-17.69,6.87c-5.41,9.78,8.12,21.23,16.65,23.93L147.7,176.76z"
					/>
				<path id="XMLID_61_" class="st6" d="M154.77,177.18c-0.09-2.14-6.54-0.9-7.68-0.73c-6.16,0.88-10.98,5.58-11.79,11.79
					c-1.17,9.02,7.38,18.89,15.89,21.02l4.82,1.2C156.01,210.46,154.77,177.21,154.77,177.18z"/>
				<path id="XMLID_60_" class="st9" d="M144,302.68c0,0-10.33,0.4-12.45,9.31c-2.12,8.91,11.08,14.96,18.4,15.22L144,302.68z"/>
				<path id="XMLID_59_" class="st6" d="M152.69,300.39c-0.54-1.67-8.37,1.8-9.24,2.18c-4.66,2.05-7.43,6.82-6.7,11.89
					c1.06,7.38,9.98,13.28,17.16,13.09l4.07-0.11C157.98,327.44,152.7,300.41,152.69,300.39z"/>
				<path id="XMLID_58_" class="st6" d="M152.27,220.47c0,0-14.98,0.83-19.15,7.7c-4.16,6.87,1.25,13.94,9.16,16.86
					c7.91,2.91,10.61,1.66,11.65-0.21C154.98,242.95,152.27,220.47,152.27,220.47z"/>
				<path id="XMLID_57_" class="st6" d="M144.99,267.09c0,0,5.62,12.9,5.2,23.31c-0.42,10.41-12.28,13.53-16.65,11.65
					c-4.37-1.87-6.24-24.35-3.33-31.84c2.91-7.49,8.53-8.12,8.53-8.12"/>
				<path id="XMLID_56_" class="st9" d="M130.63,279.37c0,0-1.66,13.11-1.66,18.73s1.25,4.37,4.16-2.5
					C136.04,288.73,136.25,273.33,130.63,279.37z"/>
				<path id="XMLID_55_" class="st6" d="M144.99,230.46c0,0,5.62,12.9,5.2,23.31s-12.28,13.53-16.65,11.65
					c-4.37-1.87-6.24-24.35-3.33-31.84c2.91-7.49,8.53-8.12,8.53-8.12"/>
				<path id="XMLID_54_" class="st9" d="M130.63,242.74c0,0-1.66,13.11-1.66,18.73c0,5.62,1.25,4.37,4.16-2.5
					C136.04,252.1,136.25,236.7,130.63,242.74z"/>
				<path id="XMLID_53_" class="st10" d="M383.19,396.69c0,0-4.01-13.65-3.61-27.69"/>
				<path id="XMLID_52_" class="st10" d="M387.2,361.77c0,0-0.4,17.26,2.01,23.28"/>
				<path id="XMLID_51_" class="st10" d="M334.62,346.12c0,0,16.46,11.24,36.12,11.24"/>
			</g>
			<g>
				<g>
					<defs>
						<path id="XMLID_50_" d="M413.54,285.11c0,0-8.03-5.62-17.66-21.27c-9.63-15.65-32.91-49.37-36.93-66.23
							c-4.01-16.86-4.42-22.48-6.82-32.11c-2.41-9.63-8.43-14.45-7.22-26.49c1.2-12.04-2.41-18.06-8.03-18.86
							c-5.62-0.8-14.05-1.61-18.46,19.27c-4.42,20.87,3.61,50.17,6.42,63.82s2.81,25.69-2.81,40.14
							c-5.62,14.45-11.64,33.71-6.02,62.21c5.62,28.5,23.68,36.93,37.73,42.95"/>
					</defs>
					<use xlink:href="#XMLID_50_"  style="overflow:visible;fill:#FFFFFF;"/>
					<clipPath id="XMLID_5_">
						<use xlink:href="#XMLID_50_"  style="overflow:visible;"/>
					</clipPath>
					<path class="st11" d="M334.78,213.42c-1.89-23.13-9.44-45.31-11.33-62.3c-1.47-13.27,3.38-25.68,5.58-30.47
						c-4,1.67-8.01,6.43-10.62,18.76c-4.42,20.87,3.61,50.17,6.42,63.82s2.81,25.69-2.81,40.14c-5.62,14.45-11.64,33.71-6.02,62.21
						c1.65,8.37,4.38,15,7.76,20.36C310.67,285.85,336.62,235.96,334.78,213.42z"/>
					<path class="st12" d="M334.78,213.42c-1.89-23.13-9.44-45.31-11.33-62.3c-1.47-13.27,3.38-25.68,5.58-30.47
						c-4,1.67-8.01,6.43-10.62,18.76c-4.42,20.87,3.61,50.17,6.42,63.82s2.81,25.69-2.81,40.14c-5.62,14.45-11.64,33.71-6.02,62.21
						c1.65,8.37,4.38,15,7.76,20.36C310.67,285.85,336.62,235.96,334.78,213.42z"/>
					
						<use xlink:href="#XMLID_50_"  style="overflow:visible;fill:none;stroke:#263238;stroke-linecap:round;stroke-linejoin:round;stroke-miterlimit:10;"/>
				</g>
				<g>
					<path class="st10" d="M349.77,165.59c0,0-2.91-3.64-10.92,0.73"/>
					<path class="st10" d="M339.57,170.32c0,0,5.83-3.64,10.56-0.36"/>
					<path class="st10" d="M351.95,173.6c0,0-2.55,0.36-7.65,0.36"/>
				</g>
				<path id="XMLID_49_" class="st9" d="M344.38,147.17l-2.49-0.46c-5.34-0.99-9.18-5.71-9.04-11.14c0.06-2.17,0.26-4.63,0.7-7.26
					c1.61-9.63,2.01-13.25,6.02-12.44c4.01,0.8,6.42,2.01,6.42,7.22C345.98,128.3,344.38,147.17,344.38,147.17z"/>
			</g>
		</g>
		<g>
			<path id="XMLID_48_" class="st9" d="M311.23,424.66H156.83c-3.73,0-6.75-3.02-6.75-6.75v-289.1c0-3.73,3.02-6.75,6.75-6.75
				h154.41c3.73,0,6.75,3.02,6.75,6.75v289.1C317.98,421.64,314.96,424.66,311.23,424.66z"/>
			<path id="XMLID_47_" class="st13" d="M311.23,418.99H156.83c-3.73,0-6.75-3.02-6.75-6.75v-289.1c0-3.73,3.02-6.75,6.75-6.75
				h154.41c3.73,0,6.75,3.02,6.75,6.75v289.1C317.98,415.97,314.96,418.99,311.23,418.99z"/>
			<path class="st3" d="M245.64,134.48h-20.9c-1.18,0-2.14-0.96-2.14-2.14l0,0c0-1.18,0.96-2.14,2.14-2.14h20.9
				c1.18,0,2.14,0.96,2.14,2.14l0,0C247.78,133.52,246.82,134.48,245.64,134.48z"/>
			<path id="XMLID_46_" class="st9" d="M307.37,391.95H160.69V134.72h34.77l3.91,3.25c1.37,1.13,3.09,1.75,4.86,1.75h61.34
				c1.85,0,3.64-0.67,5.03-1.89l3.54-3.11h33.24V391.95z"/>
			<g id="XMLID_30_">
				<defs>
					<circle id="XMLID_31_" cx="234.03" cy="231.9" r="41.95"/>
				</defs>
				<use xlink:href="#XMLID_31_"  style="overflow:visible;fill:#FFFFFF;"/>
				<clipPath id="XMLID_6_">
					<use xlink:href="#XMLID_31_"  style="overflow:visible;"/>
				</clipPath>
				<g id="XMLID_32_" class="st14">
					<g>
						<path id="XMLID_45_" class="st15" d="M229.24,190.02c0,0-4.33-1.73-14.92,3.46c-10.6,5.19-16.22,12.55-11.68,19.03
							c4.54,6.49,11.9,6.49,16.01,12.11c4.11,5.62-1.79,11.78-6.33,21.3c-4.54,9.52,3.43,15.1,10.13,17.26
							c6.71,2.16,7.23-5.25,14.8-17.79c7.57-12.55-3.68-33.96-7.14-41.96C226.64,195.43,229.24,190.02,229.24,190.02z"/>
						<path class="st16" d="M222.85,205.27c0,0-7.34,0.7-9.09,3.49c-1.75,2.8,2.8,3.15,2.8,3.15"/>
						<path class="st16" d="M222.85,199.33c0,0-16.78,6.29-17.13,10.83c-0.35,4.54,8.39,4.89,8.39,4.89"/>
					</g>
					<g>
						<path id="XMLID_44_" class="st6" d="M228.8,245.82c0,0-8.89,11.43-13.87,15.11c-4.97,3.68-6.35,8.66-3.75,11.26
							c2.6,2.6,1.4,2.83,17.19,4.13s24.23-1.73,29.42-6.71s7.79-9.08,7.79-13.19c0-4.11-18.17-13.84-24.44-13.84
							S228.8,245.82,228.8,245.82z"/>
						<path id="XMLID_43_" class="st10" d="M230.1,255.34l-8.22,10.17c0,0,3.46,2.6,4.11,1.51c0.65-1.08,3.68-6.71,3.68-6.71"/>
					</g>
					<g>
						<path id="XMLID_42_" class="st9" d="M235.08,240.42c0,0-5.84,2.16-6.92,3.68c-1.08,1.51-11.03,8.65-8.22,8.87
							c2.81,0.22,8.44-4.54,8.44-4.54s0.43,6.92,1.73,6.92c1.3,0,10.38-3.68,10.38-3.68s3.46,9.08,5.62,6.71
							c2.16-2.38,4.11-15.57,2.6-18.82C247.19,236.31,235.08,240.42,235.08,240.42z"/>
						<path id="XMLID_41_" class="st6" d="M232.26,235.01c0,0,0,8.22,0,11.9s-1.51,5.62,0.87,4.97c2.38-0.65,7.79-5.41,11.03-10.38
							c3.24-4.97,1.73-12.55,0.43-17.95c-1.3-5.41-4.54-1.51-6.49,0.87C236.16,226.79,232.26,235.01,232.26,235.01z"/>
						<g>
							<path id="XMLID_40_" class="st6" d="M224.04,204.51l-8.65,10.38c0,0,1.51,11.03,4.11,15.14c2.6,4.11,8.87,9.3,11.68,8.44
								c2.81-0.87,11.03-12.98,11.46-14.49s1.51-4.97-0.65-9.73C239.83,209.49,224.04,204.51,224.04,204.51z"/>
							<path id="XMLID_39_" class="st10" d="M223.18,217.27c0,0,1.3,3.68,0.65,5.19c-0.65,1.51-2.81,2.38-1.95,3.46
								c0.87,1.08,2.38,0.87,2.38,0.87"/>
							<path id="XMLID_38_" class="st10" d="M223.83,230.25c0,0,4.76,0.87,5.62-1.95"/>
							<path id="XMLID_37_" class="st17" d="M230.44,219.5c0,0.74-0.36,1.35-0.81,1.35c-0.45,0-0.81-0.6-0.81-1.35
								c0-0.74,0.36-1.35,0.81-1.35C230.07,218.16,230.44,218.76,230.44,219.5z"/>
							<path id="XMLID_36_" class="st17" d="M223.01,220.55c0,0.74-0.36,1.35-0.81,1.35c-0.45,0-0.81-0.6-0.81-1.35
								c0-0.74,0.36-1.35,0.81-1.35C222.65,219.21,223.01,219.81,223.01,220.55z"/>
							<path id="XMLID_35_" class="st10" d="M218.01,217.96c0,0,0.6-2.79,2.49-2.79s2.19,0.6,2.19,0.6"/>
							<path id="XMLID_34_" class="st10" d="M225.89,215.07c0,0,0.6-2.79,3.39-2.39c2.79,0.4,2.89,1.99,2.89,1.99"/>
						</g>
					</g>
					<g>
						<path id="XMLID_33_" class="st15" d="M221.67,199.75c0,0,1.08,11.25,11.25,17.09c10.17,5.84,14.92,13.19,11.68,22.28
							c-3.24,9.08-6.92,17.09,1.73,22.71c8.65,5.62,18.6,3.46,25.52-5.84c6.92-9.3,7.72-23.03,0.37-34.93
							c-7.35-11.9-9.75-17.15-14.51-24.29c-4.76-7.14-18.95-8.27-26.52-7.62c-7.57,0.65-9.73,6.71-9.73,6.71"/>
						<path class="st16" d="M225.65,201.78c0,0-3.15,9.09,11.88,14.68c15.03,5.59,32.15,5.94,33.2,18.87"/>
						<path class="st16" d="M249.19,257.71c0.35,0.77,0.88,1.47,1.62,2.09"/>
						<path class="st16" d="M236.48,216.11c0,0,13.63,8.04,15.03,18.17c0.92,6.65-2.23,13.45-2.82,18.73"/>
						<path class="st16" d="M226.99,194.52c-4.82,4.2-4.14,10.75-4.14,10.75"/>
						<path class="st16" d="M231.59,191.99c-0.79,0.26-1.52,0.56-2.18,0.9"/>
					</g>
				</g>
				<use xlink:href="#XMLID_31_"  style="overflow:visible;fill:none;stroke:#263238;stroke-miterlimit:10;"/>
			</g>
			<g>
				<path id="XMLID_29_" class="st6" d="M267.3,307.6h-66.55c-3.62,0-6.56-2.94-6.56-6.56v-5.14c0-3.62,2.94-6.56,6.56-6.56h66.55
					c3.62,0,6.56,2.94,6.56,6.56v5.14C273.87,304.66,270.93,307.6,267.3,307.6z"/>
				<path id="XMLID_28_" class="st6" d="M267.3,337.9h-66.55c-3.62,0-6.56-2.94-6.56-6.56v-5.14c0-3.62,2.94-6.56,6.56-6.56h66.55
					c3.62,0,6.56,2.94,6.56,6.56v5.14C273.87,334.96,270.93,337.9,267.3,337.9z"/>
				<g>
					<path id="XMLID_27_" class="st17" d="M267.3,368.21h-66.55c-3.62,0-6.56-2.94-6.56-6.56v-5.14c0-3.62,2.94-6.56,6.56-6.56
						h66.55c3.62,0,6.56,2.94,6.56,6.56v5.14C273.87,365.27,270.93,368.21,267.3,368.21z"/>
					<text transform="matrix(1 0 0 1 212.9814 362.9246)" class="st3 st18 st19">SIGN IN</text>
				</g>
			</g>
			<g>
				<path class="st17" d="M254.25,179.42L254.25,179.42c-7.37,0-13.35-5.97-13.35-13.35l0,0c0-7.37,5.97-13.35,13.35-13.35l0,0
					c7.37,0,13.35,5.97,13.35,13.35l0,0C267.59,173.44,261.62,179.42,254.25,179.42z"/>
				<path id="XMLID_2_" class="st3" d="M252.13,174.14h3.25V166h2.27l0.24-2.72h-2.51c0,0,0-1.02,0-1.55c0-0.64,0.13-0.9,0.75-0.9
					c0.5,0,1.76,0,1.76,0V158c0,0-1.85,0-2.25,0c-2.42,0-3.51,1.06-3.51,3.1c0,1.78,0,2.17,0,2.17h-1.69v2.76h1.69V174.14z"/>
			</g>
			<g>
				<path class="st17" d="M213.33,179.42L213.33,179.42c-7.37,0-13.35-5.98-13.35-13.35l0,0c0-7.37,5.97-13.35,13.35-13.35l0,0
					c7.37,0,13.35,5.97,13.35,13.35l0,0C226.68,173.44,220.7,179.42,213.33,179.42z"/>
				<path id="XMLID_1_" class="st3" d="M206.22,170.54c1.29,0.83,2.82,1.31,4.47,1.31c5.42,0,8.48-4.58,8.29-8.68
					c0.57-0.41,1.06-0.92,1.46-1.51c-0.52,0.23-1.09,0.39-1.68,0.46c0.6-0.36,1.06-0.93,1.28-1.61c-0.56,0.33-1.19,0.58-1.85,0.71
					c-0.53-0.57-1.29-0.92-2.13-0.92c-1.88,0-3.27,1.76-2.84,3.58c-2.43-0.12-4.57-1.28-6.01-3.05c-0.76,1.31-0.4,3.03,0.9,3.9
					c-0.48-0.01-0.93-0.15-1.32-0.37c-0.03,1.35,0.94,2.62,2.34,2.9c-0.41,0.11-0.86,0.14-1.32,0.05c0.37,1.16,1.45,2,2.73,2.03
					C209.31,170.29,207.77,170.72,206.22,170.54z"/>
			</g>
			<path class="st3" d="M238.72,399.87c0-1.84-1.49-3.33-3.33-3.33c-1.84,0-3.33,1.49-3.33,3.33c0,1.84,1.49,3.33,3.33,3.33
				C237.22,403.21,238.72,401.71,238.72,399.87z"/>
		</g>
	</g>
</g>
</svg>
