<?xml version="1.0" encoding="utf-8"?>
<!-- Generator: Adobe Illustrator 23.0.3, SVG Export Plug-In . SVG Version: 6.00 Build 0)  -->
<svg version="1.1" id="Слой_2" xmlns="http://www.w3.org/2000/svg" xmlns:xlink="http://www.w3.org/1999/xlink" x="0px" y="0px"
	 viewBox="0 0 3600 2000" style="enable-background:new 0 0 3600 2000;" xml:space="preserve">
<style type="text/css">
	.st0{fill:#FFFFFF;}
	.st1{fill:#EBF2F9;}
	.st2{fill:#ADCBF9;}
	.st3{fill:#ACD29A;}
	.st4{fill:#D86713;}
	.st5{fill:#EE9849;}
	.st6{fill:#F1A34F;}
	.st7{opacity:0.4;fill:#D86713;}
	.st8{fill:#699DEE;}
	.st9{fill:#E9F3FE;}
	.st10{fill:#AFCDFB;}
	.st11{fill:#FCA56B;}
	.st12{fill:#E58638;}
	.st13{fill:#163560;}
	.st14{fill:#1C468A;}
	.st15{fill:#FFB27D;}
	.st16{fill:#588FE0;}
	.st17{fill:#B74B42;}
	.st18{fill:#FFC08D;}
	.st19{fill:#FFE6D2;}
	.st20{fill:#4A75CB;}
	.st21{fill:#2B478B;}
	.st22{fill:#739AF0;}
	.st23{fill:#E2915A;}
	.st24{fill:#80BDCC;}
	.st25{fill:#5F9AA8;}
	.st26{fill:#B84C42;}
	.st27{fill:#FFB93E;}
	.st28{fill:#CAE0FF;}
	.st29{fill:#283250;}
</style>
<rect x="240.29" y="127.73" class="st0" width="3117.07" height="1692.68"/>
<g>
	<path class="st1" d="M2738.89,1793.26c0,0,316.11,30.74,410.78-158.1c137.62-274.51-135.7-490.22-338.46-450.83
		c-441.84,85.83-335.44-861.01-1044.53-667.77c-199.39,54.34-738.1-268.44-888.35,249.11C842.6,888.74,716.02,902.29,532.26,980.39
		c-359.63,152.83-195.19,815.45,61.78,818.06C851.01,1801.04,2738.89,1793.26,2738.89,1793.26z"/>
	<path class="st2" d="M1760.32,766.71l-31.71-0.73c10.19,13.21,12.48,25.37,6.13,35.66c-6.34,10.5-21.52,19.13-44.19,25.68
		c17.16-45.64,25.79-93.78,25.79-143.17c0-55.31-10.81-108.96-32.23-159.39c-20.59-48.76-50.12-92.64-87.75-130.18
		c-37.64-37.64-81.41-67.17-130.18-87.86c-50.53-21.32-104.18-32.13-159.39-32.13c-55.31,0-108.96,10.81-159.5,32.13
		c-6.03,2.6-12.06,5.3-17.88,8.11c-0.02,0.01-0.04,0.02-0.05,0.03c-17.61-5.37-34.77-9.78-51.33-13.14
		c-83.56-16.96-142.86-5.24-166.95,33c-22.92,36.37-10.44,91.11,35.04,154.96c-0.01,0.01-0.01,0.02-0.02,0.03
		c-6.13,11.33-11.64,22.98-16.74,35.04c-3.85,9.05-7.28,18.09-10.4,27.34c-85.47,5.09-131.21,20.14-147.85,47.38
		c-19.34,31.71,7.07,74.27,91.6,115.65c11.65,5.72,24.12,11.33,37.22,16.95c4.37,38.37,14.24,75.69,29.42,111.46
		c20.59,48.76,50.12,92.64,87.75,130.28c37.64,37.53,81.41,67.06,130.18,87.75c50.53,21.31,104.18,32.13,159.5,32.13
		c55.21,0,108.86-10.81,159.39-32.13c48.76-20.69,92.54-50.22,130.18-87.75c36.6-36.6,65.61-79.23,86.09-126.43
		c41.69-8.63,69.14-22.15,80.06-40.03C1770.1,795,1769.16,781.27,1760.32,766.71z M1662.48,833.78
		c-27.76,4.99-62.38,7.9-102.83,8.32c-62.76,0.77-134.84-4.19-210.8-14.2c6.39-13.91,12.66-28.21,18.77-42.84
		c23.57,7.89,46.45,14.13,68.26,18.56c24.99,5.07,47.8,7.58,68.16,7.58c47.72,0,81.91-13.78,98.79-40.58
		c2.78-4.42,5.05-9.1,6.79-14.04h-24.33c-0.4,0.74-0.83,1.47-1.28,2.19c-12.54,19.91-40.57,30.19-79.92,30.19
		c-18.82,0-40.25-2.35-63.8-7.13c-20.53-4.16-42.05-10.01-64.25-17.38c5.86-14.65,11.55-29.59,17.05-44.75
		c14.83-40.88,27.52-81.41,37.79-120.33c46.8,6.9,97.03,10.36,150.4,10.36c33.23,0,67.69-1.34,103.28-4.03
		c5.28,25.62,7.95,51.84,7.95,78.47C1692.53,736.04,1682.45,786.37,1662.48,833.78z M1155.68,1036.82
		c-11.83-4.29-17.84-21.27-20.79-34.76c-4.67-21.32-5.51-51.26-2.44-86.59c1.55-17.87,4.05-36.87,7.41-56.74
		c48.49,12.92,96.52,29.55,143.28,49.58c-10.53,18.16-21.18,35-31.83,50.27c-20.29,29.09-40.13,51.53-57.38,64.89
		C1183.01,1031.92,1167.51,1041.1,1155.68,1036.82z M1293.85,889.29c-48.95-21.09-99.27-38.52-150.09-51.98
		c1.79-9.22,3.76-18.61,5.89-28.14c14.13,3.21,28.47,6.32,42.98,9.32c42.47,8.69,84.84,16.06,126.31,22.03
		C1310.72,857.52,1302.34,873.81,1293.85,889.29z M1201.98,803.11c-16.41-3.38-32.58-6.9-48.47-10.57
		c7.48-31.13,16.67-63.59,27.4-96.66c55.78,34.29,112.5,62.18,166.21,81.97c-6.74,16.09-13.66,31.77-20.73,46.95
		C1285.6,818.95,1243.86,811.69,1201.98,803.11z M1065.76,382.86c3.55,7.28,8.46,16.3,15.08,26.53
		c28.2,43.58,65.44,75.17,91.71,93.99c15.09,10.81,31.19,20.83,48.26,30.05c-15.58,33.94-30.41,70.17-44.06,107.79
		c-2.54,7.01-5.02,14.01-7.43,21c-81.48-53.04-150.47-113.9-195.73-172.8c-0.01-0.01-0.01-0.02-0.02-0.02
		c11.33-19.33,24.32-37.62,38.87-54.77c6.03-7.07,12.27-13.93,18.82-20.59c0.94-0.94,1.77-1.77,2.7-2.7
		C1044.08,401.21,1054.7,391.73,1065.76,382.86z M1414.18,324.08c11.83,4.29,17.84,21.27,20.79,34.76
		c4.67,21.32,5.51,51.26,2.44,86.59c-3.36,38.67-11.11,82.6-22.63,129.37c-13.92-2.4-27.51-5.1-40.75-8.15
		c-45.74-10.52-87.44-24.91-124.68-42.98c22.22-46.34,45.72-87.67,69.21-121.34c20.29-29.09,40.13-51.53,57.38-64.89
		c9-6.98,21.11-14.44,31.72-14.44C1409.91,322.99,1412.1,323.33,1414.18,324.08z M1367.68,587.46c13.55,3.15,27.47,5.94,41.71,8.42
		c-10,37.63-22.32,76.83-36.68,116.41c-5.53,15.25-11.26,30.27-17.15,44.99c-53.92-19.8-111.15-48.11-167.41-83.09
		c2.91-8.5,5.91-17.03,9.01-25.58c13.34-36.77,27.81-72.16,42.99-105.3C1278.38,561.85,1321.03,576.63,1367.68,587.46z
		 M1579.51,411.33c35.45,35.46,63.32,76.73,82.76,122.69c6.93,16.42,12.69,33.2,17.25,50.27c-88.93,6.5-170.41,4.46-243.25-6.08
		c11.56-47.23,19.34-91.66,22.75-130.9c3.77-43.33,3.31-94.66-14.26-123.55c4.07,1.56,8.13,3.2,12.16,4.9
		C1502.88,348.12,1544.16,375.88,1579.51,411.33z M1306.79,298.31c26.73,0,53.01,2.69,78.7,8.02
		c-30.31,13.19-61.25,49.91-84.74,83.58c-24.04,34.46-48.04,76.63-70.71,123.84c-15.29-8.31-29.76-17.29-43.35-26.93
		c-64.48-45.75-92.89-95.07-103.22-117.35c15.82-11.25,32.44-21.29,49.83-30.06c0.01,0,0.01,0,0.02,0
		c7.08-3.57,14.3-6.92,21.63-10.06c0.53-0.23,1.06-0.46,1.6-0.69c0.12-0.06,0.25-0.1,0.37-0.16c1.56-0.66,3.13-1.3,4.7-1.94
		c0.42-0.17,0.85-0.34,1.27-0.5C1208.53,307.67,1256.99,298.31,1306.79,298.31z M929.89,346.59c12.54-19.91,40.57-30.19,79.92-30.19
		c18.82,0,40.25,2.35,63.8,7.13c8.94,1.81,18.07,3.94,27.36,6.39c0.01,0,0.02,0,0.02,0.01c-30.56,17.67-58.62,39.29-83.88,64.66
		c-5.3,5.2-10.4,10.61-15.39,16.22c-6.24,6.86-12.17,14.04-17.88,21.32c-9.15,11.64-17.57,23.81-25.37,36.29
		c-0.01,0.01-0.01,0.02-0.02,0.03C923.68,416.81,913.23,373.03,929.89,346.59z M951.2,534.02c3.43-7.9,6.97-15.7,10.81-23.29
		c0-0.01,0.01-0.01,0.01-0.02c47.65,59.56,117.89,120.45,199.96,173.26c-11.64,35.42-21.56,70.22-29.58,103.58
		c-59.71-14.44-115.04-30.79-163.53-48.29c-10.19-3.64-20.07-7.38-29.53-11.13c-5.61-2.18-11.13-4.47-16.53-6.76
		c-0.83-8.32-1.46-16.74-1.66-25.16c-0.1-4.05-0.21-8.01-0.21-12.06c0-4.68,0.1-9.46,0.21-14.14c1.35-35.04,7.28-69.25,17.68-102.31
		c1.77-5.61,3.64-11.13,5.72-16.64C946.63,545.35,948.81,539.64,951.2,534.02z M881.64,702.87c-73.72-35.98-107.4-70.7-92.33-95.34
		c12.16-19.96,56.46-33.48,124.25-38.47c-8.32,28.07-13.41,57.08-15.39,86.51c-0.62,8.73-0.94,17.47-1.04,26.31v2.29
		c0,8.84,0.31,17.68,0.83,26.41C892.35,708.07,886.94,705.47,881.64,702.87z M937.58,747.06c9.98,3.74,20.17,7.49,30.67,11.13
		c48.27,16.73,102.39,32.27,160.27,46.07c-2.1,9.38-4.04,18.62-5.82,27.72c-4.73-1.15-9.46-2.27-14.2-3.35
		c-80.02-18.21-140.08-21.92-167.91-22.55c-6.9-20.77-11.96-42.01-15.17-63.7C929.47,743.94,933.52,745.5,937.58,747.06z
		 M951.2,834.3c-0.87-2.06-1.71-4.13-2.55-6.21c29.69,1.19,84.73,5.69,155.03,21.69c5.03,1.15,10.06,2.35,15.08,3.57
		c-3.62,21.1-6.29,41.27-7.94,60.23c-3.12,35.9-3.34,77.3,6.66,106.87c-30.48-17.16-58.45-38.38-83.53-63.46
		C998.51,921.53,970.64,880.25,951.2,834.3z M1456.93,1039.65c-47.62,20.17-98.05,30.36-150.14,30.36
		c-40.13,0-79.33-6.05-116.99-18.05c28.54-14.96,57.22-49.31,79.3-80.97c11.39-16.33,22.77-34.4,34.01-53.9
		c64.78,29.34,127.07,65.39,185.58,107.38C1478.37,1029.98,1467.79,1035.05,1456.93,1039.65z M1579.51,956.99
		c-21.33,21.39-44.84,39.97-70.21,55.62c-61.46-44.92-127.13-83.38-195.54-114.51c9.41-17.24,18.68-35.45,27.73-54.45
		c62.63,8.3,122.85,13.28,177.82,14.57c14.35,0.42,28.28,0.42,41.8,0.31c35.04-0.42,66.23-2.5,92.95-6.24
		C1635.35,891.07,1610.29,926.21,1579.51,956.99z"/>
	<path class="st3" d="M2587.52,1687.3c-8.74-33.89-67.8-7.64-116.44,20.8c-2.27-3.59-4.62-7.14-7.04-10.65
		c34.82-21.6,83.72-57.53,65.11-79.39c-18.39-21.6-54.32,27.3-76.79,63.37c-60.21-78.14-149.5-133.76-149.5-133.76
		s372.61-309.6,94.17-472.92c-278.43-163.33-489.96,411.37-489.96,411.37s-190.26-176.18-371.92-111.12
		c-186.56,66.82-69.97,190.66-231.99,224.15c-19.08-73.04-54.34-176.03-102.55-182.07c-63.68-7.98-36.88,71.72,59.88,188.14
		c-18.75,1.68-40.12,2.54-64.54,2.47c-259.85-0.77-193.17,186.32-193.17,186.32l1502.4,3.47c-2.04-18.41-7.39-36.51-15.1-54.04
		C2541.53,1735.35,2595.75,1719.21,2587.52,1687.3z"/>
	<g>
		<g>
			<path class="st4" d="M1810.19,968.34l-65.52,779.03c0,0-6.86,47.22,28.26,47.31c57.75,0.14,287.46,0,287.46,0
				s-43.47-9.83-42.94-31.95c0.62-26.07,76.58-801.76,76.58-801.76L1810.19,968.34z"/>
			<path class="st5" d="M2079.04,1780.54c-11.36,0.03-230.76,0.72-287,0c-24.51-0.3-28.81-21.79-29.01-35.7
				c-0.1-6.67,0.74-11.6,0.74-11.6l1.7-20.25l4.34-51.61l3.84-45.59l4.93-58.59l4.15-49.45l46.55-553.55l283.84-7.37
				c0,0-31.99,324.62-54.62,560.92c-2.53,26.33-4.93,51.57-7.15,75.14c-0.72,7.52-1.41,14.88-2.09,22.04
				c-2.1,22.36-4.02,42.89-5.69,61.01c-0.88,9.55-1.69,18.43-2.42,26.56c-2.89,31.87-4.58,52.22-4.6,56.08
				c-0.01,2.26,0.18,4.35,0.55,6.31C2041.77,1779.73,2074.77,1780.54,2079.04,1780.54z"/>
			<polygon class="st6" points="1120.87,544.42 1280.46,1185.46 1302.31,1273.26 1376.64,1571.84 2757.56,1571.84 2483.6,544.42 			
				"/>
			<polygon class="st5" points="1120.87,544.42 1098.75,551.79 1347.24,1594.14 1376.64,1571.84 			"/>
			<polygon class="st4" points="1347.24,1594.14 2719.66,1594.14 2757.56,1571.84 1376.64,1571.84 			"/>
			<rect x="1829.19" y="1780.85" class="st6" width="297.15" height="14.12"/>
			<polygon class="st4" points="2050.8,1594.13 2049.27,1604.93 1769.81,1661.38 1773.65,1615.79 1775.48,1594.13 			"/>
			<path class="st7" d="M2079.04,1780.54c-11.36,0.03-230.76,0.72-287,0c-24.51-0.3-28.81-21.79-29.01-35.7l278.13-52.33
				c-2.89,31.87-4.58,52.22-4.6,56.08c-0.01,2.26,0.18,4.35,0.55,6.31C2041.77,1779.73,2074.77,1780.54,2079.04,1780.54z"/>
			<polygon class="st7" points="1983.26,1363.85 1376.64,1571.84 1302.31,1273.26 			"/>
			<polygon class="st8" points="1120.87,544.42 2483.6,544.42 2704.7,1370.14 1326.43,1370.14 			"/>
		</g>
		<path class="st4" d="M2103.71,1474.52c-3.94-20.25-23.54-36.67-43.79-36.67c-20.25,0-33.48,16.42-29.54,36.67
			c3.94,20.25,23.54,36.67,43.79,36.67C2094.42,1511.19,2107.65,1494.77,2103.71,1474.52z"/>
		<polygon class="st9" points="2640.43,1334.36 1364.5,1334.36 1220.01,758.73 1208.93,714.59 1199.48,676.94 1177.32,588.65 
			2434.85,588.65 2459.19,676.94 2469.57,714.59 2481.74,758.73 		"/>
		<polygon class="st10" points="2459.19,676.94 1199.48,676.94 1177.32,588.65 2434.85,588.65 		"/>
		<g>
			<path class="st9" d="M1237.62,617.51c-6.1,0-9.8,4.94-8.28,11.04c1.52,6.1,7.69,11.04,13.79,11.04s9.8-4.94,8.28-11.04
				C1249.89,622.46,1243.72,617.51,1237.62,617.51z"/>
			<path class="st9" d="M1274.29,617.51c-6.1,0-9.8,4.94-8.29,11.04c1.52,6.1,7.69,11.04,13.79,11.04c6.1,0,9.8-4.94,8.28-11.04
				C1286.56,622.46,1280.39,617.51,1274.29,617.51z"/>
			<path class="st9" d="M1327.57,628.55c-1.52-6.1-7.69-11.04-13.79-11.04s-9.8,4.94-8.29,11.04c1.52,6.1,7.69,11.04,13.79,11.04
				S1329.09,634.65,1327.57,628.55z"/>
		</g>
	</g>
	<g>
		<path class="st11" d="M693.43,761.68c0,0,3.91-12.29-2.22-23.35c-6.13-11.06,3.77-18.73,1.27-22.06c-2.5-3.34-18.8-3-24.36,13.05
			c-5.56,16.05,3.84,34.16,3.84,34.16L693.43,761.68z"/>
		<path class="st12" d="M625.04,850.02c11.56,3.45,23.47-4.23,25.09-15.94l16.23-70.6c0,0,3.38-5.47,15.08-4.99
			c12.74,0.52,16.18,6.84,16.18,6.84s7.88,124.28-28.92,141.82C631.92,924.69,590.26,839.65,625.04,850.02z"/>
		<path class="st13" d="M701.32,1793.89H597.69c-7.37-6.67-9.8-45.91-9.8-45.91s32.13-28.95,42.63-6.04
			c9.98,21.77,37.56,33.35,54.03,36.22C698.74,1780.63,700.98,1791.04,701.32,1793.89z"/>
		<path class="st13" d="M575.79,1793.89H472.16c-7.37-6.67-9.81-45.91-9.81-45.91s32.13-28.95,42.63-6.04
			c9.98,21.77,37.56,33.35,54.03,36.22C573.2,1780.63,575.45,1791.04,575.79,1793.89z"/>
		<path class="st13" d="M650.31,1251.38c0,0-14.74,94.28-69.73,261.64c-54.99,167.36-62.48,239.83-62.48,239.83l-58.99-1.65
			c0,0-0.5-182.9,24.84-267.06c25.34-84.16,5.47-303.4,5.47-303.4L650.31,1251.38z"/>
		<path class="st14" d="M679.01,1185.9c0,0,2.09,142.07-22.49,316.51c-24.58,174.44-16.25,248.49-16.25,248.49l-58.87,1.96
			c0,0-35.18-174.5-25.1-261.82c10.09-87.31-48.18-299.6-48.18-299.6L679.01,1185.9z"/>
		<path class="st15" d="M565.04,853.43L592.81,874l40.13-8.45c-0.56-3.66-3.2-18.83-5.62-32.57c-0.15-0.81-0.29-1.62-0.43-2.41
			c-2.07-11.69-3.85-21.73-3.85-21.73l-37.48-18.68l-13.97-6.96c0.04,0.25,1.08,12.97,1.23,14.83
			C575.44,831.02,565.04,853.43,565.04,853.43z"/>
		<path class="st5" d="M630.13,843.05c-0.88-0.37-54.59-16.22-60.43-14.29c-5.83,1.93-9.29,13.22-9.29,13.22l87.85,19.86
			C648.27,861.84,641.36,847.78,630.13,843.05z"/>
		<path class="st5" d="M485.5,1203.44c9.1,41.53,160.62,46.46,199.68,8.76c4.44-4.3,4.66-24.29,2.99-51.25
			c-3.28-52.67-13.8-131.89-14.21-172.37c-0.2-19.55-2.89-39.54-6.46-57.69c-7.61-38.69-19.22-69.05-19.22-69.05
			s-74.01-23.93-87.85-19.86C493.71,861.58,476.4,1161.9,485.5,1203.44z"/>
		<path class="st12" d="M688.17,1160.95c-3.28-52.67-13.8-131.89-14.21-172.37c-0.2-19.55-2.89-39.54-6.46-57.69l-44.52-7.86
			C622.97,923.03,579.45,1100.82,688.17,1160.95z"/>
		<path class="st11" d="M575.63,798.61c8.23,15.75,38.9,29.37,51.69,34.38c-0.15-0.81-0.29-1.62-0.43-2.41
			c-2.07-11.69-3.85-21.73-3.85-21.73l-37.48-18.68C577.28,790.03,572.24,792.13,575.63,798.61z"/>
		<path class="st15" d="M641.26,806.65c0,0-67.62,21.09-80.11-21.22c-12.49-42.31-29.63-68.09,13.02-83.34
			c42.65-15.26,55.84-1.6,63.44,11.51C645.22,726.7,658.53,800.07,641.26,806.65z"/>
		<path class="st13" d="M631.58,713.89c0,0-4.31,49.24-14.5,47.1s-19.42-3.72-17.93,11.12c1.49,14.84,15.61,31.98-15.77,34.61
			c-31.38,2.63-76.5-78.31-67.87-93.63C540.39,668.88,667.54,659.96,631.58,713.89z"/>
		<g>
			<g>
				<path class="st2" d="M726.69,703.32l-65.52,17.5l2.03,27.01l66.8-0.47c5.29-0.4,8.83-10.58,7.92-22.74
					C737,712.46,731.98,702.92,726.69,703.32z"/>
				<path class="st8" d="M668.06,733.89c-0.56-7.46-3.64-13.31-6.89-13.06c-3.24,0.24-5.42,6.49-4.86,13.95
					c0.56,7.46,3.64,13.31,6.89,13.06C666.44,747.59,668.62,741.35,668.06,733.89z"/>
			</g>
			<path class="st8" d="M692.35,733l-20.26,0.37c-0.64,4.26,0.46,6.09,0.46,6.09l20.2,1.35L692.35,733z"/>
			<g>
				<path class="st2" d="M764.84,702.37l-75.22,20.09l2.33,31.01l76.69-0.53c6.07-0.46,10.14-12.15,9.09-26.11
					C776.69,712.86,770.91,701.91,764.84,702.37z"/>
				<path class="st8" d="M697.53,737.46c-0.64-8.56-4.18-15.28-7.91-15c-3.72,0.28-6.22,7.45-5.58,16.01
					c0.64,8.56,4.18,15.28,7.91,15C695.68,753.19,698.17,746.03,697.53,737.46z"/>
			</g>
		</g>
		<path class="st15" d="M709.21,761.57c0,0-7.1-10.76-4.21-23.07c2.89-12.31-8.72-17-7.22-20.89c1.5-3.89,17.27-7.99,26.99,5.94
			c9.72,13.94,5.59,33.92,5.59,33.92L709.21,761.57z"/>
		<path class="st5" d="M616.7,864.78c0,0,39.28-7.16,75.57-6.62c12.06,0.18,21.44-10.45,19.82-22.16l-6.34-71
			c0,0,4.54-7.54,15.93-10.26c12.4-2.96,16.38,3.73,16.38,3.73s42.41,115.92,11.77,142.79C719.19,928.14,603.15,945,603.15,945
			L616.7,864.78z"/>
	</g>
	<g>
		<g>
			<path class="st5" d="M3113.17,383.15c-4.04,93.35-25.75,207.62-94.79,299.55c-2.54,3.37-5.09,6.72-7.65,10.03
				c-7.74,10.01-15.63,19.73-23.62,29.17c-8.92,10.51-24.52,12.2-35.55,3.92l-306.45-230.14c-3.5-2.63-6.09-6.05-7.68-9.84
				c-1.08-2.55-1.69-5.27-1.84-8.03c-0.25-4.91,1-9.93,3.9-14.32c7.19-10.91,14.72-21.78,22.59-32.59c2.46-3.39,4.97-6.77,7.5-10.14
				c69.03-91.93,172.72-144.64,261.24-174.55c46.75-15.79,89.26-25.24,120.21-30.74c5.14-0.91,10.14-1.1,14.92-0.63
				c7.24,0.7,13.95,2.92,19.84,6.41c12.72,7.52,21.57,20.94,23.38,37.89C3112.53,290.39,3115.32,333.85,3113.17,383.15z"/>
			<path class="st16" d="M2661.87,431.18c-8.95,12.28-17.45,24.64-25.51,37.04c-5.25,8.08-3.31,18.84,4.39,24.63l314.2,235.96
				c8.99,6.75,21.68,5.35,29-3.19c9.01-10.51,17.87-21.38,26.56-32.61L2661.87,431.18z"/>
			<g>
				<path class="st17" d="M2934.21,524.28c-19.99,0-39.35-6.43-55.62-18.64c-19.85-14.91-32.71-36.65-36.2-61.23
					c-3.5-24.58,2.79-49.05,17.7-68.9l0,0c14.91-19.85,36.65-32.71,61.23-36.2c24.58-3.5,49.05,2.79,68.9,17.7
					c19.85,14.91,32.71,36.65,36.2,61.23c3.5,24.58-2.79,49.05-17.7,68.9c-14.91,19.85-36.65,32.71-61.23,36.2
					C2943.05,523.97,2938.61,524.28,2934.21,524.28z M2934.55,359.96c-3.38,0-6.79,0.24-10.19,0.72
					c-18.87,2.68-35.56,12.55-47,27.79l0,0c-11.44,15.24-16.27,34.02-13.58,52.89c2.68,18.87,12.55,35.56,27.79,47
					c15.24,11.44,34.02,16.27,52.89,13.58c18.87-2.68,35.56-12.55,47-27.79c11.44-15.24,16.27-34.02,13.59-52.89
					c-2.68-18.87-12.55-35.56-27.79-47C2964.76,364.9,2949.89,359.96,2934.55,359.96z"/>
			</g>
			<path class="st18" d="M3092.82,242.78c-0.86-8.06-3.32-15.32-7.02-21.53c-5.89-3.48-12.61-5.7-19.84-6.41
				c0.05,0.41,0.1,0.81,0.15,1.22c3.35,31.24,6.14,74.71,4,124c-4.05,93.35-25.76,207.62-94.8,299.55
				c-2.53,3.38-5.08,6.72-7.65,10.03c-1.71,2.2-3.42,4.39-5.15,6.57l29.98,22.56c0.63-0.8,1.26-1.6,1.89-2.41
				c2.57-3.32,5.11-6.66,7.65-10.03c69.04-91.93,90.75-206.2,94.8-299.55C3098.96,317.49,3096.17,274.03,3092.82,242.78z"/>
			<path class="st16" d="M3109.18,259.14c-3.21-29.99-28.46-48.95-58.15-43.67c-30.94,5.5-73.46,14.94-120.21,30.73l182.35,136.95
				C3115.32,333.85,3112.53,290.39,3109.18,259.14z"/>
		</g>
		<g>
			<path class="st17" d="M2687.38,557.04c-29.88-19.85-76.91-1.59-105.05,40.77c-28.14,42.36,3.15,112.64,3.15,112.64
				s76.91,1.59,105.05-40.77C2718.67,627.32,2717.26,576.88,2687.38,557.04z"/>
			<path class="st17" d="M2855.35,680.42c-29.88-19.85-76.91-1.59-105.05,40.77c-28.14,42.36,3.15,112.64,3.15,112.64
				s76.91,1.59,105.05-40.77C2886.64,750.69,2885.23,700.26,2855.35,680.42z"/>
		</g>
		<g>
			<path class="st5" d="M2655.62,604.54c-20.62-13.7-53.08-1.1-72.51,28.14c-19.42,29.24,2.18,77.75,2.18,77.75
				s53.09,1.1,72.51-28.14C2677.22,653.04,2676.24,618.24,2655.62,604.54z"/>
			<path class="st5" d="M2823.94,727.78c-20.62-13.7-53.09-1.1-72.51,28.14c-19.42,29.24,2.18,77.75,2.18,77.75
				s53.08,1.1,72.51-28.14C2845.54,776.28,2844.57,741.48,2823.94,727.78z"/>
		</g>
		<path class="st19" d="M2892.72,477.56l96.36-17.03c-10.7,19.38-31.34,32.52-55.05,32.52
			C2918.21,493.05,2903.76,487.2,2892.72,477.56z"/>
		<path class="st19" d="M2996.83,428.11l-122.04,23.12c-2.33-6.57-3.61-13.65-3.61-21.02c0-34.71,28.13-62.84,62.84-62.84
			C2968.03,367.36,2995.73,394.37,2996.83,428.11z"/>
	</g>
	<g>
		<g>
			<path class="st15" d="M1052.96,1306.96c0,0,20.43,5.25,33.42,1.33s35.35,2.51,38.95,7.25s2.28,6.62-4.15,8.25
				c-6.42,1.63-29.18,11.34-44.14,5.72c-14.96-5.62-34.47-5.82-34.47-5.82L1052.96,1306.96z"/>
			<path class="st20" d="M876.36,1129.46c0,0,22.95,163.15,60.96,177.76c18.75,7.21,101.64,23.55,126.16,25.2
				c0,0,6.01-4.87,4.54-24.71c0,0-86.84-31.88-99.18-49.22c-18.36-25.8,11.4-105.42-11.64-129.65
				C934.17,1104.6,895.37,1094.19,876.36,1129.46z"/>
		</g>
		<path class="st21" d="M911.04,1757.39v-35.57h56c1.51,0,2.75-1.24,2.75-2.75v-5.7c0-1.51-1.24-2.75-2.75-2.75h-56v-202.49
			c0-5.68-4.65-10.33-10.33-10.33h-11.08c-5.68,0-10.33,4.65-10.33,10.33v202.49h-56c-1.51,0-2.75,1.24-2.75,2.75v5.7
			c0,1.51,1.24,2.75,2.75,2.75h56v35.57c-40.52,3.06-72.98,17.65-82.09,36.5h195.92C984.02,1775.04,951.55,1760.45,911.04,1757.39z"
			/>
		<path class="st13" d="M884.1,1473.18c6.7,11.36,14.44,22,22.42,32.08c24.67,31.14,51.53,56.82,56.21,81.1
			c0.93,4.84,2.41,10.05,4.34,15.54c1.95,5.56,4.37,11.41,7.16,17.45c10.47,22.74,26.13,48.22,41.76,71.38
			c27.02,40.04,52.43,73.45,52.43,73.45l46.6-1.99c-1.87-4.67-22.19-59.96-49.38-127.52c-11.04-27.43-22.78-56.6-34.11-84.74
			c-1.51-3.76-3.02-7.5-4.51-11.21c-3.46-8.61-6.87-17.08-10.2-25.34c-25.53-63.44-45.86-113.96-45.86-113.96
			s-102.04-38.65-112.63-13.61C849.57,1406.48,856.69,1426.71,884.1,1473.18z"/>
		<path class="st13" d="M1069.86,1754.81c0,0,2.38,38.45,9.82,39c0.99,0.07,37.73,0.07,37.73,0.07h46.9c0,0-0.31-11.57-14.02-13.96
			c-13.71-2.39-36.66-12.03-44.96-30.15C1096.61,1730.71,1069.86,1754.81,1069.86,1754.81z"/>
		<path class="st13" d="M961.96,1645.86c0,0-32.41,20.83-29.27,27.59c0.42,0.9,18.33,32.98,18.33,32.98l23.1,40.82
			c0,0,9.72-5.78,5.12-18.91c-4.6-13.14-7.37-37.87,4.4-53.96C996.03,1657.46,961.96,1645.86,961.96,1645.86z"/>
		<path class="st14" d="M1005.67,1381c0,0,128.22,79.87,142.52,133.48s-170.37,167.99-170.37,167.99s-20.25-17.87-23.83-30.98
			c0,0,83.47-100.01,101.58-122.42c11.12-13.77-164.42-47.66-185.87-81.02c-21.45-33.36-13.77-61.43-13.77-61.43L1005.67,1381z"/>
		<path class="st5" d="M1026.23,1483.53H764.1c-5.24,0-9.53,4.29-9.53,9.53v52.42c0,5.24,4.29,9.53,9.53,9.53h262.12
			c5.24,0,9.53-4.29,9.53-9.53v-52.42C1035.76,1487.82,1031.47,1483.53,1026.23,1483.53z"/>
		<path class="st15" d="M966.1,1119.17c-30.68,7.94-81.55-20.49-81.55-20.49s19.75-13.27,27.07-42.43c0.37-1.47,0.71-2.98,1-4.52
			c3.22-0.69,9.28-1.97,15.76-3.34l23.44,20.99c0,0-0.53,8.72-3.47,23.7c-0.51,2.62-1.09,5.42-1.76,8.41
			C959.17,1109.28,966.1,1119.17,966.1,1119.17z"/>
		<path class="st22" d="M1009.68,1376.82c-0.06,0.31-0.16,0.63-0.27,0.96c-2.96,8.29-30.5,19.47-55.77,27.29
			c-9.06,2.81-17.84,5.18-25.08,6.84c-19.57,4.48-68.6,12.47-72.9-0.97c-4.98-15.56,0.8-105.47-3.6-164.58
			c-5.19-72.26,14.82-138.03,42.64-159.5c2.1-1.54,6.26,2.56,18.31,8.28c11.13,5.27,23.43,6.78,33.84,4.5l9.33,8
			c12.89,11.6,27.06,27.43,33.49,51.7c3.93,14.89,6.9,38.43,9.1,64.91c0.85,10.26,1.59,20.97,2.22,31.78
			c1,17.21,1.87,34.57,2.29,51.08c0.01,0.32,0.02,0.63,0.02,0.95l0.01,0.6c0.18,1.66,0.21,3.48,0.23,5.15
			c0.44,14.8,0.36,28.57,0.86,40.26c0.01,0.33,0.03,0.65,0.05,0.96c0.63,9.8,4.22,14.22,5.18,18.31
			C1009.89,1374.49,1009.95,1375.62,1009.68,1376.82z"/>
		<path class="st20" d="M1009.68,1376.82c-0.06,0.31-0.16,0.63-0.27,0.96c-2.96,8.29-30.5,19.47-55.77,27.29
			c-51.33-64.31-45.83-141.26-45.83-141.26l95.47,43.3c0.01,0.32,0.02,0.63,0.02,0.95l0.01,0.6c0.18,1.66,0.21,3.48,0.23,5.15
			c0.44,14.8,0.36,28.57,0.86,40.26c0.01,0.33,0.03,0.65,0.05,0.96c0.63,9.8,4.22,14.22,5.18,18.31
			C1009.89,1374.49,1009.95,1375.62,1009.68,1376.82z"/>
		<path class="st23" d="M951.82,1069.38c0,0-0.53,8.72-3.47,23.7c-22.88-7.39-33.26-28.06-36.73-36.83c0.37-1.47,0.71-2.98,1-4.52
			c3.22-0.69,9.28-1.97,15.76-3.34L951.82,1069.38z"/>
		<path class="st15" d="M961.08,1069.15c0,0-50.28,5.67-53.33-25.7c-3.05-31.37-11.59-51.76,20.38-56.71
			c31.97-4.95,39.38,6.41,42.95,16.64C974.65,1013.61,974.09,1066.87,961.08,1069.15z"/>
		<path class="st21" d="M907.97,1045.62c0,0,3.19-41.64,48.96-45.95c31.35-2.95,13.87-29.94,10.53-34.24c0,0-24.02,3.29-48.64,7.36
			C867.14,981.33,902.89,1039.14,907.97,1045.62z"/>
		<polygon class="st20" points="1188.8,1232.6 1153.38,1341.62 1028.79,1338.96 1028.62,1346.56 1155.76,1349.28 1193.2,1234.03 		
			"/>
		<g>
			<path class="st15" d="M1042.44,1332.04c0,0,19.73,7.47,33.07,5.01c13.34-2.46,34.85,6.4,37.91,11.5s1.54,6.83-5.03,7.75
				c-6.57,0.92-30.26,8.06-44.51,0.82c-14.25-7.23-33.62-9.59-33.62-9.59L1042.44,1332.04z"/>
			<path class="st22" d="M886.49,1136.15c0,0,4.83,164.68,41,183.4c17.85,9.23,98.43,34.62,122.61,38.95c0,0,6.51-4.18,7.24-24.05
				c0,0-82.8-41.26-93.15-59.85c-15.4-27.67,22.95-103.52,2.72-130.15C946.69,1117.82,909.27,1103.19,886.49,1136.15z"/>
		</g>
	</g>
	<g>
		<path class="st15" d="M3135.23,1262.96l6.06,9.81c3.15,3.61,3.99,5.63,6.48,6.86c6.02,2.96,17.13,10.56,17.97,26.52
			c0,0-0.19,9.03-6.25,6.11c-6.06-2.93-3.41-2.66-12.02-6.6c-8.61-3.94-11.8-16.49-12.55-20.76l-7.02-9.22L3135.23,1262.96z"/>
		<g>
			<path class="st15" d="M2957.18,1786.31c-0.33,3.54-2.29,5.81-5.4,7.17c-0.01,0.01-0.03,0.02-0.05,0.01
				c-5.75,2.52-15.4,1.95-25.82,0.54c-1.33-0.18-2.54-0.32-3.61-0.42c-0.28-0.03-0.57-0.05-0.84-0.07
				c-0.22-0.02-0.44-0.03-0.65-0.05c-10.38-0.68-9.57,2.51-29.4,2.42c-22.61-0.12-30.25-7.73-31.29-10.98
				c-0.87-2.75,9.03-4.89,20.1-7.35c0.53-0.12,1.07-0.24,1.61-0.36c1.47-0.33,2.96-0.67,4.43-1c13.19-3.1,26.26-7,30.58-19.68
				c4.58-13.44,3.5-53.34,3.5-53.34h40.04c0,0-10.51,44.07-9.41,56.77c0.6,6.78,3.84,8.71,5.09,14.59c0.09,0.41,0.17,0.82,0.25,1.24
				C2956.91,1779.24,2957.51,1782.76,2957.18,1786.31z"/>
			<g>
				<path class="st24" d="M3003.77,1355.13c-3.38,18.97-8.2,38.57-12.39,58.96c-6.73,32.79-11.8,67.61-6.61,105.11
					c0.67,4.83,1.03,10.15,1.11,15.88c1.01,66.28-28.61,186.4-28.61,186.4s-8.04,3.47-21.52,2.8c-6.94-0.34-17.59-4.82-17.59-4.82
					s-2.8-74.47-2.97-174.63c-0.12-72.6-14.38-168.19-17.26-224.36c-1.74-33.99,2.04-79.28,2.04-79.28s59.04-47.47,80.24-23.18
					C3001.16,1242.01,3016.41,1284.16,3003.77,1355.13z"/>
			</g>
			<path class="st25" d="M2984.77,1519.2c0.67,4.83,1.03,10.15,1.11,15.88c-44.21-64.06-53.99-203.74-53.99-203.74l48.56,23.57
				c0,0,5.32,26.19,10.93,59.18C2984.65,1446.87,2979.58,1481.7,2984.77,1519.2z"/>
			<path class="st15" d="M3084.9,1786.31c-0.33,3.54-2.29,5.81-5.4,7.17c-0.01,0.01-0.03,0.02-0.05,0.01
				c-5.75,2.52-15.4,1.95-25.82,0.54c-1.33-0.18-2.54-0.32-3.61-0.42c-0.28-0.03-0.57-0.05-0.84-0.07
				c-0.22-0.02-0.44-0.03-0.65-0.05c-10.38-0.68-9.57,2.51-29.4,2.42c-22.61-0.12-30.25-7.73-31.29-10.98
				c-0.87-2.75,9.03-4.89,20.1-7.35c0.53-0.12,1.07-0.24,1.61-0.36c1.47-0.33,2.96-0.67,4.43-1c13.19-3.1,26.26-7,30.58-19.68
				c4.58-13.44-1.96-52.72-1.96-52.72l37.09-3.1c0,0-2.3,44.76-1.2,57.46c0.6,6.78,4.04,10.51,5.29,16.39
				c0.09,0.41,0.17,0.82,0.25,1.24C3084.64,1779.24,3085.24,1782.76,3084.9,1786.31z"/>
			<path class="st24" d="M3079.68,1724.87c0,0-9.54,4.51-16.4,5.89c-6.86,1.37-21.13-1.31-21.13-1.31
				c-2.57-28.84-8.55-73.94-20.16-124.83c-13.23-57.94-32.91-126.41-60.35-191.25c-5.86-13.85-30.03-79.39-34.13-95.93
				c-12.4-49.98,0.05-44.59,0.05-44.59l108.4-12.72c0,0,13.35,6.86,19.5,77.44c1.84,21.13,2.07,112.39,4.84,129.69
				c2.63,16.38,5.7,30,9.31,38.86C3089.74,1555.53,3079.68,1724.87,3079.68,1724.87z"/>
			<path class="st26" d="M3084.9,1786.31c-0.33,3.54-2.29,5.81-5.4,7.17c-0.01,0.01-0.03,0.02-0.05,0.01
				c-6.08,2.17-15.58,1.7-25.8,0.48c-1.34-0.16-2.54-0.28-3.63-0.36c-0.28-0.03-0.57-0.05-0.84-0.07c-0.22-0.02-0.44-0.03-0.65-0.05
				c-10.38-0.68-9.57,2.51-29.4,2.42c-22.61-0.12-30.25-7.73-31.29-10.98c-0.87-2.75,9.03-4.89,20.1-7.35
				c2.91,1.44,16.84,7.74,34.16,6.06c15.22-1.46,30.77-7.56,41.69-9.08c0.09,0.41,0.17,0.82,0.25,1.24
				C3084.64,1779.24,3085.24,1782.76,3084.9,1786.31z"/>
			<path class="st26" d="M2957.18,1786.31c-0.33,3.54-2.29,5.81-5.4,7.17c-0.01,0.01-0.03,0.02-0.05,0.01
				c-6.08,2.17-15.58,1.7-25.8,0.48c-1.34-0.16-2.54-0.28-3.63-0.36c-0.28-0.03-0.57-0.05-0.84-0.07c-0.22-0.02-0.44-0.03-0.65-0.05
				c-10.38-0.68-9.57,2.51-29.4,2.42c-22.61-0.12-30.25-7.73-31.29-10.98c-0.87-2.75,9.03-4.89,20.1-7.35
				c2.91,1.44,16.84,7.74,34.16,6.06c15.22-1.46,30.77-7.56,41.69-9.08c0.09,0.41,0.17,0.82,0.25,1.24
				C2956.91,1779.24,2957.51,1782.76,2957.18,1786.31z"/>
			<path class="st17" d="M2913.82,935.55c-3.66-29.9,5.68-77.75,65.36-70.1c59.68,7.65,78.49,66.3,66.45,92.38
				c-12.04,26.08,17.33,32.37,26.54,60.41c7.92,24.09,10.68,54,23.49,67.43c41.31,43.28-39.66,109.84-88.48,95.8
				c-88.92-25.56-100.37-29.38-97.22-99.25c1.62-35.8,29.47-49.67,11.78-60.02C2879.03,997.18,2922.1,1003.21,2913.82,935.55z"/>
			<path class="st15" d="M3001.54,1013.82l-16.44,42.49l-35.48,1.73l-17.7-26.44c11.17-8.5,15.89-21.24,17.62-32.65
				c1.42-9.13,1.02-17.39,0.63-21.87c-0.24-2.28-0.47-3.62-0.47-3.62l44.22-13.45l0.16-0.08c0.55,11.72,1.18,20.93,1.89,28.09
				C2998.47,1013.26,3001.54,1013.82,3001.54,1013.82z"/>
			<path class="st15" d="M2931.76,1012.32c2.28,0,41.04-7.89,106.49,8.86c0,0-35.85,164.23-23.67,195.18
				c12.18,30.95,16.8,58.43,16.8,58.43l-132.1,1.64c0,0,1.85-106.24-4.24-143.85S2931.76,1012.32,2931.76,1012.32z"/>
			<path class="st27" d="M3100.33,1184.18c-6.62-45.65-31.14-139.4-47.62-154.73c-14.57-13.56-45.99-14.8-45.99-14.8v0l0,0
				c-6.53,10.22-28.87,35.63-56.59,31.05c-14.96-2.47-18-29.37-18.34-32.97l0.1-0.41c0,0-0.05,0.01-0.13,0.02c0,0,0-0.02,0-0.02
				c-0.11,0.02-0.21,0.04-0.32,0.07c-4.37,0.65-39.13,6.3-49.44,24.06c-15.23,26.21-31.82,104.86-48.11,103.7
				c-7.48-0.54-82.75-28.83-82.75-28.83s-12.54,11.75-10.14,26.16c0,0,37.17,24.89,68.6,40.77c4.36,2.2,8.6,4.23,12.62,5.99
				c11.33,4.97,20.88,7.86,26.09,6.62c1.5-0.35,3.08-1.03,4.73-1.99c6.82-3.94,14.77-12.59,22.41-22.45
				c5.07-6.56,9.99-13.65,14.34-20.24c0.09-0.14,0.18-0.28,0.27-0.42c1.86,25.01,3.73,52.22,1.8,73.54
				c-1.47,16.22-2.55,51.36,0.24,60.44c5.8,18.92,48.45,23.92,88.25,21.95c18.76-0.93,32.02-2,41.67-4.23
				c14-3.21,20.39-8.84,25-19.95c4.39-10.58-15.92-60.26-17.85-82c-1.76-19.71,1.26-35.75,6.23-51.51
				c14.05,32.45,28.35,55.67,30.22,60.69c3.94,10.59,63.93,77.54,63.93,77.54s4.85-1,8.7-3.51c3.97-2.59,5.95-6.03,5.95-6.03
				C3133.59,1247.55,3100.33,1184.18,3100.33,1184.18z"/>
			<path class="st12" d="M3047,1277.5c-4.6,11.11-11,16.74-25,19.95c-18.71-3.6-31.05-38.02-37.4-54.97
				c-7.32-19.52,30.82-119.91,41.35-118.99c7.83,0.68,9.18,13.96,9.44,20.5c-5.06,15.92-8.01,31.6-6.23,51.51
				C3031.08,1217.25,3051.39,1266.92,3047,1277.5z"/>
			<path class="st15" d="M2751.66,1119.21c0,0-6.42-15.74-13.49-16.38c-7.07-0.64-29.55-4.17-31.15-0.96
				c-1.61,3.21,0,14.77,4.82,18.95c4.82,4.17,34.69,10.92,34.69,10.92L2751.66,1119.21z"/>
			<path class="st12" d="M2889.78,1146.18c-4.35,6.6-9.27,13.69-14.34,20.24c-7.27,8.95-15.3,17.61-22.41,22.45
				c-1.65,0.96-3.24,1.63-4.73,1.99c-5.21,1.23-14.76-1.65-26.09-6.62c6.74,0.5,13.37,0.26,19.88-0.3
				c11.4-0.97,14.72-13.32,32.74-31.83C2885.6,1141.04,2888.88,1142.75,2889.78,1146.18z"/>
			<path class="st23" d="M2993.91,960c-6.69,10.94-22.82,33.44-44.37,38.94c1.42-9.13,1.02-17.39,0.63-21.87
				c-0.24-2.28-0.47-3.62-0.47-3.62L2993.91,960z"/>
			<path class="st15" d="M2938.08,976.46c0,0,53.16,10.68,59.3-22.53s17.13-54.19-16.55-62.41c-33.68-8.22-42.63,3.23-47.38,13.81
				C2928.71,915.92,2924.41,972.83,2938.08,976.46z"/>
			<path class="st17" d="M2964.06,883.23c0,0-0.93,11.26,16.55,30.37c17.48,19.11,14.08,57.76,14.08,57.76s28.7-59.96,12.98-77.64
				C2991.95,876.04,2964.06,883.23,2964.06,883.23z"/>
			<path class="st17" d="M2985.43,868.57c0,0-26.43-8.84-52.65,17c-11.3,11.13-9.59,33.02-3.54,45.72c0,0,9.29-27.21,26.21-33.15
				C2972.36,892.21,2985.43,868.57,2985.43,868.57z"/>
			<path class="st0" d="M2954.64,960.12c0,0-1.42,3.94-11.43,2.15c0,0-8.4-1.5-7.63-5.92
				C2935.58,956.35,2944.16,954.13,2954.64,960.12z"/>
		</g>
	</g>
	<g>
		<g>
			<path class="st8" d="M2133.09,972.83c14.42,81.76-33.31,148.03-106.59,148.03c-4.77,0-9.66-3.3-14.4-3.85
				c65.26-7.86,106.23-67.75,92.75-144.18c-13.48-76.43-76.49-139.32-144.52-147.18c4.54-0.56,9.2-0.84,13.97-0.84
				C2047.58,824.81,2118.68,891.08,2133.09,972.83z"/>
			<path class="st8" d="M2191.69,1015.55c20.86,0,34.38-19.29,30.19-43.08c-4.19-23.79-24.51-43.08-45.38-43.08
				c-1.05,0-2.06,0.09-3.07,0.18c-3.15-8.79-6.75-17.37-10.74-25.71c10.52-7.29,16.03-21.53,13.14-37.91
				c-4.07-23.09-23.32-41.93-43.51-43.03l-24.57,0.3c-1.24,0-2.45,0.07-3.62,0.2c-2.49-2.34-4.99-4.62-7.55-6.85
				c3.38-7.16,4.61-15.99,2.92-25.57c-4.19-23.79-24.52-43.08-45.38-43.08c-0.16,0-0.33,0-0.49,0.01l0-0.01l-20.48,0.4
				c-0.58-0.03-1.17-0.05-1.75-0.05c-1.04,0-2.04,0.05-3.04,0.14l-0.02,0.01c-5.77,0.54-10.88,2.61-15.11,5.85
				c-4.22,3.25-7.55,7.68-9.74,12.94c-0.5-0.11-0.98-0.24-1.48-0.36c-0.12-1.44-0.32-2.91-0.58-4.39
				c-4.19-23.79-24.5-43.08-45.37-43.08l-22.41,0.37c-0.1,0-0.2-0.01-0.3-0.01c-0.36,0-0.71,0.02-1.05,0.03l-0.42,0.01h-0.01
				c-1.63,0.07-3.22,0.26-4.75,0.58c0,0-0.01,0-0.02,0.01c-0.99,0.35-33.94,12.31-22.67,53.82l-2.31,1.01c0,0-6.54-13.23-18.25-20.4
				c-14.5-8.88-23.95-6.79-25.21-6.62l-19.55,0.09l0,0.03c-20.37,0.52-33.46,19.58-29.33,43.05c1.96,11.1,7.44,21.18,14.83,28.81
				c-0.68,0.91-1.35,1.84-2.02,2.77l-6.8,0.07c-1-0.09-2.02-0.14-3.02-0.14c-1.27,0-2.52,0.07-3.73,0.21l-17.28,0.18
				c-0.1,0-0.21-0.01-0.3-0.02c-0.47-0.01-0.94-0.02-1.4-0.02c-0.82,0-1.62,0.03-2.41,0.09h-0.05c-0.67,0.05-1.34,0.11-2,0.2
				c-18.29,2.54-29.62,20.72-25.73,42.78c3.25,18.45,16.24,34.16,31.63,40.29c-0.86,7.5-1.32,15.2-1.37,23.06l-7.56,0.12
				c-0.33-0.01-0.66-0.03-0.98-0.03c-0.79,0-1.56,0.04-2.32,0.09l-1.44,0.02c0,0,0.02,0.04,0.03,0.1
				c-18.71,2.15-30.39,20.52-26.45,42.86c4.19,23.79,24.51,43.08,45.38,43.08l8.48-0.13c1.99,5.55,4.16,11.03,6.5,16.41
				c-14.61,5.33-23.05,21.77-19.62,41.25c4.03,22.88,22.97,41.57,42.97,42.98l0,0.01h0.05c0.78,0.05,1.56,0.09,2.34,0.09
				c1.04,0,2.05-0.06,3.05-0.15l19.18-0.2l-0.01-0.02c0.16,0.01,0.33,0.02,0.5,0.02c2.64,0,5.16-0.32,7.54-0.9
				c3.1,3.14,6.27,6.21,9.5,9.18c-4.15,7.47-5.76,17.08-3.91,27.57c4.2,23.8,24.52,43.08,45.38,43.08l22.22-0.35l-0.01-0.02
				c0.16,0.01,0.33,0.02,0.5,0.02c12.72,0,22.68-7.19,27.58-18.19c2.52,0.68,5.05,1.32,7.59,1.9c0.13,1.43,0.32,2.9,0.58,4.38
				c4.19,23.79,24.52,43.08,45.38,43.08l22.69-0.36c0.01,0,0.01,0,0.02,0h0.07l1.45-0.02c0,0,0-0.01,0-0.02
				c19.99-0.91,32.75-19.83,28.66-43.04c-0.26-1.47-0.58-2.94-0.96-4.38c0.73-0.18,1.45-0.39,2.17-0.58
				c8.75,10.64,21,17.57,33.48,17.57l21.86-0.39c0.29,0.01,0.57,0.04,0.85,0.04c20.86,0,34.38-19.29,30.19-43.08
				c-1.58-8.97-5.47-17.31-10.8-24.21c2.83-3.62,5.49-7.39,8.01-11.29h25.64l0-0.01c0.16,0,0.33,0.01,0.49,0.01
				c20.86,0,34.38-19.29,30.19-43.08c-3.06-17.38-14.74-32.32-28.95-39.12c0.56-6.09,0.86-12.28,0.9-18.58
				C2189.6,1015.47,2190.64,1015.55,2191.69,1015.55z M2025.58,1117.73c-73.49,0-144.63-65.59-158.89-146.5
				c-14.27-80.91,33.74-146.51,107.23-146.51c73.49,0,144.63,65.6,158.89,146.51C2147.08,1052.15,2099.07,1117.73,2025.58,1117.73z"
				/>
			<path class="st10" d="M2191.2,1015.56c20.86,0,34.38-19.29,30.18-43.08c-4.19-23.79-24.51-43.08-45.37-43.08
				c-1.05,0-2.06,0.08-3.07,0.18c-3.15-8.79-6.75-17.37-10.75-25.71c10.53-7.28,16.04-21.53,13.15-37.91
				c-4.19-23.79-24.51-43.08-45.37-43.08c-7.71,0-14.4,2.65-19.58,7.17c-4.62-4.69-9.39-9.18-14.3-13.46
				c3.38-7.16,4.61-15.98,2.92-25.57c-4.2-23.79-24.51-43.08-45.37-43.08c-15.33,0-26.67,10.44-29.95,25.41
				c-7.29-2.61-14.69-4.78-22.15-6.48c-0.13-1.44-0.32-2.9-0.58-4.38c-4.2-23.79-24.51-43.08-45.37-43.08
				c-20.86,0-34.38,19.29-30.18,43.08c0.26,1.48,0.59,2.94,0.97,4.38c-8.45,2.08-16.54,4.88-24.24,8.35
				c-8.34-15.97-23.96-27.28-39.93-27.28c-20.86,0-34.38,19.29-30.18,43.08c1.96,11.09,7.44,21.17,14.83,28.81
				c-3.11,4.13-6.02,8.45-8.74,12.94c-7.63-6.17-16.67-9.89-25.82-9.89c-20.86,0-34.38,19.29-30.18,43.08
				c3.26,18.46,16.23,34.17,31.63,40.3c-0.91,7.88-1.38,15.97-1.4,24.24c-2.81-0.69-5.66-1.09-8.52-1.09
				c-20.86,0-34.37,19.29-30.18,43.08c4.19,23.79,24.51,43.08,45.37,43.08c2.87,0,5.58-0.4,8.14-1.09
				c2.08,5.88,4.38,11.67,6.85,17.37c-14.61,5.33-23.05,21.77-19.62,41.24c4.19,23.79,24.51,43.08,45.37,43.08
				c9.09,0,16.78-3.67,22.22-9.76c5.6,6.2,11.46,12.11,17.54,17.68c-4.15,7.47-5.75,17.08-3.9,27.58
				c4.2,23.79,24.51,43.08,45.37,43.08c15.3,0,26.62-10.39,29.92-25.31c9.17,3.61,18.52,6.52,27.97,8.67
				c0.13,1.44,0.32,2.9,0.58,4.38c4.19,23.79,24.51,43.08,45.37,43.08c20.86,0,34.38-19.29,30.18-43.08
				c-0.26-1.48-0.58-2.94-0.97-4.38c7.14-1.76,14.03-4.04,20.64-6.79c8.72,13.91,23.07,23.44,37.73,23.44
				c20.86,0,34.38-19.29,30.18-43.08c-1.58-8.98-5.46-17.31-10.8-24.21c4.48-5.73,8.59-11.84,12.31-18.29c6.71,4.41,14.23,7,21.83,7
				c20.86,0,34.38-19.29,30.18-43.08c-3.07-17.38-14.75-32.32-28.95-39.13c0.56-6.08,0.86-12.27,0.9-18.57
				C2189.11,1015.47,2190.15,1015.56,2191.2,1015.56z M2025.58,1117.74c-73.49,0-144.63-65.59-158.89-146.5
				c-14.27-80.91,33.74-146.5,107.23-146.5s144.63,65.59,158.89,146.5C2147.08,1052.14,2099.07,1117.74,2025.58,1117.74z"/>
		</g>
		<g>
			<path class="st4" d="M2380.13,978.7c11.02,62.5-25.47,113.17-81.49,113.17c-3.65,0-7.38-2.52-11.01-2.95
				c49.89-6.01,81.21-51.79,70.91-110.22c-10.3-58.43-58.48-106.51-110.49-112.52c3.48-0.43,7.03-0.64,10.68-0.64
				C2314.75,865.54,2369.11,916.21,2380.13,978.7z"/>
			<path class="st4" d="M2424.92,1011.37c15.95,0,26.29-14.75,23.08-32.93c-3.21-18.19-18.74-32.93-34.69-32.93
				c-0.8,0-1.57,0.07-2.34,0.14c-2.41-6.72-5.16-13.28-8.21-19.65c8.04-5.57,12.25-16.46,10.05-28.99
				c-3.11-17.65-17.83-32.05-33.26-32.89l-18.78,0.23c-0.95,0-1.87,0.05-2.77,0.16c-1.9-1.79-3.82-3.53-5.77-5.24
				c2.58-5.48,3.52-12.22,2.23-19.55c-3.21-18.19-18.74-32.93-34.69-32.93c-0.12,0-0.25,0-0.37,0.01l0-0.01l-15.66,0.3
				c-0.45-0.02-0.89-0.04-1.33-0.04c-0.79,0-1.56,0.04-2.33,0.11l-0.01,0.01c-4.41,0.41-8.32,2-11.55,4.48
				c-3.23,2.49-5.77,5.87-7.45,9.89c-0.38-0.09-0.75-0.19-1.13-0.27c-0.09-1.1-0.24-2.22-0.44-3.36
				c-3.21-18.19-18.73-32.93-34.68-32.93l-17.14,0.28c-0.08,0-0.15-0.01-0.23-0.01c-0.27,0-0.54,0.02-0.8,0.02l-0.33,0.01h-0.01
				c-1.25,0.05-2.46,0.2-3.63,0.44c0,0-0.01,0-0.01,0.01c-0.75,0.26-25.94,9.41-17.33,41.14l-1.76,0.77c0,0-5-10.11-13.96-15.6
				c-11.08-6.79-18.31-5.19-19.28-5.06l-14.94,0.07l0,0.02c-15.58,0.4-25.58,14.97-22.42,32.91c1.5,8.48,5.69,16.19,11.33,22.02
				c-0.52,0.7-1.03,1.41-1.54,2.12l-5.2,0.05c-0.77-0.07-1.54-0.11-2.31-0.11c-0.97,0-1.92,0.05-2.85,0.16l-13.21,0.14
				c-0.08,0-0.16-0.01-0.23-0.02c-0.36-0.01-0.72-0.02-1.07-0.02c-0.63,0-1.24,0.02-1.84,0.07h-0.04c-0.51,0.04-1.03,0.09-1.53,0.16
				c-13.98,1.94-22.64,15.84-19.67,32.71c2.49,14.11,12.41,26.12,24.18,30.8c-0.66,5.73-1.01,11.62-1.05,17.63l-5.78,0.09
				c-0.25-0.01-0.5-0.02-0.75-0.02c-0.61,0-1.19,0.03-1.77,0.07l-1.1,0.02c0,0,0.01,0.03,0.02,0.08
				c-14.31,1.65-23.24,15.69-20.22,32.77c3.21,18.19,18.74,32.93,34.69,32.93l6.48-0.1c1.52,4.24,3.18,8.43,4.97,12.55
				c-11.17,4.08-17.62,16.64-15,31.53c3.08,17.49,17.56,31.78,32.85,32.85l0,0.01h0.04c0.6,0.04,1.19,0.07,1.79,0.07
				c0.79,0,1.57-0.05,2.33-0.12l14.66-0.16l-0.01-0.02c0.13,0.01,0.25,0.02,0.38,0.02c2.02,0,3.94-0.24,5.77-0.69
				c2.37,2.4,4.79,4.75,7.27,7.02c-3.17,5.71-4.4,13.06-2.99,21.08c3.21,18.2,18.74,32.93,34.69,32.93l16.99-0.26l-0.01-0.02
				c0.13,0.01,0.25,0.02,0.38,0.02c9.73,0,17.34-5.5,21.09-13.91c1.92,0.52,3.86,1.01,5.8,1.45c0.1,1.1,0.24,2.21,0.44,3.35
				c3.21,18.19,18.74,32.93,34.69,32.93l17.35-0.27c0.01,0,0.01,0,0.02,0h0.05l1.11-0.02c0,0,0-0.01,0-0.02
				c15.28-0.7,25.04-15.16,21.91-32.9c-0.2-1.13-0.44-2.25-0.74-3.35c0.56-0.14,1.11-0.3,1.66-0.44
				c6.69,8.13,16.06,13.43,25.6,13.43l16.71-0.29c0.22,0.01,0.43,0.03,0.65,0.03c15.95,0,26.28-14.75,23.08-32.93
				c-1.21-6.86-4.18-13.23-8.26-18.51c2.16-2.77,4.19-5.65,6.12-8.63h19.6l0-0.01c0.12,0,0.25,0.01,0.37,0.01
				c15.95,0,26.29-14.75,23.08-32.93c-2.34-13.28-11.27-24.71-22.13-29.91c0.43-4.65,0.66-9.38,0.69-14.2
				C2423.33,1011.3,2424.13,1011.37,2424.92,1011.37z M2297.93,1089.48c-56.18,0-110.57-50.14-121.47-112
				c-10.91-61.86,25.79-112,81.98-112s110.57,50.15,121.47,112C2390.82,1039.34,2354.12,1089.48,2297.93,1089.48z"/>
			<path class="st6" d="M2424.55,1011.37c15.95,0,26.28-14.74,23.07-32.93c-3.21-18.19-18.74-32.93-34.69-32.93
				c-0.8,0-1.58,0.06-2.35,0.14c-2.41-6.72-5.16-13.28-8.21-19.66c8.05-5.57,12.26-16.46,10.05-28.98
				c-3.21-18.19-18.74-32.93-34.69-32.93c-5.89,0-11.01,2.02-14.97,5.48c-3.54-3.58-7.18-7.02-10.93-10.29
				c2.59-5.47,3.52-12.22,2.23-19.55c-3.21-18.19-18.74-32.93-34.69-32.93c-11.72,0-20.39,7.98-22.89,19.42
				c-5.58-2-11.23-3.66-16.93-4.95c-0.1-1.1-0.24-2.22-0.44-3.35c-3.21-18.19-18.74-32.93-34.69-32.93
				c-15.95,0-26.28,14.74-23.07,32.93c0.2,1.13,0.45,2.25,0.74,3.35c-6.46,1.59-12.65,3.73-18.53,6.38
				c-6.38-12.21-18.32-20.86-30.53-20.86c-15.95,0-26.28,14.74-23.07,32.93c1.5,8.48,5.69,16.19,11.33,22.02
				c-2.37,3.16-4.6,6.46-6.68,9.89c-5.83-4.72-12.74-7.56-19.74-7.56c-15.95,0-26.28,14.74-23.07,32.93
				c2.49,14.12,12.41,26.12,24.18,30.81c-0.69,6.03-1.06,12.21-1.07,18.53c-2.14-0.53-4.32-0.83-6.52-0.83
				c-15.95,0-26.28,14.74-23.07,32.93c3.21,18.19,18.74,32.93,34.69,32.93c2.19,0,4.26-0.3,6.22-0.83c1.59,4.5,3.35,8.92,5.24,13.28
				c-11.17,4.08-17.62,16.64-15,31.53c3.21,18.19,18.74,32.93,34.69,32.93c6.95,0,12.83-2.8,16.99-7.46
				c4.28,4.74,8.76,9.26,13.41,13.52c-3.17,5.71-4.4,13.06-2.98,21.08c3.21,18.19,18.74,32.93,34.69,32.93
				c11.7,0,20.35-7.95,22.88-19.35c7.01,2.76,14.16,4.98,21.38,6.63c0.1,1.1,0.24,2.22,0.44,3.35
				c3.21,18.19,18.74,32.93,34.69,32.93c15.95,0,26.28-14.74,23.07-32.93c-0.2-1.13-0.45-2.25-0.74-3.35
				c5.46-1.35,10.73-3.09,15.78-5.19c6.66,10.63,17.64,17.92,28.84,17.92c15.95,0,26.28-14.74,23.07-32.93
				c-1.21-6.86-4.18-13.23-8.26-18.51c3.43-4.38,6.57-9.05,9.41-13.98c5.13,3.37,10.88,5.35,16.69,5.35
				c15.95,0,26.28-14.74,23.07-32.93c-2.34-13.29-11.27-24.71-22.13-29.91c0.43-4.65,0.66-9.38,0.69-14.2
				C2422.96,1011.31,2423.75,1011.37,2424.55,1011.37z M2297.94,1089.48c-56.18,0-110.57-50.14-121.47-112
				c-10.91-61.86,25.79-112,81.98-112c56.18,0,110.57,50.14,121.47,112C2390.82,1039.34,2354.12,1089.48,2297.94,1089.48z"/>
		</g>
	</g>
	<g>
		<polygon class="st10" points="1343.13,1026.69 1412.36,1285.05 1473.85,1285.05 1404.62,1026.69 		"/>
		<polygon class="st10" points="1425.47,1000.31 1501.77,1285.05 1563.26,1285.05 1486.96,1000.31 		"/>
		<polygon class="st10" points="1501.77,954.88 1590.24,1285.05 1651.73,1285.05 1563.26,954.88 		"/>
		<polygon class="st10" points="1647.42,921.41 1585.93,921.41 1674.41,1251.59 1735.9,1251.59 		"/>
		<path class="st10" d="M1352.23,1001.44l65.89-50.65l4.98,18.59c0.82,3.07,3.32,5.88,6.43,7.23c3.11,1.38,6.33,1.06,8.26-0.8
			l70.39-67.27l9.85,8.85c1.19,1.07,2.8,0.58,2.65-0.8l-3.17-28.17c-0.11-0.97-1.08-1.85-2.07-1.88l-29.23-0.93
			c-1.43-0.05-1.78,1.61-0.58,2.68l8.79,7.9l-59.54,56.9l-4.56-17.02c-0.79-2.95-3.13-5.66-6.09-7.08c-2.95-1.41-6.09-1.3-8.15,0.27
			l-76.19,58.56c-3.12,2.4-2.89,7.39,0.51,11.15c2.19,2.42,5.16,3.74,7.83,3.74C1349.72,1002.7,1351.12,1002.29,1352.23,1001.44z"/>
	</g>
	<path class="st28" d="M1333.13,1214.39l2.6,10.06C1334.27,1221.53,1333.46,1218.12,1333.13,1214.39z"/>
	<path class="st28" d="M2640.5,1334.29H1364.44l-28.72-109.84c26.45,56.79,241.42-5.35,289.61-39.91
		c88.1-63.6,88.75-126.23,179.93-168.73c123.47-57.6,246.94,32.61,346.23,7.95c304.53-75.44,556.99-322.22,564.77-330
		c-85.5,197.94-293.82,302.1-133.69,367C2748.71,1128.08,2640.5,1334.29,2640.5,1334.29z"/>
	<g>
		<path class="st10" d="M1360.35,775.65c-3.69-2.25-11.17-5.33-22.45-9.24c-5.31-1.83-9.06-3.33-11.25-4.49
			c-2.79-1.5-4.62-3.66-5.48-6.49c-1.04-3.41-0.66-6.05,1.14-7.93c1.8-1.87,4.41-2.81,7.83-2.81c2.33,0,5.54,0.73,9.61,2.19
			c4.07,1.46,6.86,2.19,8.36,2.19c2.08,0,3.63-0.6,4.64-1.8c1.01-1.2,1.2-2.84,0.56-4.91c-0.76-2.48-2.68-4.68-5.76-6.58
			c-5.56-3.48-12.56-5.22-20.97-5.22c-8.17,0-14.38,2.16-18.65,6.49c-4.66,4.66-5.78,10.94-3.36,18.85
			c2.6,8.49,8.18,14.9,16.75,19.23c7.59,2.75,15.18,5.49,22.77,8.24c8.17,3,13.07,7.16,14.69,12.48c1.12,3.66,0.72,6.8-1.18,9.42
			c-1.91,2.62-4.7,3.93-8.36,3.93c-3.42,0-6.86-0.5-10.34-1.5c-0.19-0.08-2.52-0.88-6.98-2.38c-3.28-1.17-5.37-1.75-6.29-1.75
			c-2.17,0-3.77,0.63-4.8,1.88c-1.04,1.25-1.22,2.96-0.56,5.13c1.35,4.42,6.02,7.84,14.01,10.25c5.89,1.83,11.63,2.75,17.22,2.75
			c9.25,0,16.12-2.5,20.59-7.49c4.79-5.33,5.8-12.52,3.03-21.6C1372.65,786.43,1367.73,780.15,1360.35,775.65z"/>
		<path class="st10" d="M1399.91,745.94h12.82c6.62,0,9.19-2.42,7.72-7.25c-1.5-4.92-5.63-7.38-12.38-7.38h-41.01
			c-6.75,0-9.38,2.46-7.87,7.38c1.48,4.83,5.55,7.25,12.22,7.25h12.63l20.6,67.39c2.09,6.84,5.74,10.25,10.95,10.25
			c5.37,0,7.02-3.42,4.93-10.25L1399.91,745.94z"/>
		<path class="st10" d="M1510.83,811.84l-48.35-72.27c-4.16-6.25-9.04-9.38-14.62-9.38c-5.42,0-8.35,3.38-8.78,10.13l-4.73,71.64
			c-0.09,1.33,0.12,2.83,0.63,4.5c0.66,2.17,1.92,3.9,3.78,5.19c1.86,1.29,3.87,1.94,6.04,1.94c3.51,0,5.38-2.2,5.62-6.61
			l0.59-15.02h36.84l9.5,14.6c3.01,4.69,6.42,7.03,10.23,7.03c2.15,0,3.8-0.65,4.94-1.94c1.14-1.29,1.39-2.98,0.75-5.06
			C1512.87,815.25,1512.05,813.67,1510.83,811.84z M1451.54,787.95l1.47-38.5c0.06-0.58,0.13-1,0.21-1.25l25.67,39.75H1451.54z"/>
		<path class="st10" d="M1576.56,808.46l-30.44-25.13c16.06-1.17,21.74-9.46,17.02-24.88c-2.73-8.92-7.86-15.75-15.4-20.51
			c-6.94-4.42-14.95-6.63-24.03-6.63h-17.88c-6.59,0-8.82,3.47-6.7,10.4l21.96,71.84c2.1,6.85,5.75,10.28,10.96,10.28
			c5.37,0,7.02-3.4,4.95-10.19l-9.15-29.94l0.82,0.63l39.55,34.63c3.75,3.25,6.96,4.88,9.64,4.88c2.09,0,3.65-0.65,4.67-1.94
			c1.03-1.29,1.22-2.98,0.58-5.06C1582.31,814.17,1580.12,811.38,1576.56,808.46z M1535.11,773.33c-4.86,0-8.41-0.25-10.66-0.75
			l-8.22-26.88h11.68c9.88,0,16.19,4.48,18.93,13.44C1549.74,768.6,1545.83,773.33,1535.11,773.33z"/>
		<path class="st10" d="M1601.46,745.94h12.82c6.62,0,9.19-2.42,7.71-7.25c-1.5-4.92-5.63-7.38-12.38-7.38h-41.01
			c-6.75,0-9.38,2.46-7.87,7.38c1.48,4.83,5.55,7.25,12.22,7.25h12.63l20.6,67.39c2.09,6.84,5.74,10.25,10.95,10.25
			c5.37,0,7.02-3.42,4.93-10.25L1601.46,745.94z"/>
		<path class="st10" d="M1698.19,812.68c-0.72-2.36-2.2-4.4-4.44-6.12c-2.24-1.71-4.54-2.57-6.9-2.57c-2.37,0-4.14,0.86-5.33,2.57
			c-1.19,1.71-1.42,3.75-0.7,6.12c0.72,2.37,2.2,4.4,4.44,6.12c2.24,1.71,4.54,2.57,6.9,2.57c2.36,0,4.14-0.86,5.33-2.57
			C1698.68,817.09,1698.92,815.05,1698.19,812.68z"/>
		<path class="st10" d="M1688.45,784.43l-13.95-45.62c-2.02-6.6-5.6-9.91-10.73-9.91c-5.06,0-6.57,3.3-4.55,9.91l13.95,45.62
			c2.09,6.85,5.71,10.27,10.85,10.27C1689.07,794.7,1690.55,791.28,1688.45,784.43z"/>
	</g>
	<path class="st10" d="M2459.11,1334.29h-619.45c26.45-21.74,62.63-59.38,81.77-113.41c32.45-91.18,143.26-53.54,241.1-69.28
		c98-15.74,295.66-215.24,302.42-192.26c3.62,12.31-40.56,174.41,24.34,192.75C2553.37,1170.1,2577.87,1271.34,2459.11,1334.29z"/>
	<path class="st29" d="M3336.65,1799.37H264.49c-1.51,0-2.74-1.23-2.74-2.74l0,0c0-1.51,1.23-2.74,2.74-2.74h3072.15
		c1.51,0,2.74,1.23,2.74,2.74l0,0C3339.39,1798.14,3338.16,1799.37,3336.65,1799.37z"/>
</g>
</svg>
