<?xml version="1.0" encoding="utf-8"?>
<!-- Generator: Adobe Illustrator 23.0.3, SVG Export Plug-In . SVG Version: 6.00 Build 0)  -->
<svg version="1.1" id="Слой_1" xmlns="http://www.w3.org/2000/svg" xmlns:xlink="http://www.w3.org/1999/xlink" x="0px" y="0px"
	 viewBox="0 0 2000 2000" style="enable-background:new 0 0 2000 2000;" xml:space="preserve">
<style type="text/css">
	.st0{fill:#FFFFFF;}
	.st1{fill:#C7FFCB;}
	.st2{fill:#A1FFA8;}
	.st3{opacity:0.5;}
	.st4{fill:#DAFFC3;}
	.st5{fill:#82FF8A;}
	.st6{fill:#3CBA43;}
	.st7{fill:#76E580;}
	.st8{fill:#AAFFAF;}
	.st9{fill:#5BCC5D;}
	.st10{fill:#FF5862;}
	.st11{fill:#FF2E57;}
	.st12{fill:#F2BC9C;}
	.st13{fill:#F2A374;}
	.st14{fill:#130E47;}
	.st15{fill:#1B1464;}
	.st16{fill:#298BF5;}
	.st17{fill:#2A2370;}
	.st18{fill:#2071F5;}
	.st19{fill:#A14F2A;}
	.st20{fill:#CB1CE6;}
	.st21{fill:#3FA9F5;}
	.st22{fill:#280C47;}
	.st23{fill:#874223;}
	.st24{fill:#FFA658;}
	.st25{fill:#FFC371;}
	.st26{fill:#F2F2F2;}
	.st27{fill:#E847FF;}
	.st28{fill:#23A62A;}
	.st29{fill:#C9EBEE;}
	.st30{fill:#D2EEDA;}
</style>
<g>
	<rect class="st0" width="2000" height="2000"/>
	<path class="st1" d="M1118.17,1671.22c-119.05-1.14-840.42,148.24-890.55-459.42c-50.13-607.66,214.5-658,371.46-691.71
		c360.33-77.39,670.3-447.8,1027.8-248.57c140.33,78.21,29.69,416.56,149.88,762.61c87.99,253.33-74.08,522.65-182.39,586.74
		S1118.17,1671.22,1118.17,1671.22z"/>
	<g>
		<path class="st2" d="M1411.93,1582.64c50.58-15.59,520.45-314.77,499.95-563.9s-307.73,51.45-307.73,51.45
			s170.9-287.59,123.06-398.23c-47.84-110.64-265.77-34.41-379.97,350.12c-114.2,384.53-108.88,541.11-108.88,541.11
			S1307.87,1614.72,1411.93,1582.64z"/>
		<g>
			<g class="st3">
				<path class="st0" d="M1859.59,956.85c-39.71,48.14-79.61,96.12-119.55,144.06l-59.98,71.86l-60.07,71.78l-60.13,71.73
					l-60.25,71.63l-60.28,71.6l-60.39,71.51l-12.89,15.27l6.27-18.98c23.69-71.65,47.61-143.23,71.48-214.82l35.92-107.35
					l36.03-107.31l36.19-107.26l36.36-107.2c24.33-71.44,48.67-142.88,73.38-214.19c-22.9,71.91-46.18,143.7-69.46,215.49
					l-35.07,107.63l-35.23,107.58l-35.39,107.52l-35.5,107.49c-23.75,71.63-47.44,143.28-71.37,214.86l-6.62-3.71l60.51-71.41
					l60.62-71.32l60.65-71.29l60.77-71.19l60.83-71.14l60.92-71.06C1778,1051.29,1818.71,1003.99,1859.59,956.85z"/>
			</g>
		</g>
		<g>
			<g class="st3">
				<path class="st0" d="M1739.86,979.83c0.12,10.72-0.03,21.42-0.21,32.12c-0.07,5.35-0.26,10.69-0.38,16.04
					c-0.12,5.35-0.29,10.69-0.48,16.04c-0.37,10.69-0.82,21.37-1.33,32.05c-0.51,10.68-1.08,21.35-1.71,32.02l-4.34-4.12l18.62-2.14
					c6.21-0.71,12.42-1.38,18.63-2.03c12.42-1.32,24.86-2.54,37.3-3.67c6.22-0.57,12.45-1.11,18.67-1.63l18.69-1.45
					c12.47-0.87,24.95-1.75,37.47-2.23c-12.3,2.35-24.65,4.32-37,6.29l-18.54,2.81c-6.18,0.9-12.37,1.78-18.56,2.63
					c-12.38,1.7-24.77,3.32-37.17,4.84c-6.2,0.77-12.4,1.52-18.6,2.23l-18.62,2.12l-4.65,0.53l0.31-4.65
					c0.7-10.67,1.47-21.33,2.29-31.99c0.82-10.66,1.71-21.31,2.68-31.96c0.48-5.33,0.98-10.65,1.52-15.97
					c0.54-5.32,1.02-10.65,1.62-15.96C1737.21,1001.09,1738.4,990.45,1739.86,979.83z"/>
			</g>
		</g>
		<g>
			<g class="st3">
				<path class="st0" d="M1624.21,1089.53c-0.32,13.59-0.98,27.15-1.62,40.71c-0.72,13.56-1.47,27.11-2.39,40.65
					c-0.82,13.55-1.89,27.07-2.86,40.61c-1.01,13.53-2.14,27.05-3.29,40.57l-3.99-4.27l20.76-0.34l20.76-0.22l20.77-0.09l10.38-0.05
					l10.38,0.04c6.92,0.04,13.85,0.04,20.77,0.12l20.77,0.28c13.85,0.3,27.7,0.56,41.56,1.2c-13.82,1.13-27.66,1.9-41.49,2.7
					l-20.75,1.02c-6.92,0.33-13.83,0.57-20.75,0.87l-10.38,0.42l-10.38,0.33l-20.76,0.66l-20.76,0.52l-20.76,0.41l-4.37,0.09
					l0.38-4.36c1.19-13.51,2.41-27.03,3.75-40.53c1.38-13.5,2.65-27.01,4.17-40.49c1.43-13.49,3.03-26.97,4.65-40.45
					C1620.5,1116.45,1622.19,1102.97,1624.21,1089.53z"/>
			</g>
		</g>
		<g>
			<g class="st3">
				<path class="st0" d="M1584.45,674.87c3.98,9.42,7.57,18.95,11.16,28.49c3.54,9.55,6.97,19.14,10.29,28.76
					c3.3,9.63,6.56,19.27,9.68,28.95c3.15,9.67,6.19,19.38,9.2,29.11l-5.33-2.37l10.88-4.84l10.92-4.77
					c7.3-3.14,14.6-6.25,21.95-9.28c7.34-3.04,14.71-6.02,22.13-8.89c7.41-2.88,14.85-5.71,22.38-8.34
					c-6.91,3.99-13.92,7.76-20.94,11.49c-7.02,3.74-14.1,7.37-21.2,10.94c-7.09,3.58-14.23,7.08-21.38,10.55l-10.75,5.15
					l-10.78,5.07l-3.97,1.87l-1.36-4.24c-3.1-9.69-6.16-19.39-9.11-29.13c-2.98-9.73-5.82-19.5-8.62-29.29
					c-2.78-9.79-5.46-19.62-8.02-29.48C1589.09,694.74,1586.58,684.87,1584.45,674.87z"/>
			</g>
		</g>
		<g>
			<g class="st3">
				<path class="st0" d="M1466.09,848.9c7.87,12.45,15.4,25.09,22.91,37.74c3.71,6.35,7.46,12.67,11.14,19.04l10.99,19.12
					l10.83,19.21c3.61,6.4,7.21,12.81,10.75,19.25c7.13,12.86,14.15,25.77,21.14,38.7l-6.07-0.99l12.95-11.87l13.03-11.78
					l13.05-11.76l13.15-11.66c4.37-3.9,8.79-7.75,13.21-11.59c4.42-3.84,8.82-7.72,13.29-11.51c8.9-7.63,17.83-15.22,26.92-22.64
					c-8.06,8.53-16.28,16.88-24.54,25.2c-4.11,4.18-8.29,8.28-12.45,12.41c-4.16,4.13-8.32,8.25-12.53,12.33l-12.59,12.26
					l-12.69,12.15l-12.71,12.13l-12.79,12.05l-3.64,3.43l-2.43-4.42c-7.07-12.89-14.1-25.79-21.03-38.76
					c-3.49-6.47-6.92-12.97-10.33-19.48l-10.25-19.52l-10.1-19.61c-3.35-6.54-6.63-13.13-9.94-19.69
					C1478.8,875.45,1472.28,862.27,1466.09,848.9z"/>
			</g>
		</g>
	</g>
	<g>
		<path class="st2" d="M531.25,1384.37c-48.17-21.93-475.96-378.7-423.78-623.17s298.64,90.35,298.64,90.35
			s-132.75-307.07-71.16-410.69c61.59-103.62,267.99-0.16,332.11,395.81c64.12,395.97,38.84,550.59,38.84,550.59
			S630.36,1429.49,531.25,1384.37z"/>
		<g>
			<g class="st3">
				<path class="st0" d="M167.23,706.5c33.24,52.82,66.67,105.5,100.16,158.16l50.3,78.94l50.4,78.87l50.47,78.82l50.6,78.74
					l50.64,78.72l50.75,78.64l10.83,16.79l-3.8-19.63c-14.34-74.09-28.92-148.14-43.44-222.19l-21.91-111.06l-22.02-111.04
					l-22.19-111l-22.36-110.97c-15-73.96-30.01-147.92-45.4-221.81c13.53,74.25,27.43,148.43,41.36,222.6l21.02,111.23l21.2,111.2
					l21.36,111.17l21.47,111.14c14.4,74.08,28.74,148.17,43.32,222.21l7.04-2.84l-50.89-78.55l-51.01-78.48l-51.04-78.46
					l-51.17-78.37l-51.24-78.33l-51.34-78.26C236.08,810.6,201.76,758.49,167.23,706.5z"/>
			</g>
		</g>
		<g>
			<g class="st3">
				<path class="st0" d="M283.05,744.6c-1.49,10.62-2.71,21.25-3.9,31.88c-0.62,5.32-1.11,10.64-1.67,15.96
					c-0.56,5.32-1.08,10.64-1.57,15.97c-1,10.65-1.92,21.3-2.78,31.95c-0.86,10.66-1.66,21.32-2.39,31.98l4.83-3.54l-18.19-4.5
					c-6.06-1.49-12.14-2.95-18.22-4.39c-12.15-2.9-24.33-5.7-36.53-8.41c-6.1-1.36-12.2-2.69-18.31-4l-18.36-3.83
					c-12.26-2.46-24.52-4.92-36.87-7c11.9,3.91,23.9,7.44,35.9,10.96l18.03,5.15c6.02,1.68,12.04,3.35,18.07,4.98
					c12.06,3.27,24.14,6.46,36.24,9.55c6.05,1.55,12.1,3.09,18.17,4.59l18.19,4.48l4.54,1.12l0.29-4.65
					c0.67-10.67,1.27-21.34,1.81-32.02c0.55-10.68,1.02-21.36,1.43-32.04c0.21-5.34,0.39-10.69,0.53-16.03
					c0.14-5.35,0.35-10.69,0.43-16.04C282.95,766.02,283.14,755.32,283.05,744.6z"/>
			</g>
		</g>
		<g>
			<g class="st3">
				<path class="st0" d="M383.72,868.18c-1.42,13.52-2.5,27.05-3.6,40.59c-1.01,13.54-2,27.07-2.83,40.62
					c-0.92,13.54-1.58,27.09-2.35,40.64c-0.73,13.55-1.34,27.1-1.92,40.66l4.5-3.73l-20.55-2.99l-20.56-2.88l-20.58-2.75
					l-10.29-1.37l-10.31-1.28c-6.87-0.84-13.74-1.73-20.61-2.54l-20.64-2.38c-13.77-1.47-27.54-2.98-41.37-4.12
					c13.57,2.89,27.19,5.42,40.8,7.98l20.45,3.67c6.82,1.21,13.65,2.34,20.47,3.51l10.24,1.74l10.25,1.65l20.5,3.3l20.52,3.17
					l20.54,3.06l4.32,0.64l0.17-4.37c0.54-13.56,1.06-27.11,1.46-40.68c0.36-13.56,0.83-27.12,1.04-40.69
					c0.3-13.57,0.44-27.14,0.56-40.71C383.97,895.35,384.02,881.77,383.72,868.18z"/>
			</g>
		</g>
		<g>
			<g class="st3">
				<path class="st0" d="M476.15,462c-5.15,8.83-9.93,17.83-14.7,26.83c-4.73,9.02-9.36,18.09-13.88,27.21
					c-4.5,9.13-8.97,18.27-13.3,27.48c-4.36,9.19-8.62,18.43-12.84,27.69l5.59-1.67l-10.18-6.19l-10.22-6.12
					c-6.84-4.05-13.69-8.07-20.59-12.01c-6.89-3.95-13.82-7.85-20.82-11.64c-6.98-3.81-14-7.57-21.14-11.13
					c6.34,4.83,12.81,9.48,19.3,14.07c6.49,4.61,13.04,9.11,19.62,13.56c6.58,4.46,13.21,8.84,19.85,13.19l10,6.48l10.04,6.41
					l3.7,2.36l1.89-4.03c4.31-9.21,8.59-18.45,12.76-27.73c4.2-9.27,8.27-18.6,12.29-27.94c4.01-9.36,7.92-18.76,11.72-28.21
					C469.01,481.11,472.77,471.64,476.15,462z"/>
			</g>
		</g>
		<g>
			<g class="st3">
				<path class="st0" d="M571.3,649.73c-9.4,11.34-18.48,22.91-27.54,34.5c-4.49,5.82-9.02,11.61-13.48,17.46l-13.34,17.56
					l-13.2,17.67c-4.4,5.89-8.79,11.78-13.13,17.72c-8.71,11.84-17.33,23.75-25.91,35.68l6.15-0.21l-11.32-13.43l-11.42-13.35
					l-11.44-13.33l-11.55-13.24c-3.83-4.43-7.72-8.81-11.62-13.19c-3.9-4.38-7.76-8.78-11.71-13.11
					c-7.85-8.7-15.74-17.38-23.81-25.89c6.91,9.49,13.99,18.83,21.12,28.13c3.54,4.67,7.17,9.27,10.76,13.9
					c3.59,4.63,7.19,9.25,10.85,13.83l10.92,13.77l11.03,13.68l11.05,13.66l11.14,13.58l3.18,3.87l2.97-4.08
					c8.66-11.88,17.29-23.78,25.81-35.75c4.28-5.97,8.52-11.98,12.74-18l12.66-18.05l12.52-18.16c4.16-6.06,8.25-12.17,12.38-18.26
					C555.3,674.44,563.46,662.2,571.3,649.73z"/>
			</g>
		</g>
	</g>
	<path class="st4" d="M744.73,1643.7c0,0-357.55,89.51-374.94-10.88c-17.39-100.39,346.81-35.28,346.81-35.28
		s-443.49-88.26-404.19-249.61c39.3-161.35,401.41,202.31,401.41,202.31s-159.4-309.38-53.63-355.46s137.86,447.17,137.86,447.17
		L744.73,1643.7z"/>
	<g>
		<path class="st5" d="M555.1,1434.77c0,0,0.28-314.85-86.52-308.51c-86.8,6.34,42.45,294.74,42.45,294.74
			s-164.83-349.33-290.44-283.4c-125.61,65.93,250.66,290.88,250.66,290.88s-289.37-68.16-305.7,29.03s399.13,21.82,399.13,21.82
			L555.1,1434.77z"/>
		<g>
			<g>
				<g class="st3">
					<path class="st0" d="M241.5,1175.44c25.44,22.72,50.62,45.71,75.75,68.76c25.13,23.05,50.12,46.24,75.1,69.45
						c24.9,23.29,49.84,46.53,74.61,69.97l37.19,35.11l37.06,35.24l-6.36,3.51c-4.72-23.68-9.22-47.4-13.82-71.11l-3.43-17.78
						l-3.36-17.79l-6.72-35.59l-6.6-35.62l-3.28-17.81l-3.22-17.82c-4.31-23.76-8.51-47.54-12.56-71.36
						c5.4,23.54,10.66,47.12,15.8,70.71l3.87,17.69l3.81,17.71l7.58,35.42l7.46,35.44l3.73,17.72l3.66,17.74
						c4.86,23.65,9.81,47.28,14.54,70.96l2.34,11.72l-8.7-8.2l-37.21-35.08l-37.08-35.22c-24.75-23.45-49.32-47.09-73.93-70.68
						c-24.54-23.67-49.06-47.36-73.44-71.2C289.9,1223.49,265.57,1199.6,241.5,1175.44z"/>
				</g>
			</g>
			<g>
				<g class="st3">
					<path class="st0" d="M220.71,1448.66c25.9-1.62,51.79-2.46,77.69-3.03c25.89-0.57,51.79-0.86,77.68-0.85
						c25.89-0.01,51.79,0.31,77.68,0.89c25.89,0.58,51.79,1.45,77.68,3.1c-25.9,1.63-51.79,2.48-77.68,3.05
						c-25.9,0.56-51.79,0.87-77.68,0.84c-25.89,0-51.79-0.32-77.68-0.9C272.49,1451.16,246.6,1450.3,220.71,1448.66z"/>
				</g>
			</g>
		</g>
	</g>
	<ellipse class="st6" cx="985.15" cy="1120.53" rx="604.31" ry="558.4"/>
	<g>
		<path class="st0" d="M985.15,562.13c-7.69,2.41-15.28,5.12-22.83,7.92c-7.55,2.81-15.04,5.77-22.49,8.83
			c-14.91,6.08-29.63,12.64-44.17,19.56c-29.05,13.89-57.34,29.35-84.62,46.41c-54.57,34-105.32,74.44-148.52,121.95l-4.05,4.45
			l-3.94,4.54c-2.61,3.04-5.31,6.02-7.82,9.14l-7.63,9.3l-7.39,9.49c-9.7,12.77-18.9,25.9-27.48,39.43
			c-8.48,13.59-16.35,27.56-23.6,41.84c-7.14,14.34-13.54,29.02-19.34,43.94c-2.7,7.53-5.56,15.01-7.92,22.66l-1.86,5.71
			c-0.3,0.95-0.63,1.9-0.91,2.86l-0.83,2.88l-3.3,11.54c-1.06,3.86-1.95,7.76-2.94,11.64l-1.44,5.82c-0.45,1.95-0.83,3.91-1.25,5.87
			l-2.46,11.75l-2.04,11.83c-0.33,1.97-0.7,3.94-1,5.92l-0.8,5.95l-1.59,11.9l-1.18,11.95l-0.58,5.98l-0.37,5.99l-0.75,11.99
			l-0.33,12.01l-0.16,6c-0.08,2,0.01,4,0,6.01l0.11,12.01l0.03,3l0.12,3l0.25,6c0.19,4,0.27,8.01,0.55,12l0.89,11.98
			c0.16,2,0.28,4,0.47,5.99l0.65,5.97l1.29,11.94l1.69,11.89l0.85,5.95l1.03,5.92l2.09,11.83c6.22,31.41,14.98,62.35,26.78,92.14
			c2.8,7.5,6.11,14.8,9.22,22.18c3.4,7.25,6.65,14.58,10.34,21.69c3.5,7.21,7.43,14.19,11.22,21.25
			c4.04,6.92,7.96,13.91,12.26,20.67c2.11,3.41,4.19,6.83,6.44,10.15c2.22,3.34,4.39,6.71,6.64,10.02l6.89,9.85
			c1.13,1.66,2.34,3.26,3.53,4.87l3.57,4.84c9.6,12.84,19.62,25.38,30.25,37.41c10.61,12.04,21.67,23.69,33.13,34.93
			c11.44,11.27,23.4,22.01,35.6,32.45c24.46,20.84,50.31,40.06,77.24,57.66c26.89,17.67,54.84,33.73,83.61,48.2
			c14.38,7.25,28.98,14.04,43.77,20.42c7.39,3.2,14.83,6.29,22.33,9.24c7.5,2.93,15.05,5.77,22.7,8.3
			c-30.75-9.72-60.54-22.33-89.62-36.29c-29.06-14.03-57.36-29.68-84.65-46.98c-27.27-17.32-53.47-36.36-78.33-57.04
			c-24.9-20.64-48.25-43.17-69.86-67.28c-43.18-48.22-78.53-103.77-102.46-164.11l-2.24-5.66l-1.12-2.83l-1.03-2.86l-4.09-11.46
			c-0.71-1.9-1.29-3.84-1.92-5.77l-1.86-5.79l-1.86-5.79c-0.62-1.93-1.13-3.9-1.7-5.84l-3.33-11.7l-2.95-11.8l-1.46-5.91l-1.27-5.95
			l-2.52-11.9l-2.14-11.97l-1.06-5.99l-0.87-6.02l-1.74-12.04l-1.33-12.09l-0.66-6.04c-0.2-2.02-0.32-4.04-0.49-6.06l-0.93-12.13
			c-0.29-4.04-0.38-8.1-0.58-12.14l-0.26-6.07l-0.13-3.04l-0.03-3.04l-0.09-12.17c0.01-2.03-0.08-4.05,0.01-6.08l0.17-6.08
			l0.36-12.16l0.78-12.14l0.39-6.07l0.6-6.06l1.21-12.11l1.63-12.06l0.83-6.03c0.32-2,0.69-4,1.03-6l2.09-11.99l2.52-11.91
			c0.43-1.98,0.82-3.97,1.28-5.95l1.47-5.91c1-3.93,1.91-7.89,3-11.8l3.37-11.7l0.84-2.92c0.29-0.97,0.62-1.93,0.93-2.9l1.89-5.79
			c2.4-7.76,5.36-15.32,8.13-22.95c5.95-15.1,12.52-29.95,19.83-44.44c7.41-14.43,15.45-28.53,24.11-42.24
			c8.76-13.64,18.11-26.9,28.01-39.73l7.54-9.53l7.79-9.33c2.56-3.14,5.31-6.12,7.97-9.17l4.02-4.55l4.13-4.45l4.13-4.45l2.07-2.22
			l2.12-2.17l8.49-8.68l8.68-8.48c2.89-2.83,5.9-5.54,8.84-8.31c11.89-10.98,24.17-21.52,36.81-31.6
			c25.31-20.14,51.97-38.52,79.6-55.26c27.66-16.68,56.29-31.72,85.62-45.18C924.23,583.41,954.25,571.37,985.15,562.13z"/>
	</g>
	<g>
		<g>
			<path class="st0" d="M985.15,562.13c30.59,9.33,60.28,21.5,89.29,34.98c28.98,13.59,57.24,28.76,84.5,45.59
				c27.24,16.87,53.45,35.44,78.33,55.68c12.43,10.14,24.46,20.77,36.11,31.81c11.64,11.05,22.92,22.49,33.62,34.46
				c43.12,47.58,77.94,103.03,100.58,163.35l4.1,11.35c0.71,1.88,1.33,3.8,1.94,5.72l1.84,5.75l1.84,5.75
				c0.63,1.91,1.12,3.87,1.68,5.79l3.28,11.62l2.88,11.72c0.47,1.96,0.97,3.9,1.42,5.87l1.23,5.91c0.8,3.94,1.67,7.87,2.42,11.83
				l2.03,11.9c0.32,1.99,0.72,3.96,0.97,5.96l0.8,5.98c0.52,3.99,1.11,7.97,1.57,11.97l1.18,12.01c0.19,2,0.42,4,0.57,6.01
				l0.38,6.02l0.76,12.04l0.33,12.06l0.17,6.03c0.07,2.01,0,4.02,0,6.03l-0.09,12.06l-0.03,3.02l-0.13,3.01l-0.25,6.02
				c-0.19,4.01-0.29,8.04-0.56,12.04l-0.9,12.03l-0.46,6.01l-0.65,6l-1.3,11.99l-1.67,11.95l-0.84,5.97
				c-0.29,1.99-0.68,3.96-1.01,5.95l-2.08,11.88c-0.75,3.95-1.63,7.88-2.44,11.82l-1.24,5.9c-0.41,1.97-0.93,3.91-1.4,5.87
				l-2.86,11.72c-1.04,3.89-2.15,7.75-3.22,11.63l-1.62,5.81l-1.8,5.76c-1.22,3.83-2.39,7.68-3.64,11.5
				c-2.68,7.58-5.21,15.22-8.23,22.68c-23.18,60.05-57.52,115.57-99.76,163.93c-10.56,12.1-21.56,23.8-32.96,35.09
				c-11.44,11.25-23.28,22.09-35.49,32.5c-24.4,20.82-50.19,39.97-77.05,57.43c-26.88,17.44-54.79,33.25-83.5,47.39
				c-28.72,14.1-58.18,26.83-88.62,36.65c7.58-2.55,15.04-5.42,22.46-8.37c7.42-2.97,14.77-6.09,22.08-9.32
				c14.62-6.44,29.05-13.3,43.25-20.61c28.41-14.58,55.97-30.8,82.45-48.6c13.25-8.88,26.25-18.13,38.92-27.8
				c12.67-9.68,25.02-19.76,37.02-30.24c11.99-10.49,23.67-21.34,34.92-32.6c11.22-11.3,22.03-23,32.39-35.08
				c10.39-12.05,20.21-24.59,29.54-37.47c4.73-6.39,9.16-13,13.65-19.56l6.48-10.01l1.61-2.51l1.55-2.55l3.1-5.09l3.1-5.09
				l2.96-5.17c1.95-3.46,3.98-6.88,5.85-10.38l5.59-10.53c0.95-1.74,1.81-3.53,2.69-5.32l2.63-5.34l2.64-5.34l2.48-5.42
				c1.63-3.62,3.33-7.21,4.9-10.86l4.6-10.99l1.15-2.75l1.07-2.78l2.13-5.56c2.94-7.38,5.4-14.94,8.04-22.42
				c1.23-3.78,2.38-7.58,3.58-11.36l1.77-5.69l1.59-5.74c1.05-3.83,2.14-7.65,3.16-11.49l2.8-11.58c0.45-1.93,0.97-3.85,1.37-5.8
				l1.21-5.83c0.79-3.89,1.65-7.77,2.39-11.67l2.04-11.74c0.33-1.96,0.71-3.91,0.99-5.87l0.82-5.9l1.63-11.8l1.26-11.85l0.63-5.92
				l0.45-5.94l0.87-11.89c0.27-3.96,0.35-7.94,0.54-11.91l0.24-5.96l0.12-2.98l0.03-2.98l0.11-11.92c0-1.99,0.08-3.97,0.01-5.96
				l-0.15-5.95l-0.31-11.91l-0.73-11.89l-0.36-5.94c-0.14-1.98-0.37-3.95-0.55-5.93l-1.15-11.85c-0.44-3.94-1.02-7.87-1.53-11.81
				l-0.78-5.9c-0.24-1.97-0.64-3.92-0.95-5.88l-1.98-11.74c-0.73-3.9-1.58-7.78-2.37-11.67l-1.2-5.83
				c-0.43-1.94-0.93-3.86-1.39-5.79l-2.82-11.57l-3.22-11.46c-0.55-1.9-1.03-3.83-1.65-5.72l-1.81-5.67l-1.81-5.67
				c-0.59-1.89-1.19-3.79-1.88-5.65l-3.99-11.22c-0.64-1.88-1.4-3.71-2.12-5.56l-2.18-5.54l-2.18-5.54l-2.36-5.47
				c-1.6-3.63-3.12-7.3-4.78-10.91l-5.1-10.76c-7.03-14.24-14.59-28.23-22.9-41.77c-8.34-13.53-17.27-26.68-26.72-39.48
				c-9.51-12.74-19.58-25.07-30.1-37c-10.5-11.96-21.59-23.39-33.04-34.45c-11.46-11.05-23.33-21.69-35.54-31.92
				c-24.48-20.41-50.35-39.16-77.24-56.32c-26.87-17.2-54.79-32.79-83.48-46.82c-14.36-6.98-28.9-13.6-43.65-19.74
				c-7.37-3.09-14.78-6.07-22.25-8.91C1000.27,567.3,992.76,564.56,985.15,562.13z"/>
		</g>
	</g>
	<g>
		<path class="st0" d="M988.65,562.13c-4.93,3.9-9.53,8.2-14,12.61c-1.11,1.11-2.24,2.21-3.33,3.33l-3.25,3.41
			c-2.19,2.24-4.25,4.62-6.36,6.94c-8.37,9.36-16.2,19.18-23.68,29.26c-14.77,20.29-27.95,41.71-39.6,63.91
			c-11.7,22.18-21.93,45.12-30.88,68.53l-3.38,8.77l-3.11,8.87l-3.12,8.87l-1.56,4.43l-1.42,4.48l-5.65,17.93
			c-1.77,6.01-3.4,12.06-5.11,18.09c-0.83,3.02-1.73,6.02-2.5,9.06l-2.24,9.13l-2.24,9.13l-1.12,4.56l-0.56,2.28l-0.49,2.3
			l-3.93,18.38l-0.99,4.59l-0.49,2.3l-0.42,2.31l-1.68,9.25l-3.34,18.5l-2.79,18.6l-1.39,9.3c-0.25,1.55-0.44,3.1-0.62,4.66
			l-0.55,4.67l-2.21,18.67c-0.83,6.21-1.26,12.47-1.85,18.71l-1.69,18.73c-0.33,3.12-0.42,6.25-0.64,9.38l-0.57,9.39l-1.13,18.78
			l-1.17,37.61l-0.1,37.63c0.48,50.18,3.36,100.35,9.54,150.13l2.44,18.65c0.41,3.11,0.8,6.22,1.24,9.32l1.49,9.28l2.98,18.57
			c0.23,1.55,0.51,3.09,0.81,4.63l0.88,4.62l1.76,9.24c1.21,6.15,2.24,12.34,3.68,18.44l4.05,18.36c0.34,1.53,0.65,3.07,1.03,4.59
			l1.14,4.56l2.28,9.12c1.53,6.08,2.97,12.18,4.75,18.19l5.11,18.1l5.64,17.94c1.8,6.01,3.97,11.89,6.01,17.81l3.09,8.88
			c1.03,2.96,2.21,5.87,3.31,8.8c8.79,23.48,18.78,46.52,30.19,68.86c11.35,22.36,24.15,44.01,38.51,64.59
			c7.25,10.24,14.85,20.25,23,29.8c4.08,4.77,8.23,9.49,12.61,13.99c4.35,4.52,8.84,8.94,13.67,12.97
			c-4.94-3.89-9.56-8.19-14.05-12.6c-4.51-4.39-8.81-9-13.03-13.67c-8.39-9.4-16.21-19.29-23.71-29.41
			c-14.85-20.36-28.17-41.84-40.05-64.09c-11.84-22.27-22.22-45.31-31.43-68.8c-1.15-2.94-2.38-5.84-3.46-8.81l-3.22-8.9
			c-2.12-5.94-4.37-11.84-6.25-17.86l-5.87-17.99l-5.34-18.15c-1.86-6.03-3.37-12.15-4.98-18.25l-2.4-9.15l-1.2-4.58
			c-0.4-1.53-0.72-3.07-1.08-4.6c-2.79-12.3-5.75-24.57-8.03-36.97l-1.83-9.28l-0.91-4.64c-0.32-1.54-0.61-3.09-0.85-4.65
			l-3.12-18.66l-1.56-9.33c-0.47-3.12-0.87-6.24-1.31-9.37l-2.58-18.74c-6.41-50.04-9.36-100.47-9.96-150.88
			c-0.44-50.42,1.75-100.91,7.58-151.03l2.35-18.77l0.59-4.69c0.19-1.57,0.39-3.13,0.65-4.68l1.46-9.35l2.93-18.69l3.48-18.6
			l1.75-9.3l0.44-2.32l0.51-2.31l1.02-4.62l4.1-18.47l0.52-2.31l0.59-2.29l1.18-4.58l2.36-9.16l2.36-9.16
			c0.81-3.05,1.75-6.06,2.62-9.09c1.79-6.05,3.5-12.12,5.34-18.16l5.89-17.99l1.48-4.49l1.62-4.45l3.23-8.89l3.25-8.89l3.54-8.78
			c9.37-23.42,19.98-46.37,32.13-68.48c12.19-22.08,25.88-43.34,41.13-63.41c7.72-9.96,15.77-19.66,24.38-28.86
			c2.18-2.27,4.31-4.59,6.57-6.78l3.35-3.33c1.13-1.1,2.29-2.16,3.43-3.24C978.88,570.07,983.6,565.89,988.65,562.13z"/>
	</g>
	<g>
		<g>
			<path class="st0" d="M988.65,562.13c5.04,3.76,9.76,7.94,14.36,12.23c1.14,1.08,2.3,2.15,3.43,3.24l3.35,3.33
				c2.26,2.19,4.39,4.51,6.57,6.78c8.61,9.2,16.66,18.9,24.38,28.86c15.25,20.06,28.94,41.32,41.13,63.41
				c12.15,22.11,22.76,45.05,32.13,68.48l3.54,8.78l3.25,8.89l3.23,8.89l1.62,4.45l1.48,4.49l5.89,17.99
				c1.85,6.03,3.56,12.1,5.34,18.16c0.87,3.03,1.8,6.05,2.62,9.09l2.36,9.16l2.36,9.16l1.18,4.58l0.59,2.29l0.52,2.31l4.1,18.47
				l1.02,4.62l0.51,2.31l0.44,2.32l1.75,9.3l3.48,18.6l2.93,18.69l1.46,9.35c0.26,1.56,0.46,3.12,0.65,4.68l0.59,4.69l2.35,18.77
				c5.82,50.12,8.02,100.61,7.58,151.03c-0.6,50.41-3.54,100.84-9.96,150.88l-2.58,18.74c-0.44,3.12-0.84,6.25-1.31,9.37l-1.56,9.33
				l-3.12,18.66c-0.24,1.56-0.53,3.11-0.85,4.65l-0.91,4.64l-1.83,9.28c-2.28,12.41-5.24,24.67-8.03,36.97
				c-0.36,1.53-0.69,3.08-1.08,4.6l-1.2,4.58l-2.4,9.15c-1.61,6.1-3.12,12.22-4.98,18.25l-5.34,18.15l-5.87,17.99
				c-1.88,6.02-4.12,11.92-6.25,17.86l-3.22,8.9c-1.08,2.96-2.31,5.87-3.46,8.81c-9.21,23.48-19.58,46.52-31.43,68.8
				c-11.88,22.25-25.2,43.73-40.05,64.09c-7.5,10.13-15.32,20.01-23.71,29.41c-4.22,4.67-8.52,9.28-13.03,13.67
				c-4.49,4.41-9.1,8.71-14.05,12.6c4.83-4.03,9.31-8.44,13.67-12.97c4.37-4.51,8.53-9.22,12.61-13.99
				c8.15-9.56,15.75-19.56,23-29.8c14.36-20.59,27.16-42.23,38.51-64.59c11.41-22.34,21.4-45.38,30.19-68.86
				c1.1-2.94,2.28-5.84,3.3-8.8l3.09-8.88c2.04-5.92,4.21-11.81,6.01-17.81l5.64-17.94l5.11-18.1c1.78-6.01,3.22-12.11,4.75-18.19
				l2.28-9.12l1.14-4.56c0.38-1.52,0.68-3.06,1.03-4.59l4.05-18.36c1.44-6.1,2.47-12.29,3.68-18.44l1.76-9.24l0.88-4.62
				c0.31-1.54,0.58-3.08,0.81-4.63l2.98-18.57l1.49-9.28c0.44-3.1,0.82-6.21,1.24-9.32l2.44-18.65
				c6.18-49.78,9.05-99.95,9.54-150.13l-0.1-37.63l-1.17-37.61l-1.13-18.78l-0.57-9.39c-0.22-3.13-0.31-6.26-0.64-9.38l-1.69-18.73
				c-0.59-6.24-1.02-12.5-1.85-18.71l-2.22-18.67l-0.55-4.67c-0.18-1.56-0.37-3.11-0.62-4.66l-1.39-9.3l-2.79-18.6l-3.34-18.5
				l-1.68-9.25l-0.42-2.31l-0.49-2.3l-0.99-4.59l-3.93-18.38l-0.49-2.3l-0.56-2.28l-1.12-4.56l-2.24-9.13l-2.24-9.13
				c-0.77-3.04-1.67-6.04-2.5-9.06c-1.71-6.03-3.34-12.08-5.11-18.09l-5.65-17.93l-1.42-4.48l-1.56-4.43l-3.12-8.87l-3.11-8.87
				l-3.38-8.77c-8.95-23.41-19.18-46.35-30.88-68.53c-11.66-22.2-24.83-43.62-39.6-63.91c-7.48-10.08-15.31-19.9-23.68-29.26
				c-2.11-2.32-4.17-4.7-6.36-6.94l-3.25-3.41c-1.1-1.13-2.22-2.22-3.33-3.33C998.17,570.33,993.58,566.03,988.65,562.13z"/>
		</g>
	</g>
	<g>
		<path class="st0" d="M578.07,707.83c8.18-2.69,16.34-5.44,24.54-8.08l12.36-3.78c4.13-1.24,8.23-2.57,12.38-3.72
			c16.55-4.81,33.17-9.38,49.9-13.56c33.48-8.29,67.3-15.24,101.39-20.69c34.07-5.54,68.4-9.48,102.82-12.15
			c34.43-2.6,68.97-3.73,103.5-3.56c34.53,0.29,69.05,1.89,103.44,4.85c34.39,3.05,68.67,7.25,102.71,12.89
			c8.53,1.29,17,2.92,25.5,4.41c4.24,0.78,8.5,1.46,12.72,2.33l12.69,2.53c4.23,0.86,8.46,1.67,12.68,2.57l12.63,2.77l12.63,2.77
			l12.58,2.99c8.38,2.03,16.76,4.02,25.09,6.26l12.51,3.27l6.25,1.64l6.22,1.74l12.45,3.48c4.14,1.18,8.31,2.27,12.43,3.54
			l24.72,7.51l-25-6.49c-8.33-2.17-16.71-4.16-25.06-6.25l-6.27-1.55l-6.29-1.44l-12.58-2.88c-8.37-1.98-16.8-3.7-25.22-5.48
			l-12.62-2.69l-12.66-2.49l-12.66-2.49c-4.22-0.8-8.46-1.52-12.69-2.28c-8.47-1.5-16.92-3.08-25.41-4.4
			c-8.49-1.35-16.96-2.84-25.48-3.99c-17-2.52-34.05-4.71-51.12-6.72l-12.81-1.4c-4.27-0.46-8.54-0.96-12.82-1.31l-12.83-1.16
			c-4.28-0.38-8.55-0.81-12.84-1.09c-34.25-2.74-68.59-4.29-102.94-4.46c-34.35-0.3-68.71,0.8-102.98,3.16
			c-34.28,2.29-68.45,6.06-102.47,10.94c-34.01,4.97-67.85,11.16-101.43,18.63c-16.81,3.66-33.53,7.72-50.19,12.02
			c-8.34,2.14-16.61,4.5-24.93,6.73C594.62,703.06,586.36,705.47,578.07,707.83z"/>
	</g>
	<g>
		<g>
			<path class="st0" d="M578.07,1536c8.29,2.36,16.55,4.77,24.84,7.08c8.32,2.23,16.59,4.59,24.93,6.73
				c16.67,4.3,33.39,8.36,50.19,12.02c33.58,7.47,67.42,13.67,101.43,18.64c34.02,4.88,68.19,8.65,102.47,10.94
				c34.27,2.36,68.63,3.46,102.98,3.16c34.35-0.17,68.69-1.72,102.94-4.46c4.29-0.27,8.56-0.71,12.84-1.08l12.83-1.16
				c4.28-0.35,8.55-0.85,12.82-1.31l12.81-1.4c17.07-2,34.11-4.2,51.12-6.72c8.52-1.15,16.99-2.64,25.48-3.99
				c8.5-1.31,16.95-2.9,25.41-4.4c4.23-0.76,8.47-1.48,12.69-2.28l12.66-2.49l12.66-2.49l12.62-2.69c8.42-1.77,16.85-3.5,25.22-5.48
				l12.58-2.88l6.29-1.44l6.27-1.55c8.35-2.09,16.73-4.08,25.06-6.25l25-6.49l-24.72,7.51c-4.12,1.27-8.28,2.36-12.43,3.54
				l-12.45,3.48l-6.22,1.74l-6.25,1.64l-12.51,3.27c-8.33,2.24-16.71,4.22-25.09,6.26l-12.58,2.99l-12.63,2.77l-12.63,2.77
				c-4.22,0.9-8.45,1.71-12.68,2.57l-12.69,2.53c-4.22,0.87-8.48,1.55-12.72,2.34c-8.49,1.49-16.97,3.12-25.5,4.41
				c-34.04,5.64-68.33,9.84-102.71,12.89c-34.4,2.96-68.91,4.56-103.44,4.85c-34.53,0.17-69.07-0.96-103.5-3.56
				c-34.42-2.68-68.75-6.61-102.82-12.15c-34.08-5.45-67.91-12.4-101.39-20.69c-16.73-4.18-33.36-8.75-49.9-13.56
				c-4.15-1.15-8.25-2.48-12.38-3.72l-12.36-3.78C594.41,1541.44,586.25,1538.69,578.07,1536z"/>
		</g>
	</g>
	<g>
		<path class="st0" d="M427.73,904.5l34.56-5.39l34.58-5.26l69.35-9.27l69.54-7.8c23.22-2.22,46.46-4.25,69.7-6.38
			c23.26-1.74,46.54-3.37,69.82-4.99l69.91-3.59c23.32-0.81,46.65-1.42,69.97-2.14l70-0.79l70,0.7l69.97,2.05l69.91,3.53l69.82,4.95
			l69.7,6.38l69.54,7.84l69.34,9.36l34.57,5.34l34.54,5.47l-34.69-4.42l-34.67-4.55l-69.48-7.79l-69.58-6.68l-69.68-5.5l-69.76-4.27
			l-69.81-3.03l-69.85-1.84l-69.87-0.54l-69.87,0.63l-69.85,1.91l-69.81,3.09l-69.75,4.3l-69.68,5.5l-69.59,6.64l-69.5,7.71
			l-34.68,4.47L427.73,904.5z"/>
	</g>
	<g>
		<g>
			<path class="st0" d="M427.73,1339.88l34.7,4.35l34.68,4.47l69.5,7.71l69.59,6.64l69.68,5.5l69.75,4.3l69.81,3.09l69.85,1.92
				l69.87,0.63l69.87-0.54l69.85-1.84l69.81-3.03l69.76-4.27l69.68-5.5l69.58-6.68l69.48-7.79l34.67-4.55l34.69-4.42l-34.54,5.47
				l-34.57,5.34l-69.34,9.36l-69.54,7.84l-69.7,6.38l-69.82,4.95l-69.91,3.53l-69.97,2.05l-70,0.7l-70-0.79
				c-23.32-0.72-46.65-1.33-69.97-2.14l-69.91-3.59c-23.28-1.61-46.55-3.24-69.82-4.99c-23.23-2.13-46.48-4.16-69.7-6.38l-69.54-7.8
				l-69.35-9.27l-34.58-5.26L427.73,1339.88z"/>
		</g>
	</g>
	<g>
		<path class="st0" d="M381.27,1120.53l37.77-0.53l37.77-0.4l75.54-0.78c50.36-0.41,100.72-0.78,151.08-1.01
			c50.36-0.32,100.72-0.39,151.08-0.58l151.08-0.19l151.08,0.18c50.36,0.2,100.72,0.26,151.08,0.58l75.54,0.44l75.54,0.58
			l75.54,0.79l37.77,0.4l37.77,0.53l-37.77,0.53l-37.77,0.4l-75.54,0.79l-75.54,0.58l-75.54,0.44
			c-50.36,0.33-100.72,0.39-151.08,0.58l-151.08,0.18l-151.08-0.19c-50.36-0.19-100.72-0.26-151.08-0.58
			c-50.36-0.23-100.72-0.61-151.08-1.01l-75.54-0.78l-37.77-0.4L381.27,1120.53z"/>
	</g>
	<g>
		<g>
			<path class="st7" d="M526.01,813.13c1.6-6.61,3.32-13.2,5.21-19.74c1.92-6.53,4-13.02,6.28-19.44
				c4.61-12.83,10.04-25.39,16.55-37.41c6.51-12.02,14.2-23.46,23.29-33.78c4.54-5.16,9.45-10.02,14.74-14.44
				c5.29-4.43,10.93-8.48,16.94-11.91c11.99-6.95,25.41-11.5,39.21-13.27c13.81-1.82,27.9-0.79,41.42,2.28
				c13.54,3.1,26.51,8.27,38.72,14.72c12.21,6.48,23.7,14.22,34.44,22.85c21.51,17.26,40.09,37.87,56.19,60.1
				c16.11,22.26,29.74,46.24,41.09,71.22c11.32,25,20.3,51.03,27.09,77.6c6.77,26.58,11.37,53.72,13.58,81.05l-7.88-0.3
				c4.09-25.43,8.96-50.75,14.74-75.87c5.8-25.11,12.53-50.04,20.55-74.56c8.02-24.52,17.21-48.7,28.08-72.15
				c10.85-23.44,23.47-46.17,38.59-67.25c7.58-10.52,15.81-20.61,24.9-29.92c9.09-9.3,19.09-17.82,30.17-24.81
				c11.06-6.96,23.31-12.39,36.34-14.7c6.5-1.16,13.15-1.5,19.74-0.96c6.58,0.58,13.09,2.03,19.25,4.37
				c12.38,4.63,23.21,12.53,32.27,21.82c9.1,9.32,16.52,20.07,22.77,31.36c12.47,22.67,20.41,47.4,26.12,72.4
				c-3.22-12.43-7.02-24.71-11.61-36.67c-4.58-11.96-9.91-23.65-16.37-34.67c-6.47-10.99-13.99-21.41-23.03-30.3
				c-9.01-8.87-19.61-16.22-31.44-20.37c-5.89-2.09-12.06-3.34-18.27-3.8c-6.22-0.41-12.48,0.01-18.61,1.21
				c-12.28,2.37-23.88,7.72-34.4,14.59c-10.54,6.9-20.09,15.31-28.85,24.44c-8.74,9.17-16.68,19.13-23.99,29.53
				c-14.62,20.83-26.69,43.4-37.29,66.59c-10.57,23.23-19.5,47.21-27.27,71.55c-7.72,24.36-14.36,49.08-20.07,74.02
				c-5.68,24.95-10.46,50.1-14.47,75.39l-5.13,32.38l-2.75-32.67c-4.53-53.77-17.64-106.93-39.75-156.17
				c-11.01-24.62-24.22-48.29-39.86-70.23c-7.82-10.97-16.24-21.51-25.31-31.45c-9.07-9.94-18.74-19.33-29.12-27.85
				c-10.36-8.54-21.45-16.19-33.21-22.61c-11.75-6.4-24.22-11.5-37.18-14.68c-12.94-3.16-26.39-4.36-39.62-2.84
				c-13.22,1.48-26.13,5.61-37.8,12.11c-5.86,3.2-11.41,6.99-16.63,11.19c-5.24,4.19-10.12,8.83-14.67,13.79
				c-9.13,9.91-16.9,21.05-23.66,32.77c-6.74,11.74-12.46,24.08-17.37,36.74c-2.46,6.33-4.74,12.73-6.85,19.19
				C529.73,800.04,527.81,806.56,526.01,813.13z"/>
		</g>
	</g>
	<g>
		<g>
			<path class="st7" d="M1462.22,1289.61c2.19-11.26,4.06-22.58,5.59-33.94c1.55-11.35,2.74-22.75,3.56-34.17
				c0.83-11.42,1.23-22.86,1.29-34.29c0-11.43-0.37-22.87-1.27-34.25c-1.77-22.76-5.31-45.4-11.29-67.37
				c-2.97-10.99-6.59-21.78-10.81-32.32c-4.23-10.53-9.15-20.78-14.86-30.54c-5.71-9.75-12.21-19.04-19.62-27.48
				c-7.41-8.43-15.75-16.02-25.05-22.09c-9.26-6.05-19.58-10.52-30.33-12.17c-5.36-0.86-10.81-0.93-16.17-0.3
				c-5.34,0.69-10.59,2.09-15.54,4.26c-9.94,4.28-18.61,11.33-25.76,19.69c-7.17,8.38-12.95,18.03-17.65,28.17
				c-4.71,10.16-8.37,20.86-11.29,31.75c-2.94,10.9-5.09,22.04-6.75,33.26l-4,27.02l-3.82-27.05c-1.84-13.04-4.45-25.96-7.89-38.64
				c-3.42-12.68-7.71-25.13-12.95-37.15c-5.25-12.01-11.43-23.61-18.71-34.46c-3.64-5.42-7.54-10.66-11.71-15.66
				c-4.19-4.98-8.65-9.74-13.38-14.18c-9.5-8.84-20.11-16.48-31.74-22.02c-11.6-5.54-24.25-8.88-37.03-9.18
				c-12.77-0.34-25.56,2.44-37.17,7.89c-11.63,5.44-22.12,13.33-31.17,22.65c-9.1,9.3-16.79,20-23.42,31.32
				c-6.62,11.34-12.15,23.34-16.87,35.66c-9.45,24.66-15.71,50.56-20,76.73c-4.34,26.19-6.73,52.71-7.83,79.29
				c-0.57,13.29-0.81,26.6-0.77,39.91c0.01,13.31,0.31,26.63,0.84,39.95c-0.96-13.29-1.68-26.6-2.11-39.92
				c-0.4-13.33-0.51-26.67-0.29-40c0.47-26.68,2.29-53.37,6.12-79.85c3.88-26.45,9.74-52.74,18.93-78.02
				c4.65-12.61,10.14-24.96,16.82-36.72c6.68-11.74,14.51-22.94,23.94-32.82c9.36-9.9,20.4-18.46,32.89-24.39
				c12.45-5.96,26.36-9.11,40.25-8.84c13.89,0.21,27.6,3.75,40.06,9.59c12.49,5.83,23.81,13.86,33.81,23.16
				c4.99,4.66,9.68,9.63,14.07,14.83c4.37,5.22,8.45,10.67,12.25,16.3c7.6,11.26,14.02,23.25,19.47,35.64
				c5.44,12.39,9.88,25.2,13.43,38.22c3.53,13.03,6.15,26.29,8.01,39.64l-7.83-0.03c1.73-11.47,3.96-22.89,7.02-34.14
				c3.05-11.24,6.86-22.33,11.83-32.98c4.97-10.63,11.07-20.87,18.89-29.89c7.8-8.98,17.41-16.75,28.64-21.48
				c5.58-2.39,11.54-3.94,17.57-4.66c6.04-0.67,12.17-0.53,18.13,0.47c11.96,1.93,23.12,6.93,32.98,13.47
				c9.9,6.54,18.53,14.7,26.16,23.58c7.61,8.9,14.2,18.59,19.95,28.71c11.49,20.26,19.63,42.18,25.3,64.58
				c5.65,22.43,8.91,45.38,10.16,68.39c1.25,23.01,0.64,46.09-1.65,68.97c-1.14,11.44-2.62,22.84-4.53,34.17
				C1467.02,1267.16,1464.78,1278.43,1462.22,1289.61z"/>
		</g>
	</g>
	<g>
		<path class="st7" d="M440.88,1204.57c-7.74-46.35-8.18-94.17-0.49-140.88c1.93-11.67,4.33-23.28,7.34-34.74
			c3.03-11.46,6.58-22.79,10.71-33.92c4.13-11.13,8.94-22.03,14.38-32.62c5.46-10.58,11.59-20.85,18.56-30.58l2.64-3.63l2.78-3.53
			c1.81-2.38,3.8-4.64,5.75-6.92c0.49-0.57,0.97-1.15,1.47-1.7l1.54-1.65l3.08-3.29c1.04-1.08,2.15-2.11,3.22-3.17
			c1.09-1.04,2.12-2.14,3.28-3.11c8.94-8.07,18.9-15.32,30.23-20.15c0.71-0.3,1.39-0.64,2.11-0.91l2.17-0.78l2.17-0.78l1.09-0.39
			l1.12-0.31l4.47-1.22l4.57-0.86c6.13-0.96,12.41-1.11,18.59-0.33c6.18,0.87,12.18,2.71,17.8,5.27l4.14,2.07l3.94,2.41
			c1.34,0.76,2.55,1.7,3.78,2.61l1.85,1.36l0.92,0.68l0.87,0.74l3.45,2.99c0.59,0.48,1.13,1.01,1.66,1.56l1.6,1.61l1.6,1.61
			l0.8,0.81l0.74,0.85l2.96,3.42c1.02,1.12,1.9,2.33,2.81,3.53l2.72,3.59c1.69,2.47,3.36,4.96,4.95,7.49
			c6.24,10.2,11.31,20.99,15.57,32.03c4.16,11.08,7.58,22.4,10.44,33.82c2.91,11.42,4.99,23.01,6.9,34.6l-2.07-8.56l-1.03-4.28
			l-1.15-4.25c-0.77-2.83-1.49-5.67-2.28-8.49l-2.51-8.42c-3.48-11.18-7.32-22.24-11.94-32.94c-4.62-10.69-9.95-21.06-16.34-30.68
			c-6.37-9.61-13.92-18.4-22.8-25.41l-0.82-0.67l-0.87-0.6l-1.73-1.2c-1.16-0.8-2.29-1.64-3.53-2.3l-3.63-2.09l-3.79-1.76
			c-5.1-2.19-10.44-3.75-15.92-4.43c-5.49-0.59-11.04-0.37-16.49,0.57l-4.07,0.83l-4.01,1.17l-1,0.29l-0.98,0.37l-1.96,0.74
			l-1.96,0.74c-0.65,0.26-1.28,0.58-1.91,0.87c-5.14,2.22-10,5.15-14.69,8.29l-3.46,2.47c-1.16,0.81-2.23,1.76-3.35,2.63
			c-2.26,1.73-4.34,3.68-6.48,5.57c-8.42,7.72-15.82,16.58-22.55,25.92c-13.52,18.68-23.99,39.58-32.37,61.21
			c-4.21,10.82-7.87,21.87-11.02,33.07c-3.08,11.22-5.74,22.56-7.96,34C437.79,1110.62,436.42,1157.81,440.88,1204.57z"/>
	</g>
	<g>
		<g>
			<g>
				<path class="st8" d="M875.53,1007.51c0,9.74-7.89,17.63-17.63,17.63s-17.63-7.89-17.63-17.63c0-9.74,7.89-17.63,17.63-17.63
					S875.53,997.77,875.53,1007.51z"/>
				<path class="st9" d="M875.53,1007.51c0.04,4.62-1.8,9.22-5.02,12.61c-3.19,3.41-7.79,5.57-12.61,5.76
					c-2.4,0.1-4.85-0.27-7.15-1.12c-2.29-0.86-4.43-2.17-6.23-3.88c-1.78-1.71-3.26-3.78-4.24-6.08c-0.98-2.3-1.49-4.8-1.51-7.3
					c0.02-2.5,0.53-5,1.51-7.3c0.98-2.3,2.46-4.37,4.24-6.08c3.59-3.43,8.57-5.23,13.38-5c4.82,0.2,9.42,2.36,12.62,5.77
					C873.73,998.29,875.57,1002.89,875.53,1007.51z M875.53,1007.51c-0.02-2.31-0.5-4.61-1.4-6.73c-0.91-2.12-2.27-4.02-3.92-5.59
					c-3.32-3.15-7.89-4.79-12.32-4.56c-4.43,0.2-8.63,2.19-11.55,5.32c-2.94,3.12-4.61,7.32-4.58,11.55
					c-0.03,4.23,1.64,8.44,4.58,11.56c2.92,3.14,7.12,5.13,11.56,5.33c4.43,0.23,9-1.41,12.32-4.57c1.64-1.58,3.01-3.48,3.92-5.6
					C875.04,1012.12,875.51,1009.82,875.53,1007.51z"/>
			</g>
		</g>
		<g>
			<g>
				<path class="st8" d="M890.7,1073.92H825.1v-26.18c0-10.73,8.7-19.43,19.43-19.43h26.73c10.73,0,19.43,8.7,19.43,19.43V1073.92z"
					/>
				<path class="st9" d="M890.7,1073.92l-32.46,0.8c-5.48,0.13-10.99,0.24-16.52,0.31c-5.52,0.09-11.07,0.17-16.61,0.21l-1.31,0.01
					l-0.01-1.33l-0.12-17.51l-0.02-8.76c0.01-3.14,0.75-6.27,2.12-9.1c2.71-5.7,8.21-9.89,14.35-11.21
					c0.77-0.16,1.55-0.25,2.32-0.37c0.77-0.03,1.58-0.09,2.33-0.1l4.38,0.01l8.76,0.07l8.76,0.07l4.38,0.04
					c0.75,0.02,1.54,0.09,2.31,0.13c0.76,0.13,1.54,0.23,2.29,0.4c6.04,1.39,11.36,5.6,13.89,11.2c1.3,2.77,1.96,5.82,1.92,8.85
					l-0.24,8.89L890.7,1073.92z M890.7,1073.92l-0.5-17.64c-0.37-5.74,0.46-11.7-2.32-16.67c-2.51-4.98-7.37-8.6-12.74-9.69
					c-0.67-0.13-1.36-0.2-2.03-0.3c-0.69-0.02-1.35-0.06-2.07-0.06l-4.38,0.04l-8.76,0.07l-8.76,0.07l-4.38,0.01
					c-0.71,0.02-1.36,0.07-2.04,0.1c-0.67,0.11-1.34,0.19-2,0.33c-5.27,1.16-9.95,4.8-12.28,9.67c-1.19,2.41-1.84,5.09-1.87,7.8
					l-0.03,8.75l-0.12,17.51l-1.32-1.32c5.39,0.03,10.78,0.12,16.18,0.21c5.4,0.08,10.82,0.19,16.28,0.31L890.7,1073.92z"/>
			</g>
		</g>
	</g>
	<g>
		<g>
			<g>
				<path class="st8" d="M1260.33,714.54c0,9.74-7.89,17.63-17.63,17.63s-17.63-7.89-17.63-17.63c0-9.74,7.89-17.63,17.63-17.63
					S1260.33,704.8,1260.33,714.54z"/>
				<path class="st9" d="M1260.33,714.54c0.04,4.62-1.8,9.22-5.02,12.61c-3.19,3.41-7.79,5.57-12.62,5.76
					c-2.4,0.1-4.85-0.27-7.15-1.12c-2.29-0.86-4.43-2.17-6.23-3.88c-1.78-1.71-3.26-3.78-4.24-6.08c-0.98-2.3-1.49-4.8-1.51-7.3
					c0.02-2.5,0.53-5,1.51-7.3c0.98-2.3,2.46-4.37,4.24-6.08c3.59-3.43,8.57-5.23,13.38-5c4.82,0.2,9.42,2.36,12.62,5.77
					C1258.53,705.31,1260.37,709.91,1260.33,714.54z M1260.33,714.54c-0.02-2.31-0.5-4.61-1.4-6.73c-0.91-2.12-2.27-4.02-3.92-5.59
					c-3.32-3.15-7.9-4.79-12.32-4.56c-4.43,0.2-8.63,2.19-11.55,5.33c-2.94,3.12-4.61,7.32-4.58,11.55
					c-0.03,4.23,1.64,8.44,4.58,11.56c2.92,3.14,7.12,5.13,11.56,5.33c4.43,0.23,9-1.41,12.32-4.56c1.65-1.58,3.01-3.48,3.92-5.6
					C1259.84,719.14,1260.31,716.85,1260.33,714.54z"/>
			</g>
		</g>
		<g>
			<g>
				<path class="st8" d="M1275.5,780.95h-65.59v-26.18c0-10.73,8.7-19.43,19.43-19.43h26.73c10.73,0,19.43,8.7,19.43,19.43V780.95z"
					/>
				<path class="st9" d="M1275.5,780.95l-32.46,0.8c-5.48,0.13-10.99,0.23-16.52,0.31c-5.53,0.09-11.07,0.17-16.61,0.21l-1.31,0.01
					l-0.01-1.33l-0.12-17.51l-0.02-8.76c0.01-3.14,0.75-6.27,2.12-9.1c2.71-5.7,8.21-9.89,14.35-11.21
					c0.77-0.16,1.55-0.25,2.32-0.37c0.78-0.03,1.58-0.09,2.33-0.1l4.38,0.01l8.76,0.07l8.76,0.07l4.38,0.04
					c0.75,0.02,1.54,0.09,2.31,0.13c0.76,0.13,1.54,0.23,2.29,0.4c6.04,1.39,11.36,5.6,13.89,11.2c1.3,2.77,1.96,5.82,1.92,8.85
					l-0.24,8.89L1275.5,780.95z M1275.5,780.95l-0.5-17.64c-0.37-5.74,0.46-11.7-2.32-16.67c-2.51-4.98-7.37-8.6-12.74-9.69
					c-0.67-0.13-1.36-0.2-2.03-0.3c-0.69-0.02-1.35-0.06-2.07-0.06l-4.38,0.04l-8.76,0.07l-8.76,0.07l-4.38,0.01
					c-0.71,0.02-1.36,0.07-2.04,0.1c-0.67,0.11-1.34,0.19-2,0.33c-5.27,1.16-9.95,4.8-12.28,9.67c-1.19,2.41-1.84,5.09-1.87,7.8
					l-0.03,8.75l-0.12,17.51l-1.32-1.32c5.39,0.03,10.78,0.12,16.18,0.21c5.4,0.08,10.82,0.18,16.28,0.31L1275.5,780.95z"/>
			</g>
		</g>
	</g>
	<g>
		<g>
			<g>
				<path class="st8" d="M543.2,769.63c0,9.74-7.89,17.63-17.63,17.63s-17.63-7.89-17.63-17.63c0-9.74,7.89-17.63,17.63-17.63
					S543.2,759.89,543.2,769.63z"/>
				<path class="st9" d="M543.2,769.63c0.04,4.62-1.8,9.22-5.02,12.62c-3.19,3.41-7.79,5.57-12.61,5.76
					c-2.4,0.1-4.85-0.27-7.15-1.12c-2.29-0.86-4.43-2.17-6.23-3.88c-1.78-1.71-3.26-3.78-4.24-6.08c-0.98-2.3-1.49-4.8-1.51-7.3
					c0.02-2.5,0.53-5,1.51-7.3c0.98-2.3,2.46-4.37,4.24-6.08c3.59-3.43,8.57-5.23,13.38-5c4.82,0.2,9.42,2.36,12.62,5.77
					C541.4,760.41,543.24,765.01,543.2,769.63z M543.2,769.63c-0.02-2.31-0.5-4.61-1.4-6.72c-0.91-2.12-2.27-4.02-3.92-5.59
					c-3.32-3.15-7.89-4.79-12.32-4.56c-4.43,0.2-8.63,2.19-11.55,5.33c-2.94,3.12-4.61,7.32-4.58,11.55
					c-0.03,4.23,1.64,8.44,4.58,11.56c2.92,3.14,7.12,5.13,11.56,5.33c4.43,0.23,9-1.41,12.32-4.57c1.65-1.58,3.01-3.48,3.92-5.59
					C542.71,774.24,543.18,771.94,543.2,769.63z"/>
			</g>
		</g>
		<g>
			<g>
				<path class="st8" d="M558.37,836.05h-65.59v-26.18c0-10.73,8.7-19.43,19.43-19.43h26.73c10.73,0,19.43,8.7,19.43,19.43V836.05z"
					/>
				<path class="st9" d="M558.37,836.05l-32.46,0.8c-5.48,0.13-10.99,0.24-16.52,0.31c-5.52,0.09-11.07,0.17-16.61,0.21l-1.31,0.01
					l-0.01-1.33l-0.12-17.51l-0.02-8.76c0.01-3.14,0.75-6.28,2.12-9.1c2.71-5.7,8.21-9.89,14.35-11.21
					c0.77-0.16,1.55-0.25,2.32-0.37c0.78-0.04,1.58-0.09,2.33-0.1l4.38,0.01l8.76,0.07l8.76,0.07l4.38,0.04
					c0.75,0.02,1.54,0.09,2.31,0.13c0.76,0.13,1.53,0.23,2.29,0.4c6.04,1.39,11.36,5.6,13.89,11.2c1.3,2.77,1.96,5.82,1.92,8.85
					l-0.24,8.89L558.37,836.05z M558.37,836.05l-0.5-17.64c-0.37-5.74,0.46-11.7-2.32-16.67c-2.51-4.98-7.37-8.6-12.74-9.69
					c-0.67-0.13-1.36-0.2-2.03-0.3c-0.69-0.02-1.35-0.06-2.07-0.06l-4.38,0.04l-8.76,0.07l-8.76,0.07l-4.38,0.01
					c-0.71,0.02-1.36,0.07-2.04,0.1c-0.67,0.11-1.34,0.19-2,0.33c-5.27,1.16-9.95,4.8-12.28,9.67c-1.19,2.41-1.84,5.09-1.87,7.8
					l-0.03,8.75l-0.12,17.51l-1.32-1.32c5.39,0.03,10.78,0.12,16.18,0.21c5.4,0.08,10.82,0.19,16.28,0.31L558.37,836.05z"/>
			</g>
		</g>
	</g>
	<g>
		<g>
			<g>
				
					<ellipse transform="matrix(0.7071 -0.7071 0.7071 0.7071 -410.1029 1213.8478)" class="st8" cx="1260.19" cy="1101.96" rx="17.63" ry="17.63"/>
				<path class="st9" d="M1277.82,1101.96c0.04,4.62-1.8,9.22-5.02,12.61c-3.19,3.41-7.79,5.57-12.62,5.76
					c-2.4,0.1-4.85-0.27-7.15-1.12c-2.29-0.86-4.43-2.17-6.23-3.88c-1.78-1.71-3.26-3.78-4.24-6.08c-0.98-2.3-1.49-4.8-1.51-7.3
					c0.02-2.5,0.53-5,1.51-7.3c0.98-2.3,2.46-4.37,4.24-6.08c3.59-3.43,8.57-5.23,13.38-5c4.82,0.2,9.42,2.36,12.62,5.77
					C1276.02,1092.74,1277.86,1097.34,1277.82,1101.96z M1277.82,1101.96c-0.02-2.31-0.5-4.61-1.4-6.73
					c-0.91-2.12-2.27-4.02-3.92-5.59c-3.32-3.15-7.89-4.79-12.32-4.56c-4.43,0.2-8.63,2.19-11.55,5.33
					c-2.94,3.12-4.61,7.32-4.58,11.55c-0.03,4.23,1.64,8.44,4.58,11.56c2.92,3.14,7.12,5.13,11.56,5.33c4.43,0.23,9-1.41,12.32-4.57
					c1.65-1.58,3.01-3.48,3.92-5.59C1277.33,1106.57,1277.8,1104.27,1277.82,1101.96z"/>
			</g>
		</g>
		<g>
			<g>
				<path class="st8" d="M1292.99,1168.38h-65.59v-26.18c0-10.73,8.7-19.43,19.43-19.43h26.73c10.73,0,19.43,8.7,19.43,19.43
					V1168.38z"/>
				<path class="st9" d="M1292.99,1168.38l-32.46,0.8c-5.48,0.13-10.99,0.23-16.52,0.31c-5.53,0.09-11.07,0.17-16.61,0.21
					l-1.31,0.01l-0.01-1.33l-0.12-17.51l-0.02-8.76c0.01-3.14,0.74-6.27,2.12-9.1c2.71-5.7,8.21-9.89,14.35-11.21
					c0.77-0.16,1.55-0.25,2.32-0.37c0.78-0.04,1.58-0.09,2.33-0.1l4.38,0.01l8.76,0.07l8.76,0.07l4.38,0.04
					c0.75,0.02,1.54,0.09,2.31,0.13c0.76,0.13,1.53,0.23,2.29,0.4c6.04,1.39,11.36,5.6,13.89,11.2c1.3,2.77,1.96,5.82,1.92,8.85
					l-0.24,8.89L1292.99,1168.38z M1292.99,1168.38l-0.5-17.64c-0.37-5.74,0.46-11.7-2.32-16.67c-2.51-4.98-7.37-8.6-12.74-9.69
					c-0.67-0.13-1.36-0.2-2.03-0.3c-0.69-0.02-1.35-0.06-2.07-0.06l-4.38,0.04l-8.76,0.07l-8.76,0.07l-4.38,0.01
					c-0.71,0.02-1.36,0.07-2.04,0.1c-0.67,0.11-1.34,0.19-2,0.33c-5.27,1.16-9.95,4.8-12.28,9.67c-1.19,2.41-1.84,5.09-1.86,7.8
					l-0.03,8.75l-0.12,17.51l-1.32-1.32c5.39,0.03,10.78,0.12,16.19,0.21c5.4,0.08,10.82,0.19,16.28,0.31L1292.99,1168.38z"/>
			</g>
		</g>
	</g>
	<g>
		<g>
			<g>
				<path class="st8" d="M1492.09,1254.13c0,9.74-7.89,17.63-17.63,17.63c-9.74,0-17.63-7.89-17.63-17.63
					c0-9.74,7.89-17.63,17.63-17.63C1484.19,1236.5,1492.09,1244.4,1492.09,1254.13z"/>
				<path class="st9" d="M1492.09,1254.13c0.04,4.62-1.8,9.22-5.02,12.62c-3.19,3.41-7.79,5.57-12.62,5.76
					c-2.4,0.09-4.85-0.27-7.15-1.12c-2.29-0.86-4.43-2.17-6.23-3.88c-1.78-1.71-3.26-3.78-4.24-6.08c-0.98-2.3-1.49-4.8-1.51-7.3
					c0.02-2.5,0.53-5,1.51-7.3c0.98-2.3,2.46-4.37,4.24-6.08c3.59-3.43,8.57-5.23,13.38-5c4.82,0.2,9.42,2.36,12.62,5.77
					C1490.29,1244.91,1492.13,1249.51,1492.09,1254.13z M1492.09,1254.13c-0.02-2.31-0.5-4.61-1.4-6.72
					c-0.91-2.12-2.27-4.02-3.92-5.59c-3.32-3.15-7.89-4.79-12.32-4.56c-4.43,0.2-8.63,2.19-11.55,5.33
					c-2.94,3.12-4.61,7.32-4.58,11.55c-0.03,4.23,1.64,8.44,4.58,11.56c2.92,3.14,7.12,5.13,11.56,5.33c4.43,0.23,9-1.41,12.32-4.57
					c1.64-1.58,3.01-3.48,3.92-5.59C1491.59,1258.74,1492.07,1256.44,1492.09,1254.13z"/>
			</g>
		</g>
		<g>
			<g>
				<path class="st8" d="M1507.25,1320.55h-65.59v-26.17c0-10.73,8.7-19.43,19.43-19.43h26.73c10.73,0,19.43,8.7,19.43,19.43
					V1320.55z"/>
				<path class="st9" d="M1507.25,1320.55l-32.46,0.8c-5.48,0.13-10.99,0.24-16.52,0.31c-5.52,0.09-11.07,0.17-16.61,0.21
					l-1.31,0.01l-0.01-1.33l-0.12-17.51l-0.02-8.76c0.01-3.14,0.74-6.27,2.12-9.1c2.71-5.7,8.21-9.89,14.35-11.21
					c0.77-0.16,1.55-0.25,2.32-0.37c0.78-0.04,1.58-0.09,2.33-0.1l4.38,0.01l8.76,0.07l8.76,0.07l4.38,0.04
					c0.75,0.02,1.54,0.09,2.31,0.13c0.76,0.13,1.53,0.23,2.29,0.4c6.04,1.39,11.36,5.6,13.89,11.2c1.3,2.77,1.96,5.82,1.92,8.85
					l-0.24,8.89L1507.25,1320.55z M1507.25,1320.55l-0.5-17.64c-0.37-5.74,0.46-11.7-2.32-16.67c-2.51-4.98-7.37-8.6-12.74-9.69
					c-0.67-0.13-1.36-0.2-2.03-0.3c-0.69-0.02-1.35-0.06-2.07-0.06l-4.38,0.04l-8.76,0.07l-8.76,0.07l-4.38,0.01
					c-0.71,0.02-1.36,0.07-2.04,0.1c-0.67,0.11-1.34,0.19-2,0.33c-5.27,1.16-9.95,4.8-12.28,9.67c-1.19,2.41-1.84,5.09-1.87,7.8
					l-0.03,8.75l-0.12,17.51l-1.32-1.32c5.39,0.03,10.78,0.12,16.18,0.21c5.4,0.08,10.83,0.18,16.28,0.31L1507.25,1320.55z"/>
			</g>
		</g>
	</g>
	<g>
		<g>
			<g>
				<path class="st8" d="M440.01,1185.04c0,9.74-7.89,17.63-17.63,17.63c-9.74,0-17.63-7.89-17.63-17.63
					c0-9.74,7.89-17.63,17.63-17.63C432.11,1167.41,440.01,1175.31,440.01,1185.04z"/>
				<path class="st9" d="M440.01,1185.04c0.04,4.62-1.8,9.22-5.02,12.62c-3.19,3.41-7.79,5.57-12.61,5.76
					c-2.4,0.1-4.85-0.27-7.15-1.12c-2.29-0.86-4.43-2.17-6.23-3.88c-1.78-1.71-3.26-3.78-4.24-6.08c-0.98-2.3-1.49-4.8-1.51-7.3
					c0.02-2.5,0.53-5,1.51-7.3c0.98-2.3,2.46-4.37,4.24-6.08c3.59-3.43,8.57-5.23,13.38-5c4.82,0.2,9.42,2.36,12.62,5.77
					C438.21,1175.82,440.04,1180.42,440.01,1185.04z M440.01,1185.04c-0.02-2.31-0.5-4.61-1.4-6.73c-0.91-2.12-2.27-4.02-3.92-5.59
					c-3.32-3.15-7.9-4.79-12.32-4.56c-4.43,0.2-8.63,2.19-11.55,5.33c-2.94,3.12-4.61,7.32-4.58,11.55
					c-0.03,4.23,1.64,8.44,4.58,11.56c2.92,3.14,7.12,5.13,11.56,5.33c4.43,0.23,9-1.41,12.32-4.57c1.65-1.58,3.01-3.48,3.92-5.59
					C439.51,1189.65,439.98,1187.35,440.01,1185.04z"/>
			</g>
		</g>
		<g>
			<g>
				<path class="st8" d="M455.17,1251.46h-65.59v-26.18c0-10.73,8.7-19.43,19.43-19.43h26.73c10.73,0,19.43,8.7,19.43,19.43V1251.46
					z"/>
				<path class="st9" d="M455.17,1251.46l-32.46,0.8c-5.48,0.13-10.99,0.23-16.52,0.31c-5.52,0.09-11.07,0.17-16.61,0.21l-1.31,0.01
					l-0.01-1.33l-0.12-17.51l-0.02-8.76c0.01-3.14,0.75-6.27,2.12-9.1c2.71-5.7,8.21-9.89,14.35-11.21
					c0.77-0.16,1.55-0.25,2.32-0.37c0.78-0.04,1.58-0.09,2.33-0.1l4.38,0.01l8.76,0.07l8.76,0.07l4.38,0.04
					c0.75,0.02,1.54,0.09,2.31,0.14c0.76,0.13,1.53,0.23,2.29,0.4c6.04,1.39,11.36,5.6,13.89,11.2c1.3,2.77,1.96,5.82,1.92,8.85
					l-0.24,8.89L455.17,1251.46z M455.17,1251.46l-0.5-17.64c-0.37-5.74,0.46-11.7-2.32-16.67c-2.51-4.98-7.37-8.6-12.74-9.69
					c-0.67-0.13-1.36-0.2-2.03-0.3c-0.69-0.02-1.35-0.06-2.07-0.06l-4.38,0.04l-8.76,0.07l-8.76,0.07l-4.38,0.01
					c-0.71,0.02-1.36,0.07-2.04,0.1c-0.67,0.11-1.34,0.19-2,0.33c-5.27,1.16-9.95,4.8-12.28,9.67c-1.19,2.41-1.84,5.09-1.87,7.8
					l-0.03,8.75l-0.12,17.51l-1.32-1.32c5.39,0.03,10.78,0.12,16.18,0.21c5.4,0.08,10.82,0.19,16.28,0.31L455.17,1251.46z"/>
			</g>
		</g>
	</g>
	<path class="st10" d="M1289.26,738.79c0,0,19.8,28.9,45.25,44.33c27.46,16.65,36.64,57.45,27.11,85.93
		c-21.27,63.6-79.86,75.14-127.45,52.92c-47.6-22.23-35.82-120.71-32.04-140.78c3.78-20.07-3.8-47.3-3.8-47.3L1289.26,738.79z"/>
	<path class="st11" d="M1236.47,884.42c-47.6-22.22-38.12-83.17-34.34-103.24c3.78-20.07-3.8-47.3-3.8-47.3l32.9,5.93l25.77,10.18
		c0,0,7.1,19.93,36.78,42.69c29.68,22.77,45.23,41.28,47.59,69.73c2.34,28.22-21.85,52.47-68.86,58.47
		C1262.98,919.43,1245.69,888.73,1236.47,884.42z"/>
	<path class="st12" d="M1229.77,787.78c4.01,6.14,7.36,12.72,4.54,23.45l-10.59,8.32l10.59,34.04l42.36-19.67
		c0,0-21.18-15.13-23.45-29.5c-2.27-14.37-0.76-25.72-0.76-25.72L1229.77,787.78z"/>
	<path class="st13" d="M1263.75,822.44l-4.48,5.42c0,0-4.54-9.83-12.1-18.15c-4.49-4.94-8.97-6.94-11.88-7.76
		c-0.41-5.68-2.81-10.03-5.52-14.18l22.69-9.08c0,0-1.51,11.35,0.76,25.72C1254.21,810.73,1258.86,817.18,1263.75,822.44z"/>
	<path class="st10" d="M1203.12,765.33c0,0-20.53-31.91-10.67-59.7c9.86-27.79,43.65-27.3,43.65-27.3l-10.13,52.85
		c0,0-17.38-0.46-20.97,7.61C1201.42,746.86,1203.12,765.33,1203.12,765.33z"/>
	<path class="st12" d="M1209.7,711.11c-14.21,5.76-1.91,30.24-2.05,43.27c-0.13,13.04-0.27,26.07,9.01,32.81
		c9.28,6.74,41.31,1.66,42.29-21.82c0.98-23.48-16.36-59.58-16.36-59.58L1209.7,711.11z"/>
	<path class="st10" d="M1203.21,719.07c12.92,18.25,34.54,27.33,56.83,25.57l58.8,27.32c0,0-22.26-28-19.85-46.3
		c2.4-18.3-19.78-49.13-44.14-49.16C1200.97,676.42,1203.21,719.07,1203.21,719.07z"/>
	<path class="st14" d="M1259.22,1452.44c0,0,12.76,51.9,12.34,73.02c-0.95,48.38-12.32,112.5-6.44,121.49
		c5.89,8.99,1.28,19.2-13.66,23.85c-14.93,4.65-54.62,4.45-61.86,0.46s40.67-29.07,46.48-29.89c8.61-1.23-5.74-207.98-5.74-207.98
		l26.54,10.12L1259.22,1452.44z"/>
	<path class="st14" d="M1294.24,1439.9c0,0,20.71,46.89,20.56,98.84c-0.15,51.95-19.43,126.91-13.11,136.56
		c6.32,9.65,2.9,27.52-19.81,27.59c-16.79,0.05-53.5,2.79-61.27-1.49c-7.77-4.28,45.31-36,53.6-36.83
		c9.3-0.93-11.21-247.36-11.21-247.36l28.73,13.1L1294.24,1439.9z"/>
	<path class="st15" d="M1323.87,1012.93c0,0,38,43,35,122s-46.21,230-45.21,257s14.47,153.6,4.74,220.8
		c-9.74,67.2-18.74,65.2-35.74,64.2s-25-31-25-31s-27,13-36-5s-44.65-238.8-42-313c7-196,39-296,39-296L1323.87,1012.93z"/>
	<path class="st14" d="M1231.66,1131.93c0,0-12.46,176.38-0.23,261.19s26.23,252.81,26.23,252.81s-45-130-45-260
		S1231.66,1131.93,1231.66,1131.93z"/>
	<path class="st16" d="M1364.55,998.73c0.74-193.33-110.27-190.75-110.3-190.44c-0.43,4.07-3.83,32.78-14.88,32.09
		c-10.92-0.68-9.6-22.28-9.31-25.81c0.03-0.31-53.64,33.52-76.85,58.01c9.51,11.83,15.55,26.02,18.87,41.25
		c1.69,7.77,2.62,15.66,3.12,23.59c2.51-1.67,4.98-3.34,7.4-5.02c44.82,78.88,0.9,71.71,15.24,97.7
		c27.88,24.17,105.19-0.45,126.38-17.93l21.11,125.26c8.18,3.72,26.03,1.49,29-8.18C1374.33,1129.26,1364.2,1090.55,1364.55,998.73z
		"/>
	<path class="st17" d="M1245.17,843.93c0,0,22.31,84.77,20.08,96.67c-2.23,11.9-22.31,58-30.49,58c-8.18,0-20.08-40.15-17.85-62.46
		c2.23-22.31,20.82-92.21,20.82-92.21H1245.17z"/>
	<path class="st15" d="M1236.38,830.69c-3.3,0.37-5.64,3.43-5.09,6.71c0.67,4.02,4.61,13.68,9.94,14.5
		c5.17,0.79,6.21-9.37,7.93-14.34c1.38-4.01-1.94-8.07-6.15-7.61L1236.38,830.69z"/>
	<path class="st18" d="M1284.01,1031.35c17.17-5.47,32.05-12.61,39.84-18.89c-0.13-8.95-1.44-57.94-14.99-117.53
		c0,0,0.39,62.97-19.52,125.19C1288.06,1024.16,1286.25,1027.89,1284.01,1031.35z"/>
	<path class="st19" d="M935,948c-0.62-5.86,0.66-3,6-12c5.82-9.8,28.81-15.98,29.92-7.45c0.82,6.32,1.76,12.72,1.76,12.72
		l13.04,16.22c0,0,2.86,3.81-1.91,7.63c-4.77,3.82-22.78,7.99-38.32-4.33c-5.46-4.33-8.52-9.19-8.52-9.19
		C934.64,949.53,935.42,951.98,935,948z"/>
	<path class="st13" d="M1008,933.77c0,0-49.21-16.17-55.09,2.65c-2.53,8.09,16.42,3.18,16.42,3.18c4.09,6.75,7.39,17.85,16.23,22.42
		l22.45-7.59V933.77z"/>
	<path class="st18" d="M1006.87,931.93c-3.84,9.59-2.71,16.75-0.32,24.94c0.2,0.7,0.57,1.34,1.07,1.87
		c39.02,40.8,141.13,27.1,174.97-26.33c-28.72-48.47,31.72-107.22,34.11-109.31C1165.87,842.93,1102.52,947.74,1006.87,931.93z"/>
	<path class="st20" d="M1327.66,1174.52c0.86-5.86,3.32-18.25,11.61-24.06c5.81,0,9.96,6.64,6.64,13.27
		c-4.83,4.48-5.6,6.18-6.64,9.96L1327.66,1174.52z"/>
	<path class="st20" d="M1368.31,1162.9c5.52,1.47,9.13,4.44,11.61,8.3l11.61-1.66c-2.96-10.4-8.84-18.05-19.08-21.57L1368.31,1162.9
		z"/>
	<path class="st12" d="M1344.87,1134.93c0,0-11.51,14.15-8.41,17.55c3.09,3.4,7.67,2.96,7.67,2.96s-0.83,20.4,13.56,16.26
		c14.38-4.14,21.54-6.67,23.41-16.09c1.88-9.42-7.28-28.64-7.3-28.62C1365.72,1134.06,1356.52,1136.73,1344.87,1134.93z"/>
	<g>
		<path class="st11" d="M799.28,1421.85c0,0-15.91,64.72-15.39,91.04c1.19,60.32,15.37,140.27,8.02,151.48
			c-7.34,11.2-1.59,23.94,17.03,29.74c18.62,5.8,68.11,5.55,77.13,0.58c9.03-4.97-50.72-36.24-57.95-37.27
			c-10.74-1.53,7.16-259.32,7.16-259.32l-33.09,12.62L799.28,1421.85z"/>
		<path class="st11" d="M755.61,1406.22c0,0-25.82,58.47-25.63,123.24s24.23,158.24,16.34,170.27c-7.88,12.03-3.61,34.32,24.7,34.41
			c20.94,0.07,66.7,3.48,76.39-1.86c9.69-5.34-56.49-44.89-66.83-45.93c-11.59-1.16,13.98-308.43,13.98-308.43l-35.83,16.33
			L755.61,1406.22z"/>
		<path class="st21" d="M745.45,1032.21c0,0-36.17,50.64-33.07,132.28s19.63,211.85,18.6,239.75c-1.03,27.9-14.96,158.73-4.9,228.17
			c10.06,69.45,19.36,67.38,36.93,66.34c17.57-1.03,25.84-32.04,25.84-32.04s27.9,13.43,37.2-5.17
			c9.3-18.6,46.14-246.78,43.4-323.45c-7.23-202.55-40.3-305.89-40.3-305.89H745.45z"/>
		<g>
			<path class="st0" d="M776.92,1079.58c-3.08,6.63-6.18,13.2-9.79,19.45c-3.62,6.23-7.71,12.16-12.57,17.38
				c-4.81,5.26-10.4,9.77-16.56,13.4c-6.17,3.64-12.89,6.35-19.87,8.55c7.25-0.94,14.42-3.06,21.03-6.43
				c1.7-0.75,3.25-1.78,4.85-2.74c1.63-0.91,3.07-2.1,4.59-3.17c2.97-2.25,5.69-4.81,8.24-7.51c0.66-0.66,1.23-1.39,1.83-2.1
				l1.77-2.15c1.15-1.45,2.2-2.99,3.28-4.49c1.02-1.55,1.95-3.15,2.93-4.71c0.91-1.61,1.75-3.25,2.61-4.88
				C772.53,1093.57,775.05,1086.65,776.92,1079.58z"/>
		</g>
		<path class="st15" d="M829.33,755.69c0,0,20.88-91.96-53.33-113.24c-74.21-21.28-119.73,3.92-151.83,69.52
			c-33.31,68.06,5.93,167.36,94.05,148.19C831.96,835.41,829.33,755.69,829.33,755.69z"/>
		<path class="st22" d="M718.22,860.16c46.05-10.02,73.02-29.05,88.82-48.16l-9.31-28.93l-26.28-7.2c0,0-45.78,46.78-95.38,28.48
			c-29.24-10.79-50.73-31.88-63.46-47.39C609.23,816.08,648.36,875.35,718.22,860.16z"/>
		<path class="st19" d="M803.42,824.59l-1.02,30.85l36.92,33.66c-7.8,65.66-28.75,75.38-76.67-29.49c0,0,13.4-17.99,13.66-29.22
			c0.25-11.23-1.71-31.55-1.71-31.55L803.42,824.59z"/>
		<path class="st23" d="M782.42,842.43c8.85-3.62,15.94-3.17,20.45-1.45l0.54-16.4l-28.83-25.74c0,0,1.97,20.31,1.71,31.55
			c-0.25,11.23-13.66,29.22-13.66,29.22l2.55,0.7C768.44,855.93,775.83,845.13,782.42,842.43z"/>
		<path class="st19" d="M802.5,735.84c11.36,0.22,29.33,6.98,28.78,35.16c-0.55,28.18,7.13,28.33,4.29,42.37
			c-2.84,14.04-17.15,25.29-38.8,18.46c-21.65-6.83-36.52-32.75-34.94-48.1C763.42,768.39,776.88,735.34,802.5,735.84z"/>
		<path class="st19" d="M765.05,777.97c0,0-7.71-9.65-9.64-2.64c-1.92,7.01,9.67,14.53,9.67,14.53L765.05,777.97z"/>
		<path class="st19" d="M1021.25,858.41c-8.06,0.9-17.39,14.56-17.39,14.56l-0.08-0.25c-36.49,23.11-85.01,27.91-108.88,15.88
			l-5.31,27.17c36.44,2.56,62.42,4.74,112.08-23.19c0,0,5.09-0.75,9.55-1.49c2.08-0.35,15.86-11.06,13.72-14.81
			c-2.26-3.95-8.24,6.63-8.24,6.63s-1.89-1.74,1.21-7.73C1021.01,869.17,1029.31,857.51,1021.25,858.41z"/>
		<path class="st24" d="M981.95,883.9l5.49,16.17c-44.63,33.67-102.3,37.45-170.49,17.09l-10.65-56.6
			C856.66,886.98,916.62,891.54,981.95,883.9z"/>
		<path class="st25" d="M851.45,937.94C852.52,926.14,851,916,843,897c-6.61-15.7-40.52-41.49-40.52-41.49s2.87,20-3.62,25.55
			c-6.85,5.87-32.74-26.6-32.74-26.6C737.09,860.78,703,884,722,957c0,0,18.93-23.78,21.6-11.01c7.72,37.01,1.85,86.22,1.85,86.22
			c16.1,15.1,83.16,10.59,86.66,10.34C832.21,1042.55,850.37,949.75,851.45,937.94z"/>
		<path class="st16" d="M815.72,1135.55c0,0,12.88,182.27,0.24,269.91c-12.64,87.64-27.11,261.26-27.11,261.26
			s46.5-134.34,46.5-268.68C835.36,1263.69,815.72,1135.55,815.72,1135.55z"/>
	</g>
	<path class="st26" d="M1216.19,781.53l18.94-5.99c0,0,1.25,9.89-5.83,12.34C1222.22,790.33,1216.19,781.53,1216.19,781.53z"/>
	<path class="st26" d="M804.63,819.46l14.03,0.59c0,0-1.31,7.4-6.6,7.33C806.77,827.31,804.63,819.46,804.63,819.46z"/>
	<path class="st24" d="M832.14,1042.43c0.01-0.04,0.02-0.08,0.03-0.13c0.01-0.03,0.02-0.07,0.02-0.11c0.01-0.06,0.02-0.12,0.04-0.18
		c0.01-0.06,0.02-0.12,0.04-0.19c0.01-0.07,0.03-0.14,0.04-0.22c0.02-0.08,0.03-0.16,0.05-0.25c0.02-0.08,0.04-0.17,0.05-0.27
		c0.02-0.11,0.04-0.22,0.07-0.34c0.01-0.07,0.03-0.15,0.05-0.23c0.03-0.16,0.07-0.33,0.1-0.51c0.01-0.03,0.01-0.07,0.02-0.1
		c0.04-0.22,0.09-0.44,0.14-0.68c0-0.01,0-0.02,0.01-0.03c0.42-2.13,1.02-5.18,1.75-8.91c0.27-2.4,0.75-4.74,1.37-7.06
		c4.27-21.99,11-57.18,14.01-75.16c-46.82,4.85-87.8-21.94-110.98-47.09c1.77,3.31,2.64,7.15,2.39,10.92
		c-0.69,10.33-1.76,20.55-3.25,30.7h0c0.14-0.05,0.27-0.09,0.4-0.13c0.1-0.03,0.2-0.06,0.3-0.08c0.18-0.04,0.36-0.08,0.53-0.11
		c0.11-0.02,0.23-0.03,0.34-0.04c0.12-0.01,0.24-0.02,0.35-0.02c0.15,0,0.31,0.01,0.45,0.02c0.08,0.01,0.16,0.02,0.24,0.04
		c0.17,0.03,0.34,0.08,0.5,0.14c0.06,0.02,0.12,0.05,0.18,0.08c0.16,0.07,0.32,0.16,0.47,0.26c0.04,0.03,0.07,0.05,0.1,0.08
		c0.15,0.11,0.28,0.25,0.42,0.4c0.03,0.04,0.06,0.07,0.09,0.1c0.14,0.17,0.27,0.37,0.39,0.59c0.03,0.05,0.05,0.1,0.08,0.15
		c0.12,0.23,0.23,0.48,0.33,0.76c0.02,0.05,0.03,0.1,0.05,0.15c0.1,0.3,0.19,0.63,0.27,0.99c1.21,5.78,2.08,11.86,2.7,18.01
		c0.12,1.23,0.24,2.46,0.34,3.69c0.21,2.46,0.38,4.93,0.51,7.38c0.13,2.46,0.23,4.9,0.3,7.31c0.02,0.6,0.03,1.21,0.05,1.81
		c0.03,1.2,0.05,2.39,0.06,3.58c0.04,2.96,0.03,5.85,0,8.66c-0.01,1.12-0.03,2.23-0.06,3.32c-0.02,1.09-0.05,2.17-0.08,3.23
		c-0.06,2.12-0.14,4.16-0.23,6.12c-0.02,0.49-0.04,0.97-0.07,1.45c-0.05,0.96-0.1,1.89-0.15,2.8c-0.03,0.45-0.05,0.9-0.08,1.34
		c-0.05,0.88-0.11,1.74-0.16,2.57c-0.03,0.42-0.05,0.82-0.08,1.22c-0.58,8.43-1.21,13.72-1.21,13.72c1.51,1.42,3.47,2.66,5.78,3.75
		c1.16,0.55,2.4,1.05,3.72,1.52c1.76,0.63,3.66,1.19,5.66,1.7c5.51,1.39,11.85,2.35,18.41,3c1.19,0.12,2.4,0.22,3.6,0.32
		c1.21,0.1,2.42,0.18,3.63,0.26c1.21,0.08,2.42,0.15,3.63,0.21c0.6,0.03,1.21,0.06,1.81,0.09c1.21,0.05,2.41,0.1,3.6,0.14
		c3.58,0.12,7.09,0.17,10.44,0.17c1.12,0,2.21,0,3.29-0.01c0.54,0,1.07-0.01,1.6-0.01c1.58-0.02,3.1-0.04,4.56-0.07
		c9.25-0.2,15.89-0.65,16.93-0.72c0,0,0.01-0.02,0.02-0.06C832.14,1042.48,832.14,1042.45,832.14,1042.43z"/>
	<path class="st25" d="M730,875c-57,176,141.85,168.68,226,92c-6.42-6.22-13-23-15-31c-74.15,48.11-160.69,64.82-203-57L730,875z"/>
	<path class="st20" d="M1300.61,1179.36c2.84-7.02,116.26-11.96,120.91-6.64s20.59,92.34,15.28,95.66
		c-5.31,3.32-133.53,14.62-139.51,8.64C1291.31,1271.04,1291.9,1200.94,1300.61,1179.36z"/>
	<path class="st27" d="M1291.31,1224.54l144.16-6.64c0,0-6.64-43.18-13.95-47.17c-7.31-3.99-118.25-1.99-122.24,5.98
		C1295.29,1184.68,1291.31,1224.54,1291.31,1224.54z"/>
	<path class="st25" d="M1356.21,1217.78c0,0,3.46,19.88,10.37,19.02s8.64-19.88,8.64-19.88L1356.21,1217.78z"/>
	<path class="st28" d="M535.88,1542.16c8.04-36.57-74.01-63.23-87.01-10.23c0,10,13.34,0.69,18,10c-3-20,40-44,52.72-0.93
		L535.88,1542.16z"/>
	<path class="st28" d="M621.57,1550.3c-4.97-12.31-203.7-20.95-211.84-11.64c-8.15,9.31-36.08,161.79-26.77,167.61
		c9.31,5.82,233.96,25.61,244.43,15.13C637.87,1710.93,636.84,1588.11,621.57,1550.3z"/>
	<path class="st6" d="M637.87,1629.46l-252.58-11.64c0,0,11.64-75.66,24.44-82.64c12.8-6.98,207.19-3.49,214.17,10.48
		C630.89,1559.62,637.87,1629.46,637.87,1629.46z"/>
	<path class="st25" d="M500.16,1617.62c0,0-6.06,34.83-18.17,33.32c-12.12-1.51-15.15-34.83-15.15-34.83L500.16,1617.62z"/>
	<g>
		<polygon class="st21" points="740.18,287.56 750.99,403.7 917.62,403.7 930.18,285.7 		"/>
		<g>
			<circle class="st29" cx="834.18" cy="381.7" r="7.78"/>
			<g>
				<path class="st30" d="M860.38,368.8c-4.73-6.31-13.9-10.4-24.53-10.94c-10.74-0.54-20.98,2.68-26.09,8.22l-5.14-4.75
					c6.56-7.11,18.68-11.12,31.59-10.46c12.87,0.66,23.72,5.66,29.78,13.74L860.38,368.8z"/>
			</g>
			<g>
				<path class="st30" d="M872.38,355.46c-7.03-9.37-20.55-15.43-36.17-16.23c-16-0.82-30.74,3.87-38.46,12.22l-5.14-4.75
					c9.08-9.84,25.93-15.38,43.96-14.46c17.94,0.91,33.03,7.85,41.42,19.02L872.38,355.46z"/>
			</g>
			<g>
				<path class="st30" d="M887.38,339.78c-9.89-13.19-28.85-21.73-50.72-22.84c-22.4-1.14-43.05,5.46-53.91,17.22l-5.14-4.75
					c12.23-13.25,35-20.7,59.41-19.47c24.28,1.24,44.67,10.58,55.96,25.63L887.38,339.78z"/>
			</g>
		</g>
	</g>
	<g>
		<polygon class="st21" points="942.18,470.7 954.18,579.7 1137.18,579.7 1137.18,461.7 		"/>
		<g>
			<g>
				<path class="st30" d="M1045.56,564.53l-4.77-0.02c-1.56-2.06-38.13-50.7-26.17-74.81c4.28-8.63,13.89-13.01,28.55-13.01
					c14.98,0,24.75,4.43,29.05,13.18C1084.12,514.06,1047.14,562.48,1045.56,564.53z M1043.18,482.7c-12.19,0-19.99,3.25-23.18,9.67
					c-7.95,16.01,12.24,49.93,23.2,65.29c11.08-15.29,31.55-49.08,23.65-65.14C1063.64,486,1055.68,482.7,1043.18,482.7z"/>
			</g>
			<g>
				<path class="st30" d="M1043.18,515.2c-6.34,0-11.5-5.16-11.5-11.5s5.16-11.5,11.5-11.5c6.34,0,11.5,5.16,11.5,11.5
					S1049.52,515.2,1043.18,515.2z M1043.18,497.2c-3.58,0-6.5,2.92-6.5,6.5c0,3.58,2.92,6.5,6.5,6.5s6.5-2.92,6.5-6.5
					C1049.68,500.12,1046.76,497.2,1043.18,497.2z"/>
			</g>
		</g>
	</g>
</g>
</svg>
